<svg id="eZLEJQd7XYS1" xmlns="http://www.w3.org/2000/svg" xmlns:xlink="http://www.w3.org/1999/xlink" viewBox="20 -65 1160 710" shape-rendering="geometricPrecision" text-rendering="geometricPrecision"><defs><rect id="eZLEJQd7XYS2" width="50.212" height="50.212" rx="0" ry="0"/><rect id="eZLEJQd7XYS3" width="50.212" height="50.211" rx="0" ry="0"/><rect id="eZLEJQd7XYS4" width="62.793" height="62.793" rx="0" ry="0"/><rect id="eZLEJQd7XYS5" width="58.351" height="58.35" rx="0" ry="0"/><rect id="eZLEJQd7XYS6" width="54.526" height="54.529" rx="0" ry="0"/><rect id="eZLEJQd7XYS7" width="61.734" height="61.734" rx="0" ry="0"/><rect id="eZLEJQd7XYS8" width="63.248" height="63.249" rx="0" ry="0"/><rect id="eZLEJQd7XYS9" width="63.527" height="63.061" rx="0" ry="0"/><rect id="eZLEJQd7XYS10" width="63.542" height="63.543" rx="0" ry="0"/><rect id="eZLEJQd7XYS11" width="62.916" height="62.914" rx="0" ry="0"/><rect id="eZLEJQd7XYS12" width="50.873" height="50.872" rx="0" ry="0"/><rect id="eZLEJQd7XYS13" width="62.716" height="62.716" rx="0" ry="0"/><rect id="eZLEJQd7XYS14" width="62.523" height="62.523" rx="0" ry="0"/><rect id="eZLEJQd7XYS15" width="63.049" height="63.049" rx="0" ry="0"/></defs><g id="eZLEJQd7XYS16"><rect id="eZLEJQd7XYS17" width="1200" height="720" rx="0" ry="0" transform="matrix(1 0 0 1 0 -70)" fill="rgb(19,125,141)" stroke="none" stroke-width="1"/><path id="eZLEJQd7XYS18" d="M822.604,576.272C821.484,576.272,820.351,576.167,819.244,576.303C817.913,576.465,817.272,575.93,816.971,574.698C816.359,572.141,815.742,569.603,817.789,567.351C817.882,567.251,817.932,567.058,818.034,567.027C820.004,566.462,819.555,565.087,819.4,563.588C819.051,560.402,818.896,557.198,818.79,553.994C818.703,551.362,819.275,550.672,821.889,550.351C826.256,549.806,830.636,549.372,835.019,548.96C838.578,548.627,842.167,548.543,845.698,548.052C846.93,547.884,848.075,546.882,849.188,546.152C850.588,545.24,852.022,544.736,853.746,544.69C855.584,544.64,857.407,544.176,859.236,543.887C862.117,543.442,864.981,542.826,867.878,542.59C871.3,542.307,874.311,541.016,877.334,539.572C883.935,536.424,890.526,533.26,897.187,530.24C903.638,527.313,910.102,524.398,916.678,521.772C924.205,518.767,931.808,515.937,939.479,513.327C943.89,511.825,948.466,510.73,953.036,509.803C957.204,508.963,961.46,508.556,965.683,508.031C969.13,507.601,972.595,507.309,976.048,506.911C979.264,506.544,982.207,507.48,985.057,508.784C991.511,511.726,997.546,515.403,1003.415,519.35C1004.806,520.287,1006.218,521.195,1007.53,522.228C1008.843,523.254,1010.293,522.943,1011.689,522.793C1015.232,522.42,1018.766,521.944,1022.296,521.459C1024.632,521.132,1026.949,520.675,1029.286,520.364C1032.409,519.944,1035.548,519.638,1038.671,519.234C1043.442,518.612,1048.205,517.903,1052.98,517.321C1057.441,516.777,1061.918,516.373,1066.38,515.853C1069.83,515.452,1073.261,514.914,1076.708,514.531C1081.545,513.996,1086.395,513.567,1091.231,513.053C1094.69,512.686,1098.133,512.235,1101.586,511.862C1103.434,511.663,1105.284,511.545,1107.135,511.414C1112.834,511.028,1118.53,510.574,1124.235,510.307C1127.626,510.149,1128.353,511.16,1126.826,514.149C1125.502,516.734,1123.905,519.26,1122.023,521.468C1116.773,527.656,1110.386,532.579,1103.49,536.785C1096.709,540.916,1089.885,545.003,1082.873,548.729C1076.17,552.3,1069.239,555.46,1062.34,558.659C1057.344,560.973,1052.279,563.157,1047.159,565.173C1045.576,565.795,1043.71,565.758,1041.965,565.87C1038.113,566.125,1034.257,566.28,1030.402,566.473C1026.455,566.666,1022.507,566.834,1018.56,567.046C1013.872,567.307,1009.19,567.624,1004.502,567.873C1000.371,568.097,996.231,568.196,992.103,568.464C986.177,568.856,980.258,569.354,974.335,569.802C973.962,569.833,973.585,569.808,973.212,569.821C967.672,570.013,962.135,570.175,956.598,570.418C951.26,570.654,945.922,570.99,940.584,571.252C934.637,571.545,928.689,571.787,922.741,572.092C917.964,572.335,913.185,572.683,908.407,572.901C903.057,573.144,897.707,573.262,892.353,573.499C886.968,573.729,881.583,574.046,876.2,574.326C872.623,574.507,869.052,574.743,865.474,574.861C858.3,575.097,851.127,575.253,843.954,575.47C838.927,575.626,833.906,575.819,828.883,576.024C826.789,576.105,824.699,576.254,822.609,576.373C822.609,576.341,822.609,576.31,822.604,576.272" fill="rgb(19,136,155)" stroke="none" stroke-width="1"/><g id="eZLEJQd7XYS19"><path id="eZLEJQd7XYS20" d="M104.893,239.054C102.212,239.054,99.506,238.824,96.86,239.125C94.812,239.365,93.001,238.992,91.157,238.338C89.851,237.878,89.216,236.815,88.96,235.537C88.669,234.085,88.326,232.617,88.314,231.149C88.305,229.961,87.56,229.283,87.028,228.465C85.789,226.565,85.276,224.507,85.095,222.265C84.88,219.681,84.703,217.081,83.209,214.753C81.496,212.091,81.809,209.233,82.881,206.407C83.388,205.079,84.515,204.395,85.757,203.994C87.527,203.425,89.218,202.881,90.737,201.637C92.065,200.547,93.834,200.003,95.41,199.225C95.62,199.122,95.932,199.132,96.06,198.976C97.692,196.995,100.152,196.597,102.332,195.667C103.316,195.244,103.95,193.196,103.723,191.792C103.45,190.098,103.163,188.381,103.17,186.679C103.179,183.348,103.355,180.014,103.529,176.687C103.683,173.803,102.346,173.201,100.61,172.6C98.798,171.975,97.165,171.166,95.672,169.954C94.895,169.323,93.864,169.014,92.959,168.53C92.096,168.068,91.167,167.673,90.421,167.062C89.03,165.925,87.483,165.218,85.763,164.722C82.528,163.792,81.385,159.481,82.422,156.334C83.381,153.447,84.238,150.518,85.037,147.578C85.421,146.159,85.493,144.655,85.849,143.226C86.059,142.375,86.378,141.439,86.944,140.808C88.339,139.261,88.256,137.319,88.575,135.51C89.195,131.945,90.158,130.257,93.794,129.977C96.984,129.728,100.202,129.932,103.413,129.901C105.294,129.882,107.175,129.78,109.058,129.732C109.478,129.726,109.901,129.799,110.325,129.837C112.853,130.063,115.333,130.053,117.073,127.79C117.527,127.201,117.69,126.395,118.037,125.714C118.633,124.542,119.237,123.373,119.893,122.233C120.434,121.297,121.233,120.47,121.6,119.477C122.172,117.922,122.979,116.603,124.185,115.467C125.829,113.929,125.762,111.426,124.249,109.755C123.468,108.892,122.86,107.877,122.21,106.902C120.977,105.052,119.472,103.307,118.644,101.285C117.868,99.385,116.706,97.869,115.53,96.274C113.531,93.567,113.938,90.69,115.308,87.868C115.537,87.394,116.183,87.129,116.614,86.738C117.329,86.088,118.033,85.42,118.728,84.745C118.921,84.557,119.042,84.292,119.233,84.095C122.678,80.536,126.127,76.976,129.59,73.433C129.912,73.101,130.374,72.913,130.72,72.604C131.472,71.936,132.357,71.337,132.892,70.52C134.751,67.67,138.951,67.898,140.977,69.453C142.396,70.541,143.973,71.429,145.492,72.389C145.948,72.678,146.461,72.876,146.926,73.152C148.628,74.166,150.348,75.162,152.013,76.235C152.997,76.865,153.829,77.754,154.844,78.314C156.609,79.292,158.541,79.289,160.444,78.739C160.973,78.585,161.483,78.196,161.884,77.798C163.104,76.582,164.482,75.677,166.132,75.143C166.791,74.93,167.377,74.477,167.991,74.134C169.215,73.45,170.379,72.634,171.666,72.107C174.006,71.148,175.015,69.294,175.164,66.989C175.334,64.382,175.212,61.755,175.216,59.138C175.216,57.798,175.258,56.457,175.194,55.116C175.13,53.715,174.987,52.317,174.833,50.923C174.592,48.717,175.477,46.876,176.607,45.087C177.776,43.237,179.619,42.973,181.574,42.708C184.166,42.358,186.767,41.884,189.076,40.524C191.412,39.149,194.034,38.932,196.626,38.545C198.081,38.324,199.603,38.08,200.908,37.462C203.496,36.234,205.802,36.304,208.159,37.994C209.636,39.055,210.448,40.458,211.2,42.047C212.009,43.77,213.133,45.343,214.078,47.002C214.54,47.807,214.922,48.661,215.317,49.505C215.74,50.411,216.08,51.364,216.551,52.246C217.179,53.415,217.948,54.507,218.564,55.682C219.206,56.924,220.105,57.612,221.551,57.557C224.69,57.439,227.83,57.296,230.971,57.277C232.968,57.265,234.967,57.436,236.963,57.557C238.686,57.66,239.848,56.733,241.046,55.646C242.228,54.576,242.616,53.194,243.179,51.826C243.558,50.909,244.28,50.134,244.808,49.271C245.296,48.475,245.725,47.645,246.188,46.833C246.956,45.488,247.733,44.151,248.501,42.805C248.887,42.124,249.341,41.468,249.617,40.745C250.578,38.236,252.717,36.789,255.404,37.15C257.907,37.487,260.376,38.056,262.87,38.484C265.14,38.868,267.435,39.126,269.689,39.585C270.693,39.792,271.732,40.207,272.568,40.792C274.06,41.834,275.783,41.933,277.434,42.353C278.942,42.735,280.512,43.003,281.924,43.617C284.088,44.553,284.722,46.642,284.865,48.743C285.039,51.377,285.086,54.044,284.837,56.662C284.688,58.237,284.837,59.747,284.868,61.287C284.911,63.556,284.613,65.826,284.545,68.095C284.492,69.866,285.235,70.917,286.955,71.41C289.07,72.021,290.911,72.999,292.543,74.502C293.258,75.161,294.38,75.351,295.264,75.848C296.2,76.374,297.177,76.899,297.954,77.622C300.159,79.665,304.086,79.789,306.107,77.58C307.248,76.335,308.756,75.949,310.115,75.207C310.737,74.87,311.399,74.59,311.965,74.176C314.266,72.505,316.492,70.737,318.827,69.115C320.96,67.632,324.458,68.133,326.346,69.911C327.857,71.338,329.496,72.618,331.07,73.978C332.037,74.811,333.048,75.61,333.924,76.537C335.566,78.274,337.083,80.122,338.722,81.859C340.373,83.597,341.934,85.5,343.852,86.889C346.234,88.612,346.94,91.427,345.64,94.056C344.259,96.863,342.829,99.667,340.606,101.967C340.121,102.466,339.916,103.243,339.608,103.906C338.843,105.558,338.293,107.272,336.906,108.643C336.129,109.417,335.759,110.776,335.581,111.93C335.258,114.032,335.743,115.922,337.443,117.487C338.289,118.266,338.87,119.428,339.324,120.517C339.949,122.017,340.521,123.428,341.849,124.542C342.539,125.119,342.776,126.29,343.096,127.233C343.833,129.391,344.511,129.938,346.774,129.944C349.613,129.955,352.452,129.973,355.291,129.922C356.737,129.897,358.18,129.684,359.628,129.642C361.335,129.591,363.048,129.676,364.759,129.623C367.016,129.553,368.708,130.344,369.995,132.3C371.394,134.417,372.094,136.717,372.523,139.169C372.791,140.69,373.052,142.181,374.109,143.505C374.799,144.368,375.061,145.651,375.284,146.79C376.03,150.576,376.602,154.401,377.374,158.18C377.902,160.763,375.888,164.485,373.425,165.437C371.793,166.067,370.25,166.948,368.689,167.762C366.793,168.747,364.7,169.34,363.123,170.99C362.457,171.688,361.232,171.91,360.222,172.204C357.159,173.088,356.509,176.17,357.118,178.323C357.243,178.768,357.299,179.253,357.286,179.715C357.174,184.035,357.018,188.353,356.919,192.671C356.875,194.607,357.659,195.645,359.497,196.241C361.223,196.797,362.961,197.32,364.164,198.82C364.235,198.908,364.335,199.005,364.437,199.039C366.62,199.734,368.268,201.247,370.037,202.596C370.678,203.084,371.62,203.224,372.45,203.401C375.367,204.026,376.511,206.337,377.68,208.691C378.268,209.882,377.717,210.843,377.375,211.903C376.955,213.196,376.613,214.521,376.33,215.852C375.805,218.33,375.447,220.846,374.819,223.302C374.536,224.406,373.591,225.336,373.277,226.446C372.776,228.203,372.555,230.037,372.214,231.835C371.884,233.592,371.203,235.193,370.062,236.58C369.91,236.757,369.683,236.897,369.589,237.105C368.753,238.939,367.061,239.207,365.36,239.35C363.407,239.515,361.442,239.564,359.483,239.648C359.098,239.661,358.703,239.586,358.314,239.533C357.036,239.377,355.764,239.147,354.483,239.06C352.176,238.889,349.862,238.752,347.558,238.696C344.508,238.615,343.46,239.551,342.692,242.496C342.487,243.286,341.766,243.938,341.296,244.666C340.733,245.542,339.943,246.367,339.685,247.328C339.166,249.246,338.385,250.795,336.762,252.11C335.953,252.763,335.751,254.33,335.555,255.53C335.176,257.834,336.037,259.78,337.502,261.6C338.388,262.701,338.867,264.125,339.551,265.387C339.843,265.925,340.176,266.441,340.525,266.945C341.277,268.036,342.07,269.1,342.804,270.197C343.715,271.562,344.564,272.964,345.482,274.326C347.071,276.677,346.576,279.453,344.31,281.126C343.794,281.506,343.492,282.165,343.044,282.65C341.294,284.537,339.577,286.464,337.752,288.278C335.112,290.893,332.398,293.443,329.695,295.996C328.47,297.159,327.195,298.266,325.945,299.4C323.943,301.219,319.776,301.12,317.696,299.046C316.383,297.737,314.711,297.022,313.296,295.952C310.663,293.953,307.36,293.082,305.006,290.626C303.333,288.888,299.689,289.323,298.342,290.912C297.624,291.758,296.461,292.239,295.475,292.84C293.507,294.034,291.558,295.262,289.533,296.354C287.751,297.312,285.913,298.201,284.029,298.928C281.815,299.778,280.192,299.037,279.191,296.898C278.265,294.911,277.344,292.915,276.551,290.869C276.265,290.141,276.168,289.227,276.308,288.459C276.703,286.329,276.88,284.175,278.221,282.247C278.976,281.171,278.892,279.541,279.39,278.239C279.869,276.976,280.584,275.807,281.252,274.629C281.535,274.126,281.949,273.69,282.331,273.245C283.261,272.163,284.215,271.094,285.161,270.024C286.122,268.936,287.079,267.844,288.047,266.759C289.026,265.665,289.968,264.536,291.023,263.519C291.748,262.819,292.705,262.359,293.439,261.672C295.202,260.011,296.884,258.252,298.629,256.572C300.239,255.014,301.909,253.522,303.514,251.961C304.127,251.358,304.605,250.627,305.178,249.983C305.713,249.377,306.303,248.823,306.848,248.23C307.398,247.62,307.955,247.017,308.446,246.364C309.665,244.738,310.949,243.156,312.012,241.429C312.886,240.014,313.446,238.491,314.829,237.331C315.715,236.585,315.899,235.042,316.515,233.926C316.997,233.037,317.678,232.262,318.219,231.407C318.695,230.648,319.223,229.892,319.512,229.059C320.187,227.112,320.713,225.163,322.134,223.499C322.855,222.666,323.005,221.27,323.232,220.094C323.596,218.21,324.37,216.552,325.437,214.973C325.878,214.314,326.217,213.515,326.354,212.734C326.706,210.737,326.842,208.704,327.212,206.708C327.548,204.876,327.816,202.961,328.58,201.298C329.535,199.229,329.883,197.132,329.945,194.926C330.079,190.366,330.312,185.811,330.318,181.251C330.324,177.283,330.156,173.313,329.892,169.353C329.796,167.944,329.389,166.48,328.776,165.207C327.557,162.679,327.069,160.027,326.826,157.275C326.693,155.804,326.512,154.315,326.127,152.894C325.891,152.028,325.101,151.329,324.78,150.469C324.118,148.686,323.511,146.871,323.064,145.028C322.747,143.722,322.314,142.665,321.388,141.579C320.412,140.443,320.026,138.751,319.569,137.246C319.227,136.111,318.701,135.262,317.806,134.443C317.023,133.727,316.432,132.638,316.112,131.6C315.587,129.894,314.703,128.496,313.475,127.233C312.953,126.69,312.682,125.911,312.244,125.277C311.836,124.688,311.379,124.125,310.904,123.587C310.515,123.147,310.011,122.8,309.651,122.341C307.742,119.911,305.932,117.399,303.939,115.04C302.885,113.791,301.495,112.832,300.329,111.674C299.3,110.653,298.42,109.477,297.375,108.475C296.591,107.723,295.643,107.15,294.775,106.485C293.254,105.322,291.731,104.167,290.232,102.979C289.05,102.043,287.981,100.944,286.722,100.135C285.12,99.107,283.13,98.572,281.762,97.33C279.695,95.455,276.88,95.17,274.794,93.547C273.016,92.162,270.998,91.597,268.908,91.047C268.05,90.821,267.155,90.439,266.48,89.878C265.037,88.681,263.29,88.424,261.589,88.051C259.067,87.504,256.576,87.064,254.322,85.572C253.262,84.867,251.719,84.804,250.373,84.631C248.551,84.4,246.704,84.33,244.866,84.208C241.194,83.966,237.521,83.695,233.843,83.53C232.767,83.479,231.673,83.822,230.588,83.819C229.381,83.813,228.175,83.497,226.972,83.521C223.954,83.582,220.932,83.68,217.923,83.908C214.567,84.163,211.221,84.549,207.881,84.956C207.168,85.043,206.439,85.387,205.81,85.765C203.646,87.083,201.216,87.533,198.797,88.007C196.54,88.453,194.319,88.772,192.359,90.303C191.196,91.211,189.442,91.334,187.981,91.892C187.149,92.207,186.375,92.685,185.576,93.089C183.701,94.044,181.753,94.879,179.967,95.979C177.409,97.559,174.973,99.33,172.493,101.022C171.621,101.618,170.733,102.197,169.901,102.847C167.777,104.509,165.666,106.187,163.588,107.903C162.437,108.848,161.301,109.823,160.257,110.883C158.098,113.08,155.992,115.331,153.899,117.589C153.449,118.069,153.154,118.697,152.732,119.211C152.146,119.926,151.475,120.573,150.902,121.296C150.222,122.15,149.605,123.051,148.976,123.942C148.217,125.008,147.469,126.078,146.731,127.154C145.944,128.305,145.288,129.566,144.371,130.599C142.879,132.291,141.998,134.242,141.315,136.344C141.127,136.927,140.773,137.477,140.4,137.975C139.041,139.802,138.321,141.877,137.713,144.049C137.385,145.227,136.821,146.406,136.101,147.396C135.31,148.487,134.934,149.663,134.682,150.927C134.309,152.799,134.004,154.686,133.574,156.543C133.339,157.563,132.874,158.524,132.568,159.526C132.088,161.129,131.368,162.721,131.246,164.357C130.861,169.48,130.718,174.626,130.463,179.761C130.393,181.207,130.168,182.656,130.186,184.099C130.225,187.12,130.298,190.148,130.501,193.16C130.756,196.832,131.087,200.503,131.543,204.154C131.683,205.282,132.402,206.327,132.752,207.441C133.305,209.179,133.809,210.942,134.268,212.708C134.742,214.552,135.052,216.439,135.624,218.252C135.87,219.023,136.784,219.567,137.088,220.335C137.665,221.774,137.999,223.314,138.486,224.794C138.713,225.484,138.884,226.342,139.384,226.772C140.794,227.979,141.247,229.623,141.867,231.237C142.221,232.154,142.622,233.193,143.325,233.812C144.628,234.953,144.898,236.601,145.8,237.916C147.389,240.236,149.057,242.499,150.716,244.772C151.358,245.652,152.014,246.535,152.746,247.343C153.317,247.971,154.068,248.435,154.644,249.063C156.105,250.646,157.491,252.297,158.958,253.874C160.188,255.195,161.477,256.458,162.766,257.717C163.439,258.376,164.168,258.979,164.862,259.613C166.397,261.015,167.979,262.378,169.444,263.855C171.342,265.767,173.138,267.776,174.995,269.729C175.822,270.597,176.755,271.374,177.526,272.291C178.036,272.907,178.535,273.65,178.695,274.409C179.13,276.498,180.487,278.029,181.537,279.76C182.038,280.587,182.344,281.616,182.436,282.59C182.725,285.591,183.073,288.612,183.003,291.62C182.955,293.606,182.333,295.606,181.779,297.546C181.071,300.015,177.869,300.419,176.17,299.617C175.226,299.173,174.424,298.432,173.497,297.944C172.256,297.288,170.951,296.75,169.677,296.15C169.182,295.917,168.687,295.689,168.231,295.391C167.186,294.709,166.158,294.007,165.142,293.28C164.127,292.558,163.073,291.868,162.149,291.032C161.313,290.279,160.439,289.813,159.296,289.872C158.472,289.912,157.612,289.772,156.825,289.953C155.941,290.161,155.087,290.575,154.291,291.016C153.683,291.358,153.228,291.952,152.635,292.322C149.81,294.085,146.96,295.804,144.134,297.558C143.7,297.826,143.299,298.146,142.917,298.482C141.488,299.759,139.745,300.3,137.903,300.568C136.005,300.845,134.473,300.192,133.158,298.784C131.614,297.12,130.034,295.478,128.325,293.992C125.815,291.806,123.193,289.806,121.282,286.971C120.033,285.115,118.273,283.585,116.675,281.984C115.576,280.889,114.564,279.814,114.309,278.178C114.038,276.434,113.695,274.72,114.923,273.187C115.111,272.948,115.354,272.749,115.582,272.543C116.678,271.561,117.788,270.696,118.241,269.095C118.611,267.798,119.636,266.698,120.33,265.488C120.966,264.378,121.622,263.265,122.135,262.092C122.575,261.091,122.931,260.161,123.909,259.44C125.956,257.929,125.863,255.012,123.97,253.283C123.333,252.704,122.913,251.871,122.454,251.122C121.919,250.254,121.625,249.157,120.916,248.497C119.027,246.74,118.043,244.601,117.735,242.122C117.604,241.074,116.979,240.412,116.149,240.098C114.888,239.622,113.543,239.348,112.219,239.065C111.692,238.953,111.121,239.044,110.568,239.044L104.89,239.044L104.89,239.054Z" fill="rgb(19,136,155)" stroke="none" stroke-width="1"/><path id="eZLEJQd7XYS21" d="M323.867,182.932C323.957,186.13,323.158,189.139,322.387,192.185C321.893,194.133,321.896,196.2,321.61,198.21C321.184,201.178,320.774,204.154,320.192,207.095C319.993,208.096,319.2,208.961,318.839,209.946C318.307,211.402,317.816,212.884,317.493,214.39C317.089,216.259,316.492,217.969,315.257,219.495C314.638,220.257,314.464,221.358,314.026,222.278C313.423,223.534,312.764,224.769,312.13,226.015C311.321,227.607,310.553,229.224,309.689,230.788C309.219,231.631,308.582,232.387,308.028,233.185C307.21,234.357,306.542,235.676,305.553,236.674C304.157,238.092,302.96,239.578,302.133,241.394C301.922,241.851,301.356,242.146,300.954,242.517C300.407,243.024,299.707,243.44,299.35,244.059C297.911,246.55,295.765,248.288,293.474,249.908C292.998,250.244,292.628,250.723,292.196,251.127C290.253,252.937,288.297,254.725,286.369,256.55C285.607,257.268,284.914,258.051,284.18,258.804C283.751,259.239,283.368,259.764,282.859,260.073C281.718,260.757,281.046,261.749,280.48,262.912C280.057,263.783,279.569,264.703,278.876,265.344C277.343,266.771,277.178,268.699,276.615,270.506C276.198,271.843,275.567,273.118,275.067,274.433C274.93,274.79,274.853,275.195,274.853,275.578C274.844,278.756,274.753,281.884,273.97,285.034C273.383,287.388,273.672,289.953,273.529,292.419C273.407,294.562,272.602,296.34,270.777,297.618C270.046,298.125,269.384,298.784,268.824,299.486C267.885,300.662,268.062,301.526,269.315,302.39C270.024,302.875,270.761,303.329,271.51,303.755C272.825,304.504,273.26,305.91,273.416,307.135C273.646,308.954,274.028,310.926,272.915,312.655C272.589,313.152,272.128,313.622,271.622,313.929C270.586,314.551,269.47,315.049,268.397,315.612C267.837,315.907,267.679,317.039,268.245,317.587C269.138,318.454,270.052,319.368,271.118,319.978C272.806,320.952,273.329,322.512,273.488,324.195C273.6,325.372,273.429,326.637,273.068,327.764C272.807,328.588,272.067,329.276,271.473,329.963C271.175,330.311,270.696,330.492,270.341,330.799C267.981,332.82,267.897,333.303,269.281,336.076C270.015,337.547,270.273,338.955,269.122,340.43C267.589,342.395,266.202,344.387,263.951,345.741C262.138,346.833,260.422,348.036,258.426,348.802C257.639,349.109,257.027,349.865,256.24,350.167C254.495,350.829,252.723,351.63,250.904,351.823C247.089,352.237,243.892,353.571,241.411,356.577C239.934,358.366,237.748,358.929,235.624,359.516C233.929,359.989,232.238,360.51,230.506,360.768C229.598,360.903,228.609,360.545,227.664,360.368C226.243,360.1,224.811,359.874,223.426,359.485C222.627,359.258,221.819,358.854,221.172,358.337C218.933,356.562,216.778,354.679,214.555,352.88C214.179,352.575,213.635,352.421,213.145,352.331C212.145,352.147,211.125,351.927,210.12,351.944C207.683,351.985,205.529,351.423,203.52,349.938C202.39,349.098,200.917,348.717,199.601,348.135C199.383,348.045,199.143,348.01,198.933,347.916C198.037,347.506,196.777,347.127,196.916,346.045C197.041,345.078,197.936,344.221,198.483,343.313C198.687,342.973,199.046,342.604,199.011,342.284C198.975,341.991,198.55,341.618,198.219,341.507C197.6,341.302,196.931,341.204,196.277,341.155C194.755,341.034,193.213,341.065,191.708,340.856C188.834,340.461,187.865,338.245,187.342,335.819C187.096,334.702,187.259,333.505,187.249,332.339C187.224,329.628,189.138,328.556,191.262,327.726C192.635,327.191,193.07,325.722,191.97,324.716C191.171,323.978,190.23,323.356,189.263,322.867C188.425,322.444,187.875,321.891,187.559,321.039C186.796,318.969,186.918,314.304,188.578,313.271C189.641,312.606,190.722,311.968,191.795,311.325C192.403,310.961,193.056,310.666,193.603,310.23C193.897,309.997,194.189,309.502,194.141,309.182C194.095,308.853,193.667,308.492,193.32,308.324C192.874,308.113,192.339,307.988,191.843,307.982C189.407,307.961,187.885,306.086,187.338,303.89C186.628,301.051,186.816,298.47,189.197,296.343C190.413,295.255,190.404,294.051,189.468,292.655C187.111,289.163,185.978,285.164,184.963,281.159C184.517,279.402,184.717,277.499,184.51,275.671C184.239,273.308,184.017,270.92,183.453,268.625C183.198,267.571,182.152,266.731,181.527,265.749C179.826,263.078,177.86,260.671,175.298,258.756C174.624,258.252,174.225,257.394,173.592,256.825C171.983,255.391,170.296,254.045,168.672,252.634C168.061,252.102,167.562,251.446,166.969,250.886C165.915,249.894,164.743,249.002,163.768,247.938C161.969,245.973,160.279,243.917,158.544,241.896C158.289,241.595,158.091,241.2,157.773,241.02C156.27,240.165,155.567,238.806,154.945,237.254C154.465,236.047,153.538,235.018,152.797,233.921C152.469,233.436,151.988,233.023,151.782,232.494C151.026,230.56,149.728,229.017,148.461,227.432C148.008,226.857,147.732,226.144,147.38,225.492C146.641,224.117,145.778,222.79,145.195,221.35C144.32,219.18,143.677,216.919,142.871,214.726C141.971,212.273,140.92,209.872,140.096,207.4C139.707,206.234,139.739,204.937,139.501,203.715C139.219,202.269,139.042,200.762,138.481,199.422C137.733,197.623,137.18,195.818,137.083,193.878C136.858,189.259,136.564,184.641,136.447,180.019C136.384,177.513,136.567,174.994,136.749,172.491C136.876,170.704,137.128,168.921,137.441,167.158C137.578,166.371,137.842,165.512,138.319,164.894C139.417,163.464,139.662,161.777,139.765,160.133C139.917,157.719,140.328,155.404,141.182,153.154C141.249,152.972,141.213,152.717,141.328,152.59C143.379,150.345,143.366,147.327,144.35,144.684C144.687,143.782,145.438,143.041,145.952,142.193C146.369,141.493,146.773,140.774,147.079,140.02C147.587,138.748,148.012,137.447,148.477,136.16C148.531,136.017,148.585,135.816,148.699,135.756C150.849,134.613,151.02,132.127,152.345,130.429C152.418,130.334,152.463,130.21,152.552,130.143C154.065,128.996,154.705,127.3,155.459,125.656C155.72,125.089,156.274,124.653,156.72,124.185C157.468,123.405,158.258,122.66,158.996,121.867C159.445,121.383,159.8,120.804,160.262,120.332C162.481,118.081,164.722,115.848,166.957,113.617C168.342,112.235,169.542,110.553,171.167,109.562C173.959,107.856,176.016,105.025,179.376,104.187C179.808,104.083,180.276,103.786,180.55,103.439C181.837,101.795,183.655,101.136,185.53,100.51C186.212,100.284,186.918,99.876,187.397,99.35C188.651,97.978,190.102,97.22,191.965,96.937C193.061,96.769,194.16,96.147,195.096,95.497C196.999,94.186,199.193,93.807,201.343,93.227C202.842,92.819,204.406,92.51,205.788,91.842C207.988,90.766,210.248,90.256,212.676,90.104C215.988,89.891,219.282,89.441,222.591,89.168C224.001,89.053,225.428,89.159,226.844,89.095C227.695,89.059,228.54,88.868,229.392,88.789C229.778,88.752,230.173,88.792,230.558,88.843C231.096,88.91,231.628,89.076,232.166,89.098C235.229,89.225,238.298,89.235,241.351,89.457C244.426,89.687,247.496,90.059,250.549,90.496C251.575,90.639,252.682,90.967,253.512,91.553C255.406,92.887,257.576,93.103,259.721,93.531C261.786,93.948,263.779,94.454,265.614,95.67C267.162,96.694,269.028,97.231,270.723,98.052C271.768,98.554,272.744,99.204,273.764,99.762C274.827,100.344,275.912,100.872,276.97,101.468C277.809,101.944,278.624,102.462,279.429,102.996C280.013,103.388,280.552,103.84,281.124,104.251C282.122,104.971,283.216,105.48,284.081,106.477C284.855,107.368,286.158,107.805,287.234,108.428C287.741,108.719,288.344,108.887,288.767,109.266C290.537,110.851,292.325,112.428,293.975,114.134C295.85,116.077,297.57,118.169,299.392,120.165C300.337,121.197,301.64,122.009,302.268,123.19C303.235,125.004,304.69,126.32,305.977,127.823C306.341,128.252,306.506,128.851,306.773,129.367C307.028,129.847,307.18,130.549,307.585,130.762C309.338,131.689,309.584,133.439,310.244,135.016C310.701,136.109,311.481,137.06,312.084,138.096C312.725,139.203,313.337,140.327,313.938,141.457C314.541,142.597,315.017,143.817,315.713,144.89C316.954,146.782,317.299,148.949,317.806,151.064C318.179,152.622,318.509,154.124,319.373,155.563C320.179,156.9,320.595,158.531,320.9,160.087C321.298,162.113,321.357,164.201,321.668,166.245C322.06,168.818,322.654,171.362,322.993,173.938C323.373,176.927,323.581,179.936,323.867,182.932M308.472,180.34L308.229,180.312C308.117,177.873,308.018,175.43,307.887,172.989C307.756,170.523,306.848,168.269,306.095,165.944C305.315,163.541,305.156,160.94,304.621,158.446C304.329,157.071,303.924,155.702,303.387,154.405C302.699,152.749,301.798,151.19,301.052,149.559C300.468,148.289,300.045,146.942,299.429,145.691C298.823,144.463,298.042,143.322,297.367,142.125C296.981,141.441,296.739,140.661,296.279,140.034C294.625,137.774,292.943,135.529,291.195,133.335C289.385,131.061,287.635,128.714,285.589,126.667C283.518,124.591,281.152,122.799,278.854,120.958C275.384,118.175,271.758,115.619,267.75,113.654C266.901,113.237,265.931,112.973,265.228,112.383C263.875,111.25,262.302,110.756,260.676,110.247C258.959,109.709,257.299,108.98,255.629,108.301C254.699,107.923,253.835,107.289,252.877,107.085C249.914,106.465,246.907,106.061,243.947,105.441C241.727,104.976,239.578,104.123,237.345,103.764C230.902,102.722,224.579,103.783,218.278,105.098C215.13,105.754,211.946,106.238,208.787,106.842C207.402,107.11,205.982,107.355,204.679,107.862C202.712,108.632,200.833,109.642,198.907,110.521C194.993,112.301,190.937,113.711,187.473,116.468C185.33,118.175,182.633,119.117,180.665,121.216C178.875,123.121,176.717,124.674,174.867,126.53C173.345,128.055,172.039,129.794,170.623,131.431C170.343,131.756,170.037,132.106,169.671,132.303C168.4,132.991,167.858,134.201,167.226,135.395C166.716,136.353,166.022,137.212,165.404,138.117C164.882,138.884,164.334,139.642,163.835,140.426C163.496,140.954,163.319,141.617,162.897,142.055C161.442,143.574,160.611,145.411,159.907,147.35C159.639,148.079,159.251,148.808,158.758,149.404C157.472,150.957,157.109,152.827,156.637,154.709C156.051,157.024,155.239,159.281,154.513,161.561C154.252,162.384,153.8,163.177,153.711,164.016C153.192,168.904,152.648,173.792,152.316,178.696C151.851,185.448,152.752,192.148,153.459,198.847C153.577,199.93,153.714,201.145,154.276,202.019C155.825,204.419,156.199,207.143,156.916,209.79C157.21,210.872,157.675,211.914,158.14,212.934C158.836,214.464,159.592,215.963,160.346,217.458C160.887,218.531,161.451,219.584,162.05,220.623C162.578,221.54,163.266,222.377,163.709,223.329C164.336,224.688,164.81,226.096,166.164,226.989C166.59,227.269,166.902,227.835,167.1,228.332C168.211,231.146,170.57,232.981,172.481,235.145C174.286,237.191,176.464,238.904,178.412,240.829C180.058,242.455,181.605,244.187,183.212,245.85C183.479,246.133,183.826,246.342,184.142,246.572C186.141,248.043,188.153,249.495,189.544,251.625C189.93,252.207,190.331,252.841,190.875,253.254C192.302,254.358,193.244,255.733,193.804,257.442C194.018,258.089,194.553,258.627,194.928,259.221C195.572,260.244,196.352,261.211,196.817,262.311C197.668,264.335,198.383,266.419,199.051,268.515C199.408,269.631,199.667,270.807,199.752,271.967C199.968,274.797,199.988,277.635,200.235,280.452C200.338,281.559,200.733,282.679,201.207,283.689C201.669,284.668,202.69,284.845,203.671,284.6C204.567,284.37,205.035,283.623,205.038,282.728C205.041,281.552,204.935,280.371,204.831,279.196C204.662,277.321,204.343,275.455,204.289,273.574C204.194,270.384,204.252,267.187,204.258,263.994C204.261,262.352,204.316,260.704,204.3,259.062C204.283,257.072,204.204,255.082,204.179,253.088C204.143,250.787,203.994,248.474,204.156,246.185C204.325,243.803,204.949,241.459,204.125,239.067C203.29,236.654,202.593,234.195,201.804,231.76C201.622,231.213,201.445,230.544,201.036,230.199C199.534,228.946,198.915,227.217,198.25,225.491C197.967,224.754,197.754,223.958,197.308,223.336C195.962,221.455,194.468,219.676,193.115,217.798C191.399,215.41,189.952,212.845,187.938,210.646C185.875,208.398,184.25,205.73,182.105,203.572C179.628,201.084,179.812,197.056,181.334,194.865C181.723,194.308,182.284,193.792,182.879,193.47C185.152,192.239,187.498,191.142,189.762,189.902C192.45,188.433,195.631,188.038,198.086,186.074C198.172,186.007,198.312,186.013,198.42,185.968C200.21,185.248,202.036,184.606,203.776,183.78C207.453,182.03,210.984,179.925,214.763,178.441C218.68,176.9,222.049,174.197,226.22,173.234C226.806,173.097,227.296,172.592,227.859,172.317C229.19,171.672,230.483,170.736,231.889,170.512C234.516,170.093,236.077,168.532,237.387,166.465C238.466,164.755,238.41,163.508,236.936,162.141C235.804,161.093,235.17,159.845,234.934,158.362C234.698,156.852,234.079,155.557,233.146,154.315C232.412,153.334,232.054,152.07,231.523,150.937C231.013,149.839,230.68,148.6,229.94,147.686C228.684,146.139,227.832,144.511,227.498,142.534C227.333,141.564,226.948,140.497,226.316,139.765C225.167,138.428,224.368,136.97,224.119,135.268C223.839,133.354,223.489,131.164,225.339,129.931C227.479,128.509,230.005,127.868,232.651,128.299C235.829,128.815,239.001,129.347,242.169,129.91C244.666,130.353,247.244,130.404,249.495,131.906C250.711,132.715,252.169,133.157,253.516,133.772C254.013,133.999,254.551,134.176,254.996,134.486C257.68,136.342,260.394,138.156,262.994,140.131C265.258,141.851,267.397,143.743,269.561,145.593C269.94,145.913,270.205,146.381,270.485,146.809C271.766,148.738,273.031,150.677,274.306,152.609C274.437,152.803,274.574,153.013,274.763,153.147C276.654,154.489,277.44,156.462,278.01,158.603C278.197,159.303,278.513,160.055,278.999,160.57C280.333,161.979,280.961,163.666,281.381,165.497C281.829,167.445,282.416,169.362,282.833,171.316C283.299,173.494,283.741,175.685,284.011,177.891C284.558,182.375,284.434,186.823,283.081,191.195C282.397,193.401,281.881,195.659,281.383,197.916C280.979,199.757,280.373,201.42,279.045,202.854C278.367,203.591,278.1,204.716,277.705,205.693C277.515,206.156,277.568,206.747,277.322,207.17C275.612,210.108,273.864,213.025,272.111,215.936C271.648,216.704,271.01,217.382,270.637,218.187C269.81,219.969,269.135,221.825,267.521,223.125C267.241,223.352,267.085,223.781,266.952,224.145C266.249,226.091,265.335,227.895,263.889,229.421C263.51,229.825,263.382,230.469,263.146,231.004C262.387,232.723,261.635,234.443,260.873,236.163C260.419,237.189,259.903,238.187,259.517,239.235C259.244,239.966,259.16,240.768,258.957,241.53C258.099,244.81,257.511,248.125,257.561,251.533C257.586,253.265,257.474,254.997,257.455,256.729C257.427,259.045,257.427,261.359,257.414,263.678C257.411,264.338,257.439,264.997,257.398,265.656C257.258,267.926,256.957,270.196,256.991,272.463C257.016,274.186,257.237,275.861,256.674,277.559C256.36,278.514,256.32,279.58,256.295,280.594C256.254,282.142,256.867,282.929,257.98,282.979C259.336,283.05,260.312,282.254,260.38,280.799C260.526,277.811,260.52,274.822,260.651,271.834C260.784,268.79,261.024,265.768,263.182,263.299C263.521,262.91,263.664,262.304,263.779,261.772C264.22,259.729,264.976,257.885,266.621,256.461C267.231,255.936,267.6,255.14,268.126,254.508C268.922,253.541,269.74,252.592,270.585,251.669C271.169,251.035,271.826,250.462,272.429,249.847C273.996,248.249,275.52,246.607,277.112,245.036C280.305,241.899,283.539,238.795,286.742,235.667C287.302,235.12,287.802,234.51,288.315,233.917C290.035,231.933,291.935,230.074,293.415,227.922C295.442,224.993,297.199,221.871,298.969,218.771C299.84,217.254,300.483,215.603,301.229,214.011C301.829,212.733,302.442,211.455,303.02,210.171C303.496,209.105,304.077,208.063,304.354,206.943C304.976,204.427,305.408,201.868,305.974,199.337C306.415,197.35,307.165,195.404,307.392,193.395C307.884,189.059,308.127,184.693,308.472,180.34" fill="rgb(19,136,155)" stroke="none" stroke-width="1"/><path id="eZLEJQd7XYS22" d="M175.995,181.154C176.371,177.636,176.657,174.108,177.164,170.605C177.348,169.322,178.058,168.11,178.52,166.861C178.991,165.58,179.65,164.333,179.877,163.008C180.278,160.651,181.074,158.563,182.649,156.732C183.325,155.945,183.651,154.878,184.252,154.016C186.279,151.081,188.054,147.951,190.746,145.515C192.113,144.276,193.307,142.844,194.711,141.66C196.118,140.472,197.953,140.326,199.52,141.022C200.599,141.5,201.551,142.621,202.182,143.678C203.118,145.251,203.701,147.032,204.465,148.706C204.936,149.738,205.477,150.735,205.968,151.756C206.612,153.096,207.445,154.393,207.827,155.806C208.468,158.181,209.906,160.105,210.986,162.232C211.941,164.116,212.752,166.087,213.466,168.078C213.94,169.406,212.819,171.484,211.361,172.222C208.919,173.447,206.451,174.625,203.975,175.778C203.194,176.138,202.316,176.288,201.529,176.641C200.648,177.039,199.822,177.564,198.966,178.02C197.963,178.552,197.008,179.303,195.939,179.542C193.497,180.077,191.418,181.262,189.367,182.583C188.748,182.981,187.985,183.14,187.32,183.474C186.169,184.051,184.935,184.534,183.941,185.318C182.116,186.755,180.11,186.646,178.092,186.241C176.613,185.948,176.315,184.595,176.187,183.3C176.117,182.599,176.175,181.882,176.175,181.172C176.113,181.164,176.056,181.161,175.995,181.154" fill="rgb(19,136,155)" stroke="none" stroke-width="1"/></g><path id="eZLEJQd7XYS23" d="M178.458,549.794C178.749,548.726,178.988,547.64,179.355,546.588C179.716,545.545,180.231,544.571,180.643,543.554C181.729,540.814,182.783,538.055,183.878,535.314C184.589,533.53,185.369,531.789,186.076,530.004C186.875,527.961,187.613,525.901,188.392,523.85C188.834,522.686,189.271,521.522,189.765,520.384C190.283,519.169,189.981,518.548,188.687,518.367C188.3,518.307,187.903,518.307,187.504,518.324C183.856,518.479,180.378,517.479,176.857,516.755C175.704,516.523,174.512,516.454,173.338,516.41C171.653,516.342,169.959,516.445,168.276,516.325C166.689,516.221,165.109,515.91,163.525,515.713C162.431,515.566,161.332,515.445,160.241,515.299C158.026,514.997,155.731,514.963,153.613,514.324C150.775,513.47,147.898,513.6,145.032,513.325C144.542,513.273,144.075,513.041,143.594,512.911C142.553,512.617,141.825,513.118,141.674,514.161C141.497,515.359,141.241,516.54,141.092,517.738C140.98,518.608,141.409,519.22,142.01,519.893C142.878,520.875,143.523,522.081,144.109,523.271C144.676,524.418,145.018,525.66,144.865,527.003C144.453,530.632,142.967,533.571,139.622,535.364C138.364,536.027,137.138,536.658,135.614,536.708C133.411,536.804,131.483,536.373,129.781,534.941C127.486,533.01,126.202,530.459,126.055,527.589C125.896,524.357,127.494,520.028,131.29,518.667C132.081,518.383,132.91,517.942,133.466,517.34C134.027,516.728,134.326,515.848,134.621,515.038C134.811,514.521,134.781,513.917,134.869,513.358C135.033,512.349,134.596,511.772,133.568,511.702C131.926,511.59,130.279,511.538,128.642,511.384C127.478,511.272,126.312,510.797,125.172,510.884C123.597,510.988,121.974,511.28,120.505,511.849C118.837,512.487,117.419,512.531,116.272,511.1C115.423,510.039,114.272,509.772,113.089,509.539C111.699,509.263,110.3,509.005,108.891,508.918C105.922,508.729,102.952,508.634,99.976,508.548C99.575,508.53,99.103,508.669,98.759,508.885C96.977,510.056,95.083,510.1,93.129,509.488C92.877,509.411,92.616,509.203,92.467,508.989C91.853,508.092,90.944,507.704,89.937,507.549C88.217,507.29,86.478,507.11,84.748,506.895C83.052,506.696,82.276,507.385,81.569,508.946C80.47,511.368,81.597,513.092,82.938,514.911C84.323,516.79,84.53,518.858,83.683,521.108C82.81,523.435,81.353,525.254,79.384,526.685C78.793,527.116,78.074,527.426,77.369,527.641C75.421,528.237,73.369,528.331,71.472,527.702C68.548,526.755,66.418,524.944,65.701,521.651C64.955,518.238,65.572,515.23,67.694,512.557C68.59,511.429,69.752,510.505,71.274,510.178C72.912,509.824,73.883,508.506,73.851,506.963C73.838,506.162,73.504,505.808,72.683,505.79C71,505.756,69.319,505.661,67.638,505.566C66.767,505.522,66.199,505.005,65.841,504.23C65.427,503.342,64.77,502.971,63.736,502.869C61.327,502.644,58.935,502.222,56.534,501.921C54.627,501.679,52.711,501.497,50.806,501.265C48.289,500.964,45.783,500.645,43.268,500.327C43.02,500.292,42.772,500.266,42.527,500.24C39.622,499.93,36.722,499.602,33.819,499.327C32.215,499.171,30.602,499.138,28.999,498.982C27.726,498.853,26.462,498.62,25.191,498.464C23.562,498.266,21.935,498.076,20.297,497.929C16.743,497.619,13.186,497.387,9.643,497.016C7.837,496.827,6.059,496.395,4.267,496.102C3.142,495.921,2.004,495.827,0.883,495.612C0.56,495.542,0.295,495.18,0,494.957C0.319,494.724,0.602,494.388,0.953,494.27C3.495,493.457,6.06,493.956,8.62,494.197C9.012,494.232,9.395,494.305,9.79,494.327C15.084,494.552,20.412,494.491,25.667,495.068C30.253,495.56,34.825,495.49,39.407,495.621C42.874,495.724,46.352,495.809,49.817,496.043C51.733,496.181,53.625,496.62,55.536,496.914C56.172,496.999,56.816,497.017,57.452,497.103C62.005,497.688,66.587,497.697,71.163,497.757C73.488,497.792,75.82,497.929,78.136,498.119C80.091,498.274,82.036,498.567,83.989,498.782C84.377,498.825,84.774,498.852,85.165,498.86C88.542,498.912,91.914,498.912,95.285,498.998C99.158,499.11,103.023,499.282,106.893,499.421C111.685,499.602,116.482,499.782,121.275,499.955C125.287,500.101,129.317,500.042,133.306,500.438C142.057,501.283,150.831,501.273,159.604,501.428C163.483,501.506,167.395,501.411,171.232,501.868C176.065,502.436,180.888,502.368,185.722,502.479C189.52,502.574,193.322,502.677,197.117,502.858C199.61,502.97,202.099,503.254,204.596,503.384C206.486,503.479,206.398,503.402,206.533,501.566C206.869,497.153,207.266,492.739,207.694,488.335C207.897,486.248,208.238,484.176,208.489,482.094C208.578,481.353,208.462,480.85,207.466,480.749C204.561,480.439,201.671,480.008,198.775,479.595C197.896,479.474,197.036,479.211,196.159,479.077C194.754,478.87,193.338,478.732,191.931,478.542C189.641,478.228,187.354,477.896,185.063,477.573C182.915,477.275,180.764,476.987,178.62,476.672C176.263,476.327,173.915,475.914,171.554,475.605C169.183,475.293,166.804,475.086,164.436,474.798C163.57,474.691,162.728,474.406,161.864,474.277C160.384,474.057,158.892,473.915,157.414,473.708C156.007,473.514,154.589,473.347,153.212,473.019C152.794,472.92,152.243,472.369,152.18,471.958C152.032,470.916,151.991,469.816,152.163,468.786C152.323,467.796,153.464,467.468,154.971,467.667C157.865,468.036,160.765,468.338,163.659,468.695C167.268,469.148,170.876,469.631,174.485,470.071C176.325,470.295,178.175,470.45,180.014,470.666C182.208,470.933,184.393,471.238,186.581,471.51C188.104,471.7,189.621,471.89,191.145,472.036C194.375,472.354,197.722,472.234,200.818,473.054C204.177,473.95,207.615,473.286,210.907,474.243C212.01,474.561,212.84,474.001,213.463,473.105C214.474,471.643,215.338,470.053,216.534,468.769C217.835,467.364,219.333,466.08,220.939,465.041C223.473,463.403,226.173,462.027,228.789,460.52C229.824,459.92,230.666,459.291,230.595,457.796C230.485,455.322,230.64,452.839,230.704,450.365C230.838,445.53,230.982,440.694,231.133,435.859C231.357,428.407,231.613,420.956,231.826,413.507C232.029,406.301,232.139,399.095,232.391,391.89C232.567,386.852,232.938,381.822,233.164,376.784C233.276,374.164,233.242,371.539,233.319,368.919C233.384,366.738,233.479,364.558,233.634,362.386C233.664,361.998,233.969,361.419,234.289,361.299C235.035,361.006,235.871,360.774,236.659,360.817C237.526,360.861,237.69,361.628,237.676,362.425C237.603,367.949,237.517,373.479,237.495,379.005C237.465,386.571,237.439,394.141,237.499,401.699C237.533,405.669,237.861,409.635,237.874,413.595C237.892,420.421,237.732,427.241,237.702,434.058C237.672,441.91,237.716,449.763,237.694,457.615C237.69,458.451,238.013,458.831,238.772,459.072C241.607,459.968,244.46,460.827,247.241,461.869C249.081,462.563,250.658,463.614,252.094,465.132C254.206,467.372,255.77,469.934,257.486,472.415C257.904,473.027,258.175,473.743,258.516,474.402C259.214,475.742,259.702,475.931,261.167,475.759C263.434,475.496,265.705,475.302,267.977,475.086C271.101,474.793,274.23,474.517,277.359,474.216C279.833,473.975,282.311,473.742,284.78,473.445C288.103,473.053,291.413,472.587,294.736,472.19C295.973,472.044,297.227,472.018,298.477,471.915C302.102,471.618,305.727,471.308,309.351,471.001C311.976,470.777,314.609,470.588,317.233,470.312C318.823,470.145,320.4,469.826,321.986,469.589C323.495,469.356,325.003,469.131,326.516,468.942C327.637,468.796,328.542,469.503,328.577,470.624C328.615,471.77,328.551,472.916,328.503,474.067C328.473,474.717,328.076,474.959,327.435,475.002C324.728,475.201,321.935,475.079,319.35,475.743C316.406,476.511,313.393,476.265,310.468,476.95C308.813,477.338,307.063,477.303,305.357,477.476C303.236,477.687,301.111,477.881,298.995,478.139C296.982,478.381,294.987,478.734,292.974,478.975C290.392,479.287,287.798,479.5,285.216,479.803C284.449,479.894,283.708,480.173,282.945,480.264C281.458,480.45,279.967,480.57,278.475,480.708C275.954,480.94,273.368,480.905,270.929,481.482C268.874,481.969,266.856,482.091,264.797,482.19C264.452,482.207,263.922,482.715,263.862,483.065C263.724,483.828,263.62,484.714,263.879,485.409C264.84,487.991,264.651,490.697,264.892,493.352C265.172,496.515,265.246,499.705,265.323,502.885C265.349,503.894,265.612,504.29,266.668,504.264C270.327,504.187,273.99,504.239,277.641,504.16C282.403,504.066,287.161,503.885,291.919,503.771C294.75,503.703,297.582,503.79,300.409,503.669C304.072,503.505,307.731,503.186,311.395,502.978C312.132,502.936,312.877,503.1,313.623,503.152C314.446,503.203,315.265,503.281,316.088,503.272C319.885,503.229,323.686,503.229,327.483,503.109C331.478,502.97,335.469,502.677,339.464,502.532C341.076,502.47,342.696,502.626,344.308,502.617C349.652,502.584,354.996,502.549,360.34,502.453C364.775,502.385,369.21,502.204,373.645,502.117C377.588,502.04,381.527,502.075,385.467,501.953C387.027,501.92,388.578,501.6,390.134,501.411C390.388,501.376,390.634,501.333,390.884,501.333C395.22,501.272,399.555,501.264,403.896,501.169C408.007,501.083,412.119,500.911,416.23,500.782C418.341,500.721,420.454,500.713,422.565,500.574C425.009,500.428,427.453,500.074,429.9,499.98C432.516,499.876,435.141,499.989,437.761,499.98C442.136,499.954,446.51,499.954,450.888,499.868C453.702,499.816,456.526,499.652,459.344,499.454C462.4,499.221,465.45,498.903,468.506,498.618C468.61,498.608,468.722,498.608,468.825,498.608C471.834,498.54,474.842,498.454,477.85,498.42C478.329,498.42,478.85,498.549,479.268,498.765C479.505,498.894,479.755,499.377,479.682,499.61C479.605,499.869,479.187,500.162,478.894,500.196C476.269,500.446,473.636,500.619,471.011,500.868C469.313,501.032,467.623,501.308,465.929,501.524C465.188,501.609,464.442,501.696,463.697,501.756C460.852,502.015,458.012,502.299,455.168,502.488C452.009,502.704,448.923,503.609,445.704,503.393C444.527,503.315,443.316,503.703,442.118,503.884C441.98,503.902,441.843,503.961,441.701,503.97C440.171,504.082,438.636,504.169,437.106,504.298C435.227,504.453,433.348,504.634,431.465,504.798C430.189,504.908,428.913,505.039,427.633,505.143C425.716,505.307,423.798,505.436,421.883,505.617C418.798,505.91,415.712,506.178,412.639,506.557C412.156,506.617,411.532,507.108,411.342,507.556C410.656,509.202,409.26,509.21,407.872,509.262C406.476,509.305,405.075,509.272,403.674,509.262C402.36,509.262,402.226,509.409,402.178,510.754C402.135,511.892,402.088,513.029,403.359,513.598C404.04,513.909,404.79,514.08,405.428,514.452C407.859,515.866,409.561,517.778,410.16,520.676C411.121,525.322,407.988,529.062,404.889,530.83C403.98,531.347,402.894,531.76,401.868,531.804C400.886,531.839,399.865,531.381,398.899,531.019C396.425,530.106,394.253,528.692,392.943,526.357C392.081,524.814,391.344,523.045,391.77,521.262C392.166,519.632,393.02,518.116,393.735,516.581C394.093,515.806,394.709,515.15,394.985,514.357C395.153,513.848,394.911,513.194,394.829,512.607C394.808,512.486,394.592,512.391,394.583,512.262C394.416,510.391,393.088,510.538,391.76,510.573C390.182,510.616,388.601,510.625,387.024,510.548C385.588,510.479,384.55,511.073,383.714,512.167C382.882,513.255,381.796,513.53,380.598,512.96C379.801,512.573,379.042,512.107,378.253,511.702C378.008,511.582,377.71,511.477,377.439,511.477C373.745,511.487,370.052,511.435,366.363,511.564C364.561,511.633,362.768,512.004,360.984,512.331C360.519,512.409,359.997,512.746,359.7,513.116C358.605,514.496,357.55,515.289,355.381,514.28C353.162,513.262,350.757,512.9,348.21,513.331C345.865,513.736,343.443,513.711,341.055,513.832C339.667,513.892,339.456,514.013,339.483,515.366C339.504,516.408,339.577,517.452,339.711,518.477C339.892,519.831,340.875,520.537,342.073,520.839C344.21,521.364,345.422,522.915,346.266,524.709C346.951,526.166,347.451,527.777,347.636,529.372C347.782,530.596,347.628,532.07,347.037,533.104C345.662,535.535,344.024,537.93,341.016,538.535C338.102,539.112,335.228,538.957,332.711,537.078C329.694,534.846,328.001,530.009,329.013,526.407C329.445,524.881,330.457,523.717,331.737,522.786C333.267,521.666,333.858,520.156,333.527,518.286C333.41,517.657,333.225,517.011,333.255,516.382C333.324,514.969,332.212,514.46,331.066,514.821C328.855,515.529,326.592,515.201,324.36,515.399C324.041,515.433,323.692,515.337,323.395,515.433C320.516,516.294,317.534,516.158,314.59,516.415C313.659,516.484,312.776,517.037,311.854,517.329C311.16,517.544,310.444,517.804,309.733,517.82C306.005,517.889,302.264,517.716,298.554,517.966C295.325,518.182,292.132,518.863,288.921,519.302C287.861,519.448,286.775,519.414,285.723,519.586C284.542,519.776,284.257,520.362,284.68,521.466C285.486,523.551,286.305,525.629,287.106,527.707C287.942,529.861,288.809,531.998,289.584,534.171C290.278,536.11,290.825,538.102,291.515,540.04C292.213,542.015,293.036,543.945,293.744,545.911C294.226,547.255,294.627,548.626,294.994,549.996C295.076,550.307,294.852,550.703,294.702,551.384C294.318,550.919,294.081,550.721,293.969,550.471C292.865,548.066,291.776,545.66,290.706,543.247C289.9,541.437,289.102,539.61,288.345,537.773C287.707,536.239,287.138,534.662,286.535,533.11C285.591,530.663,284.655,528.214,283.681,525.775C283.603,525.585,283.25,525.379,283.048,525.396C282.858,525.413,282.686,525.715,282.522,525.904C282.483,525.948,282.509,526.042,282.509,526.111C282.375,529.87,282.181,533.619,282.142,537.377C282.125,539.153,282.413,540.929,282.556,542.713C282.574,542.955,282.651,543.273,282.539,543.453C281.591,544.902,282.293,546.341,282.561,547.755C282.703,548.506,283.043,549.264,283.478,549.893C283.633,550.118,284.452,550.178,284.741,549.97C285.676,549.341,286.607,549.419,287.616,549.625C288.275,549.756,288.965,549.833,289.637,549.798C290.698,549.747,291.076,550.341,291.313,551.23C292.318,554.961,292.059,558.754,291.93,562.539C291.848,564.874,291.508,567.202,291.284,569.572L285.349,569.572C283.651,567.348,283.673,564.718,283.444,562.15C283.344,561.064,283.022,560.876,281.927,560.927C280.535,560.995,279.125,560.995,277.746,560.857C276.108,560.685,275.656,560.953,275.587,562.546C275.513,564.365,275.449,566.184,275.389,568.012C275.341,569.304,275.199,569.443,273.859,569.434C272.963,569.434,272.066,569.426,271.17,569.416C269.653,569.416,268.843,568.778,268.524,567.287C268.399,566.683,268.287,566.08,268.287,565.477C268.3,561.537,268.305,557.598,268.421,553.668C268.451,552.547,268.822,551.435,269.085,550.332C269.145,550.081,269.365,549.823,269.581,549.651C270.409,548.969,274.171,549.366,274.938,550.151C275.17,550.391,275.614,550.702,275.795,550.625C276.075,550.496,276.286,550.081,276.398,549.746C276.825,548.478,277.252,547.203,277.566,545.901C277.721,545.262,277.631,544.565,277.652,543.892C277.665,543.616,277.643,543.331,277.682,543.057C277.872,541.832,278.182,540.617,278.247,539.393C278.351,537.384,278.32,535.368,278.307,533.359C278.294,530.566,278.282,527.774,278.186,524.981C278.147,523.74,277.971,522.499,277.738,521.274C277.678,520.964,277.174,520.507,276.863,520.5C274.613,520.456,272.376,520.206,270.131,520.801C268.174,521.319,266.14,521.516,264.14,521.862C263.326,522,262.619,522.319,262.382,523.216C262.145,524.12,262.554,524.759,263.282,525.216C264.657,526.069,265.342,527.215,265.144,528.888C264.976,530.352,265.347,531.869,264.283,533.206C263.507,534.188,263.041,534.335,261.986,533.68C261.068,533.103,260.102,532.577,259.098,532.189C258.59,531.991,257.783,531.914,257.585,532.74C257.392,533.543,258.094,533.956,258.646,533.948C260.547,533.913,260.741,535.102,260.922,536.568C261.129,538.283,260.646,539.171,258.978,539.472C257.931,539.662,257.672,540.464,257.685,541.309C257.703,542.231,257.849,543.162,258.09,544.058C258.185,544.403,258.694,544.635,259.013,544.919C259.22,544.591,259.564,544.273,259.62,543.92C259.909,542.024,260.516,541.463,262.439,541.454C263.012,541.454,263.589,541.454,264.163,541.463C265.654,541.489,266.589,542.231,266.706,543.748C266.99,547.488,267.154,551.238,266.706,554.987C266.568,556.158,266.654,557.357,266.607,558.538C266.551,560.09,266.301,560.254,264.896,560.875C263.672,561.408,262.591,561.529,261.319,560.986C260.056,560.451,259.612,559.529,259.565,558.314C259.518,557.055,259.569,555.796,259.548,554.539C259.527,553.185,259.156,552.832,257.816,552.798C256.165,552.755,254.51,552.737,252.864,552.668C251.929,552.625,251.468,552.909,251.511,553.943C251.571,555.34,251.433,556.746,251.524,558.142C251.592,559.219,251.028,559.917,250.261,560.33C249.326,560.83,248.369,561.296,247.123,560.959C244.49,560.253,244.511,560.347,244.459,557.633C244.369,552.512,244.214,547.401,244.076,542.29C244.068,542.014,244.003,541.712,243.869,541.462C243.769,541.281,243.519,541.048,243.343,541.057C243.171,541.057,242.912,541.316,242.856,541.505C242.472,542.919,242.206,544.367,241.761,545.755C241.094,547.866,241.236,548.263,238.869,548.263C237.404,548.254,236.87,547.729,236.749,546.272C236.546,543.764,236.546,543.764,234.029,543.748C232.348,543.721,232.463,543.738,232.34,545.367C232.273,546.316,231.767,547.229,231.447,548.151C231.189,548.911,230.742,549.643,230.68,550.418C230.495,552.592,230.684,554.814,230.323,556.943C229.767,560.279,227.287,562.236,223.863,560.167C222.816,559.538,222.592,558.159,222.544,556.909C222.503,555.771,222.516,554.616,222.538,553.462C222.557,552.693,222.229,552.35,221.454,552.358C219.732,552.368,218.006,552.368,216.285,552.325C215.518,552.316,215.367,552.678,215.289,553.376C215.084,555.082,214.851,556.815,214.448,558.497C214.181,559.643,213.192,560.22,212.043,560.298C210.867,560.384,209.679,560.349,208.496,560.307C207.87,560.272,207.453,559.971,207.414,559.23C207.299,557.117,207.153,555.023,206.959,552.919C206.929,552.601,206.572,552.298,206.364,551.988C206.156,552.298,205.767,552.6,205.763,552.91C205.679,555.642,205.653,558.376,205.627,561.099C205.604,563.107,205.627,565.089,204.828,567.012C204.315,568.253,203.869,568.743,202.529,568.727C201.381,568.727,200.23,568.659,199.082,568.727C198.284,568.779,198.04,568.382,197.842,567.736C197.245,565.762,196.933,563.788,197.075,561.72C197.176,560.288,196.954,560.142,195.472,560.134C194.179,560.124,192.886,560.142,191.593,560.108C190.895,560.09,190.609,560.306,190.502,561.064C190.259,562.746,189.929,564.425,189.522,566.081C189.161,567.546,187.665,568.582,186.182,568.563C185.246,568.554,184.307,568.469,183.381,568.546C182.219,568.641,181.799,567.95,181.765,567.028C181.583,562.417,181.407,557.798,181.369,553.176C181.36,552.038,181.614,550.729,182.216,549.788C182.645,549.116,183.804,548.728,184.704,548.565C186.372,548.253,188.081,548.202,189.678,549.073C190.363,549.443,190.693,549.098,190.887,548.383C191.632,545.634,191.783,542.833,191.804,539.987C191.841,535.445,192.048,530.903,192.136,526.352C192.158,525.395,192.011,524.429,191.91,523.464C191.841,522.775,191.425,522.695,190.957,523.092C190.666,523.343,190.431,523.696,190.287,524.049C189.24,526.61,188.225,529.187,187.193,531.755C186.005,534.694,184.851,537.634,183.605,540.539C182.624,542.832,181.536,545.072,180.471,547.322C180.033,548.245,179.54,549.141,179.068,550.054C178.863,549.967,178.66,549.89,178.458,549.794M211.199,532.735C211.225,532.77,211.151,532.693,211.102,532.606C211.039,532.477,210.966,532.338,210.958,532.21C210.777,529.72,210.874,527.307,212.93,525.486C213.701,524.815,213.609,524.134,213.089,523.419C212.798,523.023,212.445,522.66,212.096,522.315C209.831,520.031,206.702,519.791,203.86,519.057C201.862,518.548,199.673,518.747,197.568,518.721C197.051,518.712,196.235,518.928,196.072,519.273C195.551,520.394,195.046,521.6,194.945,522.807C194.725,525.496,194.712,528.22,194.691,530.926C194.671,533.038,194.796,535.15,194.814,537.253C194.831,539.244,194.372,541.278,195.445,543.157C195.512,543.269,195.466,543.441,195.488,543.589C195.816,545.356,196.072,547.157,196.508,548.906C196.663,549.518,197.193,550.078,197.661,550.561C198.247,551.164,199.121,550.872,199.131,550.044C199.144,549.173,199.674,548.871,200.26,548.707C202.113,548.19,203.945,548.19,205.621,549.336C205.817,549.465,206.033,549.561,206.377,549.741C206.441,549.267,206.522,548.931,206.534,548.595C206.571,547.656,206.495,546.716,206.61,545.793C206.837,544.044,206.887,542.198,208.282,541.251C209.474,541.312,210.327,541.414,211.182,541.405C213.19,541.388,214.109,542.25,214.076,544.207C214.068,544.629,213.994,545.086,214.096,545.491C214.21,545.922,214.514,546.655,214.704,546.646C215.234,546.62,215.924,546.414,216.227,546.034C216.919,545.146,217.285,544.112,217.141,542.923C217.074,542.37,217.078,541.734,217.29,541.241C217.93,539.759,217.251,538.424,215.654,538.208C215.264,538.156,214.881,538.069,214.506,537.976C213.803,537.795,213.532,537.372,213.605,536.63C213.795,534.786,214.426,534.218,216.536,534.174C217.217,534.156,217.975,534.164,218.064,533.355C218.148,532.545,218.161,531.58,217.786,530.924C217.579,530.554,216.427,530.415,215.858,530.614C214.302,531.177,212.833,531.978,211.199,532.735M245.936,530.417C245.911,530.417,245.885,530.417,245.859,530.427C246.151,533.547,246.436,536.676,246.742,539.805C246.82,540.554,247.345,540.873,248.039,541.029C248.871,541.202,249.741,541.304,250.508,541.649C251.193,541.952,251.694,541.873,251.922,541.253C252.327,540.097,252.766,538.899,252.87,537.701C253.008,536.08,252.784,534.485,253.62,532.918C254.43,531.392,253.861,530.384,252.232,529.702C250.848,529.134,249.465,528.564,248.065,528.039C246.294,527.375,245.961,527.633,245.936,529.556C245.932,529.849,245.936,530.133,245.936,530.417M229.682,534.667C229.727,534.667,229.765,534.675,229.807,534.675C229.807,534.858,229.829,535.038,229.801,535.219C229.635,536.357,229.737,537.237,231.184,537.521C231.563,537.589,231.876,538.426,232.061,538.968C232.203,539.383,232.03,539.9,232.123,540.348C232.179,540.632,232.466,540.873,232.647,541.131C232.856,540.891,233.24,540.632,233.24,540.382C233.227,539.4,233.072,538.416,233.011,537.425C232.983,536.908,232.924,536.357,233.088,535.908C233.27,535.39,233.286,535.063,232.743,534.89C232.095,534.684,231.543,534.433,231.517,533.615C231.491,532.796,232.006,532.426,232.607,532.038C232.889,531.857,233.29,531.349,233.221,531.202C232.775,530.323,232.279,529.434,231.65,528.685C231.171,528.116,230.586,528.366,230.463,529.15C230.177,530.987,229.942,532.822,229.682,534.667M236.847,537.882C237.416,537.658,238.067,537.365,238.748,537.167C239.662,536.883,240.015,536.356,239.843,535.399C239.705,534.632,239.662,533.839,239.619,533.055C239.545,531.882,239.554,530.701,239.429,529.521C239.39,529.176,238.903,528.556,238.834,528.581C238.011,528.918,237.045,529.193,236.485,529.814C235.928,530.435,236.046,531.305,236.739,532.106C237.649,533.175,237.928,534.219,236.584,534.968C236.416,535.063,236.248,535.382,236.278,535.554C236.416,536.296,236.627,537.021,236.847,537.882" fill="rgb(19,136,155)" stroke="none" stroke-width="1"/><g id="eZLEJQd7XYS24"><path id="eZLEJQd7XYS25" d="M1041.103,289.617C1039.668,289.752,1038.338,289.994,1037.005,289.994C1006.256,290.017,975.511,290.032,944.762,290.006C917.563,289.979,890.367,289.886,863.168,289.832C862.733,289.828,862.295,289.832,861.638,289.832C866.741,279.493,868.347,268.92,865.755,257.819C863.168,246.745,857.428,237.631,848.291,230.946C832.978,219.74,816.454,218.13,799.368,226.378C788.679,231.534,781.15,239.988,776.713,251.074C772.279,262.147,772.299,273.303,776.452,284.736C775.074,284.456,773.96,284.264,772.852,284.006C771.037,283.591,769.223,283.15,767.422,282.684C765.308,282.142,763.2,281.569,761.097,280.993C757.717,280.063,754.372,279.002,750.963,278.221C744.679,276.783,740.016,273.319,737.277,267.493C736.3,265.416,735.681,263.151,735.051,260.937C733.701,256.146,733.97,251.224,734.167,246.345C734.285,243.368,734.616,240.342,735.738,237.54C736.212,236.362,737.037,235.263,737.899,234.307C738.995,233.095,740.398,232.13,740.829,230.434C740.964,229.877,741.099,229.296,741.083,228.727C740.915,223.39,740.661,218.048,740.537,212.711C740.464,209.728,740.198,206.729,740.964,203.769C741.667,201.084,743.297,199.215,745.735,198.039C746.489,197.678,746.757,197.236,746.611,196.462C746.157,194.094,745.693,191.729,745.251,189.363C744.862,187.308,744.501,185.252,744.121,183.197C743.668,180.762,743.209,178.331,742.76,175.897C742.367,173.751,741.991,171.596,741.602,169.451C741.226,167.361,740.876,165.266,740.45,163.188C740.301,162.459,740.426,162.2,741.207,162.2C750.551,162.216,759.894,162.2,769.245,162.238C769.714,162.242,770.31,162.561,770.626,162.925C773.566,166.299,776.458,169.713,779.365,173.122C781.579,175.717,783.775,178.328,786.001,180.914C786.186,181.12,786.54,181.177,786.809,181.301C786.909,181.049,787.085,180.797,787.094,180.536C787.182,177.804,787.236,175.068,787.309,172.331C787.424,168.055,787.536,163.775,787.678,159.496C787.836,154.736,788.029,149.975,788.182,145.216C788.351,140.1,788.486,134.982,788.656,129.869C788.817,125.011,789.009,120.158,789.174,115.304C789.343,110.284,789.494,105.269,789.659,100.253C789.82,95.393,789.985,90.539,790.175,85.681C790.248,83.85,790.385,82.018,790.546,80.2C790.577,79.913,790.939,79.658,791.147,79.388C791.347,79.684,791.686,79.963,791.709,80.27C791.82,81.356,791.828,82.457,791.87,83.55C792.009,88.05,792.147,92.555,792.286,97.056C792.482,103.331,792.67,109.608,792.878,115.879C793.04,120.733,793.246,125.589,793.404,130.448C793.57,135.463,793.694,140.483,793.855,145.503C794.016,150.487,794.216,155.473,794.389,160.458C794.604,166.631,794.807,172.808,795.038,178.977C795.1,180.715,795.212,182.451,795.314,184.184C795.373,185.041,795.76,185.278,796.517,184.905C801.3,182.534,806.077,180.16,810.852,177.778C816.346,175.033,821.795,172.207,827.328,169.558C832.318,167.176,837.355,164.877,842.454,162.746C845.589,161.438,848.857,160.437,852.105,159.437C854.99,158.547,857.908,157.761,860.849,157.096C863.789,156.434,866.774,155.943,869.749,155.446C872.668,154.963,875.589,154.489,878.52,154.151C881.558,153.795,884.615,153.591,887.665,153.366C899.569,152.476,911.488,152.96,923.407,153.039C927.351,153.063,931.298,153.563,935.241,153.861C937.841,154.06,940.444,154.252,943.039,154.511C944.893,154.695,946.735,154.98,948.584,155.251C951.16,155.63,953.737,156.017,956.31,156.445C958.494,156.814,960.673,157.208,962.841,157.669C965.576,158.248,968.314,158.834,971.016,159.544C973.588,160.22,976.149,160.98,978.664,161.851C982.366,163.133,986.065,164.433,989.683,165.933C993.598,167.556,997.485,169.28,1001.262,171.203C1006.386,173.817,1011.439,176.584,1016.438,179.431C1021.079,182.073,1025.63,184.868,1030.176,187.671C1035.927,191.22,1041.626,194.854,1047.374,198.414C1047.89,198.732,1048.581,198.898,1049.192,198.914C1052.348,198.986,1055.513,198.91,1058.663,199.056C1062.034,199.21,1065.399,199.537,1068.767,199.821C1071.232,200.032,1073.704,200.248,1076.161,200.552C1079.161,200.921,1082.152,201.378,1085.144,201.809C1086.574,202.017,1088.007,202.236,1089.434,202.478C1091.838,202.902,1094.24,203.332,1096.639,203.774C1098.788,204.181,1100.934,204.574,1103.072,205.04C1105.614,205.582,1108.143,206.181,1110.678,206.778C1113.024,207.332,1115.368,207.886,1117.702,208.489C1120.689,209.253,1123.669,210.051,1126.645,210.866C1129.837,211.735,1133.023,212.614,1136.2,213.538C1141.045,214.933,1145.908,216.299,1150.203,219.101C1153.813,221.458,1156.886,224.272,1158.281,228.506C1158.639,229.594,1158.871,230.752,1158.958,231.894C1159.289,236.196,1158.525,240.345,1157.117,244.401C1155.64,248.65,1154.13,252.888,1152.707,257.155C1151.399,261.086,1149.984,265.008,1149.696,269.183C1149.592,270.678,1149.649,272.224,1149.892,273.704C1150.66,278.36,1151.552,282.99,1152.399,287.638C1152.753,289.565,1153.133,291.491,1153.461,293.426C1153.711,294.893,1153.568,295.029,1152.072,295.029L1128.964,295.029C1127.673,295.029,1127.699,295.032,1127.83,293.687C1128.191,289.949,1128.472,286.198,1128.887,282.459C1129.536,276.58,1129.491,270.682,1129.294,264.799C1129.201,262.069,1128.533,259.338,1127.949,256.644C1126.873,251.646,1124.688,247.097,1121.912,242.84C1117.541,236.134,1111.83,230.848,1104.79,227.007C1100.807,224.83,1096.616,223.188,1092.172,222.373C1088.8,221.758,1085.342,221.292,1081.925,221.319C1078.057,221.358,1074.203,221.989,1070.42,223.034C1063.626,224.906,1057.577,228.152,1052.275,232.732C1046.197,237.98,1041.685,244.366,1038.843,251.919C1036.318,258.635,1035.4,265.571,1036.098,272.685C1036.657,278.33,1038.179,283.736,1040.813,288.796C1040.93,289.01,1040.98,289.256,1041.103,289.617M875.465,200.378L909.504,200.378C912.369,200.378,915.241,200.382,918.109,200.374C919.2,200.371,919.416,200.166,919.393,199.067C919.371,198.163,919.269,197.271,919.219,196.368C919.024,192.868,918.919,189.36,918.626,185.863C918.238,181.155,917.755,176.45,917.223,171.748C916.805,168.013,916.24,164.291,915.771,160.56C915.67,159.764,915.332,159.418,914.534,159.436C912.118,159.488,909.697,159.402,907.289,159.571C902.798,159.89,898.3,160.196,893.839,160.795C889.544,161.374,885.28,162.235,881.035,163.133C877.359,163.906,873.68,164.729,870.099,165.834C866.054,167.078,862.086,168.591,858.135,170.117C853.735,171.823,849.628,174.095,845.757,176.784C841.754,179.564,838.213,182.823,835.552,186.946C833.218,190.56,831.881,194.513,831.573,198.808C831.487,200.069,831.763,200.373,833.113,200.373C847.234,200.378,861.348,200.375,875.465,200.378M983.896,200.378C989.921,200.378,995.947,200.378,1001.972,200.374C1003.136,200.374,1003.344,200.14,1003.214,199.005C1003.136,198.363,1003.043,197.729,1002.918,197.098C1002.638,195.668,1002.982,194.333,1003.641,193.101C1004.537,191.422,1006.213,190.761,1007.866,190.096C1008.139,189.983,1008.382,189.785,1008.635,189.627C1008.443,189.352,1008.306,188.99,1008.044,188.816C1004.921,186.772,1001.796,184.734,998.639,182.737C992.172,178.638,985.678,174.58,978.71,171.36C975.969,170.091,973.227,168.799,970.405,167.729C967.167,166.504,963.868,165.429,960.546,164.457C957.532,163.572,954.472,162.781,951.388,162.202C947.758,161.517,944.086,160.996,940.414,160.612C936.257,160.174,932.081,159.918,927.913,159.677C925.677,159.545,925.668,159.635,926.383,161.701C926.407,161.761,926.414,161.823,926.437,161.887C927.445,165.201,928.499,168.509,929.449,171.839C930.168,174.371,930.798,176.93,931.418,179.491C932.056,182.113,932.667,184.743,933.251,187.377C933.674,189.322,934.013,191.285,934.428,193.234C934.866,195.341,935.347,197.441,935.812,199.54C935.943,200.144,936.324,200.371,936.928,200.378C938.439,200.405,939.95,200.505,941.464,200.498C949.712,200.471,957.955,200.409,966.204,200.378C972.1,200.359,977.998,200.375,983.896,200.378" fill="rgb(12,137,155)" stroke="none" stroke-width="1"/><path id="eZLEJQd7XYS26" d="M1082.717,302.809C1063.523,302.84,1048.393,287.514,1048.009,268.939C1047.597,248.992,1063.62,233.258,1083.056,233.488C1102.011,233.707,1117.38,248.68,1117.408,268.113C1117.435,287.521,1102.038,302.74,1082.717,302.809M1082.634,292.024C1095.748,292.135,1106.234,281.166,1106.576,268.938C1106.96,255.185,1095.722,244.281,1082.728,244.218C1069.958,244.164,1058.363,255.211,1058.854,269.066C1059.281,281.022,1069.683,292.104,1082.634,292.024" fill="rgb(12,137,155)" stroke="none" stroke-width="1"/><path id="eZLEJQd7XYS27" d="M820.484,302.809C801.525,303.036,785.925,287.871,785.51,269.011C785.072,249.245,800.612,234.384,818.176,233.539C839.402,232.515,854.081,249.126,854.812,266.452C855.678,286.855,839.51,302.729,820.484,302.809M796.303,268.166C796.145,280.835,807.197,292.39,820.739,292.044C833.259,291.721,844.101,281.289,844.067,268.101C844.036,254.962,833.378,244.265,820.139,244.255C807.026,244.238,796.273,255.143,796.303,268.166" fill="rgb(12,137,155)" stroke="none" stroke-width="1"/></g></g></svg>