<svg id="eBSqj5Pl08T1" xmlns="http://www.w3.org/2000/svg" xmlns:xlink="http://www.w3.org/1999/xlink" viewBox="20 -65 1160 710" shape-rendering="geometricPrecision" text-rendering="geometricPrecision"><defs><rect id="eBSqj5Pl08T2" width="50.212" height="50.212" rx="0" ry="0"/><rect id="eBSqj5Pl08T3" width="50.212" height="50.211" rx="0" ry="0"/><rect id="eBSqj5Pl08T4" width="62.793" height="62.793" rx="0" ry="0"/><rect id="eBSqj5Pl08T5" width="58.351" height="58.35" rx="0" ry="0"/><rect id="eBSqj5Pl08T6" width="54.526" height="54.529" rx="0" ry="0"/><rect id="eBSqj5Pl08T7" width="61.734" height="61.734" rx="0" ry="0"/><rect id="eBSqj5Pl08T8" width="63.248" height="63.249" rx="0" ry="0"/><rect id="eBSqj5Pl08T9" width="63.527" height="63.061" rx="0" ry="0"/><rect id="eBSqj5Pl08T10" width="63.542" height="63.543" rx="0" ry="0"/><rect id="eBSqj5Pl08T11" width="62.916" height="62.914" rx="0" ry="0"/><rect id="eBSqj5Pl08T12" width="50.873" height="50.872" rx="0" ry="0"/><rect id="eBSqj5Pl08T13" width="62.716" height="62.716" rx="0" ry="0"/><rect id="eBSqj5Pl08T14" width="62.523" height="62.523" rx="0" ry="0"/><rect id="eBSqj5Pl08T15" width="63.049" height="63.049" rx="0" ry="0"/></defs><g id="eBSqj5Pl08T16"><rect id="eBSqj5Pl08T17" style="mix-blend-mode:overlay" width="1200" height="720" rx="0" ry="0" transform="matrix(1 0 0 1 2.557 -75)" opacity="0.9" fill="rgb(64,159,76)" stroke="none" stroke-width="1"/><g id="eBSqj5Pl08T18" style="mix-blend-mode:overlay" paint-order="fill markers stroke"><path id="eBSqj5Pl08T19" d="M916.942,209.705C916.187,209.683,915.449,209.637,914.693,209.637C840.745,209.637,766.782,209.637,692.835,209.63C691.898,209.63,690.948,209.592,690.012,209.49C688.684,209.343,687.975,209.992,687.703,211.222C687.598,211.667,687.566,212.147,687.566,212.618C687.566,218.647,687.566,224.672,687.582,230.694C687.598,231.441,687.794,232.199,687.733,232.935C687.703,233.282,687.265,233.591,687.008,233.916C686.767,233.573,686.329,233.225,686.329,232.886C686.358,226.212,686.434,219.526,686.51,212.851C686.541,210.044,685.74,209.297,682.963,209.558C682.315,209.622,681.65,209.63,680.986,209.63L439.353,209.63C435.475,209.63,435.415,209.535,435.415,205.71C435.423,199.119,435.4,192.531,435.388,185.94C435.388,185.615,435.343,185.256,435.452,184.966C435.52,184.739,435.844,184.407,435.976,184.438C436.241,184.51,436.494,184.755,436.648,184.997C436.758,185.174,436.705,185.454,436.705,185.691C436.625,192.275,436.551,198.866,436.471,205.449C436.442,207.943,437.135,208.641,439.633,208.641C454.888,208.634,470.137,208.634,485.386,208.634C551.156,208.627,616.909,208.634,682.678,208.627C760.067,208.627,837.441,208.634,914.83,208.627C915.539,208.627,916.249,208.593,916.942,208.578L916.942,209.705Z" fill="rgb(100,81,161)" stroke="none" stroke-width="1"/><path id="eBSqj5Pl08T20" d="M57.977,184.566C60.558,184.049,60.52,184.049,60.505,186.776C60.471,193.175,60.471,199.582,60.471,205.977C60.471,208.143,60.984,208.637,63.138,208.637C99.863,208.637,136.58,208.629,173.298,208.629C181.489,208.629,189.68,208.629,197.871,208.629C244.009,208.629,290.136,208.637,336.268,208.637C338.531,208.637,339.078,208.094,339.07,205.784C339.054,199.103,339.017,192.417,339.04,185.736C339.04,185.279,339.432,184.83,339.651,184.373C339.889,184.86,340.344,185.339,340.344,185.818C340.375,192.828,340.33,199.835,340.352,206.844C340.368,208.829,339.711,209.625,337.741,209.625C294.47,209.625,251.206,209.632,207.947,209.625C207.241,209.625,206.54,209.587,205.834,209.523C203.797,209.338,202.639,210.273,202.631,212.281C202.624,215.333,202.722,218.385,202.744,221.438C202.759,224.26,202.729,227.071,202.744,229.893C202.744,230.829,202.907,231.768,202.839,232.696C202.816,233.107,202.398,233.485,202.16,233.881C201.919,233.485,201.485,233.085,201.485,232.689C201.496,226.007,201.527,219.322,201.602,212.64C201.633,210.195,200.738,209.308,198.305,209.516C197.317,209.602,196.324,209.626,195.336,209.626C150.994,209.633,106.647,209.633,62.304,209.633C62.018,209.633,61.739,209.641,61.455,209.626C59.399,209.524,58.803,208.917,58.81,206.845C58.818,200.345,58.825,193.848,58.825,187.351C58.825,186.661,58.987,185.872,57.976,185.695L57.976,184.566Z" fill="rgb(100,81,161)" stroke="none" stroke-width="1"/><path id="eBSqj5Pl08T21" d="M900.945,136.9C899.812,135.549,898.681,134.206,897.58,132.837C897.383,132.599,897.324,132.226,897.293,131.901C897.083,129.63,896.766,127.359,896.75,125.08C896.721,99.945,896.734,74.81,896.75,49.671C896.75,48.698,896.916,47.716,897.128,46.766C897.459,45.177,897.128,44.672,895.498,44.664C885.371,44.664,875.261,44.664,865.133,44.664C836.414,44.664,807.71,44.671,778.991,44.656C778.297,44.656,777.603,44.551,776.908,44.434C775.958,44.264,775.445,44.626,775.415,45.592C775.384,46.433,775.415,47.286,775.415,48.135L775.415,136.816C775.415,139.876,774.735,139.92,778.509,139.92C808.449,139.905,838.377,139.913,868.319,139.913C868.786,139.913,869.269,139.897,869.722,139.966C871.352,140.193,871.533,140.479,871.064,142.052C870.809,142.863,870.763,144.018,870.219,144.395C869.691,144.749,868.605,144.21,867.775,144.21C844.715,144.195,821.641,144.203,798.581,144.21L773.59,144.21C770.918,144.21,770.934,144.21,770.934,141.418C770.95,117.374,770.95,93.314,770.95,69.266C770.95,51.379,770.934,33.492,770.904,15.604C770.904,14.36,771.326,13.79,772.625,13.797C784.712,13.849,796.816,13.895,808.905,13.903C838.242,13.91,867.564,13.903,896.887,13.895C897.868,13.895,898.864,13.842,899.845,13.827C901.023,13.812,901.475,14.352,901.475,15.575C901.43,25.882,901.414,36.19,901.414,46.497L901.414,133.911L901.414,136.808C901.248,136.839,901.098,136.87,900.945,136.9M836.008,39.187C855.355,39.187,874.702,39.187,894.049,39.187C894.517,39.187,894.985,39.179,895.467,39.187C896.645,39.187,897.097,38.64,897.036,37.425C896.886,34.29,896.765,31.143,896.75,28.008C896.734,25.472,896.9,22.937,897.021,20.413C897.127,18.489,896.81,18.164,894.622,18.164L800.572,18.164C792.755,18.164,784.953,18.172,777.135,18.157C776.123,18.15,775.414,18.278,775.429,19.587C775.475,25.318,775.49,31.061,775.459,36.792C775.444,39.188,775.383,39.188,777.828,39.188C797.222,39.187,816.613,39.187,836.008,39.187" fill="rgb(100,81,161)" stroke="none" stroke-width="1"/><path id="eBSqj5Pl08T22" d="M239.037,33.497L295.935,33.497C298.053,33.497,298.493,34.014,298.23,36.157C298.139,36.904,298.117,37.655,298.117,38.406C298.105,63.778,298.105,89.147,298.117,114.512C298.117,115.357,298.207,116.206,298.279,117.047C298.441,119.035,298.014,119.529,296.046,119.529C292.42,119.537,288.797,119.529,285.172,119.522C278.019,119.496,270.861,119.48,263.716,119.458C261.829,119.458,261.381,119.953,261.777,121.737C262.84,126.601,263.924,131.453,265.036,136.304C265.383,137.847,266.356,138.56,267.987,138.56C269.865,138.56,271.753,138.545,273.634,138.538C275.567,138.53,275.883,138.976,275.853,140.87C275.785,145.337,275.777,149.812,275.83,154.275C275.853,156.271,275.698,156.55,273.634,156.55C266.859,156.55,260.083,156.55,253.306,156.55C237.491,156.55,221.682,156.55,205.863,156.55C205.441,156.55,205.014,156.55,204.592,156.516C203.634,156.456,203.208,155.969,203.208,154.958C203.23,150.121,203.23,145.284,203.2,140.44C203.193,139.286,203.717,138.791,204.807,138.791C206.97,138.791,209.135,138.753,211.296,138.821C212.643,138.863,213.469,138.304,213.809,137.036C214.488,134.504,215.16,131.969,215.801,129.419C216.383,127.148,216.915,124.861,217.447,122.575C217.998,120.216,217.462,119.582,215.062,119.582C204.144,119.598,193.225,119.598,182.299,119.598C180.168,119.598,180.012,119.368,180.012,117.232C180.028,94.262,180.035,71.29,180.035,48.324C180.035,44.046,180.004,39.756,179.975,35.474C179.967,33.859,180.345,33.497,182.129,33.497C191.633,33.505,201.145,33.512,210.649,33.512C220.115,33.52,229.574,33.512,239.04,33.512L239.04,33.497ZM239.12,38.194L239.12,38.209C237.754,38.209,236.385,38.221,235.026,38.209C218.837,38.201,202.64,38.194,186.454,38.187C184.862,38.187,184.458,38.666,184.632,40.243C184.693,40.76,184.708,41.281,184.708,41.798C184.708,57.327,184.716,72.86,184.693,88.389C184.677,96.814,184.598,105.235,184.553,113.656C184.546,114.931,185.01,115.372,186.368,115.365C195.596,115.342,204.821,115.335,214.046,115.301C216.396,115.301,218.754,115.271,221.102,115.233C222.803,115.203,223.255,115.557,223.112,117.267C223.01,118.41,222.569,119.516,222.274,120.636C222.112,121.258,221.912,121.877,221.78,122.511C221.173,125.465,220.629,128.431,219.965,131.373C219.272,134.448,218.374,137.486,217.739,140.568C217.34,142.515,216.668,143.289,214.679,143.303C212.887,143.311,211.102,143.296,209.318,143.288C208.212,143.28,207.733,143.691,207.82,144.925C207.941,146.789,207.925,148.675,207.812,150.543C207.74,151.619,208.137,152.037,209.117,152.075C209.494,152.09,209.864,152.082,210.246,152.082L269.26,152.082C269.548,152.082,269.834,152.075,270.113,152.082C270.993,152.12,271.363,151.757,271.34,150.822C271.287,148.758,271.287,146.679,271.34,144.608C271.363,143.566,270.964,143.19,269.926,143.22C268.141,143.28,266.348,143.273,264.564,143.242C263.497,143.227,262.379,143.042,262.029,141.857C261.422,139.763,260.949,137.617,260.437,135.492C260.324,134.99,260.324,134.454,260.184,133.96C259.463,131.371,258.622,128.814,258.011,126.195C257.324,123.304,256.822,120.377,256.29,117.457C255.925,115.503,256.29,115.091,258.245,115.091C269.349,115.091,280.46,115.107,291.572,115.114C293.303,115.121,293.586,114.827,293.586,113.05C293.578,89.284,293.564,65.515,293.556,41.746C293.556,41.323,293.549,40.897,293.586,40.482C293.763,38.508,293.473,38.192,291.5,38.192C274.046,38.194,256.585,38.194,239.12,38.194" fill="rgb(100,81,161)" stroke="none" stroke-width="1"/><path id="eBSqj5Pl08T23" d="M537.18,143.63L474.06,143.63C472.272,143.63,472.06,143.411,472.06,141.582C472.076,100.019,472.091,58.466,472.076,16.9C472.076,12.629,472.038,13.108,475.906,13.108C517.41,13.108,558.928,13.1,600.444,13.092C602.24,13.092,602.557,13.424,602.557,15.246C602.541,56.895,602.528,98.551,602.528,140.204C602.528,143.638,602.557,143.619,599.161,143.619C578.501,143.619,557.842,143.619,537.181,143.619L537.181,143.63ZM537.135,138.915L555.064,138.915L596.142,138.915C597.999,138.915,598.12,138.775,598.014,136.878C597.969,135.987,597.969,135.093,597.969,134.195C597.969,101.534,597.969,68.872,597.969,36.21C597.969,30.562,598.014,24.921,598.059,19.274C598.074,17.983,597.471,17.583,596.219,17.583C563.184,17.606,530.148,17.606,497.113,17.606C490.941,17.613,484.783,17.598,478.607,17.606C476.404,17.606,476.072,18.013,476.449,20.201C476.525,20.658,476.51,21.137,476.51,21.597C476.51,59.352,476.51,97.088,476.51,134.844C476.51,135.353,476.494,135.878,476.42,136.383C476.027,138.73,476.178,138.915,478.531,138.915C498.064,138.915,517.593,138.915,537.135,138.915" fill="rgb(100,81,161)" stroke="none" stroke-width="1"/><path id="eBSqj5Pl08T24" d="M836.294,54.35L881.342,54.35C881.628,54.35,881.901,54.342,882.173,54.357C884.028,54.444,884.511,54.904,884.527,56.753C884.542,60.896,884.511,65.042,884.511,69.185C884.527,83.718,884.541,98.269,884.541,112.81C884.541,113.237,884.587,113.693,884.451,114.07C884.314,114.409,883.983,114.794,883.666,114.919C883.425,115.006,882.927,114.78,882.729,114.549C881.81,113.481,880.888,112.402,880.119,111.24C879.787,110.731,879.651,109.999,879.651,109.373C879.606,102.031,879.59,94.692,879.576,87.351C879.576,85.982,879.622,84.623,879.667,83.265C879.696,82.344,879.365,81.873,878.354,81.903C876.574,81.948,874.778,81.911,872.997,81.911L794.899,81.911C792.711,81.911,792.559,82.111,792.877,84.284C792.967,84.88,792.967,85.495,792.967,86.106C792.982,95.897,792.982,105.688,792.967,115.478C792.967,116.274,792.907,117.07,792.801,117.854C792.56,119.548,792.892,119.941,794.656,119.941C808.164,119.941,821.671,119.941,835.177,119.941C847.402,119.941,859.641,119.998,871.895,119.903C874.642,119.881,874.732,121.611,874.113,123.389C873.541,125.049,872.559,125.498,870.839,125.49C844.068,125.445,817.28,125.46,790.507,125.46C787.731,125.468,787.323,125.035,787.323,122.284C787.338,100.631,787.323,78.983,787.323,57.323C787.323,55.191,787.865,54.557,789.979,54.365C790.356,54.335,790.733,54.35,791.11,54.35L836.294,54.35ZM836.309,59.888L836.309,59.99L794.792,59.99C793.162,59.997,792.951,60.261,792.951,61.899C792.966,66.132,792.966,70.365,792.935,74.603C792.92,75.738,793.342,76.195,794.504,76.203C817.896,76.248,841.274,76.335,864.664,76.38C869.117,76.388,873.584,76.211,878.036,76.211C879.213,76.211,879.454,75.747,879.454,74.702C879.409,70.321,879.393,65.941,879.454,61.569C879.484,60.278,878.971,59.968,877.795,59.976C873.418,59.984,869.057,59.897,864.68,59.897C855.219,59.88,845.756,59.888,836.309,59.888" fill="rgb(100,81,161)" stroke="none" stroke-width="1"/><path id="eBSqj5Pl08T25" d="M94.469,84.276L94.469,16.21C94.469,16.025,94.469,15.84,94.461,15.655C94.4,12.543,93.906,12.316,97.868,12.316C122.153,12.338,146.44,12.332,170.733,12.332C171.205,12.332,171.677,12.332,172.148,12.347C173.012,12.373,173.393,12.811,173.382,13.694C173.321,24.85,173.231,35.999,173.219,47.152C173.204,82.028,173.211,116.909,173.219,151.781C173.219,152.77,173.238,153.766,173.336,154.739C173.453,155.822,173.034,156.361,171.956,156.368C171.575,156.376,171.198,156.384,170.829,156.384C146.21,156.376,121.592,156.376,96.975,156.376C94.41,156.376,94.447,156.376,94.454,153.75C94.462,130.592,94.454,107.435,94.454,84.277L94.469,84.277ZM168.793,84.291L168.786,84.291C168.786,62.45,168.786,40.613,168.793,18.768C168.793,16.829,168.714,16.723,166.714,16.723L121.666,16.723C114.838,16.723,108.013,16.723,101.184,16.73C99.011,16.73,98.943,16.813,99.067,18.938C99.112,19.783,99.09,20.632,99.09,21.481L99.09,125.136C99.09,133.275,99.111,141.424,99.067,149.562C99.052,152.143,98.958,152.135,101.538,152.135C117.596,152.135,133.645,152.135,149.699,152.135C155.396,152.135,161.089,152.15,166.782,152.135C168.593,152.135,168.793,151.901,168.793,150.248C168.793,128.256,168.793,106.275,168.793,84.291" fill="rgb(100,81,161)" stroke="none" stroke-width="1"/><path id="eBSqj5Pl08T26" d="M903.813,154.251C902.258,154.251,900.705,154.229,899.151,154.258C897.627,154.292,897.294,154.73,897.687,156.197C898.547,159.298,899.421,162.388,900.328,165.47C900.75,166.983,901.249,168.484,901.716,169.998C901.973,170.866,901.822,171.605,900.946,172.024C900.358,172.299,899.739,172.556,899.12,172.718C896.344,173.412,893.567,174.053,890.805,174.752C890.352,174.857,889.931,175.106,889.507,175.299C887.984,175.986,886.866,175.299,886.504,173.707C885.84,170.896,885.04,168.123,884.3,165.338C883.788,163.437,883.26,161.546,882.778,159.645C882.49,158.562,881.977,158.472,881.042,159.019C878.37,160.573,875.684,162.086,872.953,163.509C872.319,163.841,871.474,163.788,870.734,163.908C870.673,163.105,870.462,162.294,870.583,161.512C870.931,159.019,871.414,156.539,871.836,154.057C872.484,150.231,873.164,146.417,873.783,142.591C874.175,140.18,874.447,137.762,874.794,135.351C875.201,132.57,875.654,129.793,876.077,127.02C876.649,123.274,877.179,119.52,877.782,115.777C877.858,115.385,878.37,114.838,878.748,114.766C879.126,114.691,879.729,115.03,880,115.37C884.453,120.878,888.859,126.41,893.28,131.945C896.676,136.193,900.056,140.453,903.482,144.671C905.369,146.995,907.392,149.221,909.277,151.549C909.701,152.066,909.822,152.839,910.077,153.496C909.444,153.711,908.825,154.066,908.191,154.096C906.726,154.19,905.263,154.13,903.814,154.13L903.814,154.251Z" fill="rgb(100,81,161)" stroke="none" stroke-width="1"/><path id="eBSqj5Pl08T27" d="M386.749,79.432C367.41,79.432,348.07,79.432,328.719,79.425C327.545,79.425,326.373,79.24,325.207,79.27C324.664,79.285,323.683,79.621,323.683,79.813C323.675,80.439,323.868,81.243,324.294,81.643C326.249,83.473,328.305,85.197,330.326,86.944C330.908,87.445,331.512,88.049,330.707,88.638C330.311,88.929,329.263,88.898,328.9,88.574C325.452,85.514,322.089,82.364,318.721,79.224C318.057,78.613,318.189,77.979,318.815,77.402C322.098,74.373,325.384,71.336,328.651,68.306C329.293,67.702,330.009,67.28,330.738,68.061C331.556,68.947,330.738,69.498,330.141,70.015C328.217,71.668,326.241,73.252,324.37,74.961C323.924,75.369,323.615,76.165,323.638,76.768C323.646,77.029,324.641,77.477,325.192,77.477C365.569,77.439,405.943,77.371,446.324,77.3C446.75,77.3,447.229,77.247,447.569,77.432C447.879,77.595,448.218,78.043,448.218,78.368C448.218,78.692,447.885,79.141,447.576,79.311C447.237,79.488,446.757,79.439,446.33,79.439C426.474,79.447,406.607,79.439,386.749,79.439L386.749,79.432Z" fill="rgb(100,81,161)" stroke="none" stroke-width="1"/><path id="eBSqj5Pl08T28" d="M690.555,79.435C671.072,79.435,651.59,79.435,632.091,79.428C631.155,79.428,630.204,79.191,629.284,79.274C628.68,79.338,627.729,79.692,627.624,80.077C627.503,80.59,627.941,81.416,628.393,81.839C630.28,83.601,632.243,85.265,634.174,86.97C634.279,87.064,634.445,87.178,634.445,87.286C634.461,87.845,634.416,88.4,634.4,88.958C633.873,88.879,633.193,88.981,632.846,88.679C631.337,87.396,629.963,85.981,628.514,84.638C626.643,82.914,624.772,81.204,622.871,79.507C621.828,78.571,621.828,78.179,622.84,77.244C626.13,74.221,629.39,71.161,632.709,68.178C633.087,67.846,633.812,67.895,634.37,67.762C634.354,68.396,634.565,69.283,634.234,69.608C632.392,71.4,630.386,73.034,628.513,74.803C628.031,75.256,627.684,76.014,627.608,76.671C627.594,76.889,628.605,77.474,629.132,77.474C657.791,77.444,686.449,77.369,715.108,77.312C726.638,77.29,738.169,77.297,749.713,77.319C750.664,77.319,752.158,76.942,752.112,78.447C752.083,79.831,750.633,79.428,749.713,79.428C729.989,79.443,710.28,79.435,690.555,79.435" fill="rgb(100,81,161)" stroke="none" stroke-width="1"/><path id="eBSqj5Pl08T29" d="M831.736,103.74C823.118,103.74,814.501,103.74,805.899,103.74C803.424,103.732,802.594,102.97,802.61,100.782C802.624,99.175,803.424,98.285,805.099,98.115C805.793,98.047,806.502,98.1,807.212,98.1C823.766,98.1,840.337,98.093,856.893,98.108C857.693,98.108,858.493,98.21,859.262,98.395C860.59,98.719,860.952,99.772,860.938,100.983C860.922,102.174,860.605,103.246,859.233,103.533C858.598,103.665,857.934,103.733,857.286,103.733C848.759,103.74,840.248,103.74,831.736,103.74" fill="rgb(100,81,161)" stroke="none" stroke-width="1"/><path id="eBSqj5Pl08T30" d="M831.796,107.174C840.595,107.174,849.394,107.174,858.192,107.174C860.229,107.181,861.074,108.064,860.954,109.996C860.864,111.331,860.063,112.165,858.721,112.237C857.875,112.282,857.015,112.244,856.17,112.244C839.283,112.244,822.396,112.251,805.509,112.251C803.289,112.251,802.596,111.625,802.625,109.599C802.656,107.777,803.289,107.173,805.267,107.173C813.025,107.173,820.796,107.18,828.553,107.18L831.797,107.18L831.797,107.174Z" fill="rgb(100,81,161)" stroke="none" stroke-width="1"/><path id="eBSqj5Pl08T31" d="M819.633,89.581C824.417,89.581,829.216,89.566,834.016,89.589C836.022,89.596,836.37,89.891,836.612,91.396C837.034,94.018,836.234,94.969,833.548,94.969C824.282,94.976,815.031,94.976,805.766,94.969C803.636,94.969,802.625,94.071,802.625,92.249C802.611,90.362,803.35,89.589,805.236,89.582C810.034,89.573,814.834,89.581,819.633,89.581" fill="rgb(100,81,161)" stroke="none" stroke-width="1"/><path id="eBSqj5Pl08T32" d="M205.866,257.884C205.519,258.201,205.262,258.427,205.017,258.669C204.805,258.405,204.382,258.081,204.435,257.922C204.545,257.598,204.922,257.363,205.186,257.084C205.379,257.311,205.572,257.538,205.866,257.884" fill="rgb(100,81,161)" stroke="none" stroke-width="1"/><path id="eBSqj5Pl08T33" d="M694.826,256.722C695.113,257.243,695.415,257.537,695.399,257.809C695.369,258.043,694.992,258.262,694.781,258.488C694.585,258.209,694.299,257.953,694.252,257.658C694.223,257.446,694.524,257.198,694.826,256.722" fill="rgb(100,81,161)" stroke="none" stroke-width="1"/><path id="eBSqj5Pl08T34" d="M815.92,28.604C816.252,23.801,819.497,19.741,825.066,19.673C830.424,19.594,834.347,23.752,834.347,28.691C834.331,34.037,830.152,37.908,825.111,37.783C819.693,37.67,816.177,34.051,815.92,28.604M821.429,28.596C821.414,31.094,822.787,32.531,825.172,32.509C827.375,32.494,829.231,30.755,829.246,28.714C829.261,26.707,827.345,24.865,825.217,24.851C822.893,24.842,821.443,26.272,821.429,28.596" fill="rgb(100,81,161)" stroke="none" stroke-width="1"/><path id="eBSqj5Pl08T35" d="M796.452,28.648C796.029,23.834,800.39,19.597,805.492,19.662C811.105,19.729,814.638,23.702,814.638,28.648C814.638,34.142,810.895,37.658,805.492,37.798C800.708,37.926,796.029,34.055,796.452,28.648M809.16,28.754C809.174,26.23,807.846,24.823,805.476,24.823C803.364,24.815,801.401,26.645,801.372,28.641C801.326,30.663,803.214,32.534,805.341,32.572C807.681,32.603,809.491,30.95,809.16,28.754" fill="rgb(100,81,161)" stroke="none" stroke-width="1"/><path id="eBSqj5Pl08T36" d="M794.655,28.765C795.169,34.662,790.084,37.953,785.767,37.79C780.213,37.589,776.727,34.251,776.666,28.75C776.605,23.721,779.972,19.763,785.706,19.672C790.37,19.594,795.229,23.133,794.655,28.765M788.892,26.377C789.029,25.721,789.299,25.166,789.149,24.981C788.741,24.524,788.182,24.045,787.624,23.92C784.259,23.204,781.98,24.392,780.471,27.576C779.958,28.651,780.577,30.813,781.422,30.666C782.359,30.519,782.585,31.084,783.036,31.492C784.456,32.76,786.991,32.929,788.198,31.801C790.249,29.917,790.431,28.188,788.892,26.377" fill="rgb(100,81,161)" stroke="none" stroke-width="1"/><path id="eBSqj5Pl08T37" d="M239.116,48.698L276.961,48.698C279.018,48.698,279.651,49.324,279.659,51.388C279.667,68.339,279.667,85.287,279.667,102.232C279.667,103.963,278.715,104.872,276.916,104.872C252.438,104.865,227.959,104.857,203.481,104.85C202.768,104.85,202.066,104.866,201.361,104.872C199.429,104.88,198.713,104.171,198.713,102.254C198.721,94.953,198.75,87.656,198.75,80.364C198.75,70.758,198.743,61.156,198.728,51.55C198.721,49.022,199.045,48.706,201.55,48.706C214.065,48.713,226.591,48.713,239.116,48.713L239.116,48.698ZM238.954,99.911L272.427,99.911C274.543,99.911,274.853,99.594,274.853,97.44C274.853,84.589,274.845,71.732,274.845,58.881C274.845,57.746,274.884,56.618,274.824,55.489C274.715,53.629,274.235,53.203,272.39,53.203C253.699,53.21,235.004,53.21,216.313,53.218C212.691,53.218,209.065,53.233,205.444,53.188C204.067,53.173,203.433,53.784,203.388,55.105C203.38,55.531,203.372,55.954,203.372,56.373C203.372,70.072,203.372,83.771,203.365,97.471C203.365,99.704,203.573,99.912,205.768,99.912C216.834,99.911,227.889,99.911,238.954,99.911" fill="rgb(100,81,161)" stroke="none" stroke-width="1"/><path id="eBSqj5Pl08T38" d="M544.5,55.263C545.737,55.95,546.838,56.406,547.714,57.134C548.031,57.387,547.94,58.367,547.759,58.926C547.066,60.94,546.264,62.921,545.51,64.921C544.785,66.838,544.076,68.754,543.382,70.671C542.763,72.324,542.144,73.988,541.556,75.648C540.742,77.927,539.957,80.213,539.142,82.493C538.69,83.817,538.176,85.122,537.738,86.451C537.134,88.304,536.622,90.197,535.972,92.046C535.279,94.023,534.463,95.947,533.739,97.909C533.513,98.513,533.407,99.169,533.271,99.803C532.864,101.81,531.626,102.436,529.831,101.535C529.407,101.324,528.955,101.184,528.533,100.976C527.688,100.527,527.491,99.833,527.808,98.954C529.016,95.569,530.193,92.174,531.43,88.808C532.592,85.632,533.875,82.485,535.037,79.312C535.685,77.508,536.168,75.656,536.787,73.849C537.42,71.993,538.145,70.17,538.795,68.322C539.473,66.398,540.123,64.458,540.787,62.527C541.435,60.636,542.01,58.705,542.779,56.872C543.052,56.236,543.851,55.843,544.5,55.263" fill="rgb(100,81,161)" stroke="none" stroke-width="1"/><path id="eBSqj5Pl08T39" d="M521.259,87.943C521.395,89.897,520.067,90.603,519.071,91.282C518.664,91.561,517.426,91.003,516.793,90.524C512.385,87.189,508.04,83.748,503.648,80.386C502.078,79.197,502.078,78.209,503.648,77.024C507.511,74.134,511.343,71.199,515.192,68.271C515.932,67.708,516.716,67.173,517.396,66.532C518.376,65.623,519.297,65.637,520.173,66.57C522.044,68.558,522.708,69.423,519.795,71.294C517.048,73.064,514.528,75.195,511.918,77.188C509.866,78.757,509.926,78.712,512.009,80.248C514.981,82.451,517.879,84.752,520.777,87.058C521.093,87.31,521.214,87.837,521.259,87.943" fill="rgb(100,81,161)" stroke="none" stroke-width="1"/><path id="eBSqj5Pl08T40" d="M552.453,88.075C552.997,87.328,553.268,86.762,553.691,86.401C556.845,83.748,560.045,81.13,563.245,78.534C564.075,77.855,563.969,77.345,563.169,76.772C560.09,74.626,557.026,72.49,553.993,70.305C552.665,69.347,552.636,68.457,553.738,67.283C553.828,67.174,553.948,67.091,554.038,66.981C555.744,64.997,555.819,65.08,557.992,66.766C561.886,69.781,565.84,72.716,569.855,75.557C572.073,77.127,572.028,77.84,569.795,79.545C566.867,81.794,564.104,84.284,561.283,86.687C559.97,87.808,558.732,89.041,557.36,90.094C556.741,90.565,555.563,91.158,555.172,90.905C554.144,90.226,553.404,89.112,552.453,88.075" fill="rgb(100,81,161)" stroke="none" stroke-width="1"/><path id="eBSqj5Pl08T41" d="M873.343,75.673C872.181,74.745,871.125,74.066,870.265,73.194C869.208,72.119,868.786,72.059,867.7,73.194C867.217,73.696,866.658,74.137,866.099,74.568C864.681,75.681,863.669,75.179,862.267,73.896C861.407,73.115,861.708,71.486,862.735,70.527C863.307,69.987,863.911,69.479,864.501,68.943C865.12,68.373,865.06,67.807,864.456,67.275C863.821,66.713,863.186,66.162,862.569,65.585C861.693,64.74,861.437,63.133,862.221,62.408C863.383,61.31,864.409,60.537,865.798,61.48C866.568,61.989,867.232,62.687,867.911,63.325C868.665,64.03,869.359,64.06,870.068,63.265C870.446,62.857,870.838,62.453,871.275,62.121C873.313,60.559,873.358,60.574,875.335,62.144C876.406,63,876.527,64.098,875.592,65.181C874.973,65.882,874.294,66.524,873.6,67.158C872.89,67.815,872.906,68.418,873.6,69.067C874.189,69.599,874.883,70.097,875.275,70.761C875.713,71.501,876.301,72.651,876.015,73.21C875.531,74.146,874.416,74.746,873.343,75.673" fill="rgb(100,81,161)" stroke="none" stroke-width="1"/><path id="eBSqj5Pl08T42" d="M807.771,71.014C805.569,71.014,803.365,71.006,801.147,71.014C798.204,71.036,797.644,69.449,798.294,66.626C798.55,65.483,799.622,65.204,800.648,65.196C805.387,65.166,810.14,65.151,814.879,65.196C816.403,65.211,817.293,66.471,817.218,68.263C817.158,70.04,816.298,70.991,814.683,71.013C812.389,71.037,810.079,71.014,807.771,71.014" fill="rgb(100,81,161)" stroke="none" stroke-width="1"/><path id="eBSqj5Pl08T43" d="M133.672,56.851C142.01,56.851,150.341,56.851,158.668,56.851C161.196,56.843,161.585,57.285,161.585,59.82C161.566,65.846,161.592,71.867,161.63,77.892C161.637,79.801,160.951,80.582,159.026,80.582C142.128,80.589,125.229,80.589,108.33,80.582C106.855,80.582,106.044,79.755,106.033,78.163C106.011,71.81,106.011,65.453,106.033,59.099C106.044,57.409,106.708,56.85,108.538,56.842C116.92,56.843,125.296,56.843,133.672,56.851M133.642,75.055L133.642,75.047C140.463,75.047,147.281,75.039,154.095,75.055C155.208,75.055,156.08,74.915,156.072,73.504C156.042,70.211,156.042,66.92,156.042,63.627C156.042,62.491,155.585,61.921,154.359,61.929C140.573,61.951,126.795,61.951,113.02,61.929C111.854,61.921,111.405,62.378,111.413,63.506C111.435,66.848,111.435,70.187,111.413,73.527C111.405,74.663,111.899,75.082,113.042,75.07C119.912,75.04,126.771,75.055,133.642,75.055" fill="rgb(100,81,161)" stroke="none" stroke-width="1"/><path id="eBSqj5Pl08T44" d="M133.672,24.491C142.003,24.491,150.33,24.491,158.652,24.491C161.078,24.491,161.636,25.231,161.595,27.66C161.512,33.436,161.535,39.224,161.565,45.012C161.572,47.834,161.255,48.226,158.474,48.226C141.915,48.233,125.356,48.233,108.797,48.226C106.59,48.226,106.024,47.649,106.024,45.491C106.032,39.42,106.024,33.354,106.017,27.287C106.017,25.28,106.82,24.491,108.839,24.491C117.113,24.491,125.398,24.491,133.672,24.491M133.665,43.381L133.665,43.381C140.626,43.381,147.587,43.389,154.552,43.381C156.227,43.381,156.59,42.747,156.544,40.941C156.461,37.851,156.515,34.753,156.597,31.652C156.639,30.309,155.941,29.505,154.466,29.513C145.867,29.535,137.258,29.574,128.652,29.592C123.529,29.6,118.397,29.581,113.274,29.521C111.591,29.505,111.097,29.939,111.112,31.645C111.127,34.938,111.119,38.228,111.105,41.522C111.105,42.925,111.535,43.381,112.927,43.381C119.833,43.381,126.749,43.381,133.665,43.381" fill="rgb(100,81,161)" stroke="none" stroke-width="1"/><path id="eBSqj5Pl08T45" d="M133.812,97.681C140.52,97.416,146.942,103.962,146.757,110.693C146.546,118.016,140.637,123.736,133.665,123.619C126.425,123.506,120.841,117.941,120.717,110.554C120.607,103.815,126.828,97.394,133.812,97.681M143.58,110.584C143.675,109.033,143.802,107.418,142.358,106.227C142.165,106.064,142.075,105.74,141.996,105.473C141.295,102.975,139.015,101.885,137.058,101.338C134.387,100.595,131.606,100.425,128.754,102.266C126.101,103.987,125.061,106.405,123.853,108.88C122.571,111.537,124.265,113.857,125.445,115.917C127.192,119.003,130.459,120.139,133.783,120.894C133.998,120.95,134.323,120.966,134.469,120.841C136.099,119.52,138.465,119.898,139.989,118.037C141.802,115.794,144.006,113.9,143.58,110.584" fill="rgb(100,81,161)" stroke="none" stroke-width="1"/><path id="eBSqj5Pl08T46" d="M133.725,102.363C137.928,101.997,142.324,107.038,142.1,110.622C141.844,114.764,138.689,118.835,133.725,118.733C128.235,118.612,125.579,114.723,125.424,110.527C125.278,106.664,129.333,102.193,133.725,102.363M133.654,118.262C138.034,118.311,141.203,115.202,141.365,110.886C141.542,105.955,137.819,102.97,133.902,102.903C129.929,102.824,126.228,105.778,126.074,110.4C125.926,114.987,130.013,118.518,133.654,118.262" fill="rgb(100,81,161)" stroke="none" stroke-width="1"/></g><g id="eBSqj5Pl08T47" style="mix-blend-mode:overlay"><path id="eBSqj5Pl08T48" d="M163.158,512.079C162.854,511.767,162.606,511.308,162.239,511.169C157.163,509.259,153.156,506.066,150.363,501.394C148.386,498.082,147.477,494.442,147.402,490.647C147.285,484.79,147.205,478.924,147.409,473.076C147.716,464.181,151.773,457.546,159.809,453.41C164.084,451.213,168.62,450.791,173.137,451.684C180.081,453.061,185.118,457.16,188.389,463.513C190.234,467.099,190.532,470.911,190.601,474.777C190.686,479.577,190.592,484.376,190.625,489.172C190.671,495.402,188.901,500.927,184.54,505.514C182.099,508.079,179.136,509.814,175.894,511.142C175.437,511.326,175.078,511.76,174.675,512.08L163.158,512.08ZM160.32,481.728C160.32,484.851,160.246,487.979,160.335,491.106C160.513,497.422,166.971,501.353,172.664,498.697C176.278,497.009,177.764,494.082,177.766,490.241C177.772,484.544,177.791,478.846,177.751,473.145C177.742,471.998,177.723,470.764,177.316,469.723C175.178,464.263,169.816,462.898,164.983,464.996C161.826,466.369,160.389,469.095,160.33,472.497C160.276,475.571,160.32,478.649,160.32,481.728" fill="rgb(100,82,161)" stroke="none" stroke-width="1"/><path id="eBSqj5Pl08T49" d="M302.577,296.28C302.815,297.888,304.405,297.544,305.315,297.944C310.535,300.255,314.376,304,316.611,309.117C317.765,311.762,318.326,314.814,318.472,317.717C318.755,323.356,318.509,329.02,318.568,334.672C318.631,340.78,316.642,346.123,312.444,350.501C309.977,353.074,307.011,354.964,303.511,356.144C299.978,357.333,296.439,357.412,292.947,356.809C288.016,355.966,283.84,353.468,280.595,349.594C276.973,345.271,275.232,340.317,275.391,334.617C275.545,329.121,275.497,323.613,275.403,318.113C275.309,312.736,277.178,308.119,280.504,304.03C283.135,300.799,286.496,298.591,290.443,297.244C290.816,297.117,291.058,296.609,291.361,296.28L302.577,296.28ZM288.205,326.729L288.144,326.729C288.144,328.495,288.039,330.268,288.17,332.023C288.357,334.547,287.791,337.077,288.947,339.595C291.146,344.381,297.21,345.619,301.313,343.403C304.851,341.488,305.877,338.218,305.916,334.512C305.969,329.314,306.006,324.114,305.881,318.92C305.84,317.192,305.532,315.377,304.903,313.775C303.536,310.298,298.947,308.253,294.871,309.099C291.594,309.783,288.094,313.223,288.188,317.04C288.269,320.27,288.205,323.498,288.205,326.729" fill="rgb(100,82,161)" stroke="none" stroke-width="1"/><path id="eBSqj5Pl08T50" d="M244.99,296.279C245.324,296.609,245.603,297.103,246.002,297.24C251.574,299.136,255.808,302.579,258.563,307.828C260.125,310.807,261.201,313.932,261.225,317.295C261.252,320.994,258.401,323.654,255.077,323.999C252.269,324.291,248.511,321.389,248.548,317.785C248.581,314.663,247.24,312.1,244.669,310.372C240.095,307.301,232.94,308.98,231.325,314.711C230.95,316.041,230.706,317.459,230.688,318.839C230.62,324.596,230.657,330.352,230.664,336.11C230.67,340.012,234.158,344.256,238.207,344.323C240.814,344.366,243.312,345.105,244.919,347.452C246.446,349.679,246.438,351.978,244.984,354.238C243.648,356.315,241.674,357.196,239.234,357.178C233.633,357.138,228.815,355.077,224.83,351.254C220.399,347.009,218.018,341.749,217.978,335.547C217.942,329.689,217.926,323.829,217.984,317.973C218.054,311.129,220.751,305.43,226.087,301.189C228.124,299.566,230.68,298.6,232.973,297.288C233.317,297.089,233.512,296.622,233.776,296.28L244.99,296.28Z" fill="rgb(100,82,161)" stroke="none" stroke-width="1"/><path id="eBSqj5Pl08T51" d="M200.133,296.279C200.496,296.739,200.802,297.259,201.231,297.646C202.889,299.138,203.776,300.875,203.768,303.201C203.718,319.005,203.678,334.811,203.795,350.615C203.817,353.733,201.182,357.225,197.341,357.153C193.883,357.09,191.065,354.162,191.058,350.549C191.046,340.602,191.054,330.652,191.054,320.705C191.054,320.402,191.113,320.084,191.039,319.8C190.941,319.402,190.745,319.027,190.59,318.643C190.218,318.861,189.797,319.025,189.484,319.307C187.965,320.687,186.582,322.243,184.947,323.465C182.038,325.639,178.11,324.174,176.575,321.61C174.793,318.634,175.318,315.753,178.119,312.956C182.497,308.587,186.867,304.21,191.254,299.852C192.075,299.038,193.006,298.334,193.814,297.509C194.11,297.207,194.192,296.696,194.373,296.28L200.133,296.28Z" fill="rgb(100,82,161)" stroke="none" stroke-width="1"/><path id="eBSqj5Pl08T52" d="M219.759,405.598C219.568,409.52,219.539,413.459,219.15,417.361C218.563,423.267,215.624,428.002,210.97,431.555C205.466,435.756,199.222,437.228,192.468,435.367C185.597,433.473,180.816,429.022,177.935,422.554C176.716,419.812,176.343,416.861,176.334,413.877C176.316,408.273,176.25,402.667,176.348,397.067C176.514,387.82,180.904,381.074,189.105,377.035C194.337,374.456,199.802,374.271,205.409,376.5C210.367,378.471,214.076,381.702,216.714,386.183C218.62,389.418,219.459,393.051,219.56,396.806C219.64,399.733,219.577,402.662,219.577,405.589C219.637,405.593,219.698,405.593,219.759,405.598M206.376,405.68C206.452,405.68,206.528,405.68,206.604,405.68C206.604,402.601,206.661,399.523,206.578,396.45C206.544,395.264,206.424,393.977,205.935,392.93C204.828,390.558,202.923,389.045,200.378,388.161C195.842,386.587,189.677,390.057,189.467,394.814C189.165,401.609,189.291,408.425,189.299,415.229C189.301,416.212,189.459,417.291,189.889,418.151C192.13,422.635,196.549,424.41,201.317,422.628C203.934,421.649,206.025,419.689,206.289,416.857C206.639,413.159,206.376,409.409,206.376,405.68" fill="rgb(100,82,161)" stroke="none" stroke-width="1"/><path id="eBSqj5Pl08T53" d="M275.425,405.634C275.425,402.503,275.401,399.375,275.431,396.243C275.493,390.069,278.015,384.993,282.448,380.804C286.29,377.171,290.99,375.371,296.148,374.965C299.693,374.687,303.068,375.77,306.286,377.337C309.292,378.8,311.826,380.796,313.875,383.417C315.813,385.893,317.109,388.686,317.888,391.733C319.146,396.659,318.353,401.671,318.539,406.638C318.638,409.207,318.64,411.794,318.541,414.36C318.209,422.975,314.36,429.472,306.718,433.595C301.808,436.247,296.594,436.927,291.262,435.317C285.573,433.595,281.105,430.185,278.152,424.906C276.242,421.488,275.287,417.885,275.408,413.963C275.493,411.192,275.425,408.409,275.425,405.634M305.784,405.781L305.821,405.781C305.821,402.906,305.897,400.027,305.802,397.154C305.665,392.972,303.905,389.98,299.793,388.291C295.001,386.323,288.247,390.241,288.243,395.98C288.239,401.982,288.229,407.986,288.229,413.991C288.231,415.545,288.409,416.987,289.09,418.496C291.086,422.919,296.984,424.558,301.214,422.234C304.28,420.553,305.672,417.811,305.768,414.409C305.85,411.536,305.784,408.659,305.784,405.781" fill="rgb(100,82,161)" stroke="none" stroke-width="1"/><path id="eBSqj5Pl08T54" d="M247.299,397.336C246.53,398.073,245.774,398.822,244.989,399.539C243.522,400.88,242.314,402.503,240.218,403.089C237.798,403.765,234.4,402.47,233.242,400.283C231.575,397.141,231.977,395.009,234.529,392.394C239.462,387.336,244.464,382.348,249.508,377.402C253.178,373.8,257.112,374.423,259.876,378.537C260.548,379.534,260.704,381.028,260.708,382.296C260.763,397.845,260.79,413.393,260.712,428.94C260.693,432.715,259.274,434.719,255.523,435.937C253.222,436.683,249.35,434.695,248.635,432.248C248.193,430.736,247.881,429.121,247.871,427.547C247.801,418.157,247.836,408.767,247.836,399.38L247.836,397.609C247.658,397.517,247.479,397.427,247.299,397.336" fill="rgb(100,82,161)" stroke="none" stroke-width="1"/><path id="eBSqj5Pl08T55" d="M162.296,405.695C162.296,413.364,162.281,421.037,162.302,428.714C162.31,431.94,160.484,435.055,157.074,435.92C154.385,436.601,150.406,434.399,149.853,431.665C149.637,430.583,149.49,429.473,149.488,428.37C149.46,418.779,149.471,409.191,149.473,399.6C149.473,399.297,149.53,398.981,149.46,398.695C149.364,398.29,149.179,397.906,149.031,397.513C148.649,397.71,148.197,397.834,147.895,398.117C146.862,399.083,145.855,400.077,144.89,401.108C141.891,404.298,137.72,404.121,135.138,400.739C133.166,398.151,133.157,395.288,135.879,392.482C140.81,387.397,145.797,382.359,150.9,377.448C154.202,374.275,156.701,374.266,159.855,376.743C161.631,378.137,162.293,380.254,162.296,382.522C162.298,390.248,162.296,397.972,162.296,405.695" fill="rgb(100,82,161)" stroke="none" stroke-width="1"/><path id="eBSqj5Pl08T56" d="M220.445,473.702C219.965,474.092,219.478,474.465,219.007,474.866C217.45,476.194,216.013,477.707,214.319,478.83C211.311,480.826,208.088,478.83,206.59,476.641C204.678,473.846,204.964,471.362,207.393,468.874C212.505,463.64,217.693,458.479,222.868,453.303C224.81,451.36,227.249,450.852,229.709,451.774C232.623,452.869,233.82,455.398,233.833,458.398C233.876,469.046,233.907,479.699,233.814,490.352C233.783,493.992,231.81,495.992,228.961,496.857C225.987,497.762,222.544,495.869,221.662,492.877C221.271,491.554,221.017,490.14,220.99,488.762C220.907,484.421,220.966,480.081,220.955,475.741C220.955,475.146,220.885,474.56,220.848,473.97C220.714,473.883,220.58,473.792,220.445,473.702" fill="rgb(100,82,161)" stroke="none" stroke-width="1"/></g><g id="eBSqj5Pl08T57" style="mix-blend-mode:overlay"><path id="eBSqj5Pl08T58" d="M823.836,256.36L1106.066,256.36C1106.101,257.335,1106.895,257.426,1107.563,257.549C1110.985,258.188,1113.955,259.778,1116.656,261.887C1119.829,264.359,1122.139,267.526,1123.774,271.193C1125.294,274.609,1125.503,278.244,1125.503,281.88C1125.524,346.717,1125.519,411.552,1125.507,476.389C1125.507,478.228,1125.381,480.06,1125.258,481.892C1125.081,484.545,1124.16,486.977,1122.914,489.299C1122.352,490.349,1121.805,491.478,1122.711,492.592C1125.459,495.947,1128.243,499.273,1131.015,502.605C1134.766,507.114,1138.521,511.615,1142.262,516.131C1146.902,521.73,1151.536,527.326,1156.157,532.942C1158.708,536.053,1161.207,539.204,1163.765,542.307C1164.052,542.655,1164.582,542.813,1165,543.049L1165,559.717L1155.375,559.717C1155.371,557.301,1155.358,554.877,1155.358,552.446C1155.355,550.014,1154.747,549.406,1152.283,549.406C1039.244,549.414,926.202,549.414,813.163,549.414C802.836,549.414,792.498,549.406,782.171,549.406C779.861,549.406,779.226,550.053,779.226,552.327C779.233,554.791,779.226,557.263,779.226,559.718L769.596,559.718L769.596,543.05C769.955,542.86,770.438,542.758,770.659,542.457C772.132,540.491,773.541,538.478,774.986,536.504C777.856,532.556,780.73,528.623,783.609,524.683C785.685,521.849,787.77,519.029,789.854,516.195C791.836,513.486,793.819,510.778,795.816,508.078C797.625,505.63,799.472,503.206,801.28,500.758C803.326,497.994,805.323,495.199,807.384,492.459C807.961,491.701,808.096,490.936,807.629,490.177C805.237,486.244,804.436,481.886,804.423,477.394C804.376,455.758,804.4,434.129,804.4,412.495C804.4,368.722,804.377,324.945,804.459,281.172C804.464,278.354,804.906,275.423,805.774,272.755C806.58,270.292,808.016,267.946,809.564,265.83C811.724,262.877,814.523,260.532,817.99,259.142C819.609,258.495,821.29,258.004,822.91,257.357C823.286,257.201,823.531,256.7,823.836,256.36M964.881,490.949C1009.998,490.949,1055.116,490.933,1100.232,490.972C1103.508,490.98,1106.545,490.365,1109.139,488.39C1110.417,487.419,1111.468,486.1,1112.435,484.797C1114.136,482.507,1114.227,479.743,1114.236,477.051C1114.275,459.474,1114.257,441.913,1114.257,424.343C1114.257,376.88,1114.268,329.415,1114.233,281.951C1114.233,279.27,1114.098,276.561,1112.527,274.158C1111.256,272.223,1109.696,270.612,1107.695,269.483C1105.492,268.227,1103.076,268.023,1100.56,268.023C1034.042,268.054,967.521,268.046,901.003,268.046C876.935,268.046,852.875,268.07,828.807,268.011C826.324,268.003,824.011,268.477,821.973,269.72C817.922,272.203,815.802,275.903,815.802,280.72C815.811,317.702,815.811,354.677,815.811,391.662C815.811,420.532,815.818,449.416,815.774,478.292C815.774,480.495,816.299,482.541,817.342,484.349C819.884,488.74,823.837,490.951,828.948,490.951C874.258,490.949,919.574,490.949,964.881,490.949M966.828,540.214L1146.684,540.214C1147.036,540.214,1147.426,540.284,1147.731,540.151C1148.166,539.962,1148.71,539.709,1148.872,539.331C1148.998,539.047,1148.69,538.461,1148.418,538.139C1146.073,535.311,1143.681,532.524,1141.331,529.705C1137.624,525.267,1133.94,520.806,1130.252,516.351C1125.642,510.785,1121.029,505.209,1116.435,499.627C1115.515,498.514,1114.516,498.403,1113.26,499.098C1111.871,499.865,1110.434,500.741,1108.917,501.049C1106.054,501.625,1103.117,502.131,1100.211,502.131C1010.791,502.185,921.374,502.17,831.956,502.201C828.451,502.201,824.984,501.972,821.597,501.158C819.994,500.772,818.419,500.054,816.986,499.232C815.343,498.292,814.756,498.229,813.637,499.738C810.235,504.365,806.855,509,803.448,513.627C800.53,517.583,797.581,521.523,794.652,525.472C791.56,529.641,788.453,533.794,785.397,537.98C785.113,538.375,784.904,539.084,785.073,539.457C785.244,539.827,785.919,539.985,786.391,540.191C786.557,540.27,786.776,540.214,786.972,540.214C846.924,540.214,906.876,540.214,966.828,540.214" fill="rgb(100,82,161)" stroke="none" stroke-width="1"/><path id="eBSqj5Pl08T59" d="M963.749,473.341C922.977,473.341,882.201,473.317,841.425,473.397C838.393,473.397,835.964,471.019,835.964,467.917C836.03,409.413,836.03,350.91,835.96,292.407C835.96,289.726,837.985,286.908,841.101,286.967C844.622,287.027,848.14,286.959,851.663,286.959C929.579,286.951,1007.491,286.951,1085.403,286.975C1086.584,286.975,1087.847,287.125,1088.932,287.555C1090.886,288.333,1091.427,290.118,1091.463,292.06C1091.494,293.627,1091.475,295.195,1091.475,296.758C1091.475,353.618,1091.475,410.48,1091.463,467.341C1091.463,468.233,1091.379,469.141,1091.191,470.018C1090.795,471.826,1089.113,473.192,1087.251,473.318C1086.785,473.35,1086.311,473.342,1085.842,473.342L963.749,473.342ZM963.756,464.134L1079.503,464.134C1081.801,464.134,1082.165,463.763,1082.165,461.488C1082.16,455.74,1082.157,449.983,1082.157,444.234C1082.157,395.792,1082.16,347.343,1082.16,298.905C1082.16,296.426,1081.782,296.061,1079.286,296.061C1069.933,296.069,1060.581,296.069,1051.226,296.069C983.533,296.069,915.833,296.061,848.139,296.061C845.905,296.061,845.415,296.582,845.415,298.987C845.411,353.143,845.411,407.297,845.411,461.457C845.411,463.636,845.925,464.142,848.122,464.142C886.67,464.142,925.211,464.142,963.756,464.134" fill="rgb(100,82,161)" stroke="none" stroke-width="1"/><path id="eBSqj5Pl08T60" d="M964.7,512.063C1009.342,512.063,1053.986,512.063,1098.628,512.063C1099.565,512.063,1100.5,512.166,1101.44,512.19C1104.705,512.292,1108.044,516.564,1108.042,519.621C1108.037,523.174,1106.49,525.692,1103.521,527.208C1102.144,527.911,1100.338,527.982,1098.728,527.99C1082.569,528.046,1066.41,528.022,1050.249,528.022C977.241,528.022,904.231,528.022,831.223,528.005C829.94,528.005,828.642,527.887,827.382,527.657C823.169,526.907,820.35,521.467,821.938,517.487C822.766,515.425,823.991,513.729,825.98,512.852C827.224,512.307,828.697,512.109,830.071,512.102C839.965,512.039,849.867,512.062,859.764,512.062L964.7,512.062Z" fill="rgb(100,82,161)" stroke="none" stroke-width="1"/><path id="eBSqj5Pl08T61" d="M903.48,342.224C904.498,342.835,905.438,343.301,906.255,343.922C909.204,346.168,912.126,348.461,915.04,350.756C915.956,351.478,916.761,351.493,917.811,350.877C919.181,350.081,920.693,349.503,922.185,348.959C923.232,348.572,923.776,347.965,923.918,346.855C924.356,343.329,924.855,339.808,925.327,336.286C925.383,335.864,925.45,335.433,925.533,335.015C925.964,332.922,927.246,331.809,929.358,331.801C934.606,331.784,939.848,331.784,945.091,331.801C947.156,331.809,948.289,332.929,948.566,334.975C949.079,338.852,949.64,342.713,950.197,346.582C950.375,347.807,950.99,348.589,952.238,349.022C953.777,349.558,955.191,350.435,956.739,350.957C957.371,351.17,958.357,351.095,958.894,350.728C961.24,349.118,963.478,347.341,965.772,345.648C967.085,344.672,968.406,343.693,969.783,342.812C970.593,342.294,971.505,342.315,972.299,342.974C976.914,346.803,981.174,350.99,984.996,355.612C986.385,357.299,986.309,358.538,984.975,360.267C982.716,363.208,980.454,366.15,978.176,369.072C977.489,369.952,977.482,370.841,977.924,371.811C978.682,373.477,979.354,375.191,980.19,376.814C980.499,377.41,981.095,377.961,981.699,378.262C982.457,378.625,983.345,378.751,984.19,378.882C987.589,379.407,990.989,379.896,994.391,380.394C996.204,380.656,997.048,381.436,997.183,383.268C997.309,384.982,997.27,386.703,997.274,388.425C997.285,391.669,997.285,394.915,997.274,398.153C997.27,398.825,997.242,399.495,997.135,400.143C996.886,401.643,996.073,402.37,994.589,402.622C990.349,403.316,986.116,404.051,981.88,404.745C980.944,404.904,980.363,405.354,980,406.269C979.403,407.793,978.662,409.254,977.972,410.739C977.466,411.821,977.501,412.784,978.31,413.778C980.766,416.81,983.226,419.851,985.543,422.994C986.922,424.849,986.89,425.521,985.267,427.202C981.445,431.167,977.549,435.059,973.574,438.865C971.639,440.721,970.258,440.602,968.066,438.897C965.171,436.638,962.274,434.38,959.408,432.09C958.562,431.418,957.702,431.34,956.774,431.718C955.191,432.374,953.651,433.116,952.064,433.748C950.872,434.222,950.236,435.026,950.192,436.307C950.053,440.144,949.426,443.911,948.692,447.677C948.29,449.722,946.828,450.962,944.681,450.939C939.634,450.907,934.597,450.907,929.551,450.915C927.222,450.915,925.963,449.921,925.615,447.606C925.05,443.856,924.521,440.105,924.055,436.355C923.901,435.09,923.455,434.285,922.2,433.819C920.605,433.218,919.111,432.327,917.509,431.751C916.909,431.53,915.939,431.601,915.433,431.957C912.444,434.073,909.535,436.315,906.601,438.518C906.257,438.772,905.942,439.072,905.578,439.3C903.565,440.571,902.562,440.634,900.849,439.016C896.675,435.076,892.274,431.341,888.874,426.651C888.052,425.522,888.052,424.052,888.925,422.94C891.259,419.961,893.58,416.961,895.976,414.025C896.984,412.793,896.627,411.608,896.123,410.4C895.494,408.9,894.768,407.431,894.101,405.946C893.592,404.809,892.74,404.217,891.499,404.051C887.508,403.515,883.524,402.931,879.544,402.369C878.301,402.195,877.191,401.003,877.184,399.55C877.132,394.07,877.121,388.591,877.184,383.118C877.2,381.215,877.816,380.519,879.695,380.173C883.113,379.549,886.549,379.027,889.976,378.451C890.591,378.348,891.2,378.089,891.816,378.081C893.158,378.044,894.01,377.417,894.508,376.201C895.144,374.622,895.811,373.051,896.426,371.456C896.798,370.492,896.538,369.662,895.874,368.85C893.497,365.959,891.144,363.035,888.814,360.101C887.701,358.703,887.638,356.872,888.806,355.687C892.605,351.81,896.437,347.957,900.338,344.182C901.171,343.376,902.339,342.918,903.48,342.224M937.241,366.994C924.161,367.317,912.759,377.682,912.766,391.361C912.775,404.935,923.924,415.642,936.992,415.634C950.613,415.626,961.514,405.218,961.55,391.424C961.59,377.646,950.708,367.57,937.241,366.994" fill="rgb(100,82,161)" stroke="none" stroke-width="1"/><path id="eBSqj5Pl08T62" d="M1045.266,370.16C1044.847,370.741,1044.551,371.502,1043.998,371.834C1041.36,373.409,1038.668,374.898,1035.968,376.367C1033.225,377.851,1033.102,377.824,1031.108,375.364C1029.166,372.959,1027.321,370.476,1025.32,368.132C1024.827,367.551,1023.903,367.325,1023.161,366.97C1023.003,366.895,1022.769,366.994,1022.58,366.955C1019.236,366.22,1017.468,368.198,1015.759,370.642C1014.215,372.837,1012.324,374.792,1010.575,376.841C1009.855,377.678,1009.003,377.583,1008.137,377.085C1005.168,375.372,1002.211,373.647,999.24,371.949C997.802,371.124,997.553,370.183,998.261,368.47C999.46,365.596,1000.566,362.683,1001.79,359.817C1002.469,358.213,1002.185,356.856,1001.118,355.573C1000.944,355.363,1000.747,355.142,1000.672,354.893C1000.072,352.895,998.611,352.497,996.704,352.316C993.558,352.024,990.443,351.4,987.324,350.862C986.352,350.696,985.851,349.986,985.844,349.01C985.82,345.374,985.788,341.726,985.863,338.094C985.876,337.604,986.396,336.839,986.839,336.696C988.422,336.2,990.065,335.864,991.703,335.564C993.93,335.149,996.177,334.834,998.416,334.461C999.422,334.295,1000.137,333.782,1000.448,332.756C1000.547,332.425,1000.697,332.068,1000.934,331.832C1002.844,329.929,1002.165,327.955,1001.234,325.901C1000.463,324.204,999.816,322.451,999.121,320.717C998.73,319.738,998.341,318.762,997.988,317.768C997.688,316.908,997.795,316.173,998.687,315.66C1000.741,314.472,1002.769,313.236,1004.827,312.052C1006.008,311.373,1007.263,310.817,1008.415,310.098C1009.272,309.566,1009.952,309.601,1010.584,310.354C1012.746,312.92,1014.962,315.449,1017.035,318.093C1018.053,319.392,1019.076,320.107,1020.848,320.031C1025.313,319.849,1024.164,320.52,1027.015,316.809C1028.704,314.61,1030.595,312.573,1032.416,310.472C1033.166,309.611,1033.908,309.54,1034.97,310.211C1037.41,311.735,1039.929,313.149,1042.491,314.467C1045.125,315.825,1045.594,316.701,1044.509,319.482C1043.467,322.167,1042.302,324.803,1041.18,327.453C1040.671,328.658,1040.596,329.803,1041.528,330.852C1041.552,330.884,1041.588,330.908,1041.595,330.948C1042.562,333.948,1044.884,334.785,1047.738,334.967C1049.567,335.085,1051.376,335.473,1053.19,335.749C1053.771,335.835,1054.355,335.907,1054.919,336.064C1057.087,336.672,1057.45,337.201,1057.442,339.443C1057.434,342.381,1057.45,345.315,1057.45,348.249C1057.45,350.025,1056.85,350.735,1055.085,350.989C1051.683,351.477,1048.278,351.968,1044.876,352.418C1043.533,352.6,1043.115,353.736,1042.476,354.636C1042.049,355.237,1041.737,355.916,1041.322,356.524C1040.632,357.55,1040.691,358.597,1041.161,359.651C1041.793,361.073,1042.539,362.446,1043.096,363.891C1043.864,365.889,1044.503,367.934,1045.266,370.16M1021.593,331.272C1015.019,331.144,1009.163,337.067,1009.125,343.605C1009.085,349.728,1014.869,355.835,1021.49,355.781C1028.439,355.725,1033.803,350.143,1033.915,343.622C1034.021,337.063,1028.198,331.272,1021.593,331.272" fill="rgb(100,82,161)" stroke="none" stroke-width="1"/><polyline id="eBSqj5Pl08T63" points="769.596,573.639 769.596,559.725 779.222,559.725 1165,559.725 1165,573.639" fill="rgb(100,82,161)" stroke="none" stroke-width="1"/></g></g></svg>