<svg id="eOW7r5snlei1" xmlns="http://www.w3.org/2000/svg" xmlns:xlink="http://www.w3.org/1999/xlink" viewBox="20 -65 1160 710" shape-rendering="geometricPrecision" text-rendering="geometricPrecision"><defs><rect id="eOW7r5snlei2" width="50.212" height="50.212" rx="0" ry="0"/><rect id="eOW7r5snlei3" width="50.212" height="50.211" rx="0" ry="0"/><rect id="eOW7r5snlei4" width="62.793" height="62.793" rx="0" ry="0"/><rect id="eOW7r5snlei5" width="58.351" height="58.35" rx="0" ry="0"/><rect id="eOW7r5snlei6" width="54.526" height="54.529" rx="0" ry="0"/><rect id="eOW7r5snlei7" width="61.734" height="61.734" rx="0" ry="0"/><rect id="eOW7r5snlei8" width="63.248" height="63.249" rx="0" ry="0"/><rect id="eOW7r5snlei9" width="63.527" height="63.061" rx="0" ry="0"/><rect id="eOW7r5snlei10" width="63.542" height="63.543" rx="0" ry="0"/><rect id="eOW7r5snlei11" width="62.916" height="62.914" rx="0" ry="0"/><rect id="eOW7r5snlei12" width="50.873" height="50.872" rx="0" ry="0"/><rect id="eOW7r5snlei13" width="62.716" height="62.716" rx="0" ry="0"/><rect id="eOW7r5snlei14" width="62.523" height="62.523" rx="0" ry="0"/><rect id="eOW7r5snlei15" width="63.049" height="63.049" rx="0" ry="0"/></defs><g id="eOW7r5snlei16"><rect id="eOW7r5snlei17" width="1200" height="720" rx="0" ry="0" transform="matrix(1 0 0 1 0 -70)" fill="rgb(112,40,119)" stroke="none" stroke-width="1"/><g id="eOW7r5snlei18"><path id="eOW7r5snlei19" d="M753.113,558.883C752.251,557.391,751.352,555.913,750.528,554.396C749.728,552.918,748.974,551.416,748.244,549.904C746.946,547.216,745.737,544.48,744.384,541.818C743.446,539.977,742.31,538.242,741.29,536.44C740.318,534.725,739.372,532.99,738.435,531.25C736.363,527.426,734.268,523.615,732.249,519.765C731.358,518.066,730.686,516.254,729.795,514.555C728.155,511.427,726.415,508.352,724.738,505.244C723.776,503.459,722.869,501.642,721.923,499.85C720.581,497.311,719.105,494.831,717.913,492.231C715.947,487.931,714.589,483.423,715.436,478.648C716.005,475.436,717.551,472.527,719.271,469.754C721.598,465.996,723.951,462.251,726.293,458.507C727.386,456.756,728.509,455.027,729.574,453.26C731.316,450.368,730.73,448.987,727.874,447.237C723.002,444.254,718.028,441.438,713.093,438.555C711.99,437.909,710.812,437.367,709.799,436.596C709.18,436.125,708.747,435.35,708.373,434.635C708.297,434.483,708.793,433.795,709.111,433.715C709.726,433.561,710.407,433.658,711.058,433.658C727.729,433.656,744.4,433.698,761.07,433.607C764.132,433.588,767.208,433.154,770.249,432.687C772.581,432.327,775.49,434.234,776.654,435.893C777.989,437.797,779.295,439.734,780.504,441.721C782.817,445.517,785.023,449.381,787.337,453.177C789.737,457.116,792.236,460.995,794.655,464.924C796.294,467.587,797.847,470.307,799.487,472.971C800.812,475.126,802.223,477.223,803.57,479.366C804.384,480.656,805.097,482.007,805.932,483.286C807.852,486.241,809.833,489.155,811.755,492.104C812.134,492.68,812.439,493.329,812.641,493.986C812.757,494.366,812.727,495.104,812.539,495.19C812.114,495.383,811.431,495.479,811.064,495.255C806.991,492.802,802.966,490.276,798.918,487.782C795.013,485.38,791.124,482.951,787.165,480.647C786.315,480.151,785.195,480.035,784.186,479.971C783.784,479.941,783.19,480.445,782.952,480.86C782.092,482.338,781.424,483.927,780.546,485.4C779.579,487.014,778.439,488.526,777.428,490.12C776.501,491.577,775.652,493.075,774.766,494.558C773.079,497.366,771.354,500.154,769.735,503.002C769.368,503.64,769.191,504.52,769.31,505.223C769.357,505.496,770.471,505.734,771.098,505.734C789.024,505.755,806.95,505.74,824.874,505.759C825.795,505.759,826.754,505.947,827.626,506.25C828.655,506.599,829.134,507.403,829.131,508.576C829.111,525,829.121,541.417,829.119,557.835C829.119,558.185,829.065,558.533,829.035,558.882L822.104,558.882C822.136,558.432,822.195,557.982,822.197,557.536C822.222,543.228,822.243,528.921,822.258,514.613C822.263,512.827,821.852,512.437,820.009,512.437C806.357,512.447,792.696,512.458,779.043,512.462C774.877,512.462,770.714,512.462,766.55,512.411C765.108,512.396,764.233,513.063,763.554,514.272C761.189,518.501,758.708,522.67,756.395,526.931C755.303,528.934,754.076,531.013,753.633,533.204C752.51,538.795,752.647,544.35,755.328,549.632C757.164,553.255,759.378,556.518,762.755,558.88L753.113,558.88Z" fill="rgb(124,43,128)" stroke="none" stroke-width="1"/><path id="eOW7r5snlei20" d="M848.62,558.883C846.206,554.658,843.812,550.419,841.374,546.21C840.154,544.11,838.946,541.995,837.564,540.002C836.611,538.625,836.85,537.346,837.486,536.09C838.683,533.718,840.016,531.41,841.268,529.074C843.656,524.611,846,520.128,848.412,515.676C850.041,512.681,851.771,509.737,853.421,506.746C855.422,503.118,857.415,499.481,859.351,495.813C860.638,493.375,861.769,490.849,863.064,488.416C864.534,485.648,866.127,482.952,867.627,480.209C868.027,479.476,868.217,478.631,868.597,477.882C868.928,477.227,869.262,476.457,869.829,476.061C870.345,475.704,871.296,475.509,871.811,475.757C872.206,475.942,872.383,476.926,872.38,477.556C872.378,479.681,872.276,481.805,872.162,483.924C871.993,487.086,871.783,490.242,871.588,493.4C871.559,493.901,871.515,494.397,871.494,494.898C871.343,498.283,871.214,501.677,871.039,505.062C870.948,506.878,871.709,507.718,873.603,507.723C882.44,507.744,891.274,507.764,900.11,507.744C900.67,507.738,901.669,507.435,901.704,507.172C901.782,506.581,901.475,505.877,901.16,505.306C900.067,503.313,898.898,501.365,897.775,499.381C896.951,497.934,896.191,496.442,895.334,495.01C894.343,493.351,893.207,491.777,892.25,490.097C889.822,485.823,887.51,481.48,885.056,477.214C883.225,474.032,881.202,470.959,879.347,467.786C877.674,464.926,876.117,461.998,874.493,459.107C874.326,458.808,874.063,458.555,873.833,458.294C872.651,456.946,872.755,455.364,874.245,454.482C876.287,453.276,878.444,452.268,880.496,451.079C883.117,449.564,885.675,447.942,888.275,446.391C890.106,445.293,891.965,444.245,893.802,443.155C896.142,441.766,898.447,440.318,900.803,438.965C903.678,437.313,906.602,435.758,909.481,434.112C912.519,432.377,915.499,430.543,918.547,428.826C920.343,427.813,922.231,426.966,924.051,426C924.53,425.748,924.924,425.342,925.349,424.994C927.022,423.637,928.598,423.989,929.634,425.875C930.993,428.338,932.443,430.753,933.801,433.219C935.375,436.07,936.862,438.967,938.441,441.814C939.571,443.851,940.803,445.834,941.972,447.847C942.668,449.041,943.31,450.268,944.008,451.456C946.669,455.973,949.467,460.417,951.975,465.021C953.864,468.495,955.462,472.142,957.032,475.783C957.506,476.883,957.467,478.214,957.608,479.448C957.826,481.317,958.319,483.231,958.125,485.062C957.614,489.843,956.827,494.574,953.643,498.53C951.963,500.62,950.47,502.867,949.034,505.128C945.849,510.148,942.77,515.227,939.611,520.261C937.906,522.973,936.069,525.604,934.394,528.336C932.037,532.171,929.808,536.091,927.46,539.932C925.803,542.634,924.005,545.254,922.325,547.942C921.387,549.445,920.607,551.047,919.663,552.55C918.322,554.69,916.896,556.775,915.504,558.884L848.62,558.884ZM922.74,507.718C927.06,507.425,932.774,508.826,937.844,505.507C939.678,504.308,941.744,503.357,943.316,501.879C947.295,498.146,949.952,493.663,950.908,488.112C951.661,483.731,951.104,479.555,949.803,475.521C948.798,472.414,947.055,469.518,945.449,466.634C942.792,461.872,939.954,457.211,937.245,452.48C933.766,446.419,930.336,440.329,926.884,434.253C926.054,432.79,924.872,432.567,923.514,433.56C922.709,434.148,921.88,434.718,921.009,435.198C918.338,436.677,915.618,438.073,912.96,439.57C910.43,440.994,907.964,442.528,905.449,443.973C903.106,445.32,900.711,446.578,898.379,447.942C895.105,449.853,891.859,451.818,888.611,453.776C886.683,454.935,884.723,456.054,882.871,457.33C881.659,458.165,881.695,459.134,882.413,460.325C885.075,464.726,887.688,469.159,890.284,473.603C891.214,475.192,892.001,476.869,892.93,478.457C894.142,480.526,895.475,482.522,896.677,484.596C898.404,487.586,900.023,490.631,901.763,493.617C904.185,497.761,906.727,501.844,909.1,506.022C909.755,507.176,910.47,507.748,911.794,507.732C915.054,507.688,918.317,507.718,922.74,507.718" fill="rgb(124,43,128)" stroke="none" stroke-width="1"/><path id="eOW7r5snlei21" d="M825.876,435.535C827.426,434.594,828.981,433.629,830.556,432.69C832.903,431.294,835.255,429.909,837.616,428.533C840.095,427.089,842.553,425.601,845.082,424.25C847.055,423.195,849.134,422.349,851.143,421.357C853.101,420.393,853.508,418.443,852.268,416.594C851.578,415.566,850.998,414.462,850.369,413.392C846.666,407.116,842.973,400.836,839.255,394.571C838.692,393.625,837.883,393.338,837.058,394.262C836.571,394.81,836.176,395.46,835.831,396.116C834.086,399.402,832.449,402.744,830.633,405.991C828.407,409.96,825.986,413.82,823.75,417.785C822.01,420.875,820.459,424.078,818.751,427.185C816.817,430.697,814.749,434.14,812.842,437.663C811.789,439.596,810.899,441.62,810.014,443.634C809.553,444.682,808.304,445.298,807.264,444.712C805.539,443.738,803.892,442.621,802.166,441.648C800.486,440.699,798.748,439.85,797.031,438.965C795.496,438.172,793.919,437.444,792.417,436.587C790.394,435.431,788.46,434.115,786.424,432.988C784.762,432.069,782.974,431.383,781.296,430.489C779.455,429.509,777.679,428.411,775.875,427.363C774.846,426.759,773.837,426.11,772.776,425.564C771.916,425.121,770.988,424.801,770.094,424.417C769.679,424.241,769.265,424.067,768.872,423.844C766.44,422.462,764.027,421.06,761.597,419.676C759.106,418.255,756.591,416.879,754.121,415.42C752.975,414.739,752.853,412.809,753.574,411.695C754.953,409.555,756.238,407.353,757.496,405.141C758.392,403.564,759.138,401.903,760.017,400.321C761.994,396.771,763.984,393.233,766.015,389.718C767.078,387.885,768.289,386.14,769.344,384.306C770.247,382.732,771.012,381.078,771.864,379.475C773.068,377.204,774.526,375.033,775.457,372.658C776.464,370.085,778.396,368.207,779.797,365.946C782.57,361.469,786.66,358.493,791.252,355.933C793.81,354.504,796.51,354.25,799.15,353.611C801.145,353.129,803.338,353.474,805.446,353.458C805.646,353.455,805.843,353.489,806.046,353.497C811.535,353.688,817.025,353.983,822.514,354.048C840.212,354.264,857.912,354.35,875.608,354.626C877.409,354.654,879.235,355.533,880.978,356.208C885.933,358.134,889.623,361.498,892.249,366.144C893.977,369.193,896.02,372.062,897.84,375.062C899.059,377.079,900.123,379.184,901.279,381.238C902.077,382.649,902.798,384.126,903.763,385.417C904.633,386.577,906.707,386.598,907.988,385.854C910.51,384.389,913.126,383.081,915.631,381.583C918.572,379.826,921.427,377.921,924.335,376.105C925.554,375.34,926.788,374.587,928.076,373.947C928.372,373.802,929.008,374.032,929.307,374.3C929.537,374.5,929.67,375.121,929.528,375.387C928.701,376.965,927.735,378.471,926.897,380.041C925.876,381.957,924.921,383.909,923.962,385.857C923.699,386.388,923.581,386.989,923.295,387.503C921.314,391.048,919.322,394.582,917.304,398.103C915.408,401.415,913.429,404.677,911.57,408.009C910.515,409.897,909.68,411.912,908.643,413.811C907.122,416.604,905.483,419.33,903.94,422.108C902.665,424.407,901.297,426.673,900.259,429.076C898.739,432.608,896.814,434.004,892.979,434.076C885.223,434.227,877.461,434.377,869.708,434.668C865.084,434.841,860.468,435.278,855.848,435.6C853.365,435.771,850.882,435.994,848.396,436.109C843.958,436.309,839.519,436.427,835.083,436.627C832.648,436.734,830.218,436.908,827.784,437.103C826.786,437.177,826.123,436.891,825.876,435.535M804.421,359.566C799.124,359.867,794.262,361.136,790.047,364.149C786.01,367.038,783.427,371.228,781.021,375.454C779.246,378.566,777.811,381.879,776.198,385.087C775.462,386.55,774.701,388.007,773.884,389.428C772.817,391.289,771.659,393.101,770.585,394.957C768.662,398.289,766.755,401.633,764.875,404.989C763.9,406.729,762.966,408.497,762.08,410.287C761.436,411.584,761.95,412.484,763.221,413.072C764.217,413.532,765.204,414.031,766.165,414.563C767.833,415.487,769.457,416.48,771.127,417.384C774.118,419.006,777.156,420.546,780.132,422.192C783.375,423.985,786.558,425.88,789.787,427.692C794.495,430.334,799.235,432.927,803.94,435.572C805.347,436.362,806.445,436.116,807.184,434.682C807.644,433.794,808.034,432.868,808.519,431.994C810.998,427.539,813.516,423.102,815.992,418.643C818.375,414.354,820.733,410.048,823.096,405.746C825.555,401.272,828.001,396.791,830.468,392.322C830.852,391.622,831.313,390.968,831.747,390.3C833.496,387.628,833.959,385.742,832.094,383.285C830.741,381.498,829.686,379.478,828.528,377.548C826.211,373.688,823.894,369.876,820.714,366.581C816.159,361.864,810.49,360.223,804.421,359.566" fill="rgb(124,43,128)" stroke="none" stroke-width="1"/><path id="eOW7r5snlei22" d="M874.531,524.662L934.393,528.335C934.393,528.335,921.158,561.787,911.227,567.403C901.297,573.013,869.78,567.403,869.78,567.403L869.78,594.602L848.62,558.882" fill="rgb(124,43,128)" stroke="none" stroke-width="1"/><path id="eOW7r5snlei23" d="M829.037,558.883L829.037,571.289L761.416,571.289L753.113,558.883L760.986,558.767C760.986,558.767,762.711,563.082,766.596,565.026C770.481,566.97,822.72,565.026,822.72,565.026L822.72,558.883L829.037,558.883Z" fill="rgb(124,43,128)" stroke="none" stroke-width="1"/><path id="eOW7r5snlei24" d="M759.529,556.293C759.529,556.293,750.803,567.357,768.752,569.129" fill="rgb(124,43,128)" stroke="none" stroke-width="1"/></g><path id="eOW7r5snlei25" d="M1052.271,330.327C1033.221,330.327,1014.164,330.327,995.116,330.327C992.852,330.327,992.732,330.182,992.732,327.993C992.748,311.05,992.754,294.099,992.754,277.16C992.754,275.455,992.093,274.725,990.288,274.664C986.263,274.525,982.226,274.489,978.195,274.394C971.205,274.222,964.215,274.164,957.235,273.814C953.84,273.646,950.497,272.774,947.43,271.221C944.499,269.739,943.082,267.065,942.223,264.049C941.147,260.287,941.223,256.506,942.304,252.768C942.799,251.057,943.493,249.398,944.18,247.749C944.652,246.617,944.706,245.56,943.985,244.561C942.918,243.071,941.812,241.611,940.696,240.158C939.065,238.024,938.919,235.559,938.955,233.005C939.042,227.271,939.065,221.538,939.109,215.804C939.122,214.719,938.6,214.01,937.538,213.746C934.065,212.882,930.589,212.033,927.114,211.177C925.288,210.736,923.447,210.327,921.632,209.849C920.646,209.592,920.505,209.007,921.12,208.133C924.864,202.838,928.745,197.634,932.302,192.211C936.933,185.147,941.334,177.926,945.774,170.743C947.622,167.756,948.333,164.488,947.874,160.965C947.229,156.039,946.713,151.1,946.025,146.184C945.719,144.017,945.113,141.892,944.69,139.742C944.294,137.732,944.734,137.248,946.806,137.287C949.402,137.334,951.999,137.402,954.592,137.427C956.905,137.448,958.051,136.747,958.64,135.032C959.221,133.331,958.636,131.615,956.856,130.395C955.799,129.667,955.361,128.866,955.575,127.578C955.763,126.419,956.248,125.841,957.475,125.791C959.19,125.726,960.445,124.838,961.151,123.283C961.885,121.675,961.48,120.274,960.391,118.918C960.05,118.495,959.851,117.552,960.089,117.15C960.622,116.254,961.034,114.99,962.485,115.13C962.933,115.175,963.364,115.31,963.804,115.385C967.225,115.976,969.541,113.33,968.374,110.076C967.895,108.722,968.891,108.335,969.61,107.733C970.347,107.118,970.968,107.388,971.625,107.973C973.677,109.804,975.02,109.893,977.023,108.51C978.005,107.832,978.367,106.906,978.459,105.769C978.614,103.944,980.385,102.803,982.107,103.456C982.503,103.603,982.89,104.071,983.052,104.48C983.727,106.158,984.897,107.108,986.704,107.135C988.517,107.165,989.767,106.224,990.416,104.579C990.834,103.531,991.594,103.423,992.49,103.632C993.63,103.899,994.752,104.159,994.875,105.722C995.087,108.458,996.873,110.102,999.321,109.762C1000.059,109.663,1000.837,109.21,1001.412,108.707C1002.564,107.69,1003.49,108.066,1004.496,108.883C1005.434,109.646,1005.851,110.349,1005.14,111.615C1004.036,113.583,1005.606,116.361,1007.95,116.723C1008.722,116.846,1009.555,116.717,1010.336,116.579C1011.316,116.409,1012.107,116.519,1012.649,117.463C1013.158,118.365,1013.322,119.303,1012.539,120.069C1010.108,122.439,1011.918,126.067,1015.089,126.612C1016.05,126.779,1016.708,127.068,1016.83,128.107C1016.964,129.258,1017.542,130.449,1016.032,131.28C1014.527,132.109,1013.646,133.4,1013.882,135.265C1014.029,136.508,1014.596,137.302,1015.893,137.347C1017.769,137.404,1019.651,137.4,1021.536,137.407C1027.665,137.416,1033.796,137.423,1039.93,137.425C1047.362,137.428,1054.797,137.442,1062.228,137.42C1070.016,137.399,1077.806,137.314,1085.589,137.297C1089.304,137.294,1093.021,137.416,1096.736,137.41C1097.273,137.41,1097.807,137.012,1098.346,136.799C1098.068,136.226,1097.939,135.469,1097.491,135.116C1090.623,129.651,1083.71,124.249,1076.817,118.815C1074.955,117.344,1073.113,115.847,1071.306,114.309C1070.459,113.587,1069.73,113.273,1068.678,113.997C1068.261,114.284,1067.468,114.294,1066.944,114.124C1063.205,112.901,1060.124,115.457,1060.781,119.297C1061.103,121.188,1060.725,122.026,1058.951,122.698C1058.441,122.889,1057.583,122.745,1057.14,122.413C1053.841,119.917,1050.088,121.257,1049.297,125.319C1049.113,126.272,1048.822,126.965,1047.762,127.007C1046.428,127.059,1044.981,128.004,1043.912,126.242C1041.914,122.95,1038.34,122.847,1035.992,125.909C1035.629,126.383,1035.118,127.102,1034.684,127.099C1033.502,127.09,1032.289,126.855,1031.163,126.477C1030.823,126.364,1030.597,125.501,1030.565,124.968C1030.431,122.784,1029.118,121.562,1027.292,120.76C1026.016,120.208,1024.853,120.594,1023.737,121.323C1021.919,122.512,1019.656,121.97,1018.616,120.049C1018.399,119.65,1018.438,118.983,1018.598,118.528C1019.878,115.002,1016.578,111.382,1013.064,112.601C1011.773,113.05,1011.044,112.295,1010.435,111.319C1009.817,110.318,1009.819,109.404,1010.747,108.544C1012.175,107.215,1012.304,105.526,1011.709,103.835C1011.15,102.25,1009.915,101.167,1008.196,101.118C1006.053,101.058,1005.467,99.432,1005.378,97.424C1005.358,96.902,1006.116,96.148,1006.698,95.828C1008.583,94.789,1009.588,93.361,1009.403,91.153C1009.27,89.464,1008.337,88.365,1006.938,87.552C1006.134,87.084,1005.222,86.678,1005.565,85.416C1006.343,82.528,1006.393,82.462,1008.291,82.346C1010.182,82.229,1011.413,81.225,1012.21,79.529C1012.931,77.995,1012.581,76.683,1011.698,75.362C1011.253,74.694,1010.435,73.724,1010.639,73.268C1011.141,72.137,1011.992,71.041,1012.966,70.27C1014.215,69.277,1014.321,69.001,1013.053,68.009C1007.244,63.447,1001.452,58.863,995.654,54.279C991.34,50.86,987.02,47.43,982.706,44.013C981.386,42.97,981.312,42.455,982.445,41.159C986.932,36.044,991.968,31.592,997.771,27.978C1002.897,24.782,1008.348,22.321,1014.095,20.59C1023.066,17.888,1032.272,17.055,1041.618,17.636C1047.326,17.99,1052.946,18.901,1058.407,20.491C1062.862,21.786,1067.199,23.511,1071.524,25.21C1077.003,27.361,1082.039,30.387,1086.871,33.719C1093.608,38.363,1099.845,43.62,1105.034,49.975C1108.143,53.781,1111.19,57.679,1113.833,61.815C1116.177,65.492,1118.176,69.442,1119.869,73.466C1121.736,77.903,1123.398,82.481,1124.552,87.148C1125.633,91.51,1126.183,96.049,1126.516,100.54C1127.064,107.856,1126.623,115.16,1124.766,122.297C1123.162,128.468,1120.834,134.356,1117.494,139.832C1116.97,140.695,1116.756,141.869,1116.736,142.907C1116.558,152.598,1115.82,162.25,1114.187,171.803C1113.345,176.73,1112.041,181.585,1110.782,186.432C1109.871,189.933,1108.837,193.417,1107.59,196.811C1106.158,200.703,1104.546,204.544,1102.804,208.306C1101.081,212.04,1099.241,215.729,1097.196,219.288C1094.367,224.216,1091.297,228.999,1088.326,233.838C1086.456,236.889,1084.453,239.867,1082.737,242.999C1081.508,245.246,1081.281,247.77,1081.778,250.328C1082.485,253.969,1082.983,257.667,1083.894,261.259C1084.794,264.802,1086.041,268.27,1087.235,271.731C1088.691,275.963,1090.168,280.185,1091.779,284.358C1093.274,288.229,1094.939,292.047,1096.557,295.876C1098.034,299.377,1099.509,302.876,1101.053,306.351C1102.596,309.819,1104.203,313.262,1105.819,316.7C1107.285,319.811,1108.79,322.902,1110.292,326.002C1110.722,326.886,1111.24,327.726,1111.654,328.617C1112.153,329.694,1111.815,330.253,1110.645,330.318C1109.926,330.355,1109.21,330.329,1108.492,330.329L1052.271,330.329ZM1031.339,145.317L1002.418,145.317C987.131,145.317,971.844,145.315,956.554,145.32C954.384,145.32,953.96,145.848,954.201,147.671C954.851,152.55,955.652,157.426,955.925,162.327C956.071,164.95,955.877,167.919,954.763,170.216C951.977,175.954,948.744,181.497,945.383,186.927C942.017,192.366,938.279,197.57,934.713,202.887C933.992,203.957,934.247,204.624,935.505,204.944C938.755,205.765,942.011,206.59,945.278,207.353C946.431,207.623,946.926,208.209,946.926,209.405C946.926,216.845,947.093,224.292,946.926,231.726C946.866,234.359,947.589,236.323,949.336,238.236C951.815,240.967,953.066,244.267,952.356,248.017C952.041,249.669,951.501,251.321,950.779,252.847C949.405,255.743,949.24,258.687,949.866,261.757C950.201,263.378,951.239,264.408,952.728,264.838C954.533,265.357,956.397,265.893,958.255,265.967C964.742,266.237,971.238,266.372,977.735,266.451C983.641,266.518,989.568,266.064,995.403,267.423C999.228,268.319,1000.719,270.186,1000.719,274.138C1000.719,289.426,1000.719,304.71,1000.719,319.997C1000.719,322.205,1001.032,322.5,1003.199,322.5L1096.54,322.5C1096.988,322.5,1097.442,322.503,1097.882,322.427C1098.675,322.286,1099.08,321.77,1098.862,320.976C1098.674,320.29,1098.376,319.631,1098.073,318.983C1097.419,317.567,1096.704,316.176,1096.062,314.75C1094.497,311.238,1092.94,307.724,1091.41,304.201C1089.825,300.553,1088.22,296.907,1086.729,293.216C1085.169,289.363,1083.681,285.475,1082.258,281.568C1080.624,277.077,1078.976,272.582,1077.549,268.017C1075.88,262.676,1074.614,257.219,1073.841,251.667C1073.317,247.875,1073.232,243.986,1075.062,240.606C1077.955,235.27,1081.333,230.199,1084.478,224.992C1086.953,220.896,1089.596,216.883,1091.766,212.63C1094.386,207.504,1096.774,202.245,1098.905,196.901C1100.788,192.178,1102.458,187.334,1103.716,182.41C1105.091,177.047,1106.111,171.567,1106.86,166.078C1107.69,159.963,1108.057,153.783,1108.589,147.626C1108.73,146.006,1108.148,145.423,1106.523,145.328C1106.165,145.307,1105.805,145.316,1105.447,145.316C1080.743,145.314,1056.043,145.314,1031.339,145.317M1118.805,105.562C1118.879,98.865,1117.841,92.757,1116.214,86.709C1114.564,80.57,1112.081,74.787,1109.013,69.26C1106.359,64.479,1103.149,60.063,1099.635,55.863C1095.149,50.5,1090.036,45.79,1084.362,41.773C1080.433,38.99,1076.222,36.572,1071.964,34.315C1068.505,32.485,1064.888,30.817,1061.159,29.653C1056.608,28.227,1051.904,27.184,1047.201,26.358C1033.429,23.941,1020.188,25.822,1007.514,31.741C1002.726,33.973,998.43,36.924,994.46,40.372C993.272,41.407,993.344,42.254,994.558,43.212C1001.021,48.323,1007.476,53.441,1013.926,58.566C1020.872,64.079,1027.808,69.602,1034.745,75.116C1041.271,80.296,1047.807,85.458,1054.326,90.644C1061.718,96.524,1069.086,102.433,1076.481,108.311C1083.038,113.519,1089.62,118.694,1096.177,123.895C1100.458,127.29,1104.711,130.722,1108.989,134.119C1110.232,135.108,1111.249,134.979,1111.842,133.673C1113.216,130.664,1114.741,127.691,1115.777,124.565C1117.856,118.282,1118.968,111.796,1118.805,105.562M1040.421,110.112C1045.981,110.232,1050.46,107.967,1054.146,103.926C1055.424,102.527,1055.386,101.649,1053.91,100.486C1050.398,97.715,1046.871,94.968,1043.37,92.181C1038.646,88.423,1033.938,84.642,1029.236,80.858C1028.181,80.012,1027.303,80.078,1026.403,81.295C1022.429,86.657,1021.375,92.538,1023.839,98.779C1026.402,105.283,1032.981,110.337,1040.421,110.112M985.968,137.429L985.968,137.288C989.057,137.288,992.141,137.28,995.233,137.291C996.797,137.294,998.371,137.429,999.923,137.327C1001.433,137.222,1002.009,136.444,1002.124,134.956C1002.321,132.459,1001.671,130.091,1000.647,127.926C996.879,119.906,988.032,116.28,979.81,119.972C973.788,122.677,970.717,127.557,970.338,134.101C970.183,136.778,970.91,137.425,973.615,137.429C977.729,137.433,981.852,137.429,985.968,137.429" fill="rgb(124,43,128)" stroke="none" stroke-width="1"/><g id="eOW7r5snlei26"><path id="eOW7r5snlei27" d="M59.543,352.875L59.543,344.764C59.639,344.157,59.745,343.551,59.832,342.938C60.594,337.49,60.997,331.969,62.179,326.617C65.048,313.678,71.032,302.366,80.983,293.404C92.071,283.422,105.381,278.459,119.968,276.524C123.102,276.107,126.255,275.858,129.402,275.531L134.703,275.531C135.315,275.624,135.926,275.762,136.539,275.802C142.307,276.198,148.015,276.956,153.547,278.701C169.711,283.81,180.837,293.921,185.147,310.721C185.416,311.765,185.93,311.968,186.88,312.013C193.373,312.33,198.34,317.326,198.376,323.834C198.445,339.998,198.439,356.163,198.376,372.328C198.348,378.399,193.974,383.197,187.969,384.091C187.468,384.166,186.974,384.281,186.337,384.404L186.337,396.155L174.414,396.155L174.414,384.404C173.924,384.301,173.573,384.21,173.221,384.152C166.381,383.051,162.4,378.41,162.379,371.49C162.369,368.215,162.376,364.942,162.376,361.667C162.379,349.194,162.348,336.721,162.393,324.248C162.419,318.214,166.044,313.727,171.85,312.309C172.247,312.214,172.633,312.099,173.172,311.956C172.964,311.333,172.803,310.799,172.612,310.279C168.625,299.493,160.829,292.761,149.903,289.909C133.949,285.752,118.216,287.053,103.035,293.373C90.529,298.582,81.534,307.519,76.424,320.17C73.054,328.524,71.82,337.296,71.692,346.237C71.535,357.374,72.235,368.469,73.873,379.492C75.811,392.546,79.058,405.24,84.476,417.318C85.534,419.67,86.766,421.946,87.921,424.253C88.962,421.94,89.577,419.657,90.261,417.389C91.58,413.019,94.463,410.186,98.848,408.939C99.834,408.66,100.868,408.558,102.044,408.344L102.044,317.992C105.44,317.992,108.649,317.992,111.868,317.992C113.919,317.992,113.926,317.995,113.926,319.994C113.93,326.645,113.926,333.298,113.926,339.953L113.926,342.117L156.077,342.117L156.077,354.072L114.076,354.072L114.076,408.394L246.704,408.394L246.704,353.98L204.69,353.98L204.69,342.069L246.932,342.069L246.932,318.13L258.831,318.13L258.831,408.367C259.144,408.43,259.342,408.489,259.544,408.509C265.56,409.166,269.241,412.457,270.876,418.265C277.226,440.802,283.617,463.329,290.009,485.854C291.652,491.644,293.342,497.419,295.015,503.202L295.015,543.117C294.821,543.651,294.608,544.168,294.438,544.703C293.335,548.141,291.122,550.618,287.873,552.113C286.669,552.67,285.357,552.99,284.095,553.415L76.695,553.415C76.463,553.311,76.239,553.172,75.995,553.109C69.172,551.39,65.816,547.117,65.813,540.152C65.813,529.923,65.901,519.687,65.774,509.458C65.716,505.192,66.373,501.143,67.555,497.059C72.938,478.465,78.197,459.837,83.456,441.218C83.623,440.616,83.534,439.722,83.187,439.228C76.514,429.757,71.833,419.33,68.31,408.355C63.472,393.284,61.041,377.782,60.168,362.013C60.003,358.963,59.752,355.92,59.543,352.875M235.735,420.536C239.761,444.726,243.752,468.716,247.75,492.743L113.034,492.743C117.049,468.611,121.04,444.625,125.045,420.543L113.897,420.543L113.897,438.416L101.897,438.416L101.897,421.05C101.805,421.044,101.709,421.037,101.611,421.03C93.663,448.967,85.712,476.898,77.725,504.963L283.047,504.963C275.063,476.794,267.127,448.806,259.19,420.811C259.034,420.846,258.874,420.874,258.717,420.902L258.717,438.427L246.804,438.427L246.804,420.536L235.735,420.536ZM77.688,541.168L283.089,541.168L283.089,539.197C283.089,532.538,283.092,525.885,283.089,519.241C283.089,516.972,283.085,516.972,280.799,516.972L202.213,516.972L79.809,516.972C77.695,516.972,77.692,516.972,77.692,519.101C77.689,525.802,77.689,532.51,77.689,539.21L77.689,541.168ZM198.014,480.816C197.986,480.231,197.982,479.771,197.944,479.319C197.043,468.5,196.142,457.686,195.234,446.872C194.531,438.489,193.811,430.106,193.13,421.723C193.06,420.856,192.855,420.432,191.866,420.435C184.229,420.467,176.592,420.463,168.957,420.435C168.005,420.432,167.727,420.769,167.656,421.68C167.186,427.689,166.663,433.688,166.16,439.694C165.259,450.457,164.354,461.221,163.456,471.979C163.212,474.908,162.984,477.838,162.747,480.817L198.014,480.817ZM127.121,480.697C127.417,480.816,127.467,480.857,127.516,480.857C134.941,480.878,142.366,480.893,149.792,480.94C150.768,480.948,150.849,480.363,150.907,479.639C151.12,476.891,151.344,474.149,151.574,471.408C152.791,456.815,154.013,442.229,155.229,427.634C155.424,425.285,155.586,422.927,155.771,420.452C149.971,420.452,144.417,420.505,138.869,420.414C137.454,420.393,137.049,420.88,136.831,422.188C134.209,438.162,131.525,454.136,128.862,470.107C128.277,473.621,127.706,477.148,127.121,480.697M205.056,420.539C205.115,421.698,205.139,422.776,205.23,423.848C206.764,442.272,208.33,460.685,209.808,479.112C209.93,480.623,210.431,480.983,211.865,480.969C218.513,480.9,225.163,480.941,231.808,480.941L233.718,480.941C230.337,460.678,226.993,440.636,223.642,420.54L205.056,420.54ZM186.423,372.216C186.465,371.777,186.51,371.528,186.51,371.277C186.514,355.889,186.503,340.508,186.534,325.121C186.538,324.042,186.106,323.82,185.153,323.831C182.085,323.87,179.016,323.922,175.958,323.812C174.538,323.762,174.239,324.241,174.243,325.58C174.288,340.553,174.27,355.518,174.27,370.49L174.27,372.217L186.423,372.217Z" fill="rgb(124,43,128)" stroke="none" stroke-width="1"/><path id="eOW7r5snlei28" d="M180.356,535.072C177.065,535.05,174.406,532.378,174.424,529.101C174.442,525.823,177.124,523.186,180.429,523.205C183.721,523.227,186.392,525.913,186.365,529.178C186.33,532.455,183.647,535.092,180.356,535.072" fill="rgb(124,43,128)" stroke="none" stroke-width="1"/></g><path id="eOW7r5snlei29" d="M400.087,235.542C399.852,235.378,399.575,235.25,399.389,235.042C398.001,233.486,396.642,231.902,395.254,230.345C393.41,228.278,391.553,226.219,389.686,224.167C387.305,221.553,384.903,218.957,382.518,216.341C381.167,214.857,379.846,213.347,378.495,211.862C376.702,209.89,374.888,207.939,373.096,205.964C371.694,204.422,370.319,202.853,368.924,201.302C366.307,198.397,363.687,195.5,361.066,192.599C360.751,192.249,360.418,191.909,360.106,191.554C359.55,190.922,358.905,190.767,358.109,191.082C353.66,192.855,349.201,194.607,344.752,196.379C343.741,196.78,343.621,197.139,344.018,198.155C344.892,200.396,345.765,202.64,346.614,204.889C347.032,205.998,346.705,206.95,346.178,208.003C345.642,209.069,344.752,209.344,343.841,209.688C342.92,210.036,342.025,209.753,341.148,209.385C340.248,209.008,339.736,208.273,339.39,207.433C338.536,205.356,337.723,203.261,336.918,201.161C336.52,200.123,335.985,199.844,334.958,200.248C330.376,202.053,325.794,203.851,321.23,205.694C320.937,205.812,320.687,206.234,320.578,206.568C320.447,206.954,320.462,207.402,320.473,207.82C320.506,209.002,320.576,210.181,320.614,211.363C320.641,212.2,320.648,213.038,320.645,213.876C320.643,215.789,320.602,217.701,320.629,219.614C320.659,221.503,320.769,223.389,320.814,225.279C320.839,226.375,320.808,227.476,320.802,228.574C320.795,229.492,320.761,230.411,320.79,231.327C320.823,232.403,320.938,233.475,320.962,234.549C320.985,235.754,320.937,236.96,320.936,238.163C320.938,238.977,320.952,239.791,320.981,240.604C321.018,241.73,321.085,242.857,321.122,243.984C321.153,244.978,321.155,245.975,321.169,246.97C321.192,248.334,321.218,249.696,321.237,251.059C321.251,252.056,321.253,253.056,321.266,254.054C321.287,255.387,321.312,256.721,321.334,258.054C321.346,258.84,321.345,259.628,321.37,260.412C321.421,262.04,321.496,263.668,321.524,265.292C321.527,265.514,321.313,265.74,321.198,265.963C321.001,265.832,320.706,265.747,320.618,265.562C320.251,264.775,319.935,263.963,319.617,263.154C318.258,259.711,316.933,256.255,315.513,252.835C315.273,252.257,314.732,251.669,314.178,251.375C311.107,249.745,308.889,247.312,307.474,244.203C306.624,242.333,306.241,240.295,306.269,238.2C306.284,237.019,306.153,235.841,306.128,234.659C306.107,233.641,306.141,232.619,306.149,231.598C306.16,230.706,306.189,229.814,306.171,228.923C306.144,227.822,306.051,226.726,306.032,225.628C306.012,224.447,306.059,223.266,306.043,222.086C306.031,220.96,305.97,219.836,305.939,218.711C305.91,217.715,305.878,216.718,305.871,215.721C305.864,214.803,305.901,213.886,305.896,212.969C305.894,212.305,305.4,211.934,304.785,212.177C301.337,213.535,297.899,214.909,294.458,216.285C293.855,216.525,293.682,216.964,293.922,217.565C294.108,218.03,294.33,218.488,294.476,218.965C294.638,219.499,294.548,219.925,293.924,220.166C290.321,221.558,286.728,222.979,283.131,224.389C281.101,225.181,279.082,225.226,277.162,224.116C275.473,223.139,274.514,221.638,274.093,219.706C273.719,217.989,274.061,216.401,274.956,215.034C275.44,214.293,275.976,213.431,276.986,213.04C281.055,211.456,285.09,209.786,289.142,208.158C289.88,207.861,290.265,208.083,290.504,208.857C290.59,209.134,290.678,209.417,290.81,209.673C291.255,210.537,291.534,210.609,292.45,210.243C296.556,208.606,300.66,206.965,304.782,205.371C305.377,205.142,305.663,204.811,305.669,204.228C305.685,202.789,305.669,201.35,305.668,199.908C305.667,198.729,305.684,197.55,305.669,196.368C305.654,195.295,305.603,194.223,305.573,193.151C305.543,192.1,305.515,191.049,305.494,189.999C305.467,188.588,305.439,187.174,305.43,185.761C305.42,183.819,305.441,181.878,305.42,179.937C305.41,178.78,305.335,177.628,305.314,176.473C305.294,175.398,305.321,174.322,305.304,173.247C305.284,171.987,305.234,170.728,305.201,169.468C305.177,168.499,305.156,167.53,305.138,166.559C305.114,165.17,305.081,163.781,305.074,162.391C305.069,161.319,305.102,160.246,305.108,159.174C305.114,158.361,305.117,157.548,305.096,156.735C305.068,155.611,304.997,154.487,304.981,153.361C304.97,152.57,304.444,152.219,303.859,151.868C302.526,151.069,301.114,150.361,299.899,149.41C295.649,146.084,292.809,141.833,291.854,136.449C291.594,134.976,291.32,133.48,291.315,131.992C291.31,130.462,291.503,128.905,291.833,127.406C292.184,125.807,292.709,124.232,293.318,122.711C293.739,121.664,294.424,120.722,295.009,119.746C295.392,119.109,295.759,118.452,296.224,117.881C296.793,117.184,297.466,116.572,298.08,115.911C298.543,115.411,299.03,114.922,299.408,114.362C299.541,114.167,299.455,113.746,299.352,113.473C298.576,111.419,297.698,109.4,296.994,107.323C296.362,105.458,296.389,103.646,297.423,101.797C299.827,97.505,305.372,97.664,307.881,100.808C308.728,101.87,309.159,103.282,309.704,104.566C310.302,105.978,310.786,107.438,311.385,108.847C311.504,109.131,311.88,109.405,312.189,109.484C312.666,109.606,313.185,109.577,313.687,109.575C318.046,109.567,322.081,110.777,325.704,113.127C330.661,116.346,333.753,120.939,335.273,126.656C335.874,128.911,335.954,131.191,335.878,133.466C335.822,135.069,335.382,136.667,335.041,138.247C334.858,139.09,334.489,139.892,334.257,140.725C334.197,140.932,334.266,141.267,334.407,141.424C336.649,143.919,338.917,146.389,341.168,148.876C342.973,150.874,344.746,152.901,346.559,154.89C348.909,157.465,351.296,160.004,353.644,162.579C355.459,164.571,357.222,166.603,359.031,168.6C361.014,170.792,363.027,172.955,365.016,175.143C366.189,176.432,367.337,177.742,368.502,179.037C369.026,179.618,369.672,179.73,370.384,179.45C374.496,177.833,378.607,176.209,382.718,174.594C383.361,174.338,383.646,173.903,383.444,173.223C383.317,172.793,383.164,172.368,382.981,171.958C382.76,171.463,382.91,171.143,383.385,170.943C383.971,170.699,384.559,170.456,385.149,170.223C388.321,168.966,391.498,167.709,394.675,166.462C398.447,164.982,402.278,166.923,403.297,170.842C403.786,172.72,403.396,174.405,402.307,176.041C401.429,177.354,400.198,178.063,398.841,178.622C395.439,180.022,392.011,181.36,388.598,182.728C387.821,183.039,387.241,182.817,386.924,182.052C386.823,181.809,386.776,181.546,386.684,181.297C386.361,180.41,385.73,180.149,384.865,180.495C381.597,181.801,378.326,183.099,375.052,184.388C374.276,184.694,374.109,185.147,374.66,185.755C376.521,187.811,378.411,189.839,380.274,191.887C382.07,193.861,383.843,195.852,385.637,197.825C387.004,199.329,388.404,200.804,389.761,202.317C391.627,204.396,393.602,206.375,394.604,209.102C395.31,211.016,395.804,212.957,395.693,214.968C395.602,216.66,395.413,218.374,394.637,219.957C394.487,220.266,394.644,220.793,394.789,221.165C396.467,225.427,398.173,229.674,399.86,233.93C400.046,234.4,400.167,234.895,400.318,235.378C400.242,235.438,400.166,235.491,400.087,235.542M324.325,152.139C324.011,152.139,323.501,152.03,323.062,152.16C322.152,152.431,321.289,152.855,320.388,153.166C319.71,153.402,319.53,153.851,319.593,154.512C319.644,155.056,319.613,155.61,319.621,156.159C319.635,157.153,319.643,158.149,319.67,159.143C319.705,160.324,319.773,161.501,319.791,162.681C319.811,163.809,319.757,164.938,319.788,166.065C319.838,168.004,319.968,169.941,319.99,171.878C320.013,173.762,319.916,175.647,319.928,177.531C319.939,179.863,320.014,182.194,320.054,184.527C320.094,186.859,320.117,189.193,320.163,191.527C320.206,193.675,320.258,195.823,320.331,197.97C320.363,198.884,320.76,199.11,321.566,198.787C325.25,197.309,328.936,195.84,332.624,194.373C333.681,193.954,333.865,193.525,333.449,192.477C332.638,190.437,331.816,188.403,331.053,186.347C330.388,184.555,330.741,182.575,332.013,181.676C334.441,179.956,337.116,180.963,338.012,183.019C338.246,183.552,338.463,184.093,338.674,184.634C339.333,186.308,339.973,187.989,340.639,189.658C341.066,190.731,341.395,190.887,342.439,190.482C346.164,189.032,349.879,187.566,353.598,186.1C354.19,185.864,354.375,185.427,353.953,184.915C353.132,183.914,352.286,182.935,351.415,181.977C349.66,180.043,347.869,178.138,346.111,176.205C344.266,174.174,342.448,172.117,340.605,170.084C339.311,168.657,337.982,167.259,336.685,165.833C334.786,163.742,332.9,161.64,331.013,159.539C329.6,157.969,328.2,156.389,326.785,154.82C326.029,153.977,325.256,153.15,324.325,152.139M319.819,123.23C314.964,119.929,308.5,120.575,304.857,125.778C301.669,130.328,302.265,136.591,307.197,140.363C311.271,143.48,318.52,144.202,322.931,137.066C325.248,133.32,324.99,127.14,319.819,123.23" transform="matrix(1 0 0 1 -108.490035 -102.829768)" fill="rgb(124,43,128)" stroke="none" stroke-width="1"/></g></svg>