<svg id="euNWtKabHgf1" xmlns="http://www.w3.org/2000/svg" xmlns:xlink="http://www.w3.org/1999/xlink" viewBox="20 -65 1160 710" shape-rendering="geometricPrecision" text-rendering="geometricPrecision"><defs><rect id="euNWtKabHgf2" width="50.212" height="50.212" rx="0" ry="0"/><rect id="euNWtKabHgf3" width="50.212" height="50.211" rx="0" ry="0"/><rect id="euNWtKabHgf4" width="62.793" height="62.793" rx="0" ry="0"/><rect id="euNWtKabHgf5" width="58.351" height="58.35" rx="0" ry="0"/><rect id="euNWtKabHgf6" width="54.526" height="54.529" rx="0" ry="0"/><rect id="euNWtKabHgf7" width="61.734" height="61.734" rx="0" ry="0"/><rect id="euNWtKabHgf8" width="63.248" height="63.249" rx="0" ry="0"/><rect id="euNWtKabHgf9" width="63.527" height="63.061" rx="0" ry="0"/><rect id="euNWtKabHgf10" width="63.542" height="63.543" rx="0" ry="0"/><rect id="euNWtKabHgf11" width="62.916" height="62.914" rx="0" ry="0"/><rect id="euNWtKabHgf12" width="50.873" height="50.872" rx="0" ry="0"/><rect id="euNWtKabHgf13" width="62.716" height="62.716" rx="0" ry="0"/><rect id="euNWtKabHgf14" width="62.523" height="62.523" rx="0" ry="0"/><rect id="euNWtKabHgf15" width="63.049" height="63.049" rx="0" ry="0"/></defs><g id="euNWtKabHgf16"><g id="euNWtKabHgf17"><rect id="euNWtKabHgf18" width="1200" height="720" rx="0" ry="0" transform="matrix(1 0 0 1 0 -70)" fill="rgb(188,49,47)" stroke="none" stroke-width="1"/><g id="euNWtKabHgf19"><path id="euNWtKabHgf20" d="M70.769,108.501C70.638,106.974,70.377,105.448,70.42,103.927C70.455,102.739,70.769,101.53,71.137,100.389C71.482,99.314,72.01,98.292,72.554,97.296C73.748,95.114,75.753,93.84,77.679,92.338C81.613,89.268,86.367,88.65,90.806,87.108C93.405,86.205,96.173,85.799,98.798,84.962C105.217,82.911,111.595,80.727,117.996,78.623C120.256,77.88,122.5,77.019,124.82,76.564C127.029,76.129,127.833,74.618,128.466,72.852C129.557,69.821,131.09,67.031,132.947,64.419C134.365,62.425,135.91,60.524,137.398,58.577C138.213,57.511,137.879,55.426,136.799,54.354C135.756,53.318,134.861,52.119,133.747,51.17C132.696,50.27,131.471,49.562,130.278,48.848C129.257,48.236,128.156,47.759,127.114,47.181C125.873,46.489,125.632,44.989,126.621,43.952C127.774,42.741,129.181,41.801,130.889,42.297C132.917,42.886,134.793,42.052,136.741,42.06C137.857,42.064,138.972,42.176,140.089,42.231C141.134,42.281,142.21,42.188,143.224,42.394C145.401,42.834,147.602,43.267,149.689,44C151.712,44.707,153.548,45.955,155.576,46.634C156.647,46.993,157.952,46.65,159.152,46.613C159.28,46.612,159.408,46.55,159.533,46.503C163.398,45.074,167.362,44.746,171.492,44.701C174.325,44.671,177.05,45.167,179.817,45.362C181.863,45.508,183.857,46.457,185.868,47.056C189.306,48.078,192.344,49.913,195.405,51.707C195.443,51.729,195.483,51.751,195.519,51.777C196.246,52.3,197.082,53.362,197.676,53.24C199.13,52.942,200.71,52.372,201.807,51.415C203.817,49.663,206.051,48.505,208.567,47.832C209.745,47.519,209.866,46.972,209.683,45.823C209.468,44.483,209.707,43.071,209.739,41.688C209.767,40.477,209.642,39.242,209.835,38.056C210.205,35.744,210.679,33.441,211.254,31.171C211.742,29.244,212.289,27.306,213.071,25.485C214.105,23.086,215.374,20.787,216.598,18.476C216.736,18.217,217.271,18.002,217.589,18.039C219.272,18.227,220.137,19.464,220.022,21.104C219.947,22.181,219.956,23.314,220.208,24.353C221.063,27.892,221.959,31.427,223.005,34.913C223.62,36.961,224.513,38.926,225.345,40.903C225.928,42.292,227.576,42.691,228.903,41.837C229.048,41.744,229.136,41.525,229.285,41.48C233.58,40.188,237.888,38.929,242.18,37.623C244.864,36.805,247.595,37.168,250.258,37.459C252.015,37.65,253.743,38.502,255.387,39.263C257.955,40.446,259.219,43.022,261.047,44.987C261.729,45.72,262.173,46.768,262.48,47.749C266.439,60.393,270.361,73.05,274.264,85.711C274.489,86.441,274.665,87.289,274.519,88.014C274.051,90.359,274.495,92.867,273.17,95.066C272.409,96.333,272.065,97.921,271.106,98.974C269.639,100.592,267.82,101.898,266.11,103.285C265.684,103.632,265.118,103.843,264.583,104.01C256.661,106.496,248.734,108.967,240.806,111.429C238.415,112.171,238.254,112.448,238.956,114.823C239.521,116.731,239.712,118.611,239.105,120.605C238.547,122.424,238.556,124.433,237.909,126.21C237.117,128.392,235.906,130.42,234.869,132.512C234.771,132.707,234.588,132.865,234.513,133.067C233.55,135.679,231.608,137.612,229.89,139.696C228.823,140.988,228.718,142.2,229.656,143.535C230.982,145.416,232.218,147.381,233.736,149.095C235.135,150.678,236.809,152.033,238.46,153.37C239.561,154.26,239.623,155.72,238.488,156.612C237.325,157.529,236,157.585,234.655,157.434C233.136,157.267,231.635,156.98,230.132,156.718C225.661,155.929,221.274,154.894,217.252,152.676C216.109,152.05,214.993,151.291,213.764,150.935C212.862,150.672,211.776,150.843,210.814,151.036C209.479,151.309,208.205,151.916,206.865,152.139C205.342,152.395,203.778,152.417,202.225,152.486C201.099,152.537,199.965,152.533,198.835,152.486C197.631,152.438,196.413,152.398,195.229,152.199C193.298,151.873,191.407,151.285,189.468,151.049C187.399,150.8,185.681,149.765,183.824,149.016C180.707,147.764,178.097,145.72,175.418,143.783C174.837,143.363,174.444,142.679,173.98,142.099C172.738,140.544,171.488,138.99,170.275,137.413C169.991,137.038,169.783,136.583,169.641,136.133C168.683,133.101,167.732,130.064,166.819,127.018C166.365,125.495,166.119,123.988,166.879,122.423C167.208,121.745,167.227,120.875,167.229,120.09C167.235,118.595,166.632,117.924,165.253,117.793C163.702,117.644,162.145,117.51,160.588,117.436C159.052,117.36,158.317,118.294,158.712,119.817C159.045,121.098,159.512,122.343,159.824,123.629C160.254,125.401,160.653,127.112,159.562,128.92C158.847,130.105,158.782,131.663,158.221,132.965C157.29,135.134,155.644,136.778,153.804,138.197C153.052,138.78,152.192,139.297,151.3,139.603C145.176,141.694,139.063,143.829,132.869,145.693C131.469,146.114,130.113,146.423,129.114,147.466C128.577,148.027,128.287,148.844,127.951,149.58C127.005,151.652,126.196,153.798,125.144,155.815C122.51,160.867,119.196,165.437,115.184,169.492C114.971,169.711,114.72,169.918,114.585,170.185C114.021,171.302,113.214,171.915,111.934,171.457C110.534,170.955,109.907,169.835,110.177,168.335C110.471,166.711,110.887,165.106,111.118,163.475C111.311,162.111,111.454,160.712,111.36,159.346C111.258,157.876,110.881,156.42,110.578,154.965C110.154,152.95,108.507,153.005,106.964,153.463C106.414,153.626,105.867,153.799,105.317,153.967C105.107,154.029,104.893,154.09,104.683,154.154C103.077,154.641,101.451,155.071,99.869,155.627C95.645,157.116,91.963,155.727,88.296,153.713C84.661,151.714,83.227,148.044,81.587,144.711C80.036,141.563,79.393,137.965,78.308,134.581C76.662,129.461,74.942,124.365,73.332,119.234C72.382,116.212,71.572,113.144,70.733,110.087C70.595,109.589,70.629,109.045,70.584,108.521C70.645,108.512,70.705,108.508,70.769,108.501M132.619,79.882C131.341,80.159,130.069,80.334,128.858,80.71C114.18,85.245,99.5,89.772,84.852,94.405C82.636,95.108,80.509,95.957,78.655,97.707C75.403,100.782,74.529,104.435,75.711,108.356C79.438,120.724,83.429,133.016,87.394,145.309C88.075,147.423,89.691,149.001,91.581,150.073C94.59,151.775,97.938,151.241,101.077,150.663C104.514,150.026,107.834,148.768,111.22,147.832C112.423,147.501,113.303,148.148,113.836,149.152C114.307,150.036,114.711,150.992,114.949,151.965C115.431,153.964,115.755,156.001,116.211,158.005C116.332,158.548,116.702,159.032,116.959,159.541C117.409,159.193,117.98,158.929,118.288,158.482C119.052,157.367,119.717,156.183,120.384,155.003C120.92,154.053,121.446,153.09,121.89,152.097C122.653,150.389,123.594,148.709,124.01,146.912C124.5,144.812,125.652,143.112,127.744,142.459C133.311,140.733,138.86,138.939,144.451,137.299C147.644,136.366,150.408,134.741,152.956,132.683C154.414,131.502,155.285,129.779,155.165,128.068C154.949,125.025,154.384,121.973,153.638,119.007C152.926,116.176,151.768,113.46,150.864,110.673C149.943,107.841,149.089,104.984,148.204,102.137C147.014,98.301,145.807,94.471,144.635,90.628C144.392,89.838,144.39,88.956,144.058,88.214C143.346,86.615,142.574,85.03,141.665,83.536C141.186,82.747,140.407,82.119,139.693,81.497C137.619,79.696,134.943,80.6,132.619,79.882M216.329,31.249C215.969,31.875,215.736,32.112,215.69,32.38C215.214,35.226,214.563,38.066,214.384,40.93C214.236,43.283,214.754,45.667,214.807,48.041C214.873,50.964,214.171,51.801,211.344,52.715C209.415,53.339,207.427,53.832,205.573,54.632C202.072,56.143,201.855,57.676,204.378,60.605C205.344,61.726,206.309,62.947,206.879,64.29C208.708,68.601,210.032,72.953,209.759,77.847C209.582,81.047,209.13,84.09,208.304,87.133C207.955,88.418,208.453,88.951,209.781,89.107C212.004,89.368,214.312,89.482,216.396,90.196C221.173,91.835,225.977,93.516,229.773,97.115C232.448,99.653,235.267,102.036,236.533,105.699C237.033,107.137,237.593,107.287,239.001,106.832C243.148,105.494,247.318,104.232,251.439,102.811C255.719,101.34,260.259,100.671,264.29,98.401C268.335,96.13,270.144,92.704,269.352,88.115C269.181,87.119,268.902,86.136,268.603,85.167C266.097,77.027,263.607,68.885,261.044,60.761C259.599,56.18,258.065,51.623,256.49,47.08C255.787,45.039,253.969,43.745,252.242,42.946C249.881,41.853,247.212,41.495,244.516,42.382C239.949,43.888,235.339,45.266,230.739,46.671C229.392,47.082,228.034,47.531,226.649,47.715C225.895,47.816,224.762,47.669,224.331,47.171C222.785,45.389,221.174,43.557,220.133,41.472C218.862,38.926,218.144,36.105,217.177,33.407C216.964,32.802,216.711,32.212,216.329,31.249M204.963,78.355C204.266,73.956,203.506,70.191,201.919,66.662C201.276,65.232,200.485,63.852,199.628,62.537C198.962,61.515,198.089,60.625,197.306,59.681C197,59.309,196.739,58.873,196.361,58.59C194.788,57.405,193.184,56.256,191.575,55.114C189.07,53.34,186.348,52.02,183.352,51.303C181.342,50.82,179.343,50.218,177.3,49.948C174.912,49.63,172.427,49.226,170.083,49.554C166.134,50.109,162.271,51.245,158.356,52.053C157.551,52.22,156.577,52.249,155.843,51.946C153.565,51.008,151.44,49.681,149.127,48.872C145.655,47.657,142.055,46.838,138.318,47.1C137.925,47.125,137.546,47.383,137.161,47.534C137.338,47.905,137.414,48.416,137.707,48.631C140.257,50.481,141.572,53.279,143.156,55.838C143.64,56.622,143.733,57.954,143.433,58.843C143.054,59.961,142.161,60.943,141.364,61.874C139.937,63.541,138.254,65.011,136.978,66.78C135.498,68.83,134.281,71.085,133.073,73.317C132.526,74.327,133.015,75.171,134.029,75.015C135.876,74.731,137.508,75.31,139.161,75.904C142.767,77.193,145.65,79.412,147.354,82.877C148.324,84.846,149.079,86.943,149.73,89.043C151.982,96.282,154.151,103.548,156.34,110.808C156.629,111.773,157.181,112.293,158.226,112.329C159.058,112.363,159.881,112.528,160.712,112.605C161.662,112.695,162.62,112.854,163.569,112.802C164.746,112.736,165.914,112.458,167.093,112.332C168.393,112.199,169.294,111.523,169.956,110.445C171.233,108.359,172.422,106.206,173.825,104.21C174.98,102.566,176.186,100.848,177.733,99.624C180.53,97.41,183.012,94.651,186.656,93.672C187.285,93.503,187.895,93.186,188.452,92.842C191.823,90.748,195.472,89.616,199.452,89.546C201.256,89.513,202.571,88.567,203.023,86.904C203.836,83.91,204.409,80.853,204.963,78.355M202.178,94.261C202.158,94.125,202.138,93.989,202.121,93.854C200.667,94.203,199.186,94.46,197.769,94.916C194.918,95.835,191.801,96.395,189.358,97.972C186.517,99.811,183.241,101.131,180.989,103.882C179.686,105.476,178.021,106.786,176.769,108.412C175.601,109.933,174.71,111.681,173.799,113.383C173.412,114.103,173.229,114.951,173.042,115.767C172.509,118.098,171.497,120.47,171.63,122.773C171.849,126.552,172.221,130.427,174.33,133.823C175.279,135.352,175.843,137.187,177.011,138.504C178.411,140.08,180.164,141.416,181.948,142.569C186.556,145.552,191.568,147.429,197.147,147.519C198.805,147.545,200.499,147.888,202.111,147.649C204.718,147.267,207.337,146.705,209.835,145.879C212.158,145.113,213.978,145.881,215.99,146.826C219.519,148.485,223.16,149.908,226.771,151.387C227.101,151.526,227.555,151.431,227.935,151.359C228.704,151.212,228.865,150.703,228.48,150.091C227.411,148.383,226.291,146.704,225.212,145.005C224.671,144.153,224.119,143.301,223.675,142.396C223.07,141.164,223.322,139.99,224.191,138.952C226.273,136.458,228.433,134.027,230.417,131.462C231.265,130.367,231.895,129.043,232.372,127.737C233.157,125.599,233.761,123.396,234.385,121.205C234.536,120.673,234.524,120.072,234.481,119.511C234.4,118.502,234.255,117.495,234.11,116.491C233.766,114.108,233.779,111.63,232.492,109.476C230.895,106.805,230.304,103.451,227.249,101.764C227.034,101.645,226.92,101.351,226.725,101.175C226.045,100.562,225.399,99.889,224.645,99.382C221.52,97.269,218.082,95.789,214.439,94.882C212.317,94.352,210.109,94.028,207.924,93.913C206.021,93.808,204.095,94.128,202.178,94.261" fill="rgb(238,62,60)" stroke="none" stroke-width="1"/><path id="euNWtKabHgf21" d="M128.365,114.667C128.021,118.316,127.33,121.686,124.455,124.142C123.625,124.849,123.819,125.512,124.555,126.125C126.09,127.417,127.719,126.798,129.319,126.306C130.115,126.063,130.86,125.621,131.667,125.431C132.535,125.227,133.511,125.174,133.96,126.197C134.41,127.222,133.705,127.864,132.972,128.403C130.167,130.472,127.146,130.76,123.85,129.699C121.308,128.885,118.782,128.312,115.955,128.708C113.849,129,111.552,128.229,109.387,127.723C106.668,127.093,105.039,124.859,103.165,123.037C102.712,122.598,102.41,121.949,102.184,121.346C101.66,119.936,101.1,118.527,100.802,117.066C100.59,116.037,100.636,114.9,100.825,113.858C101.12,112.23,101.623,110.641,102.051,109.038C102.749,106.423,104.806,104.717,106.762,103.33C109.407,101.453,112.554,100.342,116.009,101.154C117.755,101.566,119.502,101.807,121.118,102.788C125.668,105.545,127.979,109.561,128.365,114.667M116.259,124.707C116.905,124.418,118.054,124.024,119.078,123.415C119.941,122.901,120.676,122.169,121.431,121.488C123.189,119.896,124.066,117.945,123.51,115.562C123.078,113.718,122.586,111.885,121.98,110.096C121.093,107.472,119.113,106.013,116.454,105.545C113.398,105.01,110.468,105.126,108.28,107.817C108.227,107.882,108.134,107.914,108.062,107.965C105.847,109.54,104.742,112.714,105.516,115.351C105.891,116.621,106.247,117.905,106.733,119.135C107.295,120.557,107.96,121.831,109.287,122.87C111.249,124.411,113.478,124.283,116.259,124.707" fill="rgb(238,62,60)" stroke="none" stroke-width="1"/><path id="euNWtKabHgf22" d="M247.611,83.104C247.692,84.887,247.053,85.926,245.303,86.494C241.448,87.748,237.542,88.847,233.652,89.995C232.764,90.256,231.861,90.469,230.961,90.686C229.106,91.134,228.23,90.379,228.485,88.484C228.615,87.523,228.785,86.552,229.106,85.644C230.188,82.588,231.359,79.565,232.466,76.518C233.274,74.288,234.06,72.053,234.785,69.794C234.912,69.397,234.848,68.683,234.588,68.476C234.261,68.217,233.587,68.169,233.154,68.314C231.744,68.781,230.338,69.304,229.008,69.963C228.621,70.154,228.33,70.846,228.271,71.34C228.06,73.153,227.68,73.719,226.252,73.97C225.109,74.17,223.891,73.462,223.328,72.158C222.207,69.566,222.273,66.809,226.044,65.778C229.786,64.758,233.48,63.56,237.196,62.447C237.533,62.347,237.883,62.288,238.234,62.243C240.473,61.958,240.807,62.403,240.75,64.634C240.684,67.148,239.416,69.234,238.658,71.5C238.548,71.834,238.381,72.148,238.268,72.48C237.139,75.788,236.013,79.098,234.895,82.411C234.756,82.823,234.592,83.253,234.586,83.677C234.574,84.816,235.133,85.183,236.189,84.798C237.674,84.254,239.141,83.663,240.644,83.181C241.562,82.888,241.773,82.223,241.997,81.419C242.202,80.684,242.451,79.817,242.979,79.348C244.663,77.852,246.543,78.475,247.129,80.64C247.382,81.571,247.503,82.54,247.611,83.104" fill="rgb(238,62,60)" stroke="none" stroke-width="1"/><path id="euNWtKabHgf23" d="M169.656,90.428C171.652,90.138,173.328,89.504,174.61,88.259C175.162,87.723,175.463,86.559,175.333,85.771C175.028,83.914,174.399,82.109,173.897,80.285C173.373,78.379,172.771,76.49,172.339,74.564C172.058,73.312,171.525,72.519,170.162,72.582C169.218,72.626,168.519,72.333,168.179,71.402C167.8,70.361,167.599,69.298,168.5,68.44C168.994,67.969,169.613,67.566,170.246,67.321C171.643,66.779,173.084,66.351,174.512,65.887C175.967,65.415,176.969,65.716,177.623,66.807C178.431,68.157,178.22,69.209,177.311,70.392C176.913,70.91,176.745,71.891,176.932,72.523C177.948,75.946,179.172,79.308,180.199,82.728C181.189,86.02,180.177,88.904,178.2,91.603C176.49,93.934,174.251,95.393,171.416,95.359C167.417,95.317,162.955,93.984,161.551,89.22C160.479,85.583,159.338,81.965,158.29,78.321C157.995,77.294,157.548,76.669,156.395,76.712C155.367,76.751,154.395,76.483,153.993,75.438C153.582,74.373,154.014,73.322,154.849,72.711C157.25,70.95,159.93,69.933,162.982,70.403C164.077,70.57,164.631,71.357,164.846,72.386C165.045,73.353,164.54,73.94,163.776,74.46C162.078,75.61,162.084,75.735,162.764,77.727C163.719,80.524,164.594,83.35,165.604,86.127C165.991,87.185,166.507,88.278,167.244,89.104C167.822,89.749,168.835,90.001,169.656,90.428" fill="rgb(238,62,60)" stroke="none" stroke-width="1"/><path id="euNWtKabHgf24" d="M202.036,115.141C203.972,114.958,204.592,115.81,204.938,116.863C205.585,118.827,206.137,120.822,206.734,122.802C207.253,124.527,207.713,126.277,208.35,127.958C208.521,128.412,209.201,128.86,209.718,128.964C211.586,129.343,212.27,129.825,212.288,131.055C212.307,132.493,211.297,133.641,209.768,134.037C208.162,134.459,206.57,134.931,204.981,135.415C203.659,135.821,202.376,135.458,201.84,134.465C201.081,133.062,201.314,132.324,202.527,131.149C202.947,130.741,203.299,129.867,203.158,129.348C202.535,127.056,201.675,124.832,200.992,122.556C200.632,121.351,199.927,120.659,198.706,120.486C197.261,120.279,196.901,119.178,196.751,118.007C196.604,116.843,197.478,116.371,198.405,116.1C199.797,115.688,201.214,115.352,202.036,115.141" fill="rgb(238,62,60)" stroke="none" stroke-width="1"/><path id="euNWtKabHgf25" d="M198.876,112.879C197.166,113.09,196.442,111.381,196.216,108.989C196.081,107.566,198.004,106.312,200.056,106.316C201.539,106.316,202.711,107.994,202.72,110.126C202.727,111.695,201.075,112.877,198.876,112.879" fill="rgb(238,62,60)" stroke="none" stroke-width="1"/></g><g id="euNWtKabHgf26"><path id="euNWtKabHgf27" d="M976.91,365.03C984.384,365.593,991.781,366.813,999.206,367.789C1000.306,367.935,1001.051,367.752,1001.609,366.694C1002.64,364.741,1004.287,364.088,1006.475,364.496C1008.519,364.876,1010.594,365.112,1012.663,365.332C1015.192,365.6,1017.521,365.106,1019.631,363.538C1020.437,362.938,1021.526,362.723,1022.481,362.328C1023.256,362.008,1024.002,361.619,1024.799,361.372C1026.255,360.916,1027.737,360.526,1029.216,360.14C1030.173,359.888,1031.147,359.696,1032.112,359.465C1032.994,359.252,1033.881,358.804,1034.75,358.841C1037.778,358.97,1040.805,359.235,1043.828,359.512C1045.389,359.657,1046.972,359.812,1048.484,360.2C1050.418,360.697,1052.618,361.013,1054.106,362.173C1056.061,363.692,1058.392,364.235,1060.377,365.52C1060.857,365.829,1061.115,366.522,1061.608,366.768C1063.776,367.847,1065.037,369.942,1066.891,371.338C1069.392,373.219,1072.405,373.939,1075.44,373.829C1078.154,373.729,1080.182,374.609,1081.508,376.812C1082.685,378.76,1084.223,379.642,1086.452,379.708C1087.973,379.754,1089.495,380.034,1090.996,380.319C1092.218,380.551,1093.392,381.112,1094.618,381.251C1098.135,381.648,1101.668,381.872,1105.189,382.23C1107.12,382.423,1108.634,383.918,1108.794,385.849C1108.911,387.294,1108.95,388.784,1108.755,390.216C1102.427,436.772,1096.067,483.324,1089.71,529.875C1088.946,535.474,1088.189,541.072,1087.424,546.671C1087.033,549.517,1084.826,551.27,1081.967,550.883C1067.486,548.928,1053.009,546.941,1038.529,544.968C1013.193,541.509,987.854,538.05,962.519,534.59C959.865,534.229,957.214,533.866,954.568,533.476C952.074,533.108,951.199,531.894,951.444,529.393C951.641,527.388,951.668,525.362,951.896,523.361C952.002,522.424,952.532,521.534,952.645,520.593C952.795,519.352,952.586,518.064,952.773,516.832C953.573,511.566,954.568,506.326,955.299,501.054C958.715,476.314,962.071,451.563,965.447,426.819C967.422,412.34,969.405,397.865,971.356,383.383C971.501,382.315,971.296,381.197,971.456,380.133C971.686,378.604,972.297,377.118,972.398,375.591C972.572,372.951,973.258,370.409,973.595,367.803C973.819,366.093,975.271,365.067,976.91,365.03M1075.819,399.896C1075.774,399.811,1075.73,399.725,1075.685,399.64C1075.348,399.618,1075.009,399.612,1074.672,399.566C1070.34,398.977,1066.008,398.38,1061.676,397.789C1045.774,395.606,1029.869,393.438,1013.97,391.231C1009.686,390.639,1005.412,389.958,1001.146,389.245C999,388.885,998.361,387.978,998.471,385.8C998.508,385.037,998.662,384.281,998.691,383.519C998.75,382.085,998.074,381.248,996.646,381.121C994.674,380.943,992.695,380.869,990.716,380.761C989.686,380.706,989.175,381.387,988.869,382.219C988.669,382.771,988.606,383.377,988.527,383.965C986.874,396.213,985.243,408.464,983.579,420.71C981.163,438.468,978.729,456.227,976.292,473.984C974.542,486.689,972.771,499.391,971.005,512.093C970.771,513.757,971.016,514.222,972.612,514.739C973.051,514.885,973.524,514.949,973.985,515.012C984.886,516.463,995.792,517.89,1006.689,519.366C1023.143,521.595,1039.592,523.854,1056.041,526.111C1060.753,526.757,1065.46,527.438,1070.168,528.112C1072.128,528.392,1072.927,527.81,1073.143,525.979C1073.544,522.605,1073.936,519.231,1074.396,515.868C1079.384,479.252,1084.382,442.639,1089.384,406.027C1089.792,403.038,1090.266,400.061,1090.679,397.075C1090.963,395.017,1090.468,394.393,1088.452,394.085C1087.321,393.911,1086.122,393.9,1085.077,393.501C1082.311,392.449,1080.73,393.226,1080.288,396.132C1080.14,397.116,1079.852,397.977,1078.956,398.452C1077.941,398.99,1076.867,399.42,1075.819,399.896M1096.02,394.387C1095.469,398.363,1094.864,402.649,1094.282,406.935C1092.249,421.877,1090.228,436.821,1088.197,451.759C1084.712,477.392,1081.262,503.03,1077.693,528.648C1077.013,533.53,1076.207,533.902,1071.484,533.395C1067.139,532.926,1062.818,532.213,1058.486,531.614C1045.739,529.854,1032.995,528.084,1020.245,526.348C1003.709,524.099,987.167,521.892,970.631,519.635C969.506,519.483,968.391,519.146,967.327,518.744C965.656,518.116,964.709,516.509,964.909,514.71C965.093,513.064,965.387,511.436,965.61,509.793C967.428,496.409,969.233,483.022,971.056,469.643C974.074,447.503,977.1,425.368,980.13,403.233C981.205,395.367,982.243,387.494,983.428,379.642C983.984,375.96,984.858,375.289,988.525,374.822C988.733,374.794,989.005,374.893,989.15,374.794C989.481,374.566,989.75,374.253,990.044,373.974C989.766,373.726,989.518,373.304,989.207,373.254C986.607,372.823,984.005,372.424,981.395,372.087C979.564,371.851,978.596,372.765,978.551,374.616C978.531,375.464,978.553,376.317,978.44,377.157C975.172,401.143,971.884,425.13,968.606,449.116C965.83,469.399,963.062,489.683,960.288,509.968C959.603,514.978,958.901,519.984,958.226,524.99C957.946,527.069,958.45,527.782,960.285,528.03C969.755,529.307,979.224,530.585,988.694,531.87C1000.943,533.53,1013.189,535.194,1025.437,536.865C1043.449,539.32,1061.458,541.783,1079.469,544.238C1081.042,544.454,1081.666,543.997,1081.905,542.414C1082.055,541.407,1082.128,540.389,1082.263,539.381C1083.693,528.903,1085.129,518.426,1086.561,507.948C1089.432,486.948,1092.296,465.95,1095.165,444.951C1097.02,431.36,1098.874,417.765,1100.737,404.175C1101.357,399.63,1101.995,395.089,1102.642,390.549C1102.788,389.528,1102.569,388.7,1101.454,388.535C1098.766,388.135,1096.068,387.796,1093.367,387.503C1093.034,387.468,1092.652,387.87,1092.293,388.07C1092.518,388.413,1092.665,388.9,1092.982,389.071C1094.027,389.64,1095.25,390.036,1095.628,391.294C1095.891,392.164,1095.871,393.122,1096.02,394.387M1005.376,382.141C1005.5,384.029,1005.956,384.582,1007.844,384.817C1008.555,384.905,1009.282,384.887,1010.003,384.915C1010.968,384.948,1011.95,384.881,1012.898,385.033C1015.244,385.413,1017.56,385.952,1019.91,386.307C1021.233,386.509,1022.606,386.381,1023.936,386.562C1025.267,386.745,1026.558,387.176,1027.883,387.407C1029.354,387.664,1030.839,387.861,1032.325,388.01C1034.383,388.216,1036.461,388.264,1038.506,388.548C1040.722,388.855,1042.893,389.447,1045.108,389.745C1047.409,390.054,1049.745,390.099,1052.049,390.39C1053.424,390.562,1054.754,391.09,1056.127,391.264C1058.01,391.503,1059.926,391.481,1061.808,391.718C1063.266,391.903,1064.682,392.4,1066.139,392.613C1067.977,392.877,1069.866,392.843,1071.679,393.202C1074.006,393.667,1074.558,393.387,1074.918,391.077C1075.37,388.19,1075.869,385.311,1076.337,382.427C1076.385,382.139,1076.402,381.832,1076.361,381.543C1076.18,380.272,1075.521,379.861,1073.784,379.603C1071.361,379.245,1068.929,378.872,1066.548,378.3C1065.625,378.08,1064.545,377.504,1064.027,376.752C1061.225,372.679,1057.037,370.466,1052.887,368.211C1051.87,367.658,1050.597,367.598,1049.482,367.198C1043.544,365.084,1037.41,365.039,1031.253,365.541C1029.778,365.662,1028.314,366.324,1026.919,366.911C1024.393,367.968,1021.757,368.899,1019.475,370.367C1017.485,371.647,1015.567,371.838,1013.428,371.467C1012.092,371.235,1010.779,370.814,1009.436,370.685C1007.361,370.483,1006.653,371.126,1006.405,373.184C1006.05,376.166,1005.717,379.153,1005.376,382.141" fill="rgb(238,62,60)" stroke="none" stroke-width="1"/><path id="euNWtKabHgf28" d="M1027.572,409.691C1031.123,409.861,1035.029,409.799,1038.853,410.323C1041.445,410.681,1043.9,411.953,1046.458,412.661C1048.659,413.265,1050.723,414.01,1052.396,415.654C1052.887,416.138,1053.667,416.31,1054.271,416.697C1055.077,417.213,1055.863,417.775,1056.619,418.368C1057.115,418.759,1057.506,419.287,1058.008,419.669C1061.542,422.344,1064.017,425.848,1066.359,429.569C1067.954,432.1,1068.462,434.911,1069.399,437.596C1070.5,440.743,1069.979,444.075,1069.475,447.307C1069.079,449.86,1068.496,452.388,1067.934,454.914C1067.801,455.518,1067.51,456.133,1067.143,456.635C1064.954,459.626,1063.059,462.879,1060.2,465.303C1058.526,466.719,1056.668,467.949,1054.784,469.078C1053.123,470.075,1051.257,470.721,1049.593,471.707C1048.958,472.083,1048.309,472.948,1048.227,473.655C1047.918,476.365,1048.19,479.048,1049.194,481.631C1050.019,483.756,1050.797,485.902,1051.518,488.064C1051.917,489.256,1051.564,490.41,1050.566,491.115C1049.474,491.886,1048.142,492.035,1046.949,491.318C1044.918,490.097,1042.957,488.759,1040.961,487.486C1040.496,487.191,1040.004,486.943,1039.528,486.666C1039.052,486.39,1038.486,486.191,1038.128,485.801C1035.327,482.771,1032.494,479.762,1029.822,476.618C1028.465,475.021,1027.007,473.95,1024.875,473.62C1022.238,473.212,1019.651,472.503,1017.044,471.924C1016.962,471.906,1016.874,471.889,1016.803,471.847C1014.351,470.36,1011.776,469.043,1009.484,467.348C1007.288,465.719,1005.268,463.803,1003.378,461.82C1000.891,459.209,998.803,456.271,997.439,452.891C996.747,451.179,995.97,449.478,995.516,447.699C995.017,445.744,994.512,443.689,994.597,441.703C994.749,438.144,994.715,434.5,996.628,431.225C997.41,429.885,997.811,428.327,998.527,426.937C999,426.022,999.713,425.225,1000.344,424.395C1000.571,424.093,1000.914,423.874,1001.117,423.561C1003.038,420.617,1005.81,418.558,1008.585,416.55C1011.335,414.563,1014.415,413.139,1017.608,411.987C1018.96,411.499,1020.326,411.02,1021.72,410.706C1023.524,410.298,1025.369,410.063,1027.572,409.691M1000.466,442.717C1000.526,442.74,1000.586,442.761,1000.647,442.784C1000.787,443.699,1000.757,444.689,1001.105,445.519C1002.146,447.999,1002.726,450.618,1004.084,453.042C1005.709,455.942,1007.772,458.444,1010.276,460.332C1013.189,462.528,1015.987,465.107,1019.854,465.874C1022.982,466.491,1025.834,468.138,1029.084,468.492C1030.129,468.605,1031.275,469.263,1032.051,470.011C1033.195,471.111,1033.975,472.583,1035.045,473.78C1036.844,475.788,1038.717,477.739,1040.639,479.634C1040.946,479.936,1041.858,480.064,1042.139,479.836C1042.459,479.581,1042.618,478.73,1042.436,478.315C1041.524,476.239,1041.627,474.096,1041.808,471.935C1042.056,468.976,1043.532,467.301,1046.377,466.553C1047.352,466.297,1048.375,466.014,1049.205,465.478C1051.556,463.959,1053.922,462.437,1056.09,460.677C1059.273,458.094,1061.677,454.946,1062.422,450.732C1062.652,449.434,1063.335,448.22,1063.689,446.936C1063.907,446.145,1064.022,445.279,1063.959,444.466C1063.842,443.001,1063.257,441.52,1063.401,440.099C1063.755,436.643,1061.947,433.911,1060.424,431.238C1059.07,428.859,1056.889,426.93,1054.949,424.917C1053.75,423.672,1052.451,422.43,1050.973,421.564C1048.534,420.137,1046.027,418.626,1043.347,417.843C1037.077,416.007,1030.691,414.545,1024.141,416.689C1023.779,416.806,1023.391,416.928,1023.022,416.913C1019.783,416.774,1017.187,418.582,1014.483,419.883C1011.295,421.415,1008.563,423.748,1006.255,426.411C1004.726,428.182,1003.214,430.218,1002.517,432.399C1001.459,435.718,1001.115,439.267,1000.466,442.717" fill="rgb(238,62,60)" stroke="none" stroke-width="1"/><path id="euNWtKabHgf29" d="M1033.164,424.586C1035.449,425.161,1038.047,425.232,1039.957,426.41C1044.834,429.422,1047.35,434.297,1044.806,439.843C1043.922,441.766,1041.843,443.271,1040.037,444.596C1038.641,445.619,1036.831,446.098,1035.182,446.758C1034.303,447.106,1033.831,447.653,1033.664,448.6C1033.461,449.756,1032.964,450.771,1031.768,451.275C1030.24,451.918,1028.516,450.981,1028.58,449.337C1028.658,447.354,1028.916,445.355,1029.355,443.423C1029.509,442.749,1030.345,442.037,1031.041,441.72C1032.729,440.95,1034.528,440.438,1036.258,439.756C1038.927,438.707,1040.049,434.977,1038.306,432.68C1037.149,431.161,1035.649,430.1,1033.548,430.193C1031.522,430.285,1030.177,431.303,1029.758,433.265C1029.623,433.886,1029.579,434.528,1029.427,435.144C1029.022,436.771,1027.859,437.462,1026.274,436.957C1024.44,436.374,1023.216,435.103,1022.787,433.237C1022.348,431.328,1022.945,429.724,1024.579,428.555C1025.026,428.236,1025.498,427.918,1025.86,427.514C1027.796,425.307,1030.256,424.603,1033.094,424.922C1033.118,424.81,1033.142,424.698,1033.164,424.586" fill="rgb(238,62,60)" stroke="none" stroke-width="1"/><path id="euNWtKabHgf30" d="M1034.356,457.292C1034.374,459.779,1032.518,461.504,1029.767,461.554C1028.331,461.578,1026.254,459.308,1026.257,457.718C1026.263,455.593,1028.386,453.216,1030.31,453.188C1032.483,453.155,1034.341,455.039,1034.356,457.292" fill="rgb(238,62,60)" stroke="none" stroke-width="1"/></g><g id="euNWtKabHgf31"><path id="euNWtKabHgf32" d="M133.181,341.36C137.821,340.256,142.479,339.221,147.089,338.024C151.521,336.873,155.315,337.969,158.433,341.159C160.863,343.645,161.885,346.757,161.5,350.264C161.231,352.723,160.289,354.883,158.622,356.722C157.261,358.223,155.68,359.371,153.682,359.873C152.793,360.096,151.901,360.309,151.028,360.58C150.224,360.832,149.84,361.404,150.038,362.258C150.546,364.44,151.065,366.621,151.601,368.8C151.807,369.643,152.414,369.916,153.24,369.903C156.642,369.856,160.054,369.635,163.44,369.846C166.788,370.053,170.136,370.558,173.432,371.202C176.637,371.83,179.795,372.727,182.934,373.642C184.831,374.199,186.654,375.013,188.509,375.718C189.837,376.222,190.121,376.112,190.885,374.876C192.079,372.942,193.249,370.991,194.514,369.105C196.351,366.365,199.056,364.995,202.247,364.523C207.067,363.81,210.935,365.654,213.437,369.623C215.78,373.336,216.125,377.471,213.818,381.49C212.717,383.406,211.513,385.261,210.361,387.146C209.608,388.382,209.757,388.75,210.746,389.747C213.366,392.381,216.018,394.994,218.463,397.785C220.444,400.056,222.19,402.543,223.944,405C224.893,406.328,225.698,407.769,226.469,409.213C227.774,411.658,229.113,414.095,230.24,416.619C233.092,423.002,234.856,429.718,235.909,436.602C236.388,439.738,236.561,442.941,236.625,446.119C236.69,449.322,236.562,452.541,236.306,455.736C236.113,458.146,235.683,460.548,235.178,462.916C234.573,465.744,233.967,468.599,233.014,471.32C231.66,475.179,230.15,479,228.415,482.703C225.383,489.174,221.307,494.995,216.441,500.218C213.872,502.977,211.103,505.567,208.292,508.084C206.684,509.523,204.845,510.718,203.047,511.934C200.809,513.443,198.576,514.989,196.209,516.274C193.553,517.71,190.783,518.956,187.997,520.122C185.792,521.046,183.498,521.767,181.218,522.493C176.21,524.085,171.066,525.083,165.85,525.594C162.751,525.902,159.619,525.933,156.501,525.941C154.685,525.945,152.861,525.687,151.049,525.488C149.053,525.271,147.046,525.082,145.077,524.707C142.327,524.18,139.583,523.6,136.89,522.85C132.045,521.511,127.396,519.641,122.932,517.317C118.215,514.862,113.76,512.021,109.6,508.695C104.792,504.853,100.484,500.517,96.767,495.634C94.675,492.889,92.894,489.901,91.014,486.996C88.723,483.455,87.015,479.613,85.539,475.689C83.872,471.261,82.721,466.673,81.81,462.009C81.044,458.082,80.602,454.14,80.48,450.171C80.383,447.005,80.603,443.819,80.841,440.654C81.027,438.178,81.403,435.716,81.804,433.264C82.083,431.559,82.456,429.854,82.954,428.2C83.85,425.216,84.761,422.231,85.868,419.323C87.861,414.09,90.352,409.078,93.626,404.524C96.033,401.176,98.551,397.885,101.284,394.803C103.444,392.365,105.926,390.184,108.416,388.073C110.785,386.061,113.319,384.239,115.845,382.423C117.065,381.542,118.406,380.816,119.739,380.103C121.65,379.078,123.598,378.121,125.54,377.148C126.385,376.725,127.244,376.333,128.104,375.937C128.917,375.563,129.377,374.96,129.172,374.056C128.671,371.873,128.16,369.695,127.568,367.536C127.322,366.642,126.668,366.397,125.582,366.6C124.373,366.823,123.175,367.23,121.959,367.284C118.502,367.432,115.557,366.216,113.171,363.665C110.767,361.099,109.889,357.958,110.159,354.597C110.408,351.521,111.857,348.927,114.328,346.913C115.909,345.626,117.729,345.045,119.638,344.589C124.151,343.509,128.666,342.435,133.181,341.36M104.906,460.479C112.064,490.044,141.501,508.453,171.206,501.441C200.737,494.47,219.252,465.136,212.184,435.098C205.175,405.314,175.445,387.101,145.807,394.14C116.234,401.161,98.033,430.747,104.906,460.479" fill="rgb(238,62,60)" stroke="none" stroke-width="1"/><path id="euNWtKabHgf33" d="M160.486,424.931C161.605,429.63,162.722,434.327,163.845,439.023C164.261,440.753,164.46,440.823,166.234,440.849C169.572,440.898,172.909,441.053,176.247,441.141C178.166,441.185,180.09,441.158,182.009,441.22C184.621,441.3,187.248,441.281,189.838,441.586C193.725,442.041,197.098,446.317,197.082,450.237C197.07,453.572,195.768,456.186,193.097,458.076C191.229,459.397,189.019,459.694,186.78,459.671C184.387,459.645,181.996,459.577,179.605,459.513C177.463,459.45,175.326,459.356,173.184,459.294C171.926,459.254,170.667,459.243,169.408,459.229C167.236,459.203,165.062,459.207,162.889,459.144C160.339,459.074,157.754,459.181,155.252,458.79C152.141,458.304,149.043,456.024,148.088,451.96C146.385,444.706,144.635,437.47,142.907,430.222C141.713,425.218,140.559,420.204,139.316,415.21C138.597,412.32,139.031,409.687,140.837,407.342C142.882,404.695,145.543,403.369,148.983,403.734C151.081,403.957,152.906,404.696,154.389,406.166C155.727,407.49,156.702,409.068,157.147,410.93C158.263,415.597,159.373,420.263,160.486,424.931" fill="rgb(238,62,60)" stroke="none" stroke-width="1"/></g><g id="euNWtKabHgf34"><path id="euNWtKabHgf35" d="M991.711,33.175C1017.561,33.7,1038.815,40.344,1057.395,54.661C1070.602,64.837,1080.536,77.536,1085.346,93.705C1091.228,113.484,1087.696,131.728,1075.245,148.091C1064.605,162.074,1050.182,170.548,1033.498,175.389C1021.529,178.861,1009.31,179.773,996.935,178.484C989.706,177.729,982.626,176.216,975.735,173.842C975.065,173.612,974.084,173.805,973.412,174.135C962.646,179.416,951.917,184.771,941.159,190.066C937.246,191.992,933.324,189.749,933.137,185.528C933.105,184.846,933.258,184.144,933.412,183.467C935.666,173.644,937.924,163.821,940.214,154.005C940.434,153.064,940.196,152.474,939.518,151.816C930.218,142.754,923.072,132.273,918.888,119.917C914.281,106.321,913.902,92.645,918.702,79.021C922.636,67.861,929.521,58.758,938.727,51.399C950.031,42.366,962.992,37.045,977.184,34.739C982.806,33.825,988.522,33.507,991.711,33.175M946.224,175.6C947.15,175.162,947.698,174.916,948.231,174.651C956.481,170.571,964.718,166.468,972.993,162.439C973.64,162.126,974.638,162.075,975.309,162.334C990.872,168.303,1006.865,169.91,1023.247,166.878C1038.187,164.111,1051.502,157.934,1062.229,146.962C1072.472,136.479,1077.9,123.933,1077.293,109.102C1076.863,98.594,1073.249,89.111,1067.359,80.503C1056.594,64.769,1041.584,54.77,1023.724,48.814C1010.446,44.384,996.809,42.897,982.881,44.624C968.059,46.462,954.577,51.545,943.223,61.509C935.861,67.969,930.594,75.852,927.894,85.319C924.352,97.744,925.771,109.806,930.887,121.519C935.478,132.031,942.465,140.736,951.22,148.07C952.044,148.758,952.279,149.367,952.02,150.438C950.703,155.9,949.484,161.387,948.229,166.866C947.592,169.655,946.948,172.446,946.224,175.6" fill="rgb(238,62,60)" stroke="none" stroke-width="1"/><path id="euNWtKabHgf36" d="M1030.979,87.005C1030.786,95.306,1027.506,102.287,1019.9,106.932C1016.61,108.942,1013.423,111.129,1010.077,113.039C1006.343,115.166,1004.16,118.286,1003.303,122.435C1003.051,123.663,1002.772,124.888,1002.422,126.093C1002.009,127.514,1001.015,128.125,999.555,127.83C997.46,127.398,995.377,126.91,993.301,126.407C992.012,126.096,991.083,125.216,991.417,123.907C992.362,120.185,993.348,116.455,994.638,112.848C995.465,110.529,997.395,108.902,999.492,107.614C1002.658,105.668,1005.864,103.785,1009.034,101.846C1011.86,100.119,1014.546,98.218,1016.644,95.598C1022.355,88.474,1018.918,77.729,1010.133,75.277C1003.416,73.402,997.538,75.834,994.015,81.944C993.758,82.388,993.526,82.842,993.284,83.293C992.657,84.467,991.678,84.786,990.46,84.385C988.033,83.589,985.606,82.79,983.198,81.933C981.646,81.381,981.312,80.48,981.984,78.992C986.419,69.159,996.816,63.428,1007.576,64.719C1014.028,65.492,1019.876,67.548,1024.666,72.07C1028.836,76.006,1030.859,80.91,1030.979,87.005" fill="rgb(238,62,60)" stroke="none" stroke-width="1"/><path id="euNWtKabHgf37" d="M999.348,141.263C999.305,144.739,996.377,147.467,992.761,147.389C989.475,147.322,986.766,144.463,986.787,141.083C986.811,137.589,989.666,134.745,993.091,134.804C996.702,134.868,999.39,137.644,999.348,141.263" fill="rgb(238,62,60)" stroke="none" stroke-width="1"/></g><path id="euNWtKabHgf38" d="M510.671,569C510.156,568.661,509.654,568.287,509.116,567.98C507,566.751,504.628,565.814,502.81,564.241C501.059,562.711,499.67,560.659,498.481,558.625C497.126,556.312,496.055,553.806,495.106,551.304C494.56,549.885,493.74,548.881,492.614,547.932C490.497,546.14,488.478,544.209,486.464,542.307C486.071,541.933,485.696,541.408,485.589,540.903C484.583,536.033,483.055,531.224,484.593,526.157C485.054,524.654,484.577,523.179,483.36,522.034C481.899,520.657,481.013,519.029,480.462,517.021C479.31,512.827,477.816,508.724,476.368,504.622C476.003,503.592,475.168,502.741,474.734,501.726C473.941,499.84,473.342,497.868,472.549,495.98C472.072,494.834,471.638,493.49,470.764,492.735C467.967,490.337,465.61,487.557,463.487,484.607C462.256,482.901,461.419,480.862,460.69,478.872C459.028,474.342,457.625,469.714,455.961,465.184C454.064,460.018,453.838,454.748,454.288,449.335C454.603,445.503,453.913,441.752,452.693,438.083C451.577,434.699,450.587,431.272,449.728,427.812C449.369,426.347,448.769,425.129,447.714,424.131C446,422.508,444.939,420.527,444.017,418.368C443.255,416.586,441.991,415.017,441.004,413.317C440.453,412.379,439.852,411.425,439.558,410.394C438.717,407.427,438.212,404.412,438.182,401.264C438.156,398.707,437.565,396.131,437.034,393.608C436.831,392.654,436.184,391.716,435.545,390.926C434.107,389.172,433.063,387.346,432.866,384.966C432.759,383.694,432.057,382.388,431.339,381.281C430.327,379.713,429.56,378.099,429.271,376.284C428.917,374.042,428.626,371.777,428.328,369.529C428.279,369.139,428.194,368.64,428.38,368.361C429.383,366.853,428.687,365.504,428.199,364.067C427.919,363.266,427.721,362.362,427.79,361.522C427.924,359.91,427.486,358.408,426.56,357.261C424.999,355.32,425.101,353.412,426.291,351.532C427.11,350.231,427.122,349.092,426.628,347.758C425.931,345.835,425.915,343.827,426.398,341.886C426.795,340.301,426.582,338.913,425.819,337.537C424.448,335.069,424.571,332.453,425.257,329.882C425.553,328.79,426.137,327.585,426.971,326.85C429.43,324.672,429.041,321.881,428.969,319.118C428.964,318.904,428.846,318.63,428.676,318.504C426.645,316.876,426.009,314.451,425.071,312.208C424.947,311.925,424.78,311.655,424.476,311.101C423.527,311.826,422.702,312.521,421.808,313.12C418.86,315.11,416.004,317.266,412.892,318.966C410.304,320.381,407.383,320.985,404.386,320.046C403.284,319.707,402.421,320.025,401.595,320.852C399.393,323.069,393.934,322.98,391.811,320.469C390.081,318.412,387.551,317.496,385.489,315.917C384.546,315.188,383.517,314.574,382.602,313.812C381.813,313.159,381.127,312.424,381.204,311.201C381.278,310.095,380.677,309.469,379.487,309.37C378.958,309.32,378.308,309.123,377.976,308.756C375.712,306.255,372.394,304.896,370.817,301.577C370.181,300.243,368.486,299.294,367.11,298.431C363.482,296.154,362.073,292.628,361.393,288.687C360.916,285.919,363.006,283.482,365.813,283.296C367.626,283.172,369.435,282.999,371.242,282.813C372.72,282.662,373.942,283.107,374.729,284.369C375.607,285.792,376.819,285.884,378.244,285.525C379.004,285.332,379.771,285.188,380.766,284.97C380.446,284.581,380.238,284.212,379.927,283.976C378.543,282.919,377.16,281.853,375.704,280.882C374.868,280.325,374.054,279.909,372.848,280.394C371.236,281.044,369.703,280.299,368.513,279.126C367.732,278.359,367.142,277.406,366.43,276.563C365.964,276.023,365.437,275.542,364.936,275.042C363.595,273.699,362.095,272.476,360.966,270.976C360.343,270.14,359.685,269.494,358.906,268.828C357.338,267.495,355.833,266.031,354.582,264.408C353.307,262.758,353.891,259.517,355.479,258.033C356.057,257.49,356.759,257.078,357.349,256.546C359.101,254.961,360.949,253.873,363.707,255.578C363.707,254.266,363.655,253.333,363.718,252.412C363.902,249.566,365.733,247.776,368.568,248.005C372.799,248.348,376.898,247.411,381.041,247.005C383.58,246.763,385.382,247.315,386.701,249.469C387.663,251.043,389.144,250.379,390.359,250.311C391.285,250.267,392.261,249.627,393.07,249.044C395.149,247.533,397.347,247.026,399.826,247.78C401.166,248.188,402.516,248.583,403.879,248.987C404.992,246.146,404.543,244.861,402.009,243.311C398.595,241.222,397.937,240.142,398.286,235.644C398.315,235.253,398.388,234.858,398.392,234.46C398.397,234.236,398.304,234.005,398.23,233.674C396.821,233.05,395.417,232.28,393.917,231.809C392.502,231.364,391.666,230.451,391.03,229.242C390.333,227.907,389.544,226.606,389.014,225.206C388.195,223.016,388.382,220.866,389.79,218.905C389.968,218.653,390.103,218.36,390.226,218.069C390.283,217.929,390.257,217.754,390.278,217.506C388.964,216.741,387.599,215.985,386.269,215.17C384.234,213.922,383.097,212.187,383.102,209.69C383.102,208.618,382.69,207.524,382.381,206.468C381.939,204.952,381.344,203.485,380.95,201.958C380.393,199.819,381.018,198.33,382.915,197.157C383.707,196.663,384.05,196.022,384.415,195.169C385.139,193.485,385.566,191.498,387.823,190.878C388.45,190.705,388.974,189.817,389.361,189.145C390.025,187.999,390.905,187.179,392.062,186.543C392.882,186.088,393.63,185.454,394.297,184.797C395.501,183.617,396.971,182.957,398.561,182.995C400.603,183.044,402.468,182.422,404.401,181.994C405.327,181.788,406.271,181.575,407.214,181.534C410.949,181.378,413.036,184.709,411.314,188.01C410.741,189.115,410.105,190.187,409.51,191.262C411.391,192.512,412.982,192.26,413.891,190.711C414.042,190.442,414.116,190.122,414.233,189.828C415.777,186.045,418.546,183.928,422.627,183.37C423.815,183.203,424.977,182.545,426.043,181.934C427.277,181.238,428.497,180.456,429.541,179.508C430.877,178.296,432.174,176.988,433.229,175.532C435.453,172.461,437.558,169.294,439.609,166.1C440.365,164.912,440.895,163.561,441.41,162.234C441.808,161.178,442.224,160.219,443.156,159.484C444.615,158.333,445.75,156.956,445.981,154.974C446.065,154.291,446.296,153.499,446.74,153.005C449.194,150.241,450.945,146.658,455.061,145.761C455.887,145.585,456.728,145.182,457.397,144.664C459.714,142.868,461.962,140.965,464.247,139.122C465.142,138.404,465.324,137.538,465.319,136.399C465.309,134.359,465.457,132.306,465.769,130.293C466.123,128.026,466.786,125.813,467.236,123.556C467.988,119.764,470.351,117.428,473.865,116.137C474.962,115.734,476.089,115.429,477.449,115.011C474.731,112.252,470.503,111.013,470.756,106.218C470.21,106.278,469.632,106.199,469.195,106.413C466.105,107.918,463.101,107.098,460.237,105.919C458.689,105.286,457.581,103.92,457.693,101.976C457.735,101.268,457.698,100.556,457.698,100.008C456.116,98.883,454.655,97.951,453.314,96.874C451.219,95.193,450.77,92.904,451.402,90.428C452.066,87.825,452.869,85.262,453.694,82.712C454.16,81.297,454.396,80.264,453.066,78.925C451.336,77.192,450.223,74.889,450.549,72.227C450.623,71.676,450.601,70.963,450.925,70.631C452.217,69.323,452,67.763,451.981,66.167C451.948,63.113,454.465,61.21,457.429,61.997C458.405,62.255,459.354,62.625,460.528,63.006C460.523,61.097,458.822,60.305,458.329,58.874C457.838,57.476,457.156,56.14,456.509,54.673C455.651,54.881,454.82,55.101,453.981,55.279C450.814,55.943,448.006,55.197,445.492,53.179C444.195,52.134,442.868,51.114,441.483,50.193C438.286,48.071,437.968,46.963,438.912,43.245C439.326,41.6,439.932,40.231,441.287,39.305C443.483,37.8,444.61,35.554,445.789,33.311C446.65,31.69,447.535,30.133,449.307,29.231C450.766,28.487,452.148,28.336,453.641,28.954C454.012,29.108,454.409,29.19,454.746,29.393C456.605,30.492,458.255,30.347,460.243,29.335C462.388,28.246,464.91,27.218,467.223,27.303C469.801,27.393,471.989,26.848,474.259,25.943C474.892,25.697,475.662,25.702,476.37,25.697C478.914,25.67,481.461,25.732,484.013,25.658C484.934,25.636,485.855,25.326,486.776,25.148L489.161,25.148C491.39,25.825,492.103,27.602,492.285,29.236C493.508,30.261,494.39,31.15,495.407,31.819C496.451,32.496,497.611,33.014,498.763,33.502C499.656,33.883,500.358,34.267,500.863,35.227C501.554,36.54,502.583,37.691,503.509,38.871C503.846,39.293,504.307,39.636,504.757,39.954C505.712,40.634,506.714,41.24,507.658,41.926C509.911,43.56,511.118,45.998,512.522,48.277C513.309,49.562,514.037,50.884,514.885,52.123C515.731,53.376,516.93,53.927,518.501,54.083C522.24,54.459,525.457,52.753,528.857,51.769C530.283,51.355,531.612,50.563,533.054,50.231C535.813,49.598,538.223,48.244,540.663,46.924C542.606,45.879,544.617,45.339,546.845,46.11C547.471,46.323,548.265,46.287,548.923,46.126C550.986,45.616,552.963,45.542,554.956,46.447C555.647,46.76,556.489,46.823,557.261,46.872C559.644,47.041,560.985,48.12,561.733,50.434C562.441,52.617,562.25,54.829,562.058,57.047C561.98,57.985,561.788,58.922,561.751,59.866C561.559,63.99,561.436,68.116,561.233,72.237C561.15,73.888,560.482,75.365,559.148,76.353C557.16,77.842,556.088,79.964,554.904,82.015C553.232,84.918,550.767,86.73,547.548,87.561C547.087,87.679,546.616,87.769,546.169,87.926C543.338,88.91,543.079,89.447,544.075,92.768C544.843,92.768,545.703,92.811,546.556,92.757C547.756,92.677,548.656,93.246,549.598,93.895C551.721,95.362,551.642,97.635,551.075,99.494C550.324,101.975,551.154,103.993,551.84,106.16C552.267,107.514,552.777,108.855,553.051,110.242C553.66,113.236,552.15,115.567,549.301,116.387C548.734,116.549,548.224,116.966,547.74,117.33C547.173,117.761,546.679,118.278,546.128,118.734C544.203,120.338,542.131,120.357,539.957,119.266C539.205,118.891,538.419,118.575,537.127,117.991C538.161,119.957,538.857,121.523,539.773,122.956C541.617,125.83,543.547,128.648,545.517,131.429C545.827,131.868,546.568,132.238,547.1,132.227C549.69,132.164,551.166,133.685,552.413,135.657C553.126,136.786,553.817,137.944,554.664,138.961C555.988,140.554,557.494,141.909,559.611,142.503C561.752,143.109,563.816,143.929,565.45,145.59C565.764,145.911,566.429,146.002,566.929,146.002C568.114,145.99,569.333,146.002,570.482,145.755C571.902,145.45,572.792,146.119,573.556,147.09C576.138,150.391,576.177,153.456,572.588,156.075C572.141,156.401,571.601,156.708,571.337,157.163C570.246,159.049,568.686,160.505,567.175,162.022C566.961,162.233,566.709,162.543,566.698,162.812C566.607,165.317,565.002,167.166,564.063,169.311C563.007,171.707,561.795,173.977,560.499,176.234C559.742,177.547,560.431,179.711,561.971,180.59C564.502,182.035,567.041,183.633,570.169,183.417C571.881,183.291,573.235,184.218,574.56,185.052C576.493,186.263,578.328,187.64,580.18,188.975C580.871,189.468,581.681,189.94,582.118,190.621C582.836,191.734,583.829,192.299,585.016,192.513C590.018,193.412,594.487,195.513,598.77,198.185C600.128,199.033,601.933,199.128,603.436,199.792C606.123,200.971,608.88,200.593,611.645,200.453C611.804,200.442,611.991,200.448,612.106,200.358C615.204,198.129,618.719,199.554,622.031,199.269C622.595,199.22,623.308,199.549,623.781,199.927C625.706,201.443,627.811,202.756,629.138,204.934C630.306,206.855,631.753,207.81,634.297,207.199C636.294,206.721,638.537,206.952,640.314,208.523C640.747,208.904,641.432,209.153,642.024,209.191C645.046,209.394,647.997,209.877,650.82,211.05C652.394,211.706,654.012,211.752,655.717,211.346C656.842,211.083,658.08,211.179,659.254,211.297C663.278,211.689,667.162,212.761,671.033,213.885C671.257,213.948,671.499,213.965,671.735,213.987C674.657,214.212,677.581,214.436,680.503,214.651C680.881,214.678,681.255,214.656,682.033,214.656C681.452,212.931,681.156,211.302,680.388,209.948C679.559,208.478,679.269,207.096,679.389,205.429C679.548,203.301,679.581,201.111,679.263,199.011C678.781,195.748,679.51,192.672,680.229,189.587C680.58,188.077,682.724,186.753,684.188,187.256C685.318,187.646,686.057,187.297,686.809,186.768C688.476,185.589,690.324,185.433,692.248,185.647C693.915,185.831,695.521,185.847,697.184,185.298C698.846,184.748,700.589,184.619,702.042,186.146C703.715,187.909,703.753,189.946,701.834,191.402C699.815,192.929,699.086,194.865,699.657,197.264C700.255,199.784,700.401,202.273,699.75,204.805C699.603,205.389,699.728,206.052,699.728,206.68C702.124,207.703,704.412,208.377,706.896,208.254C707.587,208.221,708.415,208.147,708.968,208.468C711.172,209.723,713.274,209.347,715.297,208.191C718.05,206.615,721.11,206.233,724.148,205.896C730.284,205.222,736.449,204.729,742.802,204.139L742.802,200.583C741.256,199.686,739.913,198.669,738.4,198.102C736.727,197.474,734.901,197.266,732.906,196.822C732.718,196.496,732.395,195.964,732.11,195.412C730.98,193.204,731.074,192.083,732.828,190.312C734.66,188.45,736.415,186.603,737.724,184.249C739.248,181.507,742.113,181.244,744.585,183.338C745.265,183.912,745.907,184.202,746.734,184.035C748.8,183.623,750.803,183.275,752.416,181.548C753.999,179.851,756.09,178.639,757.822,177.065C758.53,176.421,759.094,175.453,759.374,174.529C760.021,172.404,761.228,170.907,763.268,170.029C763.817,169.788,764.293,169.349,764.744,168.935C766.312,167.485,767.59,167.265,769.499,168.17C771.324,169.03,771.691,168.822,771.817,166.845C772.031,163.514,774.027,161.343,776.956,159.875C779.248,158.718,781.457,157.298,783.646,155.917C784.49,155.39,785.137,154.464,786.25,154.173C788.279,153.638,789.974,153.937,791.404,155.626C792.841,157.31,794.514,157.271,796.006,155.665C796.493,155.144,797.021,154.631,797.403,154.036C799.833,150.225,803.529,149.599,807.581,150.065C810.252,150.376,812.616,151.488,814.392,153.584C814.996,154.292,815.664,155.081,815.895,155.947C816.268,157.329,817.058,157.732,818.331,157.598C820.529,157.368,821.758,158.67,822.548,160.438C823.342,162.217,823.282,163.986,821.911,165.56C821.566,165.958,821.275,166.396,820.798,167.038C821.807,166.98,822.504,166.986,823.189,166.89C825.295,166.6,827.034,167.179,828.624,168.659C829.381,169.361,830.588,169.58,831.591,170.018C832.519,170.43,833.499,170.753,834.35,171.282C835.562,172.039,836.263,173.089,835.924,174.663C835.666,175.842,836.169,176.7,837.136,177.52C838.505,178.683,839.653,180.114,840.898,181.424L840.898,183.338C840.064,184.454,839.236,185.573,838.216,186.939C838.216,186.741,838.155,186.934,838.227,187.041C840.102,189.87,840.123,190.106,837.745,192.442C834.992,195.143,831.85,196.649,827.891,195.316C827.53,195.198,827.106,195.234,826.705,195.214C824.08,195.108,824.08,195.115,822.193,193.953C820.69,194.918,819.204,195.809,817.795,196.815C817.032,197.361,816.369,198.057,815.727,198.748C814.533,200.02,813.414,201.369,812.202,202.628C811.78,203.078,811.237,203.519,810.662,203.7C806.916,204.863,804.959,207.816,803.391,211.057C802.913,212.049,802.941,213.382,803.035,214.533C803.205,216.512,802.624,218.328,801.944,220.086C800.511,223.81,799.619,227.626,799,231.563C798.609,234.055,799.695,236.027,800.529,238.138C801.214,239.89,802.119,241.598,802.46,243.416C802.684,244.636,802.042,246.007,801.872,247.32C801.685,248.814,800.655,249.404,799.442,249.958C798.209,250.509,797.08,251.227,795.631,251.178C794.676,251.142,794.007,251.597,793.963,252.755C793.926,253.697,793.723,254.641,793.486,255.563C793.294,256.317,793.042,257.095,792.648,257.764C790.809,260.86,787.086,262.426,783.506,261.707C783.056,261.616,782.578,261.691,781.899,261.691C781.899,263.234,781.866,264.733,781.911,266.226C781.96,267.709,781.543,269.005,780.814,270.303C779.125,273.319,778.131,276.53,778.197,280.053C778.231,281.946,778.878,283.414,780.397,284.544C781.094,285.059,781.641,285.767,782.343,286.273C784.114,287.554,783.659,289.445,783.467,291.068C783.373,291.873,782.317,292.832,781.459,293.23C778.521,294.601,775.582,296.3,772.462,296.862C768.524,297.564,764.411,297.533,761.171,294.167C758.982,291.889,758.916,289.216,759.18,286.425C759.476,283.297,760.589,280.182,759.109,277.02C757.858,276.391,756.74,276.924,755.61,277.581C753.401,278.86,751.146,280.034,748.465,279.812C748.148,279.787,747.758,279.905,747.522,279.76C745.718,278.682,743.706,278.753,741.72,278.469C739.8,278.188,737.981,277.209,736.121,276.524C734.175,275.811,732.765,274.391,731.636,272.762C730.819,271.578,730.49,270.162,731.137,268.68C732.008,266.664,732.134,264.52,732.003,262.357C731.904,260.742,732.283,259.27,732.863,257.742C733.73,255.479,735.299,254.373,737.536,253.889C738.216,253.738,738.983,253.519,739.472,253.069C740.766,251.89,742.247,251.597,743.892,251.75C745.186,251.862,746.413,251.773,747.533,250.975C747.907,250.712,748.422,250.648,748.877,250.515C750.204,250.133,751.531,249.768,753.303,249.266C752.167,248.134,751.498,247.218,750.611,246.623C749.31,245.757,748.68,244.557,748.291,243.158C747.786,241.379,747.484,241.181,745.9,242.187C743.722,243.574,741.359,244.433,738.865,244.951C737.785,245.168,736.661,245.163,735.552,245.242C733.577,245.388,731.604,245.639,729.629,245.634C727.084,245.623,724.49,245.472,722.353,243.876C721.311,243.103,720.324,242.814,719.056,242.944C716.606,243.205,714.269,242.793,712.351,241.121C710.266,239.306,708.687,236.493,710.076,233.123C710.755,231.477,710.464,229.445,710.63,227.373C707.327,227.93,705.129,226.338,702.974,224.705C701.801,223.82,700.61,223.144,699.07,223.386C698.68,223.449,698.226,223.516,697.881,223.376C694.826,222.106,693.225,224.786,690.697,225.621C692.105,227.195,693.208,228.514,694.415,229.726C694.771,230.085,695.396,230.223,695.923,230.368C697.064,230.683,698.242,230.883,699.372,231.237C701.406,231.883,703.414,232.613,705.431,233.303C707.445,233.989,708.497,235.853,708.283,237.943C707.97,241.04,701.418,246.472,697.718,245.069C696.292,244.528,695.002,243.612,693.209,242.626C691.909,242.933,690.61,244.24,689.355,245.551C688.301,246.651,688.444,247.492,689.815,248.161C691.307,248.886,692.87,249.48,694.427,250.043C696.659,250.851,698.907,251.615,701.167,252.335C703.973,253.231,705.383,255.342,705.486,259.123C705.147,259.391,704.703,259.707,704.302,260.067C701.945,262.205,702.098,264.84,704.698,266.675C704.895,266.808,705.103,266.921,705.306,267.05C708.634,269.225,709.326,272.219,707.291,275.654C707.011,276.137,706.78,276.661,706.424,277.08C705.118,278.586,704.538,280.332,704.57,282.062C705.75,283.213,707.054,284.087,707.816,285.294C710.121,288.968,708.644,292.157,706.462,294.66C705.513,295.751,704.673,296.796,704.115,298.153C702.617,301.775,698.702,303.382,695.05,301.863C693.773,301.325,692.802,301.237,691.501,301.973C690.099,302.761,688.238,302.784,686.868,303.618C684.164,305.264,681.592,307.155,679.109,309.123C678.401,309.688,678.137,310.873,677.787,311.81C677.517,312.551,677.611,313.462,677.222,314.109C675.057,317.728,674.666,321.901,673.548,325.838C673.121,327.352,672.835,328.925,672.254,330.385C671.339,332.698,669.578,334.453,668.032,336.361C664.774,340.381,660.124,342.147,655.682,344.181C653.658,345.113,651.339,345.25,649.556,343.227C649.145,342.761,648.652,342.361,648.082,341.812C647.773,342.108,647.374,342.306,647.275,342.613C646.212,345.876,643.628,347.515,640.662,348.529C637.591,349.572,635.556,352.05,636.318,355.056C637.009,357.77,636.077,359.601,634.31,361.45C632.956,362.869,631.817,364.505,630.599,366.073C629.041,368.063,626.936,369.006,624.478,369.209C623.294,369.313,622.509,369.692,622.422,371.014C622.279,373.043,620.898,374.277,619.423,375.373C617.641,376.684,615.78,377.895,613.954,379.157C612.053,380.456,610.15,381.766,608.246,383.067C606.799,384.053,605.302,384.985,604.445,386.603C603.76,387.892,602.626,388.484,601.243,388.764C599.395,389.142,597.558,389.581,595.688,390.003C595.392,391.483,595.831,392.766,596.604,393.868C597.542,395.2,598.644,396.424,599.697,397.684C600.366,398.501,600.322,399.417,599.637,400.059C596.818,402.692,594.421,405.889,590.693,407.347C587.819,408.476,584.841,409.331,581.686,408.454C579.631,411.844,577.849,415.254,577.743,419.295C577.727,419.986,577.394,420.689,577.115,421.347C576.707,422.274,576.088,422.855,574.913,422.789C572.937,422.695,570.948,422.81,568.973,422.718C566.806,422.614,565.011,421.746,563.802,419.828C563.431,419.24,562.886,418.769,562.106,417.897C561.791,419.887,561.068,421.56,561.394,422.992C561.973,425.514,561.534,427.883,561.224,430.29C561.068,431.546,560.821,432.769,561.229,434.004C561.281,434.15,561.271,434.326,561.241,434.481C560.355,440.107,562.774,444.669,565.896,449.018C567.133,450.746,566.75,452.593,564.969,453.663C564.24,454.107,563.382,454.359,562.573,454.672C562.28,454.781,561.948,454.792,561.605,454.847C560.757,456.153,561.634,457.354,561.936,458.489C563.088,462.756,564.459,466.962,565.654,471.211C566.142,472.944,566.558,474.716,566.727,476.503C567.058,480.007,563.252,482.81,559.831,481.713C559.455,481.599,559.063,481.516,558.668,481.472C558.366,481.433,558.051,481.467,557.799,481.467C556.208,484.214,556.126,484.499,558.078,486.467C559.995,488.387,560.897,490.729,561.057,493.246C561.153,494.731,560.568,496.338,559.965,497.747C559.124,499.711,558.193,501.574,558.968,503.763C558.989,503.846,559.012,503.934,559.001,503.999C558.243,509.022,559.939,513.754,560.672,518.596C561.122,521.531,560.097,523.784,557.997,524.975C556.358,525.902,554.746,525.386,553.143,524.996C552.453,524.826,551.915,524.59,551.128,524.87C549.43,525.462,547.343,524.683,546.269,523.273C545.855,522.719,545.475,522.149,544.922,521.366C544.001,522.457,543.256,523.351,542.491,524.266C542.913,525.182,543.214,525.999,543.648,526.75C545.314,529.673,545.293,532.65,544.006,535.688C543.696,536.418,543.266,537.142,543.165,537.899C542.845,540.295,541.177,541.628,539.425,542.873C538.885,543.246,538.092,543.389,537.41,543.415C535.899,543.465,534.389,543.339,532.878,543.355C531.866,543.366,530.862,543.498,529.795,543.585C529.153,547.808,526.154,550.034,523.072,551.963C520.426,553.625,519.797,556.181,519.315,558.786C519.118,559.844,520.102,561.094,520.45,562.289C521.035,564.297,520.809,566.029,518.78,567.226C518.051,567.659,517.509,568.405,516.878,569.001L510.671,569.001ZM521.12,544.769C520.97,543.557,520.89,542.696,520.762,541.84C520.492,540.047,521.441,538.709,522.919,538.286C526.017,537.392,529.102,536.224,532.392,536.224C536.175,536.235,536.192,536.274,537.392,532.714C537.563,532.237,537.584,531.596,537.423,531.112C536.877,529.561,536.096,528.081,535.644,526.507C534.958,524.148,534.83,521.807,536.817,519.855C538.174,518.529,539.376,517.014,540.842,515.813C544.716,512.628,547.803,512.386,551.039,516.219C551.419,516.663,551.87,517.037,552.288,517.453C552.747,516.723,552.871,516.114,552.726,515.599C552.068,513.22,551.662,510.828,551.832,508.351C551.893,507.402,551.995,506.392,551.758,505.494C550.777,501.749,551.558,498.255,553.184,494.899C553.782,493.66,553.757,492.651,552.948,491.586C552.518,491.027,552.17,490.374,551.682,489.875C549.669,487.809,549.175,485.351,549.581,482.604C550.237,478.08,553.337,474.779,557.738,473.924C557.964,473.885,558.166,473.737,558.44,473.6C558.385,473.128,558.341,472.662,558.262,472.203C557.297,466.724,555.297,461.536,553.767,456.206C552.775,452.73,553.134,450.563,555.991,448.727C556.246,448.574,556.451,448.349,556.756,448.08C556.521,447.52,556.376,446.984,556.092,446.529C554.634,444.148,554.071,441.571,554.217,438.797C554.297,437.283,554.269,435.77,554.191,434.25C554.152,433.488,553.65,432.671,553.804,431.97C554.371,429.332,554.529,426.721,554.281,424.029C554.158,422.719,554.517,421.365,554.631,420.033C554.726,418.837,554.749,417.641,554.86,416.456C555.016,414.894,555.049,413.276,555.461,411.763C556.229,408.933,559.834,407.777,562.384,409.268C564.541,410.536,566.404,412.076,567.966,414.029C568.69,414.932,569.559,415.624,570.571,415.098C571.627,412.653,572.643,410.436,573.529,408.177C573.77,407.557,573.765,406.783,573.635,406.12C573.468,405.199,573.046,404.322,572.782,403.422C571.849,400.259,573.866,397.121,577.062,397.314C579.768,397.484,582.636,397.824,584.704,400.006C585.609,400.966,586.676,401.136,587.742,400.67C588.846,400.181,589.832,399.402,590.903,398.734C590.223,397.368,589.741,396.283,589.163,395.251C587.909,393.025,588.156,390.623,588.443,388.281C588.707,386.039,591.717,383.133,593.853,382.755C595.175,382.524,596.507,382.321,597.846,382.245C598.723,382.188,599.337,381.871,599.835,381.163C602.254,377.786,606.153,376.256,609.251,373.733C611.094,372.231,613.144,370.991,615.024,369.539C615.479,369.183,615.77,368.48,615.924,367.893C616.79,364.527,619.264,363.073,622.373,362.344C626.721,361.324,628.81,358.127,627.883,353.839C627.493,352.068,628.01,350.592,629.205,349.281C629.842,348.579,630.385,347.801,630.999,347.088C632.879,344.923,634.743,342.483,637.623,341.874C639.965,341.375,640.907,340.162,641.187,338.117C641.564,335.407,643.166,333.559,645.458,332.463C649.115,330.735,653.684,330.828,654.917,335.989C654.938,336.12,655.126,336.203,655.411,336.466C657.982,334.964,660.937,333.955,662.901,331.4C663.658,330.413,664.777,329.546,665.133,328.433C666.148,325.28,666.8,322.012,667.71,318.826C668.269,316.851,669.064,314.938,669.711,312.992C670.276,311.292,670.786,309.569,671.317,307.859C671.504,307.266,671.532,306.531,671.904,306.104C673.034,304.788,674.163,303.405,675.547,302.38C677.888,300.63,680.278,298.823,682.91,297.617C685.505,296.428,687.248,293.501,690.565,293.842C693.115,292.366,695.293,293.856,697.639,294.735C698.013,293.717,698.264,292.641,698.79,291.714C699.345,290.733,700.156,289.891,700.841,289.008C696.29,284.843,696.904,281.596,698.401,276.903C698.637,276.16,699.093,275.475,699.47,274.772C700.303,273.24,699.991,272.043,698.768,270.752C695.912,267.748,694.777,264.166,695.742,260.026C695.842,259.589,695.753,259.108,695.753,258.6C694.333,257.971,692.967,257.36,691.591,256.777C690.209,256.187,688.844,255.541,687.418,255.086C685.756,254.553,684.353,253.586,683.366,252.272C680.557,248.549,680.058,245.747,683.294,241.824C684.885,239.891,687.018,238.399,688.914,236.718C689.267,236.403,689.684,236.161,690.078,235.882C689.359,234.854,688.898,234.001,688.252,233.321C687.779,232.822,687.046,232.58,686.464,232.169C683.261,229.896,682.027,227.025,683.617,223.54C683.76,223.225,683.7,222.819,683.733,222.482C682.636,222.287,681.71,222.096,680.776,221.95C678.676,221.629,676.555,220.974,674.482,221.103C670.232,221.355,666.388,219.839,662.379,218.992C660.691,218.633,658.901,218.071,657.262,218.312C654.044,218.79,650.983,218.874,647.934,217.594C647.08,217.229,646.081,217.182,645.15,217.031C642.962,216.672,640.532,216.818,638.64,215.874C636.26,214.684,633.901,214.572,631.484,214.728C629.883,214.83,628.655,214.284,627.589,213.371C626.027,212.028,624.497,210.602,623.219,208.995C621.092,206.311,618.136,205.694,614.802,207.311C613.623,207.885,612.466,208.249,611.145,208.051C609.894,207.867,608.639,207.676,607.383,207.654C602.119,207.563,597.325,206.058,592.939,203.127C590.899,201.761,588.713,200.742,586.188,200.363C583.279,199.933,580.589,198.847,578.253,196.879C575.838,194.844,573.244,193.026,570.69,191.162C570.207,190.808,569.543,190.472,568.97,190.482C566.434,190.543,564.124,189.646,561.858,188.757C558.671,187.518,556.012,185.366,554.342,182.435C552.604,179.364,552.236,176.027,554.202,172.699C555.68,170.187,556.944,167.544,558.219,164.914C558.762,163.793,559.014,162.518,559.549,161.383C560.15,160.108,560.789,158.822,561.632,157.706C562.608,156.409,563.825,155.29,564.95,154.084C562.918,152.618,561.018,151.235,559.1,149.895C558.784,149.67,558.381,149.563,558.005,149.445C552.85,147.844,549.02,144.666,546.527,139.882C546.425,139.682,546.217,139.539,545.954,139.265C543.454,139.951,541.942,138.283,540.657,136.57C538.084,133.151,535.581,129.669,533.273,126.074C531.796,123.768,530.421,121.308,529.522,118.737C527.904,114.114,528.921,110.632,533.631,108.773C534.339,108.499,535.324,108.134,535.891,108.409C538.287,109.555,541.383,108.971,543.045,111.477C545.397,110.213,545.621,109.887,545.128,108.445C544.314,106.073,543.469,103.721,542.639,101.363C539.985,101.958,537.547,100.408,537.181,97.886C536.775,95.068,536.439,92.243,536.08,89.419C535.8,87.185,536.411,85.191,538.356,84.018C540.444,82.748,542.639,81.43,544.964,80.851C547.192,80.294,548.456,78.836,549.335,77.234C550.412,75.252,551.687,73.538,553.209,71.921C553.709,71.394,554.117,70.591,554.185,69.878C554.437,67.037,554.576,64.189,554.695,61.337C554.791,59.056,554.807,56.772,554.859,54.329C553.074,54.025,551.321,52.55,549.164,53.572C548.907,53.701,548.52,53.665,548.222,53.589C544.958,52.763,542.225,54.11,539.502,55.604C538.877,55.946,538.207,56.215,537.537,56.446C534.016,57.636,530.41,58.614,526.986,60.04C524.077,61.252,521.174,61.477,518.135,61.235C514.968,60.983,512.009,60.131,509.981,57.528C508.678,55.861,507.752,53.896,506.534,52.149C505.146,50.169,504.214,47.814,501.862,46.596C499.924,45.59,498.428,44.068,497.307,42.171C496.864,41.431,496.37,40.413,495.679,40.178C493.412,39.41,491.72,37.746,489.705,36.707C488.329,35.999,487.052,35.393,486.131,34.186C485.493,33.35,484.744,32.991,483.688,33.029C482.017,33.092,480.342,33.114,478.677,33.029C476.642,32.922,474.772,33.328,472.864,34.035C471.577,34.512,470.083,34.438,468.674,34.567C467.789,34.647,466.889,34.652,466.006,34.685C466.028,38.077,464.822,40.616,461.447,41.06C460.403,41.2,459.27,40.671,458.214,40.794C455.596,41.098,453.609,40.098,451.908,38.252C451.84,38.184,451.626,38.241,451.288,38.241C450.627,41.075,448.258,42.636,446.04,44.522C447.076,45.331,448.05,45.995,448.919,46.768C450.762,48.416,452.675,48.673,454.792,47.336C456.264,46.409,457.898,46.184,459.612,46.258C461.391,46.332,462.726,47.122,463.272,48.797C463.754,50.286,464.064,51.863,464.199,53.417C464.366,55.496,465.098,56.943,467.146,57.798C469.409,58.741,470.028,60.263,469.183,63.104C468.961,63.85,468.512,64.552,468.4,65.317C468.142,67.074,467.151,68.146,465.608,68.895C464.151,69.597,462.726,70.203,461.053,70.027C460.458,69.962,459.83,70.14,459.238,70.208C458.958,71.579,458.717,72.802,458.448,74.115C458.914,74.526,459.323,75.053,459.868,75.335C461.198,76.037,461.351,77.131,461.406,78.507C461.53,81.353,460.885,83.969,459.852,86.593C459.171,88.312,458.898,90.193,458.503,91.764C460.313,92.932,462.114,93.661,463.271,94.958C464.4,96.238,464.867,98.097,465.697,99.849C466.836,99.901,467.774,98.97,468.847,98.333C471.244,96.907,473.581,97.233,475.562,99.199C477.096,100.732,477.954,102.645,478.152,104.707C478.338,106.674,479.308,107.709,480.998,108.318C481.66,108.56,482.336,108.795,483.02,108.957C484.737,109.368,486.272,110.103,487.705,111.153C490.235,113.012,490.455,116.603,487.854,118.35C485.839,119.704,483.717,120.974,481.264,121.542C479.573,121.928,477.937,122.562,476.27,123.039C474.664,123.499,474.115,124.713,473.822,126.188C473.419,128.283,472.885,130.351,472.526,132.446C472.3,133.737,472.016,134.996,472.846,136.336C474.401,138.842,473.968,140.408,471.621,142.316C469.102,144.367,466.647,146.505,464.058,148.461C462.109,149.937,460.126,151.504,457.909,152.464C455.197,153.649,453.654,155.642,452.653,158.186C451.951,159.976,451.296,161.701,449.683,162.929C448.672,163.7,448.027,164.712,447.6,166.014C447.096,167.563,446.138,168.984,445.258,170.382C444.247,171.988,442.949,173.431,442.059,175.092C439.58,179.715,436.214,183.465,432.002,186.605C429.287,188.625,426.633,190.399,423.118,190.512C421.999,190.547,421.416,191.359,420.987,192.45C419.701,195.707,417.497,198.059,413.976,199.019C410.442,199.979,405.806,199.192,403.884,195.666C402.951,193.95,402.222,192.129,401.252,190.018C400.813,190.045,399.796,189.826,399.163,190.216C397.765,191.08,396.153,192.017,395.374,193.361C394.614,194.658,393.676,195.59,392.552,196.391C391.746,196.97,391.384,197.589,391.42,198.565C391.475,200.076,390.835,201.339,389.717,202.332C389.004,202.963,388.977,203.624,389.251,204.465C389.616,205.59,390.033,206.736,390.112,207.892C390.205,209.216,390.924,209.469,391.998,209.891C393.655,210.536,395.159,211.591,396.686,212.535C396.977,212.716,397.219,213.171,397.266,213.525C397.658,216.719,398.315,219.965,395.974,222.683C396.725,224.622,397.529,225.463,399.174,226.014C399.618,226.16,400.106,226.181,400.573,226.266C404.088,226.877,405.453,228.495,405.459,232.054L405.459,236.737C406.462,237.411,407.677,238.157,408.815,239.007C410.433,240.208,411.37,241.725,411.225,243.885C411.085,245.947,411.14,248.031,411.214,250.099C411.326,253.062,410.603,255.581,407.856,257.173C407.721,257.252,407.614,257.376,407.491,257.478C404.398,260.02,403.773,259.671,401.596,257.548C400.53,256.509,399.427,255.511,398.388,254.527C394.744,256.97,392.274,257.932,387.199,257.677C385.436,257.589,383.873,257.139,382.741,255.773C381.875,254.745,380.847,254.358,379.585,254.487C376.934,254.75,374.283,255.038,371.721,255.312C371.351,256.683,371.302,257.997,370.677,258.917C369.364,260.873,369.745,262.556,370.718,264.459C371.807,266.582,371.571,267.042,369.514,268.497C369.352,268.61,369.319,268.901,369.056,269.485C369.979,270.31,370.952,271.255,372.019,272.079C372.479,272.44,373.135,272.731,373.707,272.743C376.658,272.81,379.252,273.927,381.149,276.011C383.019,278.063,385.146,277.763,387.263,277.341C390.285,276.746,393.221,275.747,396.215,274.987C397.802,274.585,398.286,274.938,398.263,276.573C398.231,279.323,397.49,281.739,395.39,283.811C392.963,286.202,389.791,287.691,387.691,290.471C387.186,291.137,386.073,291.442,385.174,291.689C384.041,291.993,382.778,291.891,381.68,292.283C380.12,292.84,378.571,292.694,376.997,292.712C375.544,292.723,374.086,292.723,372.624,292.728C372.603,292.896,372.575,293.066,372.55,293.233C372.928,293.431,373.304,293.779,373.691,293.795C375.304,293.87,376,294.969,376.579,296.217C376.815,296.715,376.971,297.256,377.18,297.772C378.202,300.354,380.363,301.758,383.121,301.616C386.074,301.468,387.943,303.074,388.218,306.057C388.308,307,388.237,307.966,388.237,309.21C389.841,310.126,391.577,311.025,393.221,312.066C394.609,312.945,395.889,313.98,397.309,315.029C397.684,314.743,398.156,314.452,398.551,314.085C399.399,313.263,400.374,312.879,401.558,312.906C403.069,312.938,404.58,312.906,406.09,312.884C408.04,312.852,410.099,313.158,411.426,311.158C411.544,310.992,411.818,310.898,412.049,310.834C415.558,309.847,417.68,306.824,420.741,305.152C420.354,303.759,419.764,302.542,419.732,301.319C419.608,296.485,420.623,291.859,422.964,287.601C424.132,285.473,427.293,284.294,429.136,285.452C430.568,286.349,431.889,287.64,432.826,289.045C433.41,289.922,433.245,291.331,433.308,292.505C433.352,293.368,433.067,294.267,433.195,295.114C433.437,296.66,433.661,298.269,434.279,299.679C434.931,301.17,435.156,302.601,434.679,304.072C434.105,305.853,433.398,307.603,432.622,309.302C431.942,310.788,431.948,311.326,433.357,312.276C435.244,313.547,436.052,315.308,436.036,317.524C436.025,319.832,436.132,322.146,436.009,324.455C435.863,327.093,435.362,329.632,433.009,331.397C431.947,332.192,431.667,333.596,432.342,334.769C433.722,337.165,433.919,339.65,433.302,342.298C433.003,343.604,432.913,344.925,434.075,346.066C434.576,346.57,434.991,347.59,434.846,348.238C434.256,350.821,434.621,353.353,434.851,355.91C434.914,356.61,434.856,357.323,434.947,358.02C435.29,360.822,435.693,363.614,436.009,366.42C436.088,367.117,435.97,367.858,435.844,368.554C435.356,371.285,435.852,373.907,436.902,376.408C437.547,377.937,438.485,379.341,439.272,380.817C439.485,381.216,439.754,381.655,439.765,382.077C439.834,384.616,441.057,386.613,442.594,388.493C442.99,388.971,443.37,389.513,443.573,390.09C444.823,393.583,445.112,397.252,445.448,400.914C445.632,402.971,445.783,405.027,446.109,407.067C446.296,408.217,446.74,409.271,447.722,410.142C448.827,411.13,449.66,412.397,450.132,413.888C451.018,416.706,452.27,419.327,454.51,421.401C456.02,422.794,456.556,424.757,457.038,426.704C457.425,428.244,457.913,429.753,458.357,431.272C459.037,433.624,459.879,435.939,460.351,438.33C461.138,442.3,461.749,446.336,461.328,450.393C460.845,455.154,462.183,459.634,463.249,464.129C463.995,467.267,465.334,470.272,466.37,473.353C468.259,478.946,470.959,483.958,475.76,487.693C477.085,488.724,478.297,490.287,478.832,491.85C479.72,494.466,480.499,497.042,481.892,499.488C483.205,501.803,484.397,504.238,484.886,506.969C485.245,508.981,485.925,510.945,486.58,512.885C487.217,514.739,487.984,516.471,489.275,518.089C491.809,521.254,492.903,524.917,491.296,528.985C491.016,529.686,490.872,530.548,490.968,531.288C491.236,533.24,491.606,535.198,492.067,537.123C492.223,537.781,492.645,538.467,493.133,538.933C494.751,540.457,496.401,541.954,498.126,543.353C499.648,544.581,500.753,545.996,501.496,547.855C503.046,551.716,504.294,555.747,507.632,558.686C508.976,559.859,510.306,560.703,512.187,561.356C511.872,553.827,514.951,548.388,521.12,544.769M794.617,243.252C793.833,241.14,792.956,239.013,792.26,236.823C791.815,235.408,791.229,233.837,791.448,232.455C792.205,227.612,792.912,222.734,795.066,218.218C795.592,217.124,796.021,215.764,795.873,214.602C795.21,209.387,797.754,205.365,800.759,201.693C802.196,199.93,804.542,198.874,806.556,197.627C807.637,196.959,808.772,196.454,809.38,195.211C809.649,194.658,810.187,194.235,810.598,193.753C813.125,190.811,816.454,188.889,819.618,186.789C822.239,185.057,824.718,185.336,827.235,187.409C828.157,188.166,828.963,188.38,830.021,187.941C830.174,185.852,829.439,183.735,830.662,182.058C829.829,180.187,829.061,178.474,828.261,176.673C827.41,176.309,826.112,176.138,825.443,175.398C823.787,173.561,822.247,174.257,820.535,175.088C819.773,175.461,818.797,176.045,818.123,175.841C816.434,175.328,814.877,175.902,813.264,175.965C812.634,175.992,811.987,176.014,811.368,175.927C809.092,175.611,807.687,173.656,808.302,171.46C808.593,170.421,809.23,169.461,809.837,168.551C810.539,167.514,811.384,166.563,812.289,165.419C811.34,165.077,810.616,164.836,809.903,164.559C807.128,163.476,806.251,161.702,807.007,158.759C807.101,158.389,807.127,157.994,807.171,157.709C806.438,156.821,805.719,156.966,804.94,157.35C803.569,158.011,802.302,158.754,801.474,160.127C800.219,162.222,798.245,163.497,795.902,163.839C793.233,164.229,790.48,164.352,787.946,163.083C787.119,162.666,786.494,162.688,785.753,163.179C784.174,164.216,782.583,165.244,780.949,166.198C779.776,166.884,779.112,167.698,778.931,169.165C778.59,171.967,777.412,174.42,774.5,175.397C773.267,175.808,771.852,176.003,770.557,175.89C768.101,175.677,766.659,176.935,765.545,178.822C764.481,180.626,761.081,183.927,759.49,185.01C758.361,185.781,757.325,186.814,756.552,187.941C755.581,189.361,754.331,190.16,752.718,190.406C750.301,190.776,747.865,191.047,745.442,191.385C745.254,191.412,745.096,191.626,744.74,191.89C745.629,192.372,746.342,192.833,747.109,193.164C749.698,194.264,750.147,196.723,750.614,198.998C750.981,200.816,750.678,202.76,750.843,204.63C751.008,206.634,750.332,208.172,748.852,209.485C747.294,210.861,745.42,211.564,743.456,211.714C738.948,212.076,734.413,212.125,729.9,212.435C727.63,212.586,725.382,213.062,723.117,213.315C720.869,213.567,718.922,214.653,716.849,215.405C715.611,215.86,714.261,216.074,712.945,216.219C711.563,216.375,710.164,216.314,708.58,216.358C708.838,217.184,708.998,217.691,709.149,218.179C709.414,218.157,709.584,218.179,709.72,218.127C712.928,216.954,714.644,217.853,715.593,221.187C715.702,221.56,715.993,221.878,716.136,222.243C716.47,223.109,716.876,223.962,717.057,224.861C717.759,228.355,718.226,231.864,717.474,235.316C717.715,235.475,717.776,235.54,717.853,235.552C718.078,235.599,718.33,235.67,718.561,235.647C721.361,235.357,723.835,236.076,726.176,237.699C727.005,238.277,728.288,238.36,729.363,238.376C731.101,238.395,732.844,238.053,734.578,238.074C737.282,238.108,739.733,237.372,742.058,236.081C744.442,234.759,746.877,233.698,749.741,234.093C750.332,234.176,751.117,233.788,751.622,233.375C752.811,232.395,754.128,231.913,755.587,232.33C757.38,232.84,759.49,232.712,760.779,234.367C761.745,235.605,762.736,236.726,764.004,237.704C766.192,239.409,765.759,242.173,763.252,243.47C762.078,244.081,760.834,244.575,759.534,245.165C759.584,245.447,759.584,245.774,759.711,246.042C759.974,246.615,760.28,247.171,760.604,247.72C762.172,250.361,761.597,253.056,759.063,254.69C758.538,255.028,757.923,255.233,757.37,255.543C756.904,255.8,756.355,256.02,756.036,256.415C754.87,257.874,753.361,258.2,751.6,258.054C750.772,257.986,749.872,257.981,749.105,258.239C747.526,258.773,746.024,259.464,744.274,259.111C743.879,259.031,743.391,259.335,742.969,259.514C742.026,259.906,741.061,260.253,740.189,260.766C739.772,261.013,739.323,261.546,739.273,262.001C739.015,264.101,738.971,266.223,738.692,268.312C738.582,269.143,738.636,269.8,739.36,270.138C740.918,270.867,742.409,271.757,744.334,271.289C745.239,271.069,746.431,271.237,747.263,271.676C749.226,272.71,751.041,272.545,752.544,271.114C753.86,269.854,755.323,269.389,757.019,269.188C758.801,268.975,760.638,269.538,762.361,268.7C762.536,268.616,762.832,268.728,763.056,268.783C765.613,269.436,767.465,272.12,767.207,274.741C767.137,275.501,767.191,276.273,767.181,277.045C767.153,279.504,767.17,281.968,767.066,284.429C766.994,286.126,766.742,287.814,766.583,289.416C769.715,290.437,770.481,290.274,773.821,288.034C773.673,287.764,773.576,287.433,773.36,287.22C771.645,285.542,771.063,283.464,771.216,281.15C771.369,278.851,771.868,276.552,771.743,274.281C771.611,272.041,772.554,270.342,773.568,268.57C773.842,268.093,774.056,267.578,774.347,267.106C774.961,266.099,775.158,265.05,774.774,263.911C774.095,261.894,773.289,259.906,772.795,257.836C772.417,256.252,772.143,254.522,772.357,252.938C772.756,250.099,776.086,248.962,778.437,250.581C780.263,251.843,782.161,253.005,784.09,254.113C784.683,254.455,785.474,254.46,786.274,254.644C786.537,252.585,786.861,250.872,786.953,249.147C787.119,246.059,788.501,244.651,791.692,244.582C792.736,244.566,793.784,244.623,794.617,243.252M694.287,212.283C692.034,209.009,691.935,205.746,692.872,202.327C693.093,201.518,692.922,200.592,692.861,199.728C692.718,197.853,692.528,195.977,692.373,194.096C692.33,193.573,692.368,193.051,692.368,192.051C689.9,192.989,688.064,194.412,686.264,195.473C686.373,198.347,686.566,201.008,686.549,203.671C686.544,204.828,686.588,205.713,687.487,206.641C688.119,207.293,688.222,208.477,688.474,209.448C688.714,210.386,688.852,211.351,689.034,212.283L694.287,212.283ZM698.318,214.046C698.783,216.423,699.058,216.53,701.707,215.524C700.495,214.995,699.514,214.57,698.318,214.046" fill="rgb(238,62,60)" stroke="none" stroke-width="1"/></g></g></svg>