<svg id="ePCOgnVt5Hf1" xmlns="http://www.w3.org/2000/svg" xmlns:xlink="http://www.w3.org/1999/xlink" viewBox="20 -65 1160 710" shape-rendering="geometricPrecision" text-rendering="geometricPrecision"><defs><rect id="ePCOgnVt5Hf2" width="50.212" height="50.212" rx="0" ry="0"/><rect id="ePCOgnVt5Hf3" width="50.212" height="50.211" rx="0" ry="0"/><rect id="ePCOgnVt5Hf4" width="62.793" height="62.793" rx="0" ry="0"/><rect id="ePCOgnVt5Hf5" width="58.351" height="58.35" rx="0" ry="0"/><rect id="ePCOgnVt5Hf6" width="54.526" height="54.529" rx="0" ry="0"/><rect id="ePCOgnVt5Hf7" width="61.734" height="61.734" rx="0" ry="0"/><rect id="ePCOgnVt5Hf8" width="63.248" height="63.249" rx="0" ry="0"/><rect id="ePCOgnVt5Hf9" width="63.527" height="63.061" rx="0" ry="0"/><rect id="ePCOgnVt5Hf10" width="63.542" height="63.543" rx="0" ry="0"/><rect id="ePCOgnVt5Hf11" width="62.916" height="62.914" rx="0" ry="0"/><rect id="ePCOgnVt5Hf12" width="50.873" height="50.872" rx="0" ry="0"/><rect id="ePCOgnVt5Hf13" width="62.716" height="62.716" rx="0" ry="0"/><rect id="ePCOgnVt5Hf14" width="62.523" height="62.523" rx="0" ry="0"/><rect id="ePCOgnVt5Hf15" width="63.049" height="63.049" rx="0" ry="0"/></defs><g id="ePCOgnVt5Hf16"><rect id="ePCOgnVt5Hf17" width="1200" height="720" rx="0" ry="0" transform="matrix(1 0 0 1 0 -70)" fill="rgb(246,135,31)" stroke="none" stroke-width="1"/><g id="ePCOgnVt5Hf18" transform="matrix(1 0 0 1 0 167.647269)"><g id="ePCOgnVt5Hf19"><g id="ePCOgnVt5Hf20"><path id="ePCOgnVt5Hf21" d="M386.954,164.396C388.941,164.462,389.37,165.026,388.973,167.01C387.748,172.997,386.524,178.989,385.368,185.007C384.509,189.538,383.815,194.14,382.951,198.669C382.027,203.798,381,208.893,380.076,214.017C378.519,222.39,377.065,230.793,375.508,239.16C374.022,247.465,372.401,255.736,370.911,264.035C369.325,272.838,367.868,281.67,366.278,290.499C364.889,298.046,363.435,305.55,362.046,313.063C360.854,319.476,359.762,325.863,358.606,332.279C357.944,335.884,357.249,339.457,356.655,343.062C356.423,344.418,355.828,345.016,354.439,345.246C348.847,346.177,343.223,347.197,337.666,348.257C331.677,349.381,325.723,350.576,319.769,351.73C313.783,352.893,307.794,354.079,301.772,355.206C294.53,356.56,287.251,357.82,280.008,359.174C274.549,360.169,269.125,361.258,263.665,362.288C256.487,363.644,249.277,364.998,242.062,366.32C235.217,367.611,228.369,368.965,221.488,370.16C220.396,370.354,219.139,369.863,217.981,369.527C209.745,367.082,201.475,364.565,193.205,362.084C182.454,358.812,171.735,355.539,160.951,352.293C152.879,349.883,144.807,347.463,136.736,345.053C127.21,342.176,117.715,339.264,108.221,336.386C102.763,334.733,97.304,333.108,91.879,331.486C85.131,329.506,78.382,327.519,71.635,325.503C69.385,324.809,67.17,324.079,64.919,323.349C64.887,323.216,64.887,323.052,64.887,322.919C67.17,322.425,69.452,321.862,71.734,321.398C76.895,320.41,82.056,319.447,87.216,318.423C93.666,317.101,100.117,315.679,106.601,314.353C111.794,313.292,117.021,312.372,122.214,311.312C125.622,310.647,128.997,309.855,132.403,309.158C137.927,308.033,143.453,306.941,148.977,305.818C156.055,304.4,163.168,302.974,170.247,301.521C172.497,301.091,174.779,300.626,177.062,300.193C177.923,300.028,178.32,299.599,178.451,298.639C179.212,293.015,180.038,287.394,180.833,281.773C181.528,276.775,182.289,271.749,182.951,266.754C183.645,261.625,184.208,256.495,184.902,251.4C185.663,246.079,186.523,240.749,187.284,235.425C187.78,232.021,188.077,228.612,188.541,225.237C189.434,218.488,190.426,211.776,191.353,205.024C192.212,198.938,193.007,192.818,193.866,186.701C194.727,180.379,195.653,174.097,196.514,167.809C196.975,164.567,197.373,161.326,197.803,158.084C198.035,156.198,198.298,155.903,200.151,155.97C205.974,156.263,211.796,156.595,217.619,156.863C222.681,157.091,227.74,157.191,232.802,157.422C238.724,157.69,244.645,158.085,250.566,158.35C255.428,158.584,260.287,158.679,265.155,158.912C269.354,159.111,273.518,159.441,277.725,159.606C282.819,159.837,287.946,159.903,293.04,160.136C298.897,160.399,304.75,160.866,310.64,161.16C315.734,161.393,320.861,161.425,325.955,161.658C329.661,161.826,333.366,162.119,337.071,162.318C339.288,162.454,341.503,162.551,343.72,162.652C348.911,162.848,354.138,162.945,359.332,163.178C364.756,163.412,370.216,163.806,375.64,164.038C379.413,164.2,383.184,164.265,386.954,164.396M369.919,180.475C370.084,179.582,369.983,179.152,368.927,179.086C365.518,178.853,362.111,178.523,358.699,178.294C351.195,177.761,343.687,177.298,336.176,176.801C328.701,176.34,321.257,175.843,313.782,175.38C305.742,174.884,297.704,174.421,289.667,173.925C277.162,173.097,264.656,172.271,252.119,171.444C244.347,170.947,236.538,170.45,228.734,169.922C222.05,169.459,215.368,168.995,208.686,168.532C207.132,168.4,206.734,168.73,206.568,170.318C206.469,171.179,206.338,172.038,206.205,172.899C205.378,179.121,204.585,185.304,203.692,191.526C202.865,197.643,201.938,203.729,201.078,209.852C200.384,214.843,199.821,219.873,199.159,224.9C198.431,230.098,197.638,235.29,196.877,240.481C196.183,245.443,195.555,250.438,194.826,255.4C193.768,262.878,192.61,270.357,191.518,277.829C190.725,283.191,189.997,288.515,189.236,293.874C189.071,294.869,189.435,295.299,190.361,295.492C192.213,295.861,194.034,296.258,195.853,296.687C200.881,297.84,205.909,299.066,210.938,300.224C216.66,301.517,222.417,302.669,228.17,303.997C237.632,306.145,247.127,308.427,256.621,310.581C264.032,312.267,271.475,313.853,278.918,315.508C283.615,316.564,288.312,317.689,293.009,318.78C300.685,320.538,308.425,322.292,316.133,324.04C322.119,325.432,328.141,326.753,334.159,328.112C336.941,328.739,339.68,329.398,342.694,330.092C343.159,327.382,343.59,324.937,344.051,322.485C344.946,317.555,345.87,312.63,346.765,307.703C347.692,302.537,348.519,297.382,349.478,292.219C350.502,286.731,351.626,281.239,352.653,275.747C353.513,271.05,354.272,266.353,355.134,261.656C356.62,253.551,358.177,245.442,359.663,237.337C360.69,231.716,361.55,226.024,362.578,220.403C363.734,214.148,364.991,207.933,366.115,201.677C367.406,194.6,368.624,187.523,369.919,180.475M201.64,346.803C201.606,346.705,201.606,346.602,201.606,346.502C201.375,346.44,201.144,346.337,200.879,346.24C194.66,344.521,188.44,342.8,182.221,341.081C175.672,339.262,169.122,337.404,162.572,335.654C161.48,335.392,160.256,335.357,159.165,335.556C155.492,336.119,151.854,336.81,148.215,337.504C147.057,337.704,145.965,337.969,144.807,338.231L144.807,338.628C146.362,339.094,147.916,339.526,149.472,340.018C159.131,343.162,168.79,346.336,178.45,349.483C179.674,349.88,181.031,350.375,182.221,350.207C187.481,349.483,192.707,348.553,197.902,347.665C199.159,347.43,200.383,347.103,201.64,346.803" fill="rgb(250,169,70)" stroke="none" stroke-width="1"/><path id="ePCOgnVt5Hf22" d="M333.331,82.392C337.599,83.815,342.131,89.505,339.585,95.327C339.023,96.584,337.863,97.643,337.003,98.767C336.309,99.693,335.482,100.554,334.952,101.546C334.591,102.24,334.491,103.2,334.591,103.96C334.755,104.888,334.555,105.285,333.695,105.582C331.346,106.343,329.031,107.136,326.715,107.997C325.691,108.394,325.161,107.997,324.831,107.104C323.342,103.499,324.101,99.892,326.882,97.179C327.577,96.517,328.203,95.757,328.701,94.964C329.295,93.938,329.263,92.648,328.336,92.053C327.577,91.589,326.252,91.524,325.393,91.854C324.666,92.117,324.036,93.143,323.771,93.937C323.474,94.862,324.004,96.187,323.506,96.816C322.977,97.476,321.688,97.543,320.728,97.906C319.006,98.536,317.288,99.165,315.569,99.793C313.782,100.453,313.417,100.257,313.052,98.337C312.887,97.543,312.887,96.715,312.787,95.889C312.722,90.529,316.295,85.403,321.655,83.285C325.426,81.797,329.329,81.037,333.331,82.392" fill="rgb(250,169,70)" stroke="none" stroke-width="1"/><path id="ePCOgnVt5Hf23" d="M339.517,116.596C339.617,116.895,339.12,117.656,338.758,117.788C336.077,118.812,333.331,119.705,330.62,120.664C329.525,121.061,328.966,120.632,328.634,119.638C327.842,117.224,326.98,114.809,326.217,112.394C326.088,111.964,326.285,111.039,326.582,110.939C329.561,109.749,332.603,108.69,335.78,107.532C336.112,107.929,336.507,108.192,336.675,108.557C337.666,111.239,338.622,113.885,339.517,116.596" fill="rgb(250,169,70)" stroke="none" stroke-width="1"/><path id="ePCOgnVt5Hf24" d="M314.41,206.972C321.226,212.727,325.494,220.135,324.732,229.5C324.302,234.992,322.283,239.953,318.348,244.021C313.948,248.553,308.489,249.942,301.973,249.48C300.022,249.38,297.673,249.079,295.325,249.115C292.049,249.115,289.303,250.275,287.417,253.118C286.364,254.707,286.06,254.771,284.374,253.777C280.801,251.696,277.267,249.548,273.723,247.397C271.837,246.273,270.018,245.113,268.17,243.986C267.472,243.591,267.208,243.098,267.637,242.332C270.018,237.903,272.864,233.836,277.396,231.387C280.206,229.865,283.25,229.336,286.493,229.665C289.271,229.962,292.081,230.13,294.827,229.926C298.103,229.7,300.252,226.751,299.857,223.514C299.789,223.049,299.657,222.555,299.424,222.157C296.514,217.163,290.163,216.798,286.79,221.463C285.1,223.812,285.003,223.944,282.619,222.519C276.532,218.949,270.547,215.244,264.525,211.6C263.862,211.173,263.83,210.712,264.328,210.049C267.435,205.946,271.009,202.275,275.574,199.828C280.074,197.413,284.903,196.188,290.262,196.388C299.821,196.751,307.529,201.151,314.41,206.972" fill="rgb(250,169,70)" stroke="none" stroke-width="1"/><path id="ePCOgnVt5Hf25" d="M283.778,261.126C283.481,261.75,283.348,262.218,283.084,262.612C279.876,267.874,276.633,273.133,273.393,278.361C273.293,278.526,273.225,278.72,273.128,278.888C271.836,281.404,271.803,281.436,269.422,279.98C264.296,276.839,259.133,273.696,254.006,270.583C253.179,270.091,252.352,269.594,251.525,269.097C250.698,268.603,250.598,268.04,251.128,267.181C252.22,265.395,253.212,263.508,254.304,261.722C256.753,257.687,259.298,253.684,261.682,249.614C262.41,248.325,263.136,248.357,264.228,248.987C267.568,251,270.912,253.022,274.252,255.038C276.998,256.692,279.776,258.346,282.522,260.036C282.983,260.299,283.348,260.729,283.778,261.126" fill="rgb(250,169,70)" stroke="none" stroke-width="1"/><path id="ePCOgnVt5Hf26" d="M269.322,122.915C270.743,125.197,270.182,128.142,267.965,129.73C267.171,130.26,266.279,130.657,265.485,131.185C264.99,131.517,264.36,131.847,264.196,132.311C263.766,133.732,262.771,133.799,261.582,133.666C260.988,133.634,260.357,133.533,259.728,133.501C257.809,133.402,257.809,133.17,258.074,131.185C258.407,128.969,260.061,127.877,261.944,127.05C262.739,126.72,263.336,126.09,262.839,125.263C262.574,124.834,261.747,124.569,261.153,124.569C260.82,124.569,260.29,125.197,260.193,125.629C259.928,126.687,259.298,127.018,258.306,126.952C257.082,126.852,255.893,126.753,254.701,126.687C253.576,126.621,253.18,126.157,253.509,125C254.602,120.998,257.347,118.846,261.514,118.846C264.822,118.846,267.536,119.972,269.322,122.915" fill="rgb(250,169,70)" stroke="none" stroke-width="1"/><path id="ePCOgnVt5Hf27" d="M264.095,138.066C263.862,141.573,264.327,141.837,260.719,141.308L260.16,141.308C257.016,141.175,257.016,141.175,257.213,137.968C257.446,134.626,257.546,134.593,260.854,134.991C260.986,135.023,261.151,135.023,261.283,135.056C264.095,135.288,264.095,135.288,264.095,138.066" fill="rgb(250,169,70)" stroke="none" stroke-width="1"/><path id="ePCOgnVt5Hf28" d="M241.368,52.983C242.096,57.614,240.011,61.187,236.936,64.362C235.812,65.52,234.72,66.678,233.728,67.903C232.568,69.358,232.436,71.111,232.833,72.865C233.098,74.122,232.769,74.817,231.476,75.246C227.939,76.372,224.43,77.628,220.958,78.885C219.635,79.348,218.808,79.182,218.344,77.661C217.286,74.154,216.459,70.583,217.981,67.077C218.642,65.555,219.998,64.297,221.058,62.942C222.082,61.619,223.207,60.394,224.199,59.038C225.061,57.847,224.929,56.623,224.102,55.433C223.24,54.11,222.082,53.546,220.529,53.811C217.287,54.407,215.93,56.326,216.492,59.6C216.856,61.882,216.889,61.882,214.706,62.643C210.637,64.066,206.568,65.456,202.566,66.911C201.508,67.276,200.979,67.078,200.814,66.018C200.515,64.265,200.284,62.479,200.085,61.254C200.151,53.877,202.797,48.419,208.488,44.483C213.052,41.34,218.114,39.587,223.605,39.29C227.941,39.092,232.108,40.15,235.516,42.994C238.623,45.574,240.742,48.915,241.368,52.983" fill="rgb(250,169,70)" stroke="none" stroke-width="1"/><path id="ePCOgnVt5Hf29" d="M239.915,91.489C240.344,92.68,240.212,93.375,238.919,93.805C234.587,95.26,230.287,96.782,225.956,98.304C225.161,98.568,224.664,98.369,224.398,97.543C222.945,93.376,221.488,89.175,220.034,85.005C219.769,84.212,219.902,83.518,220.758,83.218C225.193,81.697,229.593,80.176,234.026,78.654C234.194,78.588,234.391,78.588,234.985,78.522C235.182,78.787,235.679,79.15,235.848,79.614C237.233,83.55,238.526,87.553,239.915,91.489" fill="rgb(250,169,70)" stroke="none" stroke-width="1"/><path id="ePCOgnVt5Hf30" d="M231.179,262.945C232.404,265.723,231.609,268.434,229.096,270.088C227.775,270.951,226.15,271.413,225.458,273.199C225.291,273.66,223.736,273.564,222.81,273.761C222.777,273.696,222.777,273.625,222.777,273.596L222.48,273.596C221.553,273.331,219.867,273.034,219.867,272.834C219.967,271.513,220.164,270.088,220.794,268.931C221.224,268.172,222.38,267.775,223.208,267.245C223.505,267.045,223.935,266.98,224.067,266.716C224.332,266.254,224.565,265.691,224.497,265.194C224.465,264.897,223.806,264.467,223.474,264.499C222.979,264.563,222.217,264.929,222.152,265.294C221.852,266.648,220.992,266.78,219.901,266.716C218.644,266.648,217.387,266.648,216.131,266.583C215.238,266.519,214.906,266.021,215.137,265.094C216.295,260.264,219.868,258.148,224.963,258.875C227.607,259.24,229.99,260.264,231.179,262.945" fill="rgb(250,169,70)" stroke="none" stroke-width="1"/><path id="ePCOgnVt5Hf31" d="M222.447,274.756C226.085,274.756,226.085,274.756,225.887,278.423L225.887,278.591C225.69,281.437,225.591,281.537,222.679,281.273C222.116,281.201,221.519,281.169,220.957,281.169C218.973,281.071,218.907,281.007,218.973,279.088C219.005,277.964,219.005,276.872,219.204,275.78C219.27,275.412,219.768,274.889,220.13,274.821C220.858,274.656,221.653,274.756,222.447,274.756" fill="rgb(250,169,70)" stroke="none" stroke-width="1"/><path id="ePCOgnVt5Hf32" d="M181.792,112C184.438,116.699,185,121.759,182.884,126.854C181.561,130.096,178.749,131.981,175.903,133.768C174.316,134.761,172.727,135.753,171.174,136.811C169.52,137.937,168.693,139.525,168.858,141.51C168.958,142.965,168.33,143.493,166.939,143.528C164.657,143.56,162.408,143.727,160.126,143.859C158.141,143.958,156.188,144.056,154.204,144.156C152.119,144.222,152.153,144.222,151.954,142.171C151.657,138.929,152.153,135.852,153.51,132.876C154.6,130.461,156.586,129.005,158.735,127.683C160.522,126.558,162.342,125.467,163.996,124.176C165.55,122.986,165.055,121.199,164.724,119.611C164.459,118.289,163.401,117.658,162.177,117.626C160.722,117.626,159.2,117.692,157.777,118.056C156.123,118.454,155.759,120.041,155.561,121.464C155.033,124.937,155.065,124.97,151.593,125.202C147.325,125.466,143.024,125.665,138.724,125.862C136.839,125.928,136.606,125.631,136.773,123.812C137.07,120.372,137.831,116.998,139.387,113.955C140.874,111.108,142.892,108.627,145.572,106.809C153.05,101.682,161.351,101.152,169.854,103.103C174.977,104.259,179.178,107.27,181.792,112" fill="rgb(250,169,70)" stroke="none" stroke-width="1"/><path id="ePCOgnVt5Hf33" d="M170.678,164.001C170.743,165.259,170.314,165.821,168.991,165.887C164.029,166.086,159.067,166.348,154.105,166.68C152.846,166.746,152.384,166.283,152.318,165.059C152.086,160.329,151.821,155.598,151.558,150.869C151.457,149.082,151.656,148.849,153.443,148.785C155.924,148.653,158.371,148.553,159.696,148.486C163.235,148.288,165.649,148.189,168.064,148.023C169.355,147.924,169.917,148.388,169.983,149.677C170.182,154.441,170.413,159.237,170.678,164.001" fill="rgb(250,169,70)" stroke="none" stroke-width="1"/><path id="ePCOgnVt5Hf34" d="M164.523,236.778C167.433,240.813,167.732,245.181,165.316,249.581C163.961,252.094,161.28,252.756,158.964,253.881C158.171,254.243,157.376,254.575,156.549,254.873C155.194,255.335,154.399,256.294,154.102,257.655C153.87,258.614,153.275,259.072,152.316,258.94C149.637,258.614,146.991,258.213,144.311,257.883C142.987,257.751,142.591,257.024,142.79,255.8C143.517,251.497,144.972,248.289,150.729,246.703C151.456,246.503,152.15,246.106,152.812,245.744C154.102,245.05,153.97,243.825,153.804,242.665C153.639,241.508,152.68,241.143,151.688,240.981C149.372,240.616,148.081,241.443,147.552,243.692C147.288,244.848,146.659,245.249,145.599,245.116C142.391,244.716,139.182,244.253,135.974,243.856C135.113,243.727,134.651,243.426,134.914,242.435C136.072,238.365,137.991,234.827,141.762,232.608C144.244,231.19,146.923,230.46,149.834,230.657C155.559,230.657,160.95,231.849,164.523,236.778" fill="rgb(250,169,70)" stroke="none" stroke-width="1"/><path id="ePCOgnVt5Hf35" d="M152.449,261.954C153.308,262.087,153.939,262.384,153.772,263.44C153.342,266.483,152.913,269.53,152.515,272.573C152.35,273.797,151.688,273.994,150.596,273.862C147.652,273.432,144.675,273.064,141.731,272.737C140.507,272.605,139.879,272.236,140.11,270.819C140.606,267.876,140.969,264.926,141.335,261.954C141.467,261.027,141.863,260.597,142.856,260.73C146.032,261.191,149.24,261.556,152.449,261.954" fill="rgb(250,169,70)" stroke="none" stroke-width="1"/><path id="ePCOgnVt5Hf36" d="M111.396,176.241C112.388,180.641,110.471,184.312,107.492,187.49C105.905,189.176,104.383,190.962,103.259,192.947C102.663,193.973,102.796,195.527,102.962,196.818C103.127,197.876,102.83,198.406,101.969,198.703C98.199,200.026,94.393,201.317,90.623,202.607C89.63,202.938,88.903,202.706,88.638,201.614C87.909,198.803,86.719,196.09,87.413,193.014C88.009,190.367,89.398,188.349,91.217,186.496C92.21,185.471,93.268,184.445,94.063,183.254C95.153,181.6,94.891,179.318,93.732,178.16C92.738,177.201,90.556,177.135,88.935,177.995C86.52,179.318,86.024,180.277,86.652,183.551C86.917,185.106,86.652,185.769,85.064,186.231C80.929,187.521,76.827,188.977,72.792,190.466C71.501,190.928,71.038,190.432,70.873,189.374C70.576,187.653,70.377,185.934,70.245,184.775C70.311,177.432,72.924,172.007,78.547,168.103C83.312,164.829,88.604,162.942,94.393,162.91C102.83,162.911,109.445,167.575,111.396,176.241" fill="rgb(250,169,70)" stroke="none" stroke-width="1"/><path id="ePCOgnVt5Hf37" d="M110.438,216.401C110.174,216.63,109.942,216.998,109.611,217.131C105.079,218.75,100.514,220.336,95.982,221.961C95.089,222.258,94.593,221.793,94.328,221.031C92.907,216.795,91.516,212.531,90.127,208.296C89.763,207.204,90.524,206.905,91.253,206.642C94.495,205.516,97.736,204.424,100.944,203.334C102.004,202.969,103.062,202.64,104.088,202.274C105.013,201.943,105.543,202.142,105.874,203.102C106.866,205.948,107.891,208.791,108.883,211.669C109.381,213.16,109.876,214.679,110.438,216.401" fill="rgb(250,169,70)" stroke="none" stroke-width="1"/><path id="ePCOgnVt5Hf38" d="M100.745,87.388C101.077,88.017,101.175,88.777,101.308,89.341C100.944,91.656,100.051,93.443,97.934,94.402C96.611,94.998,95.651,95.825,94.726,97.081C93.6,98.635,91.615,97.18,89.995,97.346C89.73,97.378,89.168,96.718,89.101,96.321C88.804,94.998,90.127,92.583,91.351,91.921C92.012,91.589,92.741,91.359,93.268,90.929C93.665,90.597,94.029,89.97,93.996,89.506C93.964,89.143,93.334,88.581,92.971,88.547C92.475,88.515,91.582,88.812,91.484,89.143C90.954,91.161,89.398,90.797,87.977,90.763C87.479,90.763,86.917,90.697,86.421,90.598C84.139,90.169,84.072,90.036,84.867,87.819C86.222,84.081,90.06,82.162,94.593,82.857C97.438,83.319,99.388,84.974,100.745,87.388" fill="rgb(250,169,70)" stroke="none" stroke-width="1"/><path id="ePCOgnVt5Hf39" d="M100.68,256.791C101.473,258.939,101.705,261.259,102.002,262.677C101.705,267.242,100.844,270.718,98.331,273.596C95.155,277.201,87.678,279.349,83.411,273.693C82.684,272.704,82.221,271.509,81.625,270.385C80.733,268.731,79.806,267.113,77.59,266.883C77.226,266.812,76.697,266.056,76.697,265.658C76.729,263.106,76.896,260.564,76.994,257.979C77.028,257.152,77.49,256.79,78.285,256.79C81.494,256.858,85.497,258.179,86.852,261.82C87.217,262.876,87.846,263.933,88.606,264.759C89.698,265.984,90.855,265.954,91.88,264.963C92.807,264.033,93.038,262.113,92.145,261.257C91.451,260.592,90.458,260.265,89.632,259.7C89.169,259.367,88.474,258.872,88.474,258.443C88.441,255.497,88.54,252.557,88.673,249.611C88.739,248.319,89.863,248.651,90.592,248.784C95.354,249.646,99.025,252.127,100.68,256.791" fill="rgb(250,169,70)" stroke="none" stroke-width="1"/><path id="ePCOgnVt5Hf40" d="M95.155,102.24C95.254,105.415,94.991,105.648,91.88,105.284C91.583,105.25,91.286,105.184,91.021,105.152C88.177,104.854,88.177,104.854,88.31,101.91C88.442,98.634,88.442,98.634,91.649,98.833L91.782,98.833C95.056,98.999,95.056,98.999,95.155,102.24" fill="rgb(250,169,70)" stroke="none" stroke-width="1"/><path id="ePCOgnVt5Hf41" d="M73.123,256.032C73.982,256.032,74.446,256.429,74.414,257.35C74.313,260.035,74.215,262.745,74.149,265.427C74.115,266.783,73.587,267.443,72.131,267.31C69.749,267.142,67.334,267.081,64.952,266.98C64.059,266.948,63.597,266.58,63.597,265.656C63.629,262.781,63.597,259.902,63.729,257.024C63.729,256.627,64.557,255.997,65.053,255.961C66.375,255.799,67.732,255.899,69.088,255.899L69.088,256.032C70.444,256.032,71.766,255.997,73.123,256.032" fill="rgb(250,169,70)" stroke="none" stroke-width="1"/></g></g></g><g id="ePCOgnVt5Hf42"><path id="ePCOgnVt5Hf43" d="M1163.046,124.455C1162.782,123.368,1162.659,122.228,1162.492,121.115L1162.492,121.114C1162.201,119.01,1161.91,116.905,1161.619,114.799C1161.258,113.227,1160.94,111.63,1160.461,110.105C1159.565,107.153,1158.522,104.25,1157.578,101.294C1156.974,99.409,1156.441,97.472,1155.883,95.561C1155.619,94.956,1155.376,94.328,1155.111,93.724C1153.756,90.599,1152.521,87.43,1151.02,84.355C1149.326,80.918,1147.463,77.558,1145.528,74.24C1144.632,72.641,1143.447,71.215,1142.38,69.716C1142.38,69.718,1142.38,69.723,1142.38,69.725C1142.38,69.72,1142.38,69.718,1142.38,69.713C1141.802,68.723,1141.317,67.654,1140.64,66.762C1138.171,63.542,1135.799,60.253,1133.113,57.228C1130.088,53.789,1126.821,50.547,1123.555,47.328C1122.318,46.118,1120.794,45.175,1119.417,44.108L1119.417,44.111C1117.574,42.584,1115.761,41.062,1113.944,39.536C1111.792,37.914,1109.663,36.246,1107.46,34.672C1106.25,33.802,1104.895,33.122,1103.612,32.348L1103.612,32.346C1103.275,32.057,1102.983,31.741,1102.643,31.523C1100.535,30.314,1098.458,29.104,1096.329,27.943C1094.779,27.095,1093.254,26.249,1091.633,25.523C1089.383,24.53,1087.083,23.658,1084.784,22.766C1082.243,21.75,1079.725,20.707,1077.162,19.788C1075.297,19.112,1073.362,18.578,1071.45,18.07C1068.977,17.416,1066.489,16.787,1063.997,16.231C1061.576,15.699,1059.132,15.289,1056.712,14.802C1056.421,14.731,1056.179,14.441,1055.912,14.246L1053.058,14.246L1048.167,14.246C1048.458,14.466,1048.735,14.791,1049.028,14.972C1048.735,14.792,1048.458,14.466,1048.167,14.248L1029.485,14.248C1028.252,14.609,1027.042,15.142,1025.785,15.312C1021.572,15.893,1017.338,16.352,1013.127,16.836C1012.035,17.127,1010.948,17.441,1009.86,17.685C1007.681,18.19,1005.525,18.651,1003.349,19.136C1002.499,19.425,1001.631,19.717,1000.784,20.006L1000.783,20.006C1001.632,19.717,1002.501,19.425,1003.348,19.136C1003.351,19.136,1003.352,19.133,1003.355,19.133C1005.531,18.649,1007.683,18.19,1009.858,17.682C1010.943,17.441,1012.028,17.127,1013.115,16.838C1013.118,16.838,1013.123,16.836,1013.127,16.836C1017.338,16.352,1021.572,15.893,1025.782,15.312C1027.042,15.141,1028.252,14.607,1029.485,14.246L1022.588,14.246C1021.259,14.634,1019.951,15.095,1018.596,15.383C1019.951,15.094,1021.257,14.633,1022.588,14.246L1020.023,14.246C1019.565,14.537,1019.127,14.972,1018.643,15.071C1016.611,15.432,1014.579,15.676,1012.545,15.988C1008.043,16.305,1003.857,17.902,999.598,19.183C997.081,19.934,994.684,20.974,992.242,21.894C989.823,22.766,987.353,23.465,985.054,24.557C981.134,26.443,977.188,28.306,973.535,30.631C968.259,33.968,963.081,37.48,958.168,41.328C953.813,44.741,949.891,48.682,945.801,52.435C945.365,52.823,945.123,53.428,944.786,53.934C945.343,53.499,945.921,53.088,946.455,52.629C950.956,48.611,955.264,44.424,959.959,40.673C964.8,36.802,969.953,33.389,975.374,30.315C981.013,27.122,986.798,24.388,992.871,22.185C994.903,21.434,996.986,20.735,999.041,20.007C996.986,20.735,994.903,21.436,992.871,22.185C986.798,24.388,981.013,27.122,975.375,30.318C969.953,33.392,964.8,36.802,959.959,40.676C955.264,44.426,950.956,48.612,946.455,52.629C945.921,53.088,945.343,53.501,944.786,53.936C944.591,54.204,944.397,54.492,944.204,54.782L944.204,54.782C942.654,56.5,941.104,58.219,939.582,59.938C939.218,60.23,938.782,60.495,938.517,60.859C935.613,64.853,932.491,68.724,929.901,72.912C926.902,77.776,924.337,82.881,921.697,87.937C921.045,89.221,920.779,90.697,920.342,92.102C920.561,91.719,920.772,91.327,920.984,90.939C920.772,91.327,920.561,91.719,920.344,92.1C919.545,94.035,918.625,95.924,917.973,97.906C916.665,101.924,915.359,105.966,914.342,110.082C913.446,113.613,912.988,117.243,912.262,120.826C912.116,121.527,911.705,122.182,911.438,122.834L911.438,126.006L911.438,132.613C911.607,132.344,911.92,132.102,911.947,131.815C912.186,129.83,912.381,127.844,912.599,125.835C912.769,124.191,912.962,122.545,913.18,120.875C913.312,119.956,913.46,119.043,913.603,118.127C913.46,119.043,913.315,119.956,913.18,120.875C912.962,122.546,912.769,124.191,912.601,125.835C912.383,127.844,912.189,129.83,911.947,131.815C911.923,132.103,911.605,132.344,911.44,132.61L911.44,147.252C911.632,147.616,911.947,147.956,911.997,148.344C912.408,152.022,912.601,155.746,913.207,159.399C913.908,163.54,914.853,167.605,915.916,171.67C917.006,175.811,918.24,179.923,919.645,183.988C920.682,186.942,922.016,189.774,923.323,192.628C923.981,194.06,924.642,195.498,925.326,196.925C924.642,195.497,923.981,194.06,923.322,192.628C922.014,189.774,920.685,186.942,919.643,183.988C918.24,179.923,917.006,175.806,915.916,171.67C914.851,167.606,913.906,163.541,913.205,159.404C912.6,155.746,912.408,152.017,911.995,148.344C911.947,147.956,911.633,147.616,911.438,147.252L911.438,155.287C911.728,156.157,912.019,157.008,912.309,157.877C912.494,158.709,912.689,159.541,912.88,160.377C912.689,159.541,912.493,158.709,912.309,157.877C912.309,158.246,912.288,158.619,912.287,158.992C912.288,158.619,912.309,158.246,912.309,157.877C912.019,157.008,911.728,156.156,911.438,155.287L911.438,158.458C911.728,158.651,911.995,158.845,912.285,159.04L912.285,159.034C912.554,160.68,912.769,162.329,913.037,163.951C913.133,164.532,913.301,165.066,913.424,165.648C913.98,168.286,914.536,170.941,915.143,173.579C915.409,174.746,915.699,175.905,916.085,177.016C916.666,178.736,917.345,180.409,917.974,182.101C918.966,184.814,919.836,187.57,920.976,190.231C922.136,192.897,923.418,195.482,924.845,198.025C927.362,202.501,929.807,207.029,932.662,211.283C935.276,215.206,938.397,218.789,941.303,222.518C941.349,222.542,941.4,222.56,941.446,222.584C941.4,222.561,941.349,222.542,941.301,222.518C942.415,223.87,943.431,225.321,944.666,226.559C947.908,229.801,951.152,233.044,954.563,236.14C956.692,238.078,959.112,239.719,961.387,241.491L961.387,241.487C964.776,243.861,968.14,246.28,971.551,248.606C972.761,249.427,974.068,250.151,975.375,250.832C978.086,252.183,980.771,253.54,983.506,254.798C986.725,256.277,989.944,257.798,993.283,258.962C997.856,260.583,1002.503,262.034,1007.198,263.221C1009.982,263.902,1012.691,265.206,1015.692,264.748C1015.256,264.624,1014.796,264.53,1014.338,264.407C1014.796,264.526,1015.256,264.624,1015.692,264.742C1018.452,265.106,1021.213,265.479,1023.972,265.901C1021.211,265.48,1018.452,265.107,1015.692,264.748C1015.935,264.889,1016.177,265.107,1016.418,265.159C1017.992,265.424,1019.589,265.594,1021.163,265.934C1021.768,266.052,1022.3,266.463,1022.882,266.757L1025.47,266.757C1025.393,266.69,1025.317,266.61,1025.241,266.53C1025.315,266.61,1025.39,266.686,1025.47,266.752L1030.067,266.752C1030.068,266.752,1030.068,266.757,1030.068,266.757L1035.513,266.757L1035.514,266.757L1037.545,266.757C1037.547,266.757,1037.547,266.752,1037.547,266.752L1049.598,266.752C1050.035,266.558,1050.463,266.369,1050.893,266.175C1050.463,266.369,1050.035,266.564,1049.598,266.757L1052.479,266.757C1053.084,266.464,1053.666,266.052,1054.294,265.934C1055.311,265.741,1056.399,265.835,1057.416,265.641C1060.39,265.036,1063.368,264.384,1066.322,263.656C1069.225,262.981,1072.103,262.181,1075.009,261.43C1076.679,260.996,1078.398,260.683,1080.019,260.05C1081.449,259.521,1082.728,258.622,1084.083,257.875C1083.6,257.994,1083.066,258.093,1082.607,258.264C1081.084,258.83,1079.57,259.44,1078.046,260.017C1079.569,259.44,1081.083,258.83,1082.607,258.258C1083.066,258.093,1083.599,257.994,1084.083,257.875C1084.759,257.653,1085.463,257.488,1086.116,257.194C1087.546,256.567,1088.972,255.89,1090.377,255.233C1091.248,254.845,1092.118,254.486,1092.963,254.098L1092.99,254.075C1095.724,252.77,1098.507,251.603,1101.121,250.081C1103.71,248.607,1106.034,246.692,1108.574,245.123C1114.842,241.2,1120.119,236.067,1125.661,231.279C1126.992,230.14,1127.983,228.641,1129.144,227.285C1131.832,224.16,1134.542,221.017,1137.227,217.868C1137.76,217.263,1138.171,216.564,1138.654,215.907L1138.654,215.912C1139.066,215.448,1139.526,215.037,1139.89,214.556C1140.879,213.1,1141.9,211.654,1142.818,210.151C1145.068,206.426,1147.343,202.673,1149.45,198.873C1150.78,196.453,1151.894,193.938,1152.981,191.419C1154.458,188.03,1155.837,184.594,1157.215,181.157C1157.677,179.999,1158.111,178.789,1158.425,177.556C1159.418,173.703,1160.434,169.832,1161.259,165.961C1161.985,162.572,1162.444,159.112,1163.097,155.7C1163.219,155.071,1163.63,154.466,1163.92,153.861L1163.92,148.416C1163.339,151.758,1162.783,155.095,1162.202,158.437C1162.783,155.095,1163.339,151.759,1163.92,148.416L1163.92,132.61L1163.92,126.006C1163.629,125.495,1163.195,125.012,1163.046,124.455ZM1097.149,29.736C1092.841,27.606,1088.533,25.474,1084.105,23.635C1081.69,22.605,1079.213,21.702,1076.715,20.865C1079.213,21.702,1081.69,22.604,1084.105,23.635C1088.533,25.474,1092.842,27.606,1097.149,29.736ZM1157.916,103.379C1158.908,106.766,1159.634,110.201,1160.482,113.637C1160.749,114.292,1161.066,114.944,1161.232,115.646C1161.063,114.944,1160.749,114.292,1160.482,113.637C1160.676,115.186,1160.843,116.712,1161.038,118.261C1161.035,118.254,1161.035,118.25,1161.033,118.244C1160.844,116.699,1160.677,115.181,1160.482,113.638C1159.633,110.202,1158.908,106.766,1157.914,103.38C1157.094,100.449,1155.98,97.571,1154.986,94.69C1153.662,91.787,1152.355,88.883,1151.026,85.995C1152.355,88.883,1153.662,91.787,1154.987,94.69C1155.98,97.57,1157.094,100.448,1157.916,103.379ZM1119.416,44.4C1123.263,48.127,1127.157,51.83,1130.981,55.604C1132.046,56.694,1132.845,58.074,1133.789,59.308C1134.588,60.178,1135.483,60.976,1136.209,61.922C1138.291,64.677,1140.321,67.509,1142.354,70.293L1142.354,70.293C1140.322,67.509,1138.291,64.68,1136.209,61.922C1135.483,60.98,1134.588,60.181,1133.789,59.308L1133.741,59.407C1133.741,59.405,1133.741,59.405,1133.741,59.405L1133.789,59.308C1132.846,58.074,1132.047,56.695,1130.981,55.607C1127.157,51.83,1123.263,48.126,1119.416,44.4L1119.416,44.4ZM1066.028,17.321C1070.383,18.385,1074.691,19.642,1078.926,21.122C1074.691,19.642,1070.384,18.385,1066.028,17.321C1062.227,16.4,1058.356,15.87,1054.508,15.095C1058.356,15.867,1062.228,16.399,1066.028,17.321ZM991.922,23.167C991.036,23.494,990.144,23.796,989.267,24.146C988.354,24.507,987.462,24.931,986.566,25.335C987.462,24.931,988.354,24.507,989.265,24.146C990.144,23.797,991.036,23.494,991.922,23.167ZM945.024,55.049L945.024,55.049C944.96,55.025,944.891,55.007,944.824,54.984C944.892,55.006,944.96,55.025,945.024,55.049ZM941.887,58.58C938.46,62.55,935.271,66.705,932.516,71.19C931.41,73.001,930.272,74.802,929.166,76.616C930.271,74.802,931.408,73.001,932.514,71.19C935.269,66.705,938.459,62.55,941.887,58.58ZM918.043,101.126C916.953,104.612,916.106,108.169,915.14,111.679C914.941,112.404,914.709,113.13,914.483,113.858C914.709,113.13,914.94,112.402,915.138,111.679C916.107,108.166,916.953,104.612,918.042,101.124C918.913,98.368,920.001,95.679,921.142,92.994C922.689,89.34,924.19,85.613,926.028,82.08C926.038,82.06,926.051,82.042,926.061,82.023C926.051,82.042,926.04,82.06,926.03,82.08C924.191,85.613,922.69,89.34,921.142,92.994C920.004,95.682,918.911,98.369,918.043,101.126ZM923.005,166.711C922.424,163.974,921.89,161.213,921.359,158.482C921.117,157.249,920.851,156.038,920.754,154.805C920.39,149.091,920.004,143.381,919.833,137.646C919.762,135.419,920.246,133.193,920.416,130.967C920.608,128.571,920.56,126.176,920.923,123.827C921.407,120.731,922.156,117.68,922.81,114.605C923.32,112.185,923.801,109.765,924.384,107.371C924.771,105.824,925.326,104.272,925.835,102.747C926.489,100.836,927.119,98.9,927.893,97.035C928.789,94.909,929.829,92.825,930.82,90.721C931.742,88.809,932.637,86.897,933.606,84.985C934.451,83.314,935.324,81.623,936.315,80.025C938.009,77.315,939.727,74.605,941.614,72.038C946.674,65.188,952.119,58.633,958.53,53.017C962.404,49.604,966.736,46.749,970.633,43.384C973.73,40.723,977.456,39.148,980.845,36.996C983.917,35.06,987.28,33.486,990.62,32.035C993.138,30.92,995.825,30.221,998.438,29.374C1001.751,28.309,1005.042,27.195,1008.385,26.3C1010.756,25.645,1013.224,25.187,1015.665,24.846C1020.799,24.097,1025.95,23.274,1031.133,22.863C1035.025,22.549,1038.973,22.669,1042.868,22.814C1046.061,22.937,1049.257,23.372,1052.427,23.71C1053.567,23.831,1054.679,24.098,1055.816,24.291C1056.929,24.485,1058.066,24.629,1059.178,24.847C1060.438,25.09,1061.696,25.381,1062.929,25.695C1064.916,26.156,1066.924,26.568,1068.86,27.149C1072.079,28.115,1075.273,29.155,1078.443,30.244C1080.839,31.091,1083.235,31.989,1085.582,33.006C1087.472,33.779,1089.333,34.65,1091.078,35.691C1095.359,38.182,1099.669,40.652,1103.757,43.409C1111.551,48.613,1118.352,54.953,1124.692,61.826C1129.217,66.715,1133.163,72.039,1136.645,77.677C1139.453,82.179,1141.706,87.019,1144.099,91.762C1145.238,93.966,1146.302,96.192,1147.15,98.514C1148.19,101.419,1148.989,104.397,1149.884,107.347C1150.392,109.09,1150.901,110.808,1151.335,112.574C1151.676,113.907,1151.965,115.262,1152.184,116.615C1152.836,120.369,1153.464,124.143,1154.071,127.917C1154.241,129.08,1154.384,130.291,1154.411,131.477C1154.461,134.478,1154.411,137.503,1154.411,140.529L1154.385,140.529C1154.385,143.095,1154.461,145.681,1154.385,148.271C1154.314,149.991,1154.168,151.707,1153.903,153.404C1153.442,156.306,1152.887,159.184,1152.377,162.091C1151.918,164.607,1151.531,167.15,1150.976,169.663C1150.514,171.696,1149.863,173.682,1149.232,175.666C1148.676,177.481,1148.118,179.297,1147.417,181.065C1146.498,183.385,1145.459,185.663,1144.419,187.961C1143.619,189.729,1142.844,191.521,1141.925,193.236C1140.304,196.285,1138.754,199.409,1136.892,202.335C1134.518,206.017,1132.027,209.648,1129.267,213.032C1126.121,216.879,1122.927,220.755,1119.248,224.045C1114.409,228.375,1109.157,232.251,1103.931,236.099C1100.568,238.543,1097.034,240.792,1093.378,242.777C1089.821,244.71,1086.047,246.19,1082.367,247.859C1081.133,248.44,1079.9,249.045,1078.64,249.579C1077.503,250.037,1076.34,250.473,1075.156,250.813C1072.057,251.73,1068.959,252.675,1065.837,253.474C1063.516,254.055,1061.168,254.49,1058.845,254.902C1056.739,255.29,1054.611,255.602,1052.481,255.871C1049.746,256.235,1046.986,256.741,1044.228,256.788C1038.807,256.864,1033.36,256.742,1027.916,256.572C1025.836,256.524,1023.73,256.16,1021.649,255.872C1019.858,255.603,1018.089,255.243,1016.301,254.927C1013.541,254.445,1010.759,254.104,1008.048,253.405C1004.949,252.607,1001.899,251.491,998.852,250.45C996.433,249.604,994.013,248.806,991.664,247.765C988.664,246.479,985.686,245.123,982.833,243.531C978.572,241.134,974.312,238.691,970.271,235.954C966.834,233.628,963.666,230.944,960.47,228.307C958.751,226.879,957.373,224.993,955.558,223.732C950.064,219.86,946.41,214.321,942.271,209.24C940.214,206.72,938.665,203.766,936.97,200.958C935.132,197.909,933.317,194.837,931.67,191.665C930.583,189.585,929.784,187.336,928.863,185.157C927.823,182.642,926.758,180.123,925.79,177.556C925.258,176.153,924.894,174.678,924.507,173.203C923.971,171.041,923.464,168.886,923.005,166.711ZM1101.087,248.524C1101.076,248.534,1101.065,248.538,1101.053,248.548C1101.064,248.539,1101.076,248.535,1101.087,248.524ZM991.527,256.985C991.733,257.08,991.941,257.174,992.145,257.269C993.805,257.841,995.445,258.47,997.093,259.065C995.445,258.47,993.803,257.841,992.142,257.269L992.144,257.269C991.94,257.174,991.733,257.08,991.527,256.985ZM940.452,220.217C939.683,219.176,938.904,218.152,938.129,217.121C938.904,218.152,939.684,219.177,940.452,220.217L940.452,220.217ZM954.024,233.947C956.982,236.543,960.096,238.972,963.228,241.383C960.097,238.978,956.982,236.548,954.024,233.947ZM967.027,244.205C967.992,244.891,968.969,245.552,969.97,246.185C968.97,245.551,967.992,244.895,967.027,244.205ZM1080.836,258.129C1079.572,258.63,1078.31,259.136,1077.038,259.613C1076.185,259.93,1075.312,260.199,1074.443,260.469C1075.312,260.199,1076.185,259.93,1077.038,259.613C1078.31,259.136,1079.572,258.631,1080.836,258.129ZM1067.105,262.364C1065.738,262.634,1064.369,262.88,1063.002,263.126C1060.563,263.584,1058.138,264.142,1055.706,264.581C1058.138,264.142,1060.562,263.584,1063.002,263.126C1064.369,262.88,1065.738,262.634,1067.105,262.364ZM1035.466,265.55C1034.076,265.555,1032.688,265.559,1031.303,265.569C1029.098,265.569,1026.895,265.446,1024.717,265.158C1024.175,265.078,1023.64,264.973,1023.1,264.888C1023.64,264.973,1024.178,265.077,1024.719,265.158C1026.897,265.447,1029.1,265.569,1031.301,265.569C1032.688,265.56,1034.076,265.555,1035.466,265.55ZM985.779,254.419C984.127,253.691,982.481,252.953,980.867,252.164C978.828,251.176,976.816,250.131,974.833,249.039C976.816,250.126,978.828,251.175,980.867,252.159C982.483,252.954,984.129,253.691,985.779,254.419ZM936.552,214.979C935.867,214.053,935.178,213.131,934.524,212.182C933.685,210.962,932.863,209.733,932.04,208.5C932.863,209.733,933.686,210.962,934.524,212.182C935.178,213.131,935.867,214.053,936.552,214.979ZM924.141,195.851C923.347,194.273,922.588,192.67,921.891,191.03C922.588,192.67,923.347,194.273,924.141,195.851ZM933.36,211.435C935.54,214.678,938.081,217.674,940.452,220.798L940.452,220.798C938.081,217.679,935.54,214.678,933.36,211.435ZM960.175,239.989C956.763,236.988,953.253,234.062,949.914,230.937C949.088,230.171,948.309,229.354,947.514,228.555C948.309,229.354,949.088,230.171,949.914,230.937C953.255,234.057,956.763,236.988,960.175,239.989C960.613,240.376,960.998,240.787,961.409,241.176L961.409,241.176C960.998,240.787,960.61,240.375,960.175,239.989ZM980.479,252.595C979.044,251.857,977.644,251.044,976.243,250.24C977.647,251.044,979.048,251.857,980.481,252.595C983.796,254.34,987.282,255.719,990.692,257.269C987.279,255.718,983.796,254.339,980.479,252.595ZM1003.756,261.66C1005.908,262.242,1008.069,262.794,1010.244,263.29C1011.098,263.427,1011.945,263.569,1012.794,263.711C1011.945,263.569,1011.099,263.427,1010.246,263.295C1008.07,262.794,1005.908,262.242,1003.756,261.66ZM1018.57,264.601C1017.713,264.487,1016.859,264.351,1016.005,264.212C1016.859,264.345,1017.712,264.487,1018.57,264.601C1021.479,264.979,1024.4,265.3,1027.317,265.617C1024.402,265.3,1021.479,264.979,1018.57,264.601ZM1029.775,265.886C1030.549,265.886,1031.324,265.871,1032.097,265.871C1031.324,265.872,1030.55,265.886,1029.775,265.886L1029.775,265.886ZM1052.18,265.592C1047.656,265.786,1043.132,265.98,1038.609,266.198C1038.353,266.217,1038.098,266.386,1037.852,266.552C1038.098,266.382,1038.353,266.212,1038.611,266.198C1043.134,265.98,1047.661,265.786,1052.185,265.592C1052.184,265.592,1052.181,265.592,1052.18,265.592ZM1059.374,264.454C1061.816,263.996,1064.286,263.607,1066.729,263.074C1064.286,263.607,1061.816,263.996,1059.374,264.454ZM1089.526,254.679C1088.264,255.18,1087.006,255.685,1085.747,256.191C1087.007,255.686,1088.265,255.175,1089.526,254.679C1090.566,254.268,1091.627,253.908,1092.666,253.545L1092.666,253.545C1091.627,253.904,1090.566,254.268,1089.526,254.679ZM1102.886,248.289C1101.265,249.358,1099.521,250.25,1097.853,251.242C1099.521,250.25,1101.265,249.352,1102.886,248.289C1107.7,245.118,1112.637,242.143,1116.872,238.15C1119.309,235.866,1121.929,233.764,1124.391,231.519C1121.929,233.765,1119.309,235.867,1116.872,238.15C1112.637,242.143,1107.7,245.122,1102.886,248.289ZM1127.255,228.735C1131.27,224.476,1134.879,219.806,1138.652,215.33C1134.879,219.806,1131.271,224.476,1127.255,228.735ZM1141.267,211.624C1142.356,209.932,1143.348,208.141,1144.366,206.425C1143.348,208.141,1142.355,209.932,1141.267,211.624ZM1146.712,202.407C1147.441,201.244,1148.235,200.105,1148.867,198.871C1148.238,200.105,1147.44,201.245,1146.712,202.407ZM1153.367,189.46C1152.951,190.439,1152.48,191.408,1152.028,192.377C1152.48,191.408,1152.951,190.439,1153.367,189.456C1154.255,187.38,1155.478,185.382,1155.608,183.052C1155.479,185.382,1154.255,187.38,1153.367,189.46ZM1162.759,150.494C1162.709,151.095,1162.634,151.695,1162.558,152.295C1162.634,151.694,1162.709,151.094,1162.756,150.494C1163.073,147.227,1163.314,143.985,1163.582,140.72C1163.313,143.985,1163.073,147.228,1162.759,150.494Z" fill="rgb(250,169,70)" stroke="none" stroke-width="1"/><path id="ePCOgnVt5Hf44" d="M1107.362,132.103C1105.741,132.174,1104.192,132.638,1102.692,131.645C1102.401,131.475,1101.722,131.669,1101.408,131.91C1101.167,132.08,1101.095,132.779,1101.264,133.023C1101.916,133.966,1101.773,134.865,1101.625,135.904C1101.505,136.604,1101.844,137.379,1101.892,138.13C1101.916,138.588,1101.966,139.171,1101.773,139.534C1101.094,140.721,1101.289,141.544,1102.595,141.69C1103.611,141.785,1104.651,141.52,1105.667,141.302C1106.418,141.133,1107.144,140.646,1107.893,140.574C1109.032,140.478,1110.169,140.645,1111.306,140.671C1114.889,140.721,1118.47,140.768,1122.077,140.792C1122.367,140.792,1122.754,140.671,1122.923,140.478C1123.576,139.655,1124.255,138.831,1124.714,137.913C1125.586,136.145,1125.659,136.048,1127.352,137.015C1127.231,136.46,1127.014,135.905,1127.014,135.347C1126.963,133.991,1126.602,133.725,1125.273,133.919C1124.787,133.967,1123.964,133.822,1123.819,133.507C1123.168,132.224,1122.196,132.08,1120.94,132.298C1120.309,132.419,1119.609,132.251,1118.956,132.225C1115.084,132.173,1111.21,131.983,1107.362,132.103Z" fill="rgb(250,169,70)" stroke="none" stroke-width="1"/><path id="ePCOgnVt5Hf45" d="M1118.519,170.946C1119.222,168.187,1118.858,167.217,1116.438,165.714C1115.348,165.066,1114.285,163.999,1113.171,163.899C1111.719,163.805,1111.234,163.252,1110.871,162.084C1110.558,161.121,1109.932,160.903,1108.96,161.385C1108.475,161.631,1107.749,161.824,1107.265,161.655C1105.885,161.168,1104.578,160.488,1103.225,159.911C1101.602,159.182,1100.005,158.895,1098.36,160.058C1097.95,160.37,1097.227,160.27,1096.643,160.346C1096.159,160.445,1095.335,160.393,1095.263,160.615C1095.093,161.121,1095.165,161.774,1095.359,162.303C1095.868,163.613,1096.713,164.851,1096.98,166.202C1097.271,167.654,1097.802,168.31,1099.329,168.117C1100.878,167.924,1102.575,168.575,1103.056,169.785C1103.637,171.237,1104.508,171.379,1105.645,171.648C1106.226,171.795,1106.712,172.276,1107.291,172.47C1107.873,172.687,1108.745,173.052,1109.105,172.811C1110.341,171.941,1111.381,172.565,1112.033,173.292C1113.293,174.748,1114.48,174.067,1115.738,173.581C1116.004,173.486,1116.222,173.321,1116.512,173.151C1116.706,173.369,1116.777,173.439,1116.826,173.51C1117.284,173.949,1117.722,174.748,1118.207,174.772C1118.688,174.772,1119.463,174.115,1119.612,173.609C1119.731,173.169,1119.099,172.565,1118.858,172.011C1118.713,171.669,1118.446,171.235,1118.519,170.946Z" fill="rgb(250,169,70)" stroke="none" stroke-width="1"/><path id="ePCOgnVt5Hf46" d="M1097.224,106.74C1096.619,107.467,1096.399,108.049,1095.431,107.25C1095.165,107.033,1094.416,107.056,1094.149,107.274C1093.883,107.492,1093.812,108.17,1093.932,108.531C1094.029,108.775,1094.61,108.871,1094.971,108.992C1095.335,109.088,1095.698,109.159,1096.061,109.259C1095.844,109.647,1095.602,110.058,1095.383,110.468C1095.117,110.926,1094.657,111.385,1094.68,111.822C1094.707,112.306,1095.239,113.129,1095.502,113.129C1096.108,113.058,1096.665,112.595,1097.415,112.184C1097.44,112.16,1097.512,112.184,1097.562,112.234C1099.45,114.339,1101.505,113.759,1103.635,112.695C1105.232,111.919,1106.877,111.267,1108.788,110.445C1108.643,111.436,1108.548,112.091,1108.451,112.789C1109.708,112.478,1111.184,112.501,1110.724,110.563C1110.676,110.346,1111.014,109.935,1111.258,109.791C1112.588,109.113,1113.968,108.508,1115.322,107.879C1116.023,107.128,1116.725,106.379,1117.428,105.606L1117.645,105.606C1117.839,105.676,1118.056,105.75,1118.249,105.824C1118.395,105.266,1118.54,104.731,1118.661,104.176C1119.049,102.555,1118.348,100.74,1116.966,99.892C1115.248,98.37,1115.151,98.393,1112.976,99.41C1112.176,99.798,1111.183,100.256,1110.385,100.113C1108.907,99.821,1107.868,99.724,1107.481,101.516C1107.41,101.782,1106.901,102.071,1106.56,102.121C1105.641,102.265,1104.723,102.265,1103.803,102.311C1103.995,102.434,1104.164,102.555,1104.334,102.699C1103.779,102.966,1103.222,103.257,1102.665,103.522C1101.842,103.91,1100.972,104.227,1100.196,104.685C1099.159,105.313,1097.996,105.846,1097.224,106.74Z" fill="rgb(250,169,70)" stroke="none" stroke-width="1"/><path id="ePCOgnVt5Hf47" d="M1084.105,89.751C1085.315,90.187,1086.597,90.503,1087.59,89.463C1088.511,88.494,1090.348,88.47,1090.397,86.632C1090.421,86.461,1091.05,86.315,1091.364,86.121C1092.357,85.539,1093.907,85.128,1094.221,84.282C1094.873,82.49,1095.673,81.039,1097.247,79.95C1097.876,79.513,1098.285,78.74,1098.94,78.329C1100.078,77.579,1100.803,75.254,1099.956,74.214C1099.132,73.222,1098.143,72.399,1097.173,71.576C1096.933,71.383,1096.352,71.285,1096.084,71.43C1094.608,72.229,1092.891,72.883,1091.728,74.044C1089.792,76.006,1088.195,78.303,1086.426,80.458C1085.945,81.039,1085.438,81.644,1084.492,81.21C1084.276,81.11,1083.672,81.403,1083.596,81.621C1083.04,83.265,1082.578,84.934,1082.072,86.605C1082.242,87.984,1083.162,88.882,1084.105,89.751Z" fill="rgb(250,169,70)" stroke="none" stroke-width="1"/><path id="ePCOgnVt5Hf48" d="M1064.383,75.062C1064.722,74.918,1065.64,74.845,1065.982,74.362C1066.948,73.029,1067.795,71.554,1068.522,70.028C1069.15,68.724,1069.44,67.247,1070.026,65.893C1071.111,63.424,1072.272,61.002,1073.46,58.557C1074.26,56.865,1073.556,55.632,1072.393,54.469C1071.236,53.332,1069.926,52.677,1068.28,53.476C1067.675,53.766,1067.07,54.081,1066.418,54.227C1065.668,54.372,1065.595,54.685,1065.642,55.414C1065.715,56.187,1065.376,57.011,1065.284,57.808C1064.99,60.398,1061.675,61.802,1062.498,64.827C1062.52,64.9,1062.45,65.018,1062.424,65.093C1061.82,66.327,1061.144,67.537,1060.635,68.796C1059.348,72.16,1060.365,74.507,1064.383,75.062Z" fill="rgb(250,169,70)" stroke="none" stroke-width="1"/><path id="ePCOgnVt5Hf49" d="M1060.245,215.113C1059.904,214.843,1059.374,214.626,1059.275,214.285C1058.744,212.281,1057.048,211.313,1054.993,211.724C1053.686,211.965,1052.282,211.988,1051.289,210.731C1050.829,211.043,1050.371,211.36,1049.911,211.648C1049.911,211.747,1049.887,211.818,1049.887,211.893C1050.033,212.035,1050.2,212.182,1050.348,212.329C1050.104,212.471,1049.84,212.739,1049.573,212.739C1048.242,212.763,1046.885,212.693,1045.553,212.716C1045.071,212.716,1044.442,212.716,1044.078,212.981C1042.31,214.384,1040.471,213.973,1038.537,213.491C1037.957,213.345,1037.084,213.221,1036.723,213.539C1034.567,215.307,1031.907,214.82,1029.486,215.279C1028.008,215.571,1026.463,215.642,1024.963,215.571C1024.234,215.523,1023.511,214.966,1022.832,214.578C1022.736,214.531,1022.857,214.097,1022.857,213.851C1022.88,213.78,1022.88,213.68,1022.88,213.61L1020.316,213.61C1020.29,213.902,1020.364,214.285,1020.217,214.507C1019.296,215.717,1018.279,216.875,1017.434,218.138C1016.83,219.031,1016.368,219.706,1015.186,218.936C1014.943,218.79,1014.314,219.224,1013.85,219.394C1014.093,219.758,1014.266,220.145,1014.553,220.457C1014.943,220.915,1015.449,221.255,1015.789,221.714C1016.512,222.707,1017.215,223.728,1017.846,224.791C1018.04,225.08,1017.966,225.542,1018.04,225.925C1018.133,226.412,1018.133,227.134,1018.403,227.282C1019.153,227.669,1019.614,227.258,1019.83,226.412C1019.9,226.119,1020.435,225.854,1020.796,225.756C1021.304,225.613,1021.84,225.613,1022.349,225.637C1024.789,225.756,1027.09,224.086,1029.629,225.102C1029.947,225.249,1030.455,224.956,1030.865,224.861C1031.831,224.643,1032.778,224.403,1033.746,224.185C1035.922,223.674,1038.223,224.303,1040.352,223.192C1041.1,222.828,1042.238,222.516,1042.99,223.797C1043.183,224.132,1044.755,224.208,1044.95,223.891C1045.966,222.463,1047.636,222.828,1048.894,222.176C1049.619,221.789,1050.321,221.93,1050.732,222.875C1051.216,223.962,1051.773,223.916,1052.523,223.045C1052.983,222.534,1053.566,222.123,1054.122,221.735C1055.645,220.7,1057.801,220.988,1059.011,219.268C1059.374,218.762,1060.125,218.545,1060.56,218.058C1060.995,217.552,1061.528,216.895,1061.528,216.318C1061.527,215.935,1060.703,215.523,1060.245,215.113Z" fill="rgb(250,169,70)" stroke="none" stroke-width="1"/><path id="ePCOgnVt5Hf50" d="M1022.612,213.08C1026.459,212.228,1030.331,211.724,1034.277,212.035C1034.881,212.086,1035.487,211.911,1036.091,211.842C1036.72,210.49,1037.956,211.213,1038.922,210.995C1041.536,210.607,1044.127,210.172,1046.739,209.86C1047.32,209.785,1048.143,210.026,1048.505,210.442C1049.401,211.459,1050.056,211.306,1050.804,210.366C1051.58,209.35,1052.596,209.009,1053.878,208.887C1055.159,208.768,1056.419,208.239,1057.678,207.876C1059.446,206.302,1059.661,204.292,1058.259,202.383C1057.413,201.292,1055.331,200.568,1054.121,200.786C1052.259,201.121,1050.37,201.315,1048.48,201.556C1046.98,202.161,1045.506,202.742,1043.834,202.212C1043.543,202.113,1043.182,202.189,1042.842,202.232C1041.463,202.454,1040.061,202.695,1038.68,202.936C1037.784,202.987,1036.911,203.035,1036.019,203.106C1035.365,203.153,1034.71,203.229,1034.081,203.347C1033.355,203.493,1032.654,203.834,1031.904,203.882C1030.21,204.028,1028.37,203.664,1026.821,204.198C1024.862,204.85,1022.974,205.163,1020.965,205.114C1019.101,205.067,1017.578,206.424,1017.118,208.21C1016.68,209.978,1017.456,211.358,1018.399,212.715C1019.805,212.834,1021.208,212.957,1022.612,213.08Z" fill="rgb(250,169,70)" stroke="none" stroke-width="1"/><path id="ePCOgnVt5Hf51" d="M1054.92,225.639C1054.823,225.199,1054.049,224.594,1053.566,224.575C1052.162,224.476,1050.708,224.552,1049.303,224.693C1046.233,224.983,1043.183,225.394,1040.109,225.687C1038.681,225.805,1037.254,225.687,1035.85,225.88C1034.349,226.073,1032.898,226.532,1031.396,226.797C1029.824,227.09,1028.203,227.166,1026.63,227.526C1025.636,227.771,1024.862,227.989,1024.016,227.137C1023.748,226.896,1022.975,227.067,1022.466,227.232C1022.297,227.284,1022.08,228.059,1022.2,228.153C1023.384,229.174,1023.096,230.092,1022.2,231.084C1022.054,231.278,1022.031,231.637,1022.031,231.907C1022.08,234.62,1025.853,237.423,1028.493,236.747C1029.703,236.435,1030.888,236.166,1032.123,235.995C1033.381,235.802,1034.664,235.754,1035.946,235.608C1038.899,235.267,1041.825,234.956,1044.754,234.52C1047.442,234.133,1050.347,234.449,1052.692,232.2C1052.886,232.611,1052.96,232.87,1053.103,233.022C1053.344,233.259,1053.685,233.651,1053.949,233.627C1054.217,233.599,1054.65,233.216,1054.701,232.924C1054.775,232.583,1054.605,231.93,1054.387,231.836C1052.5,231.085,1053.613,229.898,1054.194,229.27C1055.21,228.129,1055.138,226.872,1054.92,225.639Z" fill="rgb(250,169,70)" stroke="none" stroke-width="1"/><rect id="ePCOgnVt5Hf52" width="13.505" height="0.193" rx="0" ry="0" transform="matrix(1 0 0 1 1029.56 23.418)" fill="rgb(250,169,70)" stroke="none" stroke-width="1"/><path id="ePCOgnVt5Hf53" d="M1040.761,48.224C1040.279,47.837,1039.841,47.378,1039.334,47.037C1038.342,46.409,1037.374,45.733,1036.067,46.288C1034.47,46.942,1033.212,47.765,1033.26,49.774C1033.333,52.361,1033.284,54.926,1033.284,57.516L1033.163,57.516C1033.163,60.228,1033.09,62.962,1033.186,65.672C1033.284,68.142,1035.074,69.547,1037.64,69.352C1039.526,69.229,1041.049,67.32,1041.003,65.238C1040.884,60.929,1040.809,56.647,1040.759,52.34C1040.759,51.758,1040.809,51.008,1041.148,50.597C1042.045,49.556,1041.634,48.902,1040.761,48.224Z" fill="rgb(250,169,70)" stroke="none" stroke-width="1"/><path id="ePCOgnVt5Hf54" d="M1020.022,14.246L1016.271,14.246C1015.834,14.49,1015.423,14.731,1014.963,14.948C1014.166,15.312,1013.343,15.626,1012.543,15.988C1014.575,15.676,1016.609,15.432,1018.642,15.071C1019.127,14.972,1019.563,14.537,1020.022,14.246Z" fill="rgb(250,169,70)" stroke="none" stroke-width="1"/><path id="ePCOgnVt5Hf55" d="M1002.188,61.27C1002.722,62.527,1003.156,63.785,1003.64,65.07C1004.294,66.836,1005.117,68.553,1005.577,70.369C1006.303,73.248,1008.336,74.774,1011.168,74.264C1012.692,73.999,1014.119,71.649,1013.564,70.246C1012.813,68.313,1012.063,66.374,1011.24,64.466C1009.789,61.124,1008.312,57.81,1006.788,54.516C1006.279,53.406,1005.287,52.945,1004.077,53.065C1001.658,53.283,1000.473,54.639,1000.496,57.591C1000.592,57.906,1000.81,58.633,1001.125,59.309C1001.438,59.985,1001.898,60.592,1002.188,61.27Z" fill="rgb(250,169,70)" stroke="none" stroke-width="1"/><path id="ePCOgnVt5Hf56" d="M986.967,183.142C985.708,183.988,980.505,189.145,980.432,189.216C978.06,191.73,975.664,194.226,973.293,196.764C972.664,197.421,972.614,198.15,973.317,198.73C974.793,200.007,976.294,201.268,977.843,202.455C978.059,202.601,978.738,202.502,978.93,202.284C980.164,200.881,981.374,199.5,982.44,197.974C984.229,195.388,989.337,191.124,989.483,190.959C990.523,189.721,992.071,188.757,991.975,186.823C991.903,186.189,991.878,185.562,991.709,184.98C991.25,183.066,988.586,182.03,986.967,183.142Z" fill="rgb(250,169,70)" stroke="none" stroke-width="1"/><path id="ePCOgnVt5Hf57" d="M973.897,77.555C975.88,78.353,976.802,80.17,977.986,81.741C978.591,82.539,979.341,83.219,980.045,83.92C981.472,85.3,982.923,86.605,984.328,88.009C985.344,89.051,986.335,90.067,987.909,90.116C989.168,90.09,991.346,89,991.733,88.179C992.41,86.751,992.071,84.912,990.789,83.579C988.9,81.646,986.965,79.756,985.078,77.822C983.044,75.764,981.083,73.611,978.979,71.602C978.543,71.19,977.55,70.923,976.994,71.094C975.398,71.649,973.342,75.378,973.534,77.024C973.558,77.217,973.729,77.482,973.897,77.555Z" fill="rgb(250,169,70)" stroke="none" stroke-width="1"/><path id="ePCOgnVt5Hf58" d="M955.818,107.127C955.818,107.514,955.747,107.902,955.721,108.29C956.158,108.29,956.641,108.41,956.981,108.243C958.142,107.685,959.133,107.757,960.223,108.434C961.529,109.21,962.91,109.888,964.288,110.493C965.643,111.097,966.756,112.428,968.499,111.823C968.62,111.798,968.814,112.015,969.007,112.114C969.71,112.478,970.436,112.889,971.186,113.201C972.515,113.735,973.897,113.953,975.178,113.13C975.907,112.646,976.389,112.284,977.09,113.13C977.236,113.275,977.889,112.984,978.3,112.889C978.251,112.596,978.251,112.091,978.108,112.063C976.63,111.629,977.162,110.854,977.671,110.031C977.864,109.717,977.937,109.305,978.034,108.941C978.132,108.847,978.228,108.772,978.3,108.676C977.55,107.755,976.945,106.568,975.976,105.989C974.259,104.923,972.202,104.391,970.483,103.352C969.032,102.48,966.902,102.673,966.176,100.617C966.104,100.424,965.522,100.23,965.329,100.326C963.61,101.149,962.474,99.771,961.094,99.334C960.415,99.116,959.642,98.923,958.964,99.066C958.263,99.212,957.609,99.745,956.981,100.156C955.141,101.366,954.73,103.324,955.747,105.286C955.987,105.797,955.818,106.498,955.818,107.127Z" fill="rgb(250,169,70)" stroke="none" stroke-width="1"/><path id="ePCOgnVt5Hf59" d="M974.114,167.992C975.421,166.952,976.704,165.888,977.816,164.679C978.132,164.338,977.889,163.369,977.744,162.717C977.624,162.277,977.186,161.942,976.994,161.53C976.293,160.032,973.462,158.798,971.67,159.639C969.372,160.731,966.976,161.63,964.603,162.594C962.451,163.488,960.224,164.244,958.167,165.302C956.568,166.153,954.949,167.216,955.045,169.613C955.358,170.318,955.673,171.017,956.013,171.697C956.401,172.519,955.191,173.22,964.944,170.776C974.672,168.356,973.558,168.428,974.114,167.992Z" fill="rgb(250,169,70)" stroke="none" stroke-width="1"/><path id="ePCOgnVt5Hf60" d="M948.775,137.477C948.753,137.742,949.236,138.008,949.26,138.299C949.308,138.78,949.161,139.268,949.066,139.751C948.994,140.162,948.873,140.549,948.775,140.936C949.213,140.936,949.671,141.008,950.084,140.914C950.566,140.841,951.026,140.478,951.488,140.478C953.058,140.549,954.633,140.863,956.206,140.863C958.481,140.863,960.78,140.67,963.056,140.572L963.056,140.669L967.217,140.669C969.057,140.669,970.533,140.525,971.67,138.492C972.904,136.266,972.228,134.739,971.187,132.948C970.291,131.377,969.008,131.982,967.774,132.198C967.532,132.225,967.291,132.272,967.072,132.272C963.128,132.101,959.208,131.931,955.263,131.787C954.996,131.787,954.731,131.908,954.441,132.007C952.842,132.488,951.27,132.924,949.6,132.078C949.357,131.957,948.536,132.393,948.536,132.419C949.019,134.088,948.873,135.781,948.775,137.477Z" fill="rgb(250,169,70)" stroke="none" stroke-width="1"/><path id="ePCOgnVt5Hf61" d="M920.39,144.374C920.439,144.374,920.488,144.346,920.536,144.327L920.536,135.516L920.39,135.516L920.39,144.374Z" fill="rgb(250,169,70)" stroke="none" stroke-width="1"/><path id="ePCOgnVt5Hf62" d="M976.569,136.645C976.569,158.321,987.883,177.389,1004.906,188.293C1004.862,188.558,1004.874,188.818,1004.972,188.974C1005.116,189.267,1005.818,189.314,1006.301,189.338C1006.39,189.342,1006.485,189.333,1006.575,189.338C1015.745,194.807,1026.448,197.96,1037.879,197.96C1043.97,197.96,1049.851,197.052,1055.408,195.393C1055.429,195.397,1055.476,195.402,1055.476,195.412C1055.5,195.398,1055.576,195.356,1055.615,195.332C1060.253,193.928,1064.656,191.986,1068.761,189.579C1069.148,189.645,1069.536,189.721,1069.923,189.773C1069.796,189.56,1069.668,189.342,1069.545,189.13C1071.382,188.014,1073.149,186.81,1074.853,185.514C1074.962,185.717,1075.079,185.949,1075.221,186.242C1075.853,185.708,1076.431,185.249,1076.99,184.763C1076.79,184.616,1076.583,184.469,1076.379,184.319C1078.243,182.811,1080.016,181.194,1081.691,179.478C1081.801,179.596,1081.893,179.682,1081.928,179.682C1082.702,179.224,1083.719,178.736,1084.033,177.99C1084.236,177.489,1084.14,177.243,1083.91,177.083C1091.023,168.995,1096.038,159.032,1098.114,148.033C1098.334,147.967,1098.541,147.787,1098.72,147.399C1099.009,146.795,1098.827,146.397,1098.46,146.09C1098.939,143.013,1099.189,139.856,1099.189,136.646C1099.189,126.068,1096.496,116.104,1091.759,107.412C1091.991,107.056,1092.043,106.495,1092.186,106.041C1091.701,105.9,1091.228,105.77,1090.748,105.654C1090.03,104.434,1089.275,103.236,1088.477,102.071C1088.456,101.316,1088.087,100.828,1087.357,100.497C1076.193,85.258,1058.177,75.335,1037.878,75.335C1020.805,75.335,1005.345,82.356,994.219,93.657C994.153,93.638,994.098,93.643,994.031,93.624C993.959,93.624,993.86,93.818,993.716,93.965C993.762,94.005,993.772,94.041,993.814,94.083C983.15,105.118,976.569,120.12,976.569,136.645ZM1086.769,141.034C1087.518,143.427,1086.718,145.653,1086.381,147.932C1086.211,149.091,1085.776,150.23,1085.389,151.368C1085.267,151.728,1084.953,152.068,1084.71,152.409C1084.543,152.674,1084.179,152.938,1084.179,153.207C1084.201,156.667,1082.194,159.352,1080.719,162.235C1079.968,163.687,1076.433,168.72,1075.781,169.056C1074.474,169.685,1074.16,171.088,1073.289,171.982C1071.302,174.042,1069.174,175.957,1066.924,177.695C1064.891,179.317,1062.641,180.697,1060.388,182.007C1059.156,182.731,1057.704,183.118,1056.348,183.671C1054.944,184.257,1053.614,185.056,1052.162,185.443C1050.224,185.949,1042.31,187.258,1041.804,187.258C1039.53,187.258,1037.231,187.329,1034.931,187.23C1033.31,187.158,1031.713,186.847,1030.115,186.601C1029.946,186.578,1022.541,185.661,1021.718,185.443C1021.477,185.415,1021.211,185.466,1021.017,185.368C1018.235,184.016,1015.451,182.636,1012.717,181.208C1012.668,181.179,1012.619,181.156,1012.571,181.108C1012.014,180.72,1010.15,179.34,1008.287,177.937C1008.287,177.937,1008.285,177.937,1008.284,177.937C1007.971,177.695,1007.634,177.431,1007.298,177.213C1007.295,177.213,1007.295,177.213,1007.295,177.213L1007.295,177.19C1005.77,176.051,1004.367,174.987,1003.909,174.595C1003.86,174.553,1003.787,174.5,1003.738,174.453C1002.699,173.367,1001.681,172.298,1000.76,171.117C1000.544,170.847,1000.35,170.559,1000.156,170.265C998.51,168.063,994.808,162.864,994.18,162.065C994.131,162.041,994.154,161.966,994.154,161.919C994.034,161.697,993.888,161.483,993.793,161.267C992.703,159.21,990.041,153.766,989.557,151.851C989.533,151.78,989.51,151.704,989.51,151.633C989.383,151.217,989.214,150.783,989.23,150.362C989.214,150.783,989.383,151.217,989.51,151.633C989.461,151.269,989.389,150.687,989.316,149.94C989.024,147.521,988.662,143.575,988.347,141.783C988.226,141.131,987.621,136.725,987.646,135.88C987.815,131.644,988.179,127.456,989.51,123.391C989.848,122.278,990.26,121.165,990.574,120.05C991.01,118.504,992.195,117.824,993.453,117.074C996.284,115.38,999.068,113.565,1001.875,111.848C1002.286,111.629,1003.834,110.662,1003.666,110.298C1004.441,109.764,1005.263,109.235,1006.038,108.676C1006.375,108.435,1006.861,108.218,1006.981,107.877C1007.489,106.474,1012.111,102.432,1013.564,100.641C1014.265,99.795,1014.968,98.923,1015.596,98.003C1016.08,97.302,1016.492,97.084,1017.169,97.762C1018.306,98.85,1019.492,99.892,1020.607,100.981C1021.26,101.61,1022.71,103.739,1023.027,103.061C1024.454,104.271,1025.978,105.166,1026.97,106.474C1028.156,108.095,1029.801,108.847,1031.424,109.839C1034.255,111.554,1036.988,113.493,1039.82,115.235C1041.564,116.301,1043.404,117.194,1045.195,118.186C1046.474,118.888,1047.734,119.614,1049.042,120.269C1049.842,120.68,1050.688,120.947,1051.533,121.26C1053.228,121.864,1054.922,122.446,1056.567,123.125C1057.05,123.318,1073.603,126.464,1074.258,126.586C1077.838,127.262,1081.371,127.191,1084.931,126.487C1086.577,126.175,1086.697,126.537,1086.987,128.158C1087.448,130.722,1088.027,133.289,1087.787,135.927C1087.737,136.655,1087.423,137.354,1087.278,138.082C1087.06,139.074,1086.501,140.186,1086.769,141.034ZM1007.687,177.781C1007.682,177.781,1007.676,177.781,1007.672,177.777C1007.676,177.781,1007.682,177.781,1007.687,177.781Z" fill="rgb(250,169,70)" stroke="none" stroke-width="1"/><path id="ePCOgnVt5Hf63" d="M1016.828,150.116C1017.82,150.116,1018.76,149.922,1019.663,149.644L1026.533,149.644L1026.533,130.231L1007.125,130.231L1007.125,149.644L1013.983,149.644C1014.888,149.922,1015.831,150.116,1016.828,150.116Z" fill="rgb(250,169,70)" stroke="none" stroke-width="1"/><path id="ePCOgnVt5Hf64" d="M1046.237,129.742L1046.237,149.152L1055.919,149.152C1055.926,149.152,1055.936,149.152,1055.943,149.152C1055.95,149.152,1055.96,149.152,1055.966,149.152L1065.647,149.152L1065.647,129.742L1046.237,129.742Z" fill="rgb(250,169,70)" stroke="none" stroke-width="1"/><path id="ePCOgnVt5Hf65" d="M1019.771,167.667C1026.377,180.415,1041.933,179.654,1041.933,179.654C1041.933,179.654,1050.093,178.481,1054.029,173.887C1057.964,169.292,1058.402,163.479,1058.402,163.479L1016.897,154.915C1016.897,154.914,1013.164,154.914,1019.771,167.667Z" fill="rgb(250,169,70)" stroke="none" stroke-width="1"/><path id="ePCOgnVt5Hf66" d="M1099.892,196.962L1088.101,184.224C1088.101,184.224,1083.606,182.669,1082.219,183.623C1080.832,184.588,1081.713,187.886,1081.713,187.886L1094.837,203.664C1094.837,203.664,1098.325,204.018,1100.205,201.409C1102.08,198.801,1099.892,196.962,1099.892,196.962Z" fill="rgb(250,169,70)" stroke="none" stroke-width="1"/></g></g></svg>