<svg id="eXY4BHbUcOm1" xmlns="http://www.w3.org/2000/svg" xmlns:xlink="http://www.w3.org/1999/xlink" viewBox="20 -65 1160 710" shape-rendering="geometricPrecision" text-rendering="geometricPrecision"><defs><rect id="eXY4BHbUcOm2" width="50.212" height="50.212" rx="0" ry="0"/><rect id="eXY4BHbUcOm3" width="50.212" height="50.211" rx="0" ry="0"/><rect id="eXY4BHbUcOm4" width="62.793" height="62.793" rx="0" ry="0"/><rect id="eXY4BHbUcOm5" width="58.351" height="58.35" rx="0" ry="0"/><rect id="eXY4BHbUcOm6" width="54.526" height="54.529" rx="0" ry="0"/><rect id="eXY4BHbUcOm7" width="61.734" height="61.734" rx="0" ry="0"/><rect id="eXY4BHbUcOm8" width="63.248" height="63.249" rx="0" ry="0"/><rect id="eXY4BHbUcOm9" width="63.527" height="63.061" rx="0" ry="0"/><rect id="eXY4BHbUcOm10" width="63.542" height="63.543" rx="0" ry="0"/><rect id="eXY4BHbUcOm11" width="62.916" height="62.914" rx="0" ry="0"/><rect id="eXY4BHbUcOm12" width="50.873" height="50.872" rx="0" ry="0"/><rect id="eXY4BHbUcOm13" width="62.716" height="62.716" rx="0" ry="0"/><rect id="eXY4BHbUcOm14" width="62.523" height="62.523" rx="0" ry="0"/><rect id="eXY4BHbUcOm15" width="63.049" height="63.049" rx="0" ry="0"/></defs><g id="eXY4BHbUcOm16"><rect id="eXY4BHbUcOm17" width="1200" height="720" rx="0" ry="0" transform="matrix(1 0 0 1 0 -70)" fill="rgb(98,37,35)" stroke="none" stroke-width="1"/><g id="eXY4BHbUcOm18"><path id="eXY4BHbUcOm19" d="M1031.442,95.875C1033.022,95.661,1034.478,95.534,1035.908,95.261C1040.778,94.328,1045.621,93.212,1050.51,92.411C1056.196,91.478,1061.908,90.62,1067.644,90.061C1073.209,89.522,1078.816,89.075,1084.392,89.186C1090.659,89.309,1097.007,89.362,1103.094,91.284C1107.074,92.541,1110.866,94.256,1113.854,97.263C1118.146,101.579,1118.493,106.879,1116.537,112.184C1115.178,115.878,1113.263,119.506,1110.917,122.655C1107.836,126.79,1104.29,130.634,1100.568,134.213C1096.186,138.428,1091.541,142.402,1086.757,146.164C1081.614,150.21,1076.327,154.11,1070.841,157.665C1063.928,162.153,1056.752,166.24,1049.678,170.468C1047.739,171.628,1045.746,172.705,1043.775,173.81C1042.732,174.394,1042.563,175.027,1043.243,176.14C1048.22,184.286,1053.277,192.39,1058,200.683C1061.208,206.315,1064.09,212.161,1066.79,218.057C1068.787,222.409,1070.477,226.929,1071.894,231.501C1073.512,236.706,1074.825,242.023,1075.97,247.357C1076.458,249.619,1076.259,252.045,1076.242,254.396C1076.216,258.412,1075.323,262.212,1072.841,265.456C1070.715,268.239,1067.793,269.778,1064.364,270.271C1058.776,271.074,1053.352,270.293,1048.144,268.179C1043.206,266.173,1038.2,264.28,1033.442,261.909C1029.287,259.835,1025.355,257.281,1021.47,254.72C1016.079,251.168,1010.762,247.493,1005.537,243.699C1002.268,241.322,999.234,238.624,996.089,236.076C995.926,235.942,995.727,235.847,995.372,235.626C994.403,237.85,993.533,240.024,992.518,242.125C990.082,247.152,987.663,252.197,985.079,257.151C982.749,261.626,980.318,266.05,977.743,270.388C973.898,276.86,969.612,283.047,964.27,288.389C961.045,291.616,957.668,294.706,953.297,296.475C946.548,299.202,941.028,297.215,937.01,291.325C932.955,285.383,930.975,278.627,929.947,271.58C929.235,266.74,928.389,261.909,928.04,257.039C927.637,251.343,927.68,245.618,927.587,239.903C927.532,236.834,927.541,233.758,927.623,230.689C927.702,227.671,927.874,224.657,928.061,221.645C928.16,220.145,927.633,219.512,926.146,219.724C924.809,219.915,923.489,220.245,922.161,220.513C915.539,221.866,908.953,223.421,902.291,224.507C896.616,225.426,890.857,225.835,885.128,226.403C881.671,226.745,878.206,227.124,874.741,227.178C871.386,227.23,868.008,227.052,864.675,226.662C860.833,226.215,856.938,225.742,853.227,224.709C848.369,223.358,843.94,221.159,840.937,216.66C838.467,212.966,838.539,209.152,839.532,205.166C841.059,199.036,844.678,194.011,848.803,189.495C853.705,184.142,858.772,178.822,864.403,174.286C872.271,167.956,880.702,162.323,888.946,156.476C891.89,154.392,894.954,152.474,898.053,150.627C901.673,148.465,905.375,146.436,909.074,144.408C911.235,143.221,911.226,143.196,909.909,141.204C905.446,134.46,900.756,127.845,896.666,120.88C891.521,112.116,886.566,103.21,882.119,94.077C878.87,87.407,876.54,80.282,873.881,73.331C873.487,72.297,872.903,71.923,871.922,71.814C866.11,71.171,863.89,66.718,864.162,62.354C864.323,59.818,866.383,57.761,868.88,56.82C870.47,56.217,870.786,55.146,870.727,53.825C870.541,49.987,871.404,46.374,873.515,43.234C875.463,40.334,878.42,38.543,881.836,37.806C885.159,37.087,888.569,36.951,891.881,37.916C896.582,39.286,901.351,40.515,905.897,42.303C909.58,43.756,913.031,45.843,916.474,47.84C920.888,50.399,925.357,52.911,929.495,55.875C936.635,60.991,943.57,66.394,950.521,71.766C953.184,73.827,955.68,76.114,958.214,78.34C959.017,79.049,959.429,79.164,959.881,77.988C962.124,72.124,964.271,66.216,966.778,60.464C969.081,55.175,971.752,50.046,974.335,44.883C976.338,40.879,978.239,36.806,980.569,32.996C983.78,27.741,987.373,22.717,990.757,17.569C993.343,13.627,996.578,10.271,1000.069,7.156C1003.934,3.703,1008.258,0.968,1013.587,0.801C1015.429,0.742,1017.508,1.457,1019.134,2.404C1024.748,5.687,1027.002,11.398,1028.937,17.153C1031.422,24.553,1032.458,32.252,1033.012,40.01C1033.321,44.324,1033.725,48.643,1033.757,52.959C1033.798,58.611,1033.605,64.268,1033.345,69.914C1033.111,75.024,1032.666,80.123,1032.292,85.227C1032.043,88.62,1031.751,92.009,1031.442,95.875M888.601,42.272C888.58,42.378,888.549,42.485,888.525,42.591C887.24,42.764,885.917,42.797,884.678,43.141C879.609,44.549,875.544,50.243,875.865,55.509C875.903,56.107,876.46,56.874,876.998,57.213C881.639,60.13,882.315,65.885,878.507,69.798C878.048,70.27,877.8,71.333,877.978,71.978C880.209,79.992,883.21,87.757,887.036,95.12C891.515,103.739,896.301,112.221,901.337,120.53C905.29,127.051,909.85,133.196,914.072,139.552C914.776,140.611,915.366,140.709,916.419,140.15C920.468,138.009,924.514,135.872,928.619,133.85C933.279,131.556,938.02,129.419,942.678,127.117C943.44,126.741,944.282,125.974,944.528,125.209C945.704,121.557,946.596,117.814,947.751,114.154C950.888,104.239,954.089,94.347,957.314,84.46C957.627,83.484,957.679,82.756,956.841,82.052C951.614,77.651,946.556,73.034,941.141,68.876C935.294,64.39,929.122,60.327,923.085,56.087C918.087,52.577,912.748,49.674,907.106,47.339C904.449,46.235,901.808,45.009,899.042,44.278C895.626,43.373,892.088,42.917,888.601,42.272M1106.236,109C1106.386,108.955,1106.539,108.907,1106.689,108.86C1106.102,106.908,1105.922,104.684,1104.847,103.048C1101.896,98.548,1097.094,96.998,1092.098,95.88C1086.727,94.674,1081.297,94.195,1075.819,94.554C1069.351,94.975,1062.839,95.179,1056.446,96.135C1048.535,97.314,1040.734,99.214,1032.869,100.691C1031.199,101.004,1030.717,101.808,1030.49,103.373C1029.393,110.925,1028.272,118.473,1026.966,125.989C1025.822,132.548,1024.385,139.06,1023.171,145.609C1023.024,146.393,1023.19,147.464,1023.643,148.091C1027.997,154.145,1032.439,160.142,1036.872,166.136C1038.885,168.859,1038.935,168.894,1041.908,167.205C1056.326,159.037,1070.502,150.508,1083.305,139.878C1090.977,133.511,1098.311,126.853,1103.336,118.079C1104.94,115.271,1106.188,112.319,1106.236,109M1023.571,63.069C1022.564,54.872,1022.144,47.547,1019.878,40.493C1018.568,36.411,1017.032,32.499,1013.826,29.505C1011.464,27.3,1008.714,26.381,1005.437,26.988C1001.145,27.783,997.966,30.419,994.993,33.271C989.33,38.696,985.134,45.272,981.156,51.953C978.823,55.867,976.771,59.962,974.815,64.08C971.866,70.288,969.143,76.604,966.246,82.836C965.635,84.152,965.924,84.92,966.926,85.901C974.273,93.083,981.541,100.347,988.874,107.544C989.237,107.899,990.063,108.117,990.538,107.968C993.872,106.904,997.151,105.657,1000.496,104.628C1001.53,104.309,1001.615,103.853,1001.596,102.94C1001.572,101.847,1001.52,100.587,1002.008,99.688C1003.402,97.129,1005.429,95.178,1008.501,94.773C1012.053,94.306,1014.991,95.45,1017.026,98.444C1017.621,99.321,1018.106,99.606,1019.084,99.168C1019.689,98.894,1020.459,98.925,1021.013,98.584C1021.583,98.232,1022.257,97.665,1022.399,97.076C1022.702,95.832,1022.723,94.514,1022.789,93.223C1023.065,87.94,1023.411,82.657,1023.545,77.371C1023.673,72.301,1023.571,67.223,1023.571,63.069M904.163,214.077L904.163,213.921C904.779,213.921,905.409,213.995,906.013,213.91C911.262,213.143,916.505,212.38,921.739,211.54C923.152,211.313,924.554,211.081,925.487,209.595C926.24,208.394,927.495,207.527,928.456,206.444C928.897,205.947,929.384,205.331,929.471,204.712C929.834,202.155,929.959,199.559,930.341,197.005C931.451,189.63,932.685,182.272,933.754,174.887C933.88,174.009,933.568,172.844,933.039,172.126C931.151,169.589,929.02,167.234,927.102,164.722C923.362,159.83,919.725,154.859,915.971,149.983C915.676,149.6,914.574,149.354,914.202,149.591C908.037,153.569,901.838,157.5,895.836,161.718C888.298,167.022,881.126,172.814,874.815,179.563C870.769,183.887,866.886,188.359,864.647,193.987C863.61,196.6,862.878,199.274,863.315,202.051C864.057,206.766,867.271,209.636,871.396,211.327C877.256,213.735,883.499,214.587,889.806,214.598C894.589,214.603,899.377,214.262,904.163,214.077M933.616,246.176L933.78,246.176C933.78,246.515,933.747,246.859,933.788,247.192C934.632,254.004,934.801,260.887,936.667,267.58C937.851,271.814,939.253,275.882,941.807,279.483C945.092,284.102,949.997,285.245,955.082,282.756C960.162,280.271,963.832,276.194,967.22,271.911C970.102,268.272,972.688,264.368,975.097,260.395C977.659,256.164,979.94,251.752,982.196,247.346C984.376,243.084,986.313,238.702,988.468,234.428C989.922,231.535,989.864,230.848,987.333,228.822C987.114,228.641,986.883,228.48,986.678,228.287C980.062,221.974,973.438,215.672,966.852,209.329C966.009,208.516,965.259,208.267,964.14,208.731C962.525,209.396,960.861,209.939,959.189,210.455C953.309,212.272,947.411,214.029,941.545,215.888C940.778,216.133,940.123,216.802,939.477,217.347C937.998,218.602,936.537,219.876,935.107,221.186C934.698,221.563,934.17,222.07,934.125,222.558C933.88,225.142,933.675,227.734,933.64,230.331C933.57,235.61,933.616,240.892,933.616,246.176M1058.825,233.608C1058.574,231.807,1058.476,229.182,1057.813,226.708C1056.217,220.777,1054.542,214.854,1052.537,209.054C1051.268,205.39,1049.462,201.899,1047.686,198.436C1044.371,191.957,1040.904,185.554,1037.498,179.121C1036.972,178.12,1036.309,178.008,1035.269,178.521C1028.08,182.067,1020.872,185.582,1013.639,189.041C1012.245,189.707,1011.438,190.602,1011.047,192.113C1010.324,194.901,1009.538,197.681,1008.575,200.398C1005.481,209.118,1002.322,217.815,999.111,226.499C998.682,227.653,998.917,228.268,999.855,228.895C1005.044,232.374,1010.086,236.095,1015.433,239.314C1019.711,241.887,1024.308,243.944,1028.837,246.075C1034.46,248.724,1040.339,250.481,1046.647,250.127C1050.404,249.917,1053.683,248.632,1055.94,245.385C1058.25,242.06,1058.559,238.267,1058.825,233.608M1015.311,146.598C1015.025,146.134,1014.651,145.393,1014.154,144.748C1011.874,141.797,1009.626,138.82,1007.244,135.954C1001.572,129.135,995.818,122.385,990.136,115.579C989.284,114.556,988.463,114.329,987.202,114.838C983.375,116.371,979.454,117.674,975.659,119.28C967.494,122.739,959.377,126.306,951.277,129.907C950.631,130.198,949.96,131.038,949.796,131.737C946.681,145.113,943.63,158.502,940.618,171.901C940.504,172.403,940.727,173.164,941.071,173.557C944.814,177.778,948.535,182.034,952.421,186.126C956.423,190.344,960.633,194.374,964.692,198.542C965.589,199.459,966.399,199.789,967.655,199.328C973.479,197.189,979.367,195.197,985.167,192.985C991.707,190.486,998.187,187.831,1004.666,185.182C1005.212,184.961,1005.755,184.355,1005.976,183.799C1006.54,182.391,1006.988,180.924,1007.365,179.456C1009.056,172.824,1010.742,166.189,1012.36,159.54C1013.379,155.362,1014.273,151.157,1015.311,146.598M964.473,88.858C964.249,88.946,964.02,89.039,963.791,89.128C959.835,100.052,955.562,110.869,952.542,122.558C963.499,118.227,974.057,114.051,985.017,109.718C978.026,102.619,971.25,95.738,964.473,88.858M1016.645,139.054C1018.872,127.192,1020.931,115.657,1021.678,103.874C1019.275,103.994,1018.811,104.285,1017.982,105.985C1016.015,110.03,1010.64,112.239,1006.955,110.181C1004.938,109.053,1003.209,108.96,1001.236,109.856C1000.726,110.088,1000.159,110.197,999.627,110.391C997.698,111.08,995.77,111.778,993.759,112.508C1001.416,121.39,1008.902,130.073,1016.645,139.054M1003.143,194.622C1002.965,194.477,1002.789,194.327,1002.611,194.183C992.716,198.106,982.821,202.021,972.588,206.076C979.231,212.302,985.757,218.007,992.948,223.525C996.434,213.64,999.787,204.132,1003.143,194.622M959.344,201.979C952.507,194.4,945.953,187.122,939.157,179.589C938.936,180.44,938.784,180.855,938.723,181.283C937.744,188.663,936.819,196.045,935.783,203.411C935.335,206.595,937.021,208.246,940.202,207.419C944.022,206.423,947.831,205.378,951.628,204.309C954.111,203.611,956.572,202.82,959.344,201.979M919.206,146.891C924.428,153.441,929.595,159.921,934.763,166.398C934.915,166.343,935.071,166.283,935.224,166.226C937.518,155.755,939.81,145.284,942.113,134.794C940.372,134.778,921.874,144.516,919.206,146.891M1014.483,180.623C1015.201,180.448,1015.719,180.418,1016.148,180.208C1021.271,177.717,1026.373,175.188,1031.497,172.703C1032.653,172.141,1032.768,171.519,1032.054,170.463C1028.791,165.653,1025.591,160.799,1022.347,155.982C1022.096,155.608,1021.695,155.333,1021.22,154.882C1018.95,163.555,1016.757,171.934,1014.483,180.623" fill="rgb(114,42,42)" stroke="none" stroke-width="1"/><path id="eXY4BHbUcOm20" d="M973.997,167.252C972.723,167.901,971.591,168.717,970.333,169.083C962.921,171.238,955.071,167.7,954.111,158.754C953.964,157.365,954.697,155.9,954.864,154.452C954.946,153.712,954.831,152.859,954.528,152.182C953.652,150.246,952.179,148.47,951.761,146.461C950.471,140.253,954.648,135.691,959.976,134.409C961.867,133.956,963.978,134.278,965.973,134.443C966.84,134.512,967.228,134.406,967.413,133.556C969.042,126.12,977.272,123.298,983.351,126.008C987.148,127.698,989.931,130.612,990.412,135.056C990.52,136.079,990.878,136.514,991.877,136.744C996.49,137.797,999.508,140.639,1001.082,145.095C1001.952,147.558,1001.284,152.938,998.618,154.896C998.256,155.161,997.964,155.535,997.584,155.767C995.582,156.984,995.246,158.372,995.637,160.896C996.501,166.511,992.895,171.7,986.574,172.666C981.344,173.467,977.036,171.669,973.997,167.252" fill="rgb(114,42,42)" stroke="none" stroke-width="1"/></g><g id="eXY4BHbUcOm21"><path id="eXY4BHbUcOm22" d="M528.473,6.717C529.911,9.179,529.201,11.874,529.263,14.474C529.307,16.335,529.317,16.398,531.139,16.92C535.02,18.027,538.934,19.057,542.729,20.409C546.833,21.87,550.737,23.807,554.603,25.862C559.519,28.476,564.137,31.528,568.412,35.022C573.757,39.391,578.83,44.104,582.924,49.747C584.47,51.879,586.236,53.859,587.669,56.059C589.379,58.682,590.876,61.447,592.397,64.19C593.486,66.149,594.647,68.097,595.446,70.176C596.974,74.148,598.311,78.195,599.64,82.239C600.195,83.929,600.533,85.69,600.961,87.417C602.374,93.131,603.244,98.911,603.136,104.815C603.062,108.855,603.235,112.913,602.873,116.929C602.521,120.809,601.685,124.655,600.948,128.492C600.504,130.81,599.844,133.09,599.277,135.382C599.005,136.483,599.348,137.211,600.405,137.747C602.062,138.583,603.672,139.522,605.267,140.476C606.064,140.95,606.375,141.664,605.855,142.559C604.741,144.465,603.613,146.367,602.51,148.28C601.173,150.6,599.868,152.935,598.529,155.248C596.666,158.46,594.775,161.66,592.91,164.874C591.222,167.782,589.531,170.696,587.884,173.628C587.335,174.603,586.807,174.858,585.765,174.185C583.977,173.027,582.077,172.047,580.247,170.956C579.573,170.555,579.104,170.74,578.599,171.234C575.936,173.83,573.384,176.563,570.55,178.963C567.599,181.464,564.428,183.719,561.246,185.931C558.898,187.566,556.447,189.084,553.92,190.424C551.083,191.924,548.161,193.302,545.185,194.501C540.471,196.396,535.627,197.949,530.64,198.962C527.418,199.619,524.174,200.252,520.909,200.593C517.172,200.985,513.401,201.147,509.642,201.222C503.889,201.338,498.174,200.836,492.53,199.665C490.024,199.144,487.476,198.767,485.018,198.075C482.158,197.265,479.352,196.249,476.57,195.195C474.108,194.265,471.64,193.304,469.308,192.098C465.942,190.356,462.61,188.516,459.423,186.47C456.264,184.439,453.171,182.261,450.293,179.858C447.232,177.303,444.418,174.445,441.579,171.637C440.548,170.618,440.384,170.495,439.157,171.232C437.33,172.326,435.458,173.352,433.618,174.431C433.014,174.784,432.569,174.621,432.242,174.078C431.046,172.088,429.862,170.093,428.688,168.09C427.671,166.354,426.679,164.603,425.665,162.869C424.806,161.398,423.912,159.952,423.062,158.475C421.501,155.752,419.97,153.013,418.406,150.292C417,147.839,415.547,145.407,414.149,142.946C413.396,141.623,413.638,140.96,414.986,140.216C416.58,139.339,418.157,138.435,419.752,137.56C420.696,137.041,420.722,136.225,420.511,135.342C419.966,133.08,419.323,130.834,418.86,128.559C418.25,125.561,417.704,122.55,417.25,119.526C416.207,112.571,416.559,105.565,416.923,98.594C417.107,95.054,417.942,91.53,418.705,88.047C419.442,84.681,420.391,81.357,421.388,78.056C421.97,76.137,422.81,74.291,423.569,72.427C424.355,70.492,425.072,68.52,426.017,66.665C427.369,64.017,428.749,61.357,430.392,58.888C432.883,55.149,435.396,51.388,438.294,47.974C441.296,44.439,444.682,41.213,448.069,38.031C450.465,35.78,453.035,33.673,455.724,31.781C458.655,29.719,461.792,27.947,464.876,26.114C466.634,25.069,468.456,24.13,470.274,23.19C471.339,22.641,472.424,22.109,473.546,21.696C476.199,20.72,478.858,19.754,481.553,18.909C484.143,18.097,486.777,17.43,489.4,16.728C490.208,16.512,490.58,16.04,490.538,15.218C490.531,15.101,490.528,14.986,490.531,14.869C490.636,12.143,490.086,9.366,491.156,6.715L528.473,6.715ZM515.33,194.593C515.337,194.636,515.347,194.683,515.354,194.728C517.437,194.55,519.521,194.375,521.605,194.202C522.57,194.123,523.548,194.125,524.499,193.965C526.205,193.672,527.896,193.291,529.591,192.939C529.931,192.868,530.265,192.774,530.599,192.683C531.745,192.368,532.891,192.056,534.034,191.729C534.477,191.6,534.908,191.44,535.345,191.292C536.105,191.034,536.861,190.769,537.622,190.519C538.023,190.388,538.447,190.317,538.837,190.161C540.403,189.534,541.966,188.893,543.521,188.24C544.471,187.839,545.405,187.402,546.345,186.976C547.465,186.474,548.618,186.032,549.695,185.447C551.547,184.437,553.38,183.386,555.164,182.266C557.413,180.849,559.674,179.436,561.806,177.853C564.197,176.076,566.515,174.188,568.743,172.212C570.564,170.592,572.207,168.772,573.925,167.036C574.478,166.476,574.552,166.019,573.699,165.623C572.862,165.233,572.071,164.744,571.274,164.272C568.817,162.823,566.376,161.347,563.912,159.904C561.291,158.37,558.663,156.844,556.021,155.347C555.191,154.875,554.331,154.281,553.35,155.103C551.661,156.518,550.016,157.989,548.254,159.308C546.346,160.736,544.353,162.056,542.348,163.346C541.028,164.192,539.641,164.944,538.244,165.657C537.158,166.213,536.027,166.704,534.881,167.117C533.343,167.669,531.768,168.116,530.211,168.617C530.103,168.651,530.017,168.75,529.908,168.789C529.124,169.071,528.344,169.368,527.549,169.614C527.071,169.763,526.566,169.819,526.076,169.927C524.73,170.229,523.388,170.541,522.04,170.84C521.59,170.939,521.129,170.987,520.681,171.094C519.673,171.333,518.676,171.776,517.664,171.809C513.431,171.94,509.195,172.015,504.962,171.985C502.886,171.968,500.749,172.074,498.823,170.981C498.573,170.841,498.215,170.902,497.913,170.843C495.462,170.343,493.014,169.843,490.567,169.329C490.384,169.288,490.229,169.137,490.051,169.062C488.575,168.45,487.106,167.826,485.622,167.233C484.274,166.697,482.851,166.318,481.576,165.646C479.785,164.705,478.14,163.482,476.364,162.514C472.839,160.594,469.769,158.072,466.812,155.408C466.024,154.7,465.291,154.531,464.399,155.01C462.744,155.905,461.081,156.787,459.46,157.743C457.101,159.136,454.793,160.61,452.434,162.006C450.278,163.281,448.091,164.502,445.907,165.728C445.345,166.043,445.331,166.4,445.723,166.843C446.006,167.162,446.274,167.5,446.58,167.793C448.472,169.623,450.283,171.553,452.291,173.242C455.017,175.527,457.867,177.668,460.725,179.792C462.082,180.8,463.561,181.644,465.02,182.51C466.866,183.606,468.705,184.728,470.623,185.685C472.677,186.711,474.818,187.57,476.93,188.483C478.442,189.136,479.93,189.874,481.495,190.374C483.5,191.014,485.572,191.442,487.605,191.987C488.05,192.108,488.457,192.353,488.893,192.508C489.362,192.675,489.837,192.837,490.323,192.941C491.941,193.288,493.562,193.623,495.184,193.941C495.716,194.045,496.255,194.108,496.794,194.152C498.722,194.322,500.653,194.469,502.584,194.637C505.354,194.876,508.12,195.255,510.895,195.322C512.366,195.354,513.85,194.853,515.33,194.593M423.146,107.972L423.093,107.972C423.093,110.42,422.92,112.884,423.134,115.313C423.447,118.848,424.038,122.359,424.516,125.88C424.542,126.068,424.629,126.252,424.679,126.438C425.356,128.986,426.042,131.532,426.697,134.084C426.861,134.713,427.126,135.004,427.753,134.631C428.51,134.177,429.248,133.697,430.001,133.244C431.714,132.206,433.415,131.142,435.155,130.151C436.826,129.195,438.55,128.333,440.228,127.39C442.31,126.218,444.384,125.029,446.433,123.804C447.184,123.35,447.759,122.796,447.414,121.71C446.998,120.403,446.68,119.056,446.473,117.702C446.167,115.699,445.906,113.681,445.791,111.658C445.656,109.273,445.588,106.873,445.7,104.489C445.787,102.607,446.153,100.731,446.46,98.864C446.931,96.021,447.454,93.188,447.964,90.352C447.997,90.166,448.119,89.998,448.188,89.817C448.82,88.178,449.436,86.536,450.081,84.904C450.671,83.412,451.203,81.886,451.916,80.452C452.814,78.639,453.837,76.882,454.867,75.137C455.867,73.446,456.778,71.664,458.022,70.169C460.469,67.234,463.103,64.456,465.689,61.641C469.576,57.407,474.377,54.376,479.252,51.456C480.076,50.965,480.924,50.498,481.802,50.119C483.102,49.555,484.44,49.085,485.76,48.563C487.577,47.846,489.41,47.16,491.192,46.359C491.563,46.194,491.943,45.604,491.966,45.191C492.033,44.035,491.875,42.867,491.878,41.702C491.903,35.836,491.945,29.969,491.999,24.102C492.006,23.242,491.621,22.795,490.802,22.973C488.657,23.439,486.503,23.898,484.403,24.531C482.682,25.047,481.033,25.795,479.359,26.462C477.006,27.398,474.619,28.262,472.324,29.327C470.274,30.278,468.297,31.408,466.344,32.552C464.117,33.855,461.825,35.095,459.783,36.656C456.5,39.164,453.268,41.777,450.251,44.598C447.344,47.316,444.702,50.327,442.018,53.276C441.062,54.325,440.311,55.566,439.492,56.738C438.096,58.73,436.634,60.685,435.363,62.753C434.26,64.546,433.324,66.448,432.422,68.354C431.231,70.875,430.149,73.445,429.012,75.991C428.855,76.343,428.633,76.664,428.467,77.01C428.266,77.421,428.046,77.831,427.916,78.262C427.385,80.025,426.888,81.796,426.368,83.56C425.731,85.728,424.854,87.857,424.504,90.069C424.124,92.473,424.187,94.947,423.245,97.257C423.132,97.532,423.155,97.873,423.155,98.183C423.144,101.445,423.146,104.709,423.146,107.972M596.643,108.013C596.643,104.672,596.651,101.33,596.634,97.989C596.632,97.568,596.524,97.146,596.45,96.725C596.12,94.825,595.786,92.927,595.448,91.031C595.34,90.425,595.243,89.814,595.09,89.219C594.834,88.217,594.529,87.229,594.261,86.233C593.78,84.451,593.395,82.637,592.807,80.893C592.249,79.237,591.472,77.656,590.806,76.038C589.862,73.738,589.029,71.383,587.959,69.142C586.888,66.894,585.71,64.677,584.355,62.592C582.337,59.484,580.22,56.425,577.959,53.491C576.333,51.383,574.474,49.437,572.582,47.554C570.227,45.209,567.776,42.954,565.282,40.758C563.628,39.301,561.868,37.951,560.072,36.669C558.571,35.597,556.965,34.664,555.376,33.718C553.793,32.777,552.191,31.865,550.569,30.994C549.251,30.287,547.899,29.643,546.549,28.998C545.338,28.419,544.121,27.847,542.887,27.322C541.402,26.687,539.925,26.012,538.393,25.527C536.417,24.9,534.391,24.447,532.388,23.911C532.203,23.86,532.037,23.736,531.852,23.687C530.924,23.438,530.002,23.144,529.06,22.978C528.078,22.803,527.798,23.352,527.808,24.286C527.873,30.929,527.925,37.573,527.918,44.216C527.916,46.03,527.819,46.029,529.456,46.583C529.674,46.656,529.876,46.778,530.091,46.868C531.614,47.499,533.135,48.132,534.66,48.756C535.973,49.296,537.342,49.724,538.586,50.383C540.521,51.408,542.42,52.509,544.242,53.72C546.297,55.087,548.303,56.543,550.226,58.088C551.854,59.392,553.405,60.81,554.869,62.295C556.714,64.169,558.484,66.118,560.19,68.118C561.318,69.439,562.307,70.884,563.293,72.315C564.186,73.613,565.04,74.941,565.819,76.31C566.44,77.404,566.925,78.575,567.466,79.715C567.947,80.724,568.451,81.723,568.895,82.75C569.555,84.289,570.289,85.812,570.776,87.41C571.411,89.491,571.831,91.638,572.348,93.756C572.373,93.866,572.457,93.964,572.488,94.075C572.772,95.148,573.147,96.211,573.307,97.305C573.677,99.827,574.118,102.361,574.202,104.9C574.299,107.901,574.099,110.915,573.93,113.921C573.855,115.255,573.57,116.581,573.336,117.906C573.131,119.073,572.996,120.281,572.583,121.378C572.187,122.442,572.216,123.126,573.246,123.732C574.174,124.279,575.159,124.727,576.1,125.255C577.778,126.199,579.445,127.163,581.11,128.13C582.941,129.194,584.765,130.263,586.589,131.34C588.344,132.376,590.091,133.427,591.849,134.456C592.102,134.603,592.508,134.824,592.652,134.727C592.889,134.57,593.006,134.189,593.11,133.885C593.381,133.099,593.62,132.304,593.868,131.512C593.995,131.107,594.157,130.709,594.232,130.295C594.808,127.103,595.365,123.911,595.939,120.723C596.008,120.346,596.205,119.991,596.296,119.616C596.434,119.056,596.626,118.485,596.63,117.917C596.659,114.617,596.645,111.313,596.643,108.013M524.235,41.594L524.228,41.594C524.228,38.835,524.243,36.077,524.225,33.319C524.18,26.795,524.103,20.269,524.078,13.745C524.07,12.214,524.1,12.169,522.564,12.169C514.095,12.165,505.626,12.167,497.156,12.167C496.961,12.167,496.766,12.174,496.573,12.172C495.933,12.165,495.686,12.491,495.685,13.117C495.677,15.599,495.635,18.082,495.63,20.566C495.609,29.89,495.589,39.214,495.578,48.536C495.57,55.569,495.585,62.599,495.565,69.631C495.561,70.776,496.132,71.419,497.099,71.856C498.222,72.364,499.351,72.865,500.449,73.425C503.22,74.844,505.941,76.369,508.764,77.675C509.458,77.996,510.568,77.872,511.306,77.546C513.557,76.563,515.721,75.379,517.918,74.272C519.673,73.389,521.481,72.59,523.154,71.569C523.697,71.238,524.186,70.327,524.192,69.677C524.256,60.316,524.235,50.954,524.235,41.594M484.014,124.868C484.052,124.865,484.091,124.859,484.129,124.855C484.129,124.622,484.091,124.38,484.134,124.157C484.341,123.106,483.963,122.516,482.995,121.935C480.824,120.63,478.796,119.098,476.683,117.69C474.854,116.475,473.007,115.282,471.128,114.144C470.849,113.976,470.281,114.036,469.968,114.211C468.024,115.29,466.118,116.445,464.188,117.556C462.559,118.493,460.906,119.391,459.285,120.343C456.925,121.728,454.592,123.167,452.226,124.545C450.463,125.573,448.653,126.52,446.887,127.546C445.157,128.552,443.475,129.639,441.739,130.639C439.302,132.037,436.82,133.362,434.39,134.773C431.994,136.162,429.634,137.62,427.263,139.051C425.193,140.302,423.13,141.569,421.056,142.816C420.268,143.29,420.425,143.837,420.834,144.479C421.616,145.702,422.36,146.945,423.115,148.181C424.189,149.939,425.286,151.685,426.324,153.464C427.62,155.678,428.879,157.912,430.124,160.154C430.781,161.338,431.345,162.577,432.008,163.757C432.533,164.694,433.199,165.558,433.708,166.505C434.38,167.759,434.943,167.871,436.15,167.027C437.117,166.349,438.144,165.75,439.189,165.201C440.303,164.617,441.52,164.212,442.61,163.592C445.145,162.143,447.622,160.6,450.139,159.121C451.767,158.162,453.438,157.275,455.069,156.317C456.798,155.305,458.483,154.21,460.222,153.214C462.695,151.807,465.219,150.491,467.683,149.07C470.081,147.687,472.411,146.184,474.809,144.799C477.943,142.988,481.145,141.286,484.249,139.423C484.769,139.111,485.236,138.236,485.231,137.626C485.222,136.22,484.9,134.816,484.723,133.413C484.669,132.993,484.656,132.569,484.645,132.147C484.618,131.18,484.66,130.204,484.57,129.243C484.432,127.784,484.204,126.33,484.014,124.868M534.362,136.395C534.459,137.748,534.383,138.958,535.913,139.68C537.69,140.52,539.374,141.558,541.078,142.543C542.878,143.583,544.641,144.678,546.433,145.728C548.158,146.74,549.898,147.72,551.629,148.718C553.463,149.771,555.29,150.827,557.125,151.88C558.797,152.839,560.478,153.788,562.149,154.747C564.02,155.82,565.888,156.897,567.755,157.976C569.421,158.935,571.094,159.887,572.748,160.869C574.401,161.855,576.009,162.915,577.681,163.865C579.733,165.03,581.846,166.084,583.903,167.238C584.863,167.779,585.512,167.604,586.039,166.628C587.278,164.317,588.521,162.004,589.852,159.746C591.247,157.381,592.789,155.103,594.187,152.737C595.14,151.122,595.922,149.401,596.85,147.768C597.489,146.641,598.298,145.608,598.92,144.472C599.131,144.088,599.217,143.341,598.989,143.068C598.539,142.521,597.854,142.15,597.226,141.773C595.516,140.745,593.784,139.748,592.061,138.74C590.238,137.669,588.415,136.594,586.588,135.528C584.923,134.561,583.248,133.607,581.583,132.64C579.756,131.576,577.941,130.488,576.106,129.435C574.469,128.494,572.802,127.607,571.168,126.661C569.435,125.655,567.739,124.583,566.001,123.587C563.596,122.211,561.147,120.91,558.751,119.512C556.362,118.121,554.023,116.646,551.654,115.217C551.031,114.84,550.423,114.4,549.745,114.168C549.356,114.032,548.776,114.14,548.402,114.349C547.433,114.892,546.542,115.576,545.599,116.167C544.031,117.154,542.429,118.08,540.878,119.092C539.302,120.121,537.759,121.201,536.232,122.303C535.956,122.503,535.673,122.896,535.655,123.214C535.478,126.339,535.357,129.467,535.209,132.592C535.196,132.898,535.118,133.206,535.047,133.507C534.827,134.47,534.592,135.432,534.362,136.395M509.905,169.778C509.907,169.875,509.909,169.97,509.911,170.068C511.833,169.901,513.764,169.784,515.679,169.554C517.06,169.388,518.415,169.035,519.791,168.832C520.939,168.664,522.141,168.746,523.25,168.453C525.578,167.831,527.868,167.06,530.158,166.306C531.683,165.8,533.229,165.317,534.678,164.639C536.722,163.68,538.707,162.587,540.675,161.475C542.32,160.543,543.957,159.59,545.486,158.492C547.462,157.073,549.322,155.498,551.235,153.992C552.049,153.353,551.965,152.954,551.073,152.484C549.372,151.59,547.704,150.63,546.039,149.667C544.307,148.663,542.602,147.612,540.872,146.604C539.074,145.557,537.23,144.59,535.468,143.487C534.817,143.082,534.44,143.154,533.822,143.533C531.988,144.655,530.115,145.719,528.2,146.699C527.076,147.274,525.852,147.655,524.661,148.088C522.824,148.753,521.015,149.546,519.126,149.994C517.146,150.461,515.092,150.651,513.06,150.836C508.823,151.219,504.657,150.349,500.464,149.983C500.235,149.961,500.005,149.892,499.789,149.812C498.101,149.188,496.454,148.414,494.724,147.958C491.441,147.099,488.68,145.287,485.902,143.481C485.319,143.1,484.941,143.102,484.352,143.483C482.732,144.525,481.061,145.49,479.385,146.441C477.676,147.412,475.925,148.306,474.215,149.274C472.345,150.333,470.516,151.467,468.637,152.517C467.941,152.903,467.758,153.32,468.375,153.837C469.977,155.179,471.529,156.609,473.267,157.751C476.054,159.59,478.925,161.318,481.855,162.92C484.066,164.129,486.373,165.207,488.732,166.091C490.628,166.802,492.662,167.138,494.635,167.64C494.86,167.696,495.137,167.681,495.307,167.808C496.831,168.956,498.648,168.601,500.351,168.831C500.774,168.889,501.199,168.93,501.615,169.023C504.34,169.636,507.059,170.319,509.905,169.778M491.948,58.728L491.939,58.728C491.939,55.932,491.914,53.133,491.948,50.336C491.969,48.654,491.959,48.626,490.412,49.382C490.204,49.484,489.978,49.544,489.758,49.621C488.231,50.135,486.688,50.611,485.18,51.175C484.211,51.536,483.254,51.963,482.353,52.473C480.591,53.474,478.815,54.473,477.146,55.619C474.476,57.454,471.752,59.25,469.3,61.355C465.359,64.736,461.787,68.513,459.004,72.935C457.374,75.527,455.913,78.226,454.421,80.902C453.878,81.873,453.442,82.903,452.997,83.922C452.335,85.434,451.559,86.915,451.106,88.488C450.47,90.698,450.097,92.982,449.587,95.226C449.468,95.754,449.224,96.251,449.072,96.772C448.908,97.328,448.678,97.892,448.663,98.459C448.526,103.222,448.001,107.978,448.42,112.748C448.655,115.399,448.485,118.092,449.503,120.644C449.878,121.581,450.159,121.714,450.999,121.124C451.913,120.483,452.866,119.897,453.832,119.337C456.565,117.752,459.306,116.182,462.056,114.629C463.095,114.045,464.148,113.483,465.22,112.969C466.67,112.271,467.046,111.541,467.093,110.044C467.214,106.164,466.418,102.188,468.166,98.454C468.277,98.219,468.229,97.915,468.297,97.653C468.782,95.843,469.104,93.961,469.82,92.244C470.686,90.165,471.879,88.226,472.949,86.236C474.478,83.389,476.342,80.767,478.691,78.563C481.058,76.343,483.546,74.245,486.087,72.225C487.406,71.176,488.865,70.188,490.419,69.586C491.694,69.092,491.957,68.368,491.954,67.235C491.942,64.4,491.948,61.564,491.948,58.728M552.853,106.827C552.793,106.831,552.734,106.833,552.674,106.834C552.674,108.117,552.618,109.401,552.704,110.676C552.735,111.144,552.985,111.738,553.34,112.012C554.061,112.57,554.929,112.932,555.717,113.405C557.434,114.437,559.125,115.512,560.85,116.53C563.57,118.134,566.299,119.724,569.054,121.262C569.302,121.402,570.052,121.206,570.119,121.014C570.541,119.776,570.958,118.516,571.146,117.226C571.351,115.813,571.31,114.361,571.377,112.925C571.468,111.107,571.668,109.285,571.625,107.469C571.56,104.6,571.465,101.721,571.13,98.875C570.854,96.505,570.223,94.176,569.731,91.833C569.686,91.617,569.473,91.441,569.391,91.227C569.201,90.722,569.037,90.208,568.873,89.695C568.33,87.974,567.924,86.198,567.222,84.547C566.307,82.399,565.17,80.346,564.105,78.265C563.757,77.582,563.345,76.932,562.942,76.279C561.975,74.707,561.154,73.014,559.995,71.599C557.745,68.849,555.465,66.087,552.897,63.641C550.304,61.173,547.387,59.037,544.539,56.848C543.204,55.824,541.711,55.001,540.269,54.12C539.193,53.461,538.124,52.768,536.98,52.247C535.622,51.626,534.182,51.176,532.781,50.643C531.564,50.18,530.356,49.699,529.137,49.244C528.796,49.116,528.431,49.051,528.079,48.955C528,49.316,527.853,49.676,527.855,50.035C527.872,55.358,527.958,60.681,527.911,66.005C527.896,67.685,527.762,68.933,529.811,69.852C532.266,70.954,534.508,72.675,536.585,74.434C538.938,76.426,541.127,78.65,543.16,80.976C544.672,82.704,545.879,84.71,547.113,86.664C548.567,88.968,549.861,91.367,550.433,94.078C550.49,94.341,550.592,94.596,550.668,94.855C551.254,96.834,552.005,98.783,552.374,100.799C552.737,102.773,552.709,104.816,552.853,106.827M509.834,149.036C512.617,148.82,515.475,148.599,518.333,148.368C518.562,148.351,518.833,148.326,519.003,148.195C520.651,146.933,522.839,147.411,524.624,146.259C526.996,144.726,529.707,143.722,532.238,142.428C532.458,142.314,532.572,141.668,532.479,141.344C532.304,140.739,531.977,140.162,531.645,139.619C531.307,139.066,530.993,138.389,530.482,138.073C528.91,137.108,527.24,136.303,525.625,135.407C523.91,134.453,522.105,133.608,520.537,132.45C519.099,131.389,517.627,131.442,516.26,132.022C514.808,132.642,513.363,132.847,511.849,132.881C510.413,132.909,508.967,133.002,507.544,132.86C506.257,132.729,504.982,132.375,503.731,132.018C502.393,131.637,501.047,131.372,499.792,132.089C497.386,133.459,495.022,134.913,492.66,136.362C490.764,137.521,488.134,137.885,487.79,140.771C487.778,140.866,487.656,140.958,487.57,141.034C486.729,141.773,487.009,142.264,487.9,142.654C488.182,142.778,488.424,142.988,488.697,143.132C490.508,144.082,492.251,145.225,494.159,145.908C495.821,146.505,497.353,147.638,499.272,147.496C499.608,147.468,499.964,147.819,500.321,147.963C500.715,148.12,501.112,148.333,501.524,148.366C504.262,148.612,507.003,148.813,509.834,149.036M493.783,81.036L493.804,81.036C493.804,79.017,493.825,76.999,493.783,74.983C493.775,74.608,493.564,74.205,493.353,73.874C493.019,73.351,492.502,72.92,492.252,72.366C491.915,71.625,491.541,71.543,490.908,71.959C489.203,73.079,487.363,74.035,485.807,75.334C483.324,77.408,480.864,79.56,478.706,81.957C476.997,83.859,475.686,86.139,474.331,88.332C473.616,89.49,473.142,90.807,472.637,92.083C472.116,93.398,471.663,94.741,471.233,96.093C470.876,97.215,470.569,98.358,470.294,99.505C470.16,100.067,470.287,100.72,470.057,101.223C468.802,103.958,469.352,106.877,469.117,109.711C469.072,110.268,469.362,110.721,469.956,110.254C470.541,109.793,470.934,109.991,471.512,110.267C471.959,110.483,472.699,110.547,473.11,110.317C475.881,108.764,478.603,107.116,481.339,105.499C482.07,105.068,482.858,104.704,483.515,104.18C484.137,103.689,485.001,103.076,485.087,102.426C485.288,100.906,485.58,99.49,486.346,98.143C487.027,96.947,487.372,95.532,488.181,94.448C489.632,92.502,491.273,90.69,492.931,88.91C493.544,88.25,493.808,87.608,493.792,86.742C493.761,84.842,493.783,82.94,493.783,81.036M550.559,107.219C550.606,107.217,550.651,107.213,550.698,107.211C550.623,106.054,550.633,104.885,550.455,103.744C550.183,101.993,549.798,100.26,549.429,98.524C549.287,97.851,549.077,97.191,548.868,96.532C548.663,95.877,548.43,95.226,548.191,94.58C547.673,93.185,547.223,91.755,546.598,90.407C546.069,89.264,545.383,88.185,544.678,87.135C543.323,85.121,542.129,82.934,540.463,81.212C538.082,78.752,535.383,76.589,532.725,74.416C531.512,73.424,530.082,72.694,528.723,71.894C528.509,71.767,527.922,71.815,527.889,71.915C527.538,72.926,526.879,73.669,526.061,74.317C525.953,74.402,525.982,74.685,525.984,74.875C526.008,77.981,526.212,81.099,526.018,84.189C525.854,86.808,526.483,88.739,528.463,90.633C530.341,92.427,531.668,94.835,533.068,97.078C533.748,98.165,534.403,99.484,534.429,100.713C534.474,102.816,535.546,103.846,537.212,104.693C538.783,105.494,540.305,106.398,541.816,107.308C543.493,108.319,545.103,109.433,546.809,110.392C547.178,110.601,547.873,110.465,548.312,110.259C548.833,110.016,549.204,109.751,549.766,110.199C550.397,110.705,550.69,110.319,550.681,109.657C550.671,108.845,550.604,108.033,550.559,107.219M509.538,84.671C503.815,84.1,496.7,88.122,493.459,91.394C488.956,95.936,486.576,101.515,486.62,107.818C486.704,120.325,496.405,132.526,512.63,131.072C523.067,130.138,532.827,121.47,533.171,108.267C533.34,101.684,530.985,95.797,526.143,91.245C521.635,87.011,516.276,84.477,509.538,84.671M524.062,80.771L524.071,80.771C524.071,79.255,524.078,77.742,524.067,76.226C524.064,75.731,524.127,75.031,523.291,75.433C521.807,76.144,520.362,76.937,518.904,77.696C518.221,78.05,517.497,78.34,516.877,78.782C516.543,79.018,516.287,79.483,516.179,79.892C516.052,80.366,516.121,80.896,516.114,81.4C516.088,82.832,516.795,83.464,518.158,83.913C519.737,84.436,521.212,85.263,522.737,85.954C523.038,86.091,523.51,86.385,523.626,86.286C523.871,86.078,524.035,85.657,524.044,85.317C524.084,83.804,524.062,82.288,524.062,80.771M498.29,130.799C497.849,130.437,497.519,130.134,497.153,129.873C495.565,128.744,493.987,127.592,492.357,126.521C491.891,126.215,490.985,125.849,490.75,126.05C489.92,126.767,488.435,126.783,488.267,128.228C488.257,128.305,488.273,128.383,488.274,128.461C488.316,130.669,488.353,132.883,488.4,135.093C488.423,136.138,488.907,136.415,489.832,135.912C490.636,135.472,491.439,135.022,492.223,134.542C494.183,133.347,496.132,132.131,498.29,130.799M495.733,80.691L495.746,80.691C495.746,82.245,495.729,83.8,495.762,85.354C495.768,85.667,495.879,86.125,496.094,86.248C496.291,86.359,496.729,86.164,497,86.001C498.514,85.102,499.986,84.177,501.768,83.793C502.456,83.647,503.427,82.964,503.534,82.386C503.737,81.31,503.402,80.135,503.28,79.001C503.274,78.944,503.176,78.884,503.109,78.85C502.144,78.374,501.171,77.917,500.212,77.43C499.054,76.839,497.908,76.222,496.752,75.623C496.526,75.506,496.282,75.434,496.044,75.34C495.939,75.61,495.752,75.876,495.746,76.146C495.718,77.662,495.733,79.178,495.733,80.691M537.363,116.778C537.881,116.651,538.179,116.647,538.397,116.517C540.404,115.288,542.403,114.057,544.385,112.791C544.854,112.492,545.145,112.007,544.542,111.576C543.922,111.132,543.226,110.796,542.565,110.407C540.616,109.264,538.674,108.108,536.712,106.99C536.451,106.841,536.035,106.764,535.779,106.869C535.601,106.942,535.444,107.418,535.504,107.657C535.984,109.577,535.276,111.323,534.823,113.122C534.66,113.764,534.438,114.757,534.758,115.084C535.508,115.839,536.568,116.287,537.363,116.778M521.577,130.788C522.417,131.35,523.093,131.85,523.811,132.277C525.775,133.449,527.748,134.612,529.742,135.736C530.117,135.947,530.711,136.169,531,136.012C531.265,135.868,531.346,135.219,531.353,134.791C531.387,133.244,531.178,131.668,531.392,130.15C531.633,128.453,531.495,127.229,529.755,126.378C528.805,125.917,528.222,125.861,527.379,126.525C525.886,127.71,524.273,128.743,522.72,129.851C522.333,130.125,521.982,130.453,521.577,130.788M484.299,107.643C484.31,106.864,483.858,106.528,483.272,106.876C482.385,107.403,481.535,108,480.649,108.532C479.073,109.481,477.479,110.4,475.899,111.348C475.565,111.546,475.272,111.82,474.961,112.061C475.26,112.386,475.512,112.782,475.868,113.02C476.922,113.728,478.018,114.368,479.093,115.042C479.881,115.531,480.628,116.1,481.452,116.515C482.509,117.041,483.208,116.136,484.077,115.783C485.373,115.259,485.411,114.473,485.054,113.379C484.442,111.5,483.808,109.614,484.299,107.643" fill="rgb(114,42,42)" stroke="none" stroke-width="1"/><path id="eXY4BHbUcOm23" d="M464.857,176.378C464.569,173.361,468.242,170.082,470.985,170.106C474.471,170.141,477.117,173.356,477.318,176.361C477.511,179.249,474.011,182.728,471.129,182.706C468.547,182.686,464.517,179.453,464.857,176.378M470.951,178.415C472.221,178.437,473.273,177.504,473.277,176.361C473.281,175.292,472.316,174.371,471.163,174.343C469.791,174.307,468.979,175.021,468.943,176.286C468.904,177.653,469.6,178.391,470.951,178.415" fill="rgb(114,42,42)" stroke="none" stroke-width="1"/><path id="eXY4BHbUcOm24" d="M554.949,176.401C555.25,179.496,551.232,182.697,548.649,182.706C545.855,182.715,542.329,179.238,542.482,176.453C542.65,173.388,545.334,170.138,548.845,170.095C551.584,170.067,555.197,173.483,554.949,176.401M548.748,178.417C550.143,178.428,550.853,177.743,550.865,176.388C550.876,175.111,550.072,174.338,548.737,174.344C547.515,174.346,546.504,175.27,546.517,176.379C546.531,177.481,547.545,178.407,548.748,178.417" fill="rgb(114,42,42)" stroke="none" stroke-width="1"/><path id="eXY4BHbUcOm25" d="M437.463,107.413C437.436,110.874,434.028,113.398,431.201,113.646C428.374,113.895,424.903,110.2,424.899,107.284C424.892,104.366,428.226,101.085,431.191,101.093C434.229,101.099,437.459,104.353,437.463,107.413" fill="rgb(114,42,42)" stroke="none" stroke-width="1"/><path id="eXY4BHbUcOm26" d="M470.104,34.268C473.863,34.27,476.207,36.637,476.239,40.374C476.259,42.661,473.277,46.353,470.167,46.108C466.862,45.848,463.694,43.189,463.69,40.167C463.689,36.862,466.511,34.268,470.104,34.268M470.067,42.388C471.745,42.379,472.59,41.576,472.564,40.016C472.539,38.581,471.357,37.426,469.932,37.447C468.695,37.465,467.422,38.782,467.408,40.06C467.396,41.41,468.521,42.396,470.067,42.388" fill="rgb(114,42,42)" stroke="none" stroke-width="1"/><path id="eXY4BHbUcOm27" d="M582.343,107.4C582.331,104.361,585.585,101.131,588.625,101.081C591.519,101.036,594.976,104.546,594.916,107.295C594.853,110.211,591.414,113.906,588.588,113.643C585.775,113.379,582.374,110.921,582.343,107.4M588.612,105.323C587.214,105.308,586.49,105.994,586.482,107.34C586.474,108.599,587.219,109.351,588.503,109.374C589.773,109.395,590.752,108.542,590.772,107.395C590.791,106.202,589.89,105.336,588.612,105.323" fill="rgb(114,42,42)" stroke="none" stroke-width="1"/><path id="eXY4BHbUcOm28" d="M549.696,46.048C546.595,46.613,543.466,42.639,543.55,40.086C543.662,36.663,546.049,34.273,549.62,34.27C553.249,34.264,556.151,36.869,556.099,40.084C556.047,43.21,553.006,46.043,549.696,46.048M549.616,41.801C551.085,41.83,551.929,41.236,551.971,40.138C552.008,39.121,550.93,38.058,549.859,38.058C548.593,38.058,547.672,38.866,547.672,39.98C547.672,41.344,548.127,41.773,549.616,41.801" fill="rgb(114,42,42)" stroke="none" stroke-width="1"/><path id="eXY4BHbUcOm29" d="M517.566,40.291C518.048,42.883,516.874,44.997,514.669,46.482C512.453,47.973,510.155,49.028,507.309,47.627C505.587,46.779,504.009,45.935,503.07,44.238C502.672,43.521,502.357,42.713,502.231,41.909C502.087,41,502.21,40.05,502.193,39.118C502.142,36.117,503.835,34.315,506.28,32.929C507.694,32.124,509.159,31.725,510.737,31.973C513.029,32.334,514.861,33.435,516.363,35.298C517.568,36.792,517.67,38.379,517.566,40.291M509.956,43.018C510.604,42.842,511.438,42.865,511.86,42.458C513.547,40.827,513.536,39.837,512.074,37.968C511.477,37.205,508.5,36.976,507.927,37.739C507.307,38.562,506.275,39.262,506.703,40.564C507.241,42.2,508.177,42.879,509.956,43.018" fill="rgb(114,42,42)" stroke="none" stroke-width="1"/><path id="eXY4BHbUcOm30" d="M517.52,60.854C518.102,63.444,516.967,65.443,515.046,66.954C512.956,68.599,509.819,69.863,506.78,68.188C505.09,67.259,503.866,66.105,502.768,64.656C502.721,64.594,502.67,64.533,502.628,64.468C501.798,63.155,502.221,58.008,502.996,56.7C504.165,54.72,505.987,53.699,507.977,52.957C509.362,52.439,510.87,52.41,512.265,53.165C513.172,53.654,514.161,54.044,514.964,54.669C516.95,56.221,518.083,58.203,517.52,60.854M509.903,63.606C511.553,63.606,513.127,62.351,513.157,61.014C513.19,59.575,511.593,58.09,510.011,58.088C508.252,58.088,506.598,59.525,506.638,61.021C506.675,62.353,508.258,63.606,509.903,63.606" fill="rgb(114,42,42)" stroke="none" stroke-width="1"/><path id="eXY4BHbUcOm31" d="M450.917,149.961C446.967,150.213,442.872,145.412,442.931,141.806C442.998,137.677,447.278,133.638,451.082,133.656C455.007,133.678,459.706,137.927,459.264,142.127C458.823,146.327,455.776,149.807,450.917,149.961M451.055,144.589C453.041,144.593,454.214,143.605,454.268,141.892C454.318,140.266,453.046,139.053,451.29,139.049C449.342,139.041,447.967,140.221,448.014,141.856C448.063,143.593,449.17,144.585,451.055,144.589" fill="rgb(114,42,42)" stroke="none" stroke-width="1"/><path id="eXY4BHbUcOm32" d="M469.174,139.284C464.546,139.335,461.186,136.076,461.042,131.64C460.892,126.96,464.914,123.626,469.032,123.347C473.115,123.074,477.452,127.306,477.344,131.407C477.248,134.971,474.15,139.673,469.174,139.284M469.113,128.32C467.584,128.323,465.638,130.093,465.658,131.463C465.683,133.048,467.484,134.396,469.565,134.386C470.934,134.381,472.289,132.941,472.302,131.476C472.318,129.692,470.929,128.314,469.113,128.32" fill="rgb(114,42,42)" stroke="none" stroke-width="1"/><path id="eXY4BHbUcOm33" d="M568.745,149.963C563.94,149.698,561.042,146.398,560.536,142.224C560.014,137.897,564.851,133.606,568.845,133.656C572.569,133.708,576.814,137.718,576.869,141.819C576.918,145.353,572.82,150.299,568.745,149.963M568.64,144.589C570.631,144.587,571.744,143.614,571.783,141.849C571.819,140.244,570.468,139.045,568.623,139.049C566.761,139.05,565.323,140.258,565.581,141.894C565.856,143.634,566.491,144.826,568.64,144.589" fill="rgb(114,42,42)" stroke="none" stroke-width="1"/><path id="eXY4BHbUcOm34" d="M550.673,139.284C545.67,139.689,542.577,135.012,542.459,131.446C542.321,127.278,546.62,123.071,550.974,123.321C554.53,123.521,558.947,126.718,558.765,131.7C558.604,136.081,555.248,139.316,550.673,139.284M550.74,128.42C548.927,128.417,547.603,129.71,547.611,131.478C547.617,132.843,548.924,134.229,550.215,134.241C552.248,134.258,554.115,132.899,554.087,131.422C554.063,130.171,552.114,128.422,550.74,128.42" fill="rgb(114,42,42)" stroke="none" stroke-width="1"/><path id="eXY4BHbUcOm35" d="M509.864,129.576C497.284,129.617,487.977,119.341,488.118,107.687C488.253,96.417,497.167,86.191,510.153,86.308C522.717,86.423,531.845,96.605,531.67,108.328C531.502,119.601,522.354,129.664,509.864,129.576M529.029,107.848C528.831,102.67,527.067,98.186,523.369,94.428C519.645,90.639,514.962,88.803,509.922,88.791C504.698,88.781,499.885,90.739,496.137,94.724C492.258,98.845,490.45,103.729,490.831,109.333C491.422,118.045,498.926,126.545,509.231,126.9C520.474,127.291,529.156,117.868,529.029,107.848" fill="rgb(114,42,42)" stroke="none" stroke-width="1"/></g><path id="eXY4BHbUcOm36" d="M429.375,304.019C430.693,306.222,431.954,308.253,433.14,310.322C434.316,312.373,435.416,314.465,436.557,316.539C437.566,318.369,438.56,320.21,439.601,322.022C440.671,323.883,441.832,325.693,442.877,327.566C443.972,329.534,444.939,331.573,446.031,333.545C447.098,335.467,448.252,337.337,449.37,339.229C450.802,341.643,452.298,344.021,453.667,346.472C455.251,349.309,456.879,352.144,458.208,355.105C459.13,357.164,458.87,359.192,457.275,361.139C455.807,362.932,454.385,364.539,451.931,364.597C450.688,364.621,449.401,364.541,448.202,364.237C446.341,363.763,444.8,364.103,443.167,365.11C441.065,366.413,438.773,367.406,436.57,368.545C434.514,369.61,432.466,370.697,430.404,371.76C428.69,372.643,426.973,373.519,425.242,374.368C421.482,376.217,417.682,377.988,413.952,379.897C410.368,381.733,406.871,383.743,403.294,385.594C401.136,386.71,398.877,387.632,396.7,388.712C394.586,389.762,392.514,390.907,390.423,392.009C388.42,393.059,386.422,394.122,384.409,395.159C382.114,396.346,379.815,397.519,377.508,398.676C375.228,399.82,372.925,400.912,370.657,402.071C368.454,403.2,366.286,404.401,364.093,405.55C362.481,406.395,360.866,407.226,359.233,408.017C356.941,409.127,354.608,410.152,352.335,411.297C350.322,412.313,348.372,413.45,346.382,414.51C344.83,415.334,343.274,416.148,341.693,416.913C339.521,417.966,337.316,418.949,335.141,419.993C334.453,420.331,333.791,420.738,333.162,421.185C331.336,422.478,328.816,422.812,326.892,420.617C326.532,420.202,325.747,419.709,325.366,419.841C324.043,420.308,322.797,421.005,321.544,421.661C320.028,422.464,319.675,423.695,320.241,425.281C320.364,425.627,320.26,426.053,320.255,426.443C320.052,442.872,319.846,459.295,319.646,475.714C319.628,477.311,318.663,478.995,319.971,480.481C320.88,481.52,321.978,482.407,322.77,483.518C324.953,486.59,326.609,489.953,325.993,493.831C325.711,495.581,324.899,497.345,323.95,498.866C322.265,501.554,323.819,503.606,324.939,505.762C326.076,507.957,327.309,510.097,328.538,512.242C329.703,514.274,330.934,516.272,332.113,518.301C332.854,519.583,333.551,520.892,334.27,522.19C335.366,524.173,336.448,526.161,337.556,528.138C338.712,530.191,339.888,532.24,341.056,534.288C341.688,535.384,342.343,536.469,342.952,537.574C344.202,539.841,345.398,542.137,346.663,544.394C347.819,546.457,349.043,548.485,350.232,550.529C350.869,551.619,351.515,552.704,352.118,553.809C353.246,555.883,354.319,557.987,355.465,560.051C356.509,561.927,357.691,563.733,358.665,565.639C359.197,566.679,359.598,567.85,359.74,569.005C359.884,570.176,359.05,570.866,357.876,570.861C355.148,570.861,352.27,571.302,349.743,570.567C348.014,570.065,346.548,568.051,345.372,566.42C343.846,564.3,342.725,561.892,341.427,559.609C340.528,558.027,339.596,556.47,338.737,554.874C336.967,551.568,335.293,548.206,333.465,544.931C331.642,541.669,329.623,538.521,327.8,535.261C325.946,531.95,324.243,528.552,322.446,525.211C321.376,523.224,320.297,521.245,319.121,519.33C318.867,518.908,318.171,518.762,317.68,518.493C317.462,518.954,317.056,519.416,317.052,519.888C316.868,534.972,316.722,550.058,316.558,565.142C316.548,566.085,316.525,567.043,316.337,567.955C316.033,569.446,315.05,570.264,313.508,570.278C311.782,570.294,310.055,570.253,308.329,570.232C305.257,570.197,304.149,569.101,304.139,565.953C304.127,562.723,304.194,559.493,304.234,556.263C304.378,545.57,304.512,534.881,304.682,524.197C304.703,522.869,304.993,521.551,305,520.228C305.004,519.715,304.57,519.198,304.333,518.685C303.907,518.955,303.318,519.122,303.083,519.502C301.416,522.219,299.855,525.003,298.197,527.721C296.193,531.017,294.108,534.252,292.093,537.537C291.172,539.039,290.349,540.6,289.45,542.116C288.013,544.535,286.519,546.918,285.109,549.351C283.263,552.531,281.503,555.765,279.66,558.95C278.03,561.759,276.443,564.604,274.628,567.296C273.597,568.823,272.134,569.918,269.996,569.761C267.779,569.594,265.544,569.69,263.32,569.645C261.144,569.594,260.156,568.058,261.251,566.161C262.929,563.256,264.812,560.473,266.547,557.598C267.735,555.631,268.792,553.572,269.966,551.589C271.108,549.656,272.32,547.766,273.504,545.864C274.403,544.409,275.337,542.984,276.196,541.514C278.813,537.04,281.384,532.548,284.01,528.081C285.264,525.952,286.658,523.903,287.901,521.763C289.781,518.528,291.555,515.233,293.432,512.002C294.54,510.091,295.758,508.245,296.941,506.379C297.828,504.989,298.92,503.701,299.564,502.21C299.902,501.436,299.795,500.122,299.334,499.406C297.278,496.238,297.065,492.855,297.514,489.256C297.93,485.955,299.874,483.597,302.068,481.412C303.34,480.144,303.922,478.825,303.94,477C304.067,462.411,304.295,447.829,304.465,433.241C304.473,432.637,304.275,431.553,304.02,431.501C303.206,431.35,302.219,431.362,301.478,431.705C298.936,432.878,296.46,434.204,293.976,435.502C291.782,436.648,289.624,437.868,287.423,439.001C283.885,440.816,280.323,442.591,276.772,444.386C274.705,445.425,272.643,446.476,270.574,447.51C268.055,448.763,265.514,449.974,263.014,451.268C260.965,452.327,258.938,453.422,256.951,454.593C255.443,455.482,253.839,455.902,252.167,455.512C251.459,455.349,250.729,454.705,250.282,454.087C249.218,452.61,247.927,452.073,246.294,452.85C244.547,453.681,242.844,454.604,241.162,455.562C239.923,456.267,239.772,457.408,240.606,458.882C243.096,463.289,240.411,468.639,235.377,469.293C231.332,469.814,228.928,468.411,226.947,464.739C225.175,461.443,223.124,458.304,221.28,455.054C219.677,452.225,218.196,449.329,216.66,446.47C215.905,445.06,215.032,443.696,214.418,442.231C213.615,440.329,214.042,438.554,215.446,437.018C216.336,436.047,217.034,434.754,218.119,434.132C222.278,431.749,225.637,433.271,228.426,436.749C229.459,438.042,230.452,438.265,231.773,437.368C232.769,436.69,233.824,436.079,234.912,435.567C237.079,434.553,237.617,433.554,237.045,431.297C236.27,428.247,236.988,426.987,240.506,424.902C246.129,421.577,251.74,418.23,257.329,414.85C262.204,411.904,267.062,408.925,271.902,405.913C274.755,404.136,277.528,402.231,280.385,400.46C283.298,398.652,286.286,396.966,289.216,395.184C292.331,393.286,295.407,391.321,298.515,389.413C300.262,388.34,301.988,387.221,303.816,386.306C305.488,385.469,306.182,384.33,305.969,382.452C305.659,379.72,306.452,378.643,308.953,377.425C310.435,376.702,311.781,375.703,313.185,374.823C317.453,372.154,321.697,369.447,325.997,366.819C329.253,364.837,332.594,362.989,335.865,361.028C338.476,359.464,341.037,357.817,343.627,356.219C345.742,354.915,347.874,353.651,349.983,352.342C352.562,350.745,355.12,349.117,357.696,347.515C361.129,345.386,364.569,343.266,368.007,341.142C372.426,338.409,376.83,335.653,381.264,332.945C385.135,330.58,389.052,328.291,392.926,325.927C397.684,323.025,402.416,320.078,407.164,317.157C409.948,315.444,412.716,313.699,415.548,312.071C416.534,311.507,417.062,310.857,417.039,309.719C417.009,308.19,417.964,307.137,418.686,305.887C419.959,303.69,421.761,303.963,423.683,304.009C425.627,304.054,427.575,304.019,429.375,304.019" fill="rgb(114,42,42)" stroke="none" stroke-width="1"/><g id="eXY4BHbUcOm37"><path id="eXY4BHbUcOm38" d="M62.225,117.374C61.298,114.516,60.477,111.806,59.532,109.145C59.04,107.755,59.311,107.036,60.783,106.563C73.31,102.533,85.823,98.465,98.326,94.364C99.68,93.923,100.363,94.193,100.778,95.572C101.593,98.29,102.514,100.976,103.495,103.986C120.244,98.543,136.961,93.11,153.876,87.608C153.411,86.149,153.001,84.843,152.58,83.541C148.865,72.133,145.147,60.727,141.437,49.316C140.62,46.801,140.649,46.769,143.255,45.935C145.243,45.294,147.25,44.72,149.193,43.964C150.797,43.339,151.481,43.872,151.976,45.418C156.046,58.111,160.175,70.789,164.286,83.466C164.338,83.62,164.458,83.756,164.637,84.049C165.327,83.844,166.041,83.652,166.746,83.421C172.146,81.669,177.562,79.949,182.938,78.118C184.465,77.598,185.075,77.972,185.567,79.489C194.157,106.014,202.8,132.521,211.427,159.032C222.671,193.595,233.91,228.16,245.151,262.721C249.203,275.182,253.221,287.648,257.35,300.078C257.996,302.026,256.968,302.372,255.585,302.818C236.566,308.985,217.557,315.168,198.543,321.35C171.488,330.153,144.432,338.958,117.378,347.762C114.915,348.562,114.915,348.559,114.111,346.08C92.946,281.037,71.78,215.993,50.618,150.949C47.913,142.627,45.265,134.284,42.484,125.982C41.951,124.393,42.393,123.813,43.856,123.356C49.389,121.623,54.894,119.806,60.405,118.015C60.997,117.825,61.574,117.604,62.225,117.374M56,131.369C78.036,199.113,100.02,266.694,122.056,334.437C162.764,321.195,203.235,308.032,243.797,294.833C243.563,294.035,243.419,293.483,243.243,292.948C233.35,262.528,223.451,232.107,213.558,201.688C201.821,165.59,190.075,129.497,178.369,93.39C177.937,92.057,177.488,91.672,176.072,92.16C171.358,93.784,166.598,95.264,161.857,96.807C140.636,103.715,119.413,110.61,98.208,117.563C96.671,118.067,96.019,117.768,95.6,116.214C94.982,113.925,94.108,111.702,93.446,109.422C93.114,108.288,92.661,107.948,91.463,108.351C85.8,110.243,80.118,112.078,74.429,113.881C73.316,114.233,73.138,114.748,73.514,115.794C74.336,118.087,74.986,120.439,75.834,122.719C76.357,124.131,76.042,124.786,74.567,125.247C69.029,126.962,63.532,128.791,58.021,130.588C57.378,130.799,56.757,131.077,56,131.369" fill="rgb(114,42,42)" stroke="none" stroke-width="1"/><path id="eXY4BHbUcOm39" d="M197.659,185.971C197.155,186.311,196.616,186.862,195.969,187.077C188.816,189.442,181.645,191.756,174.481,194.085L97.93,218.976C95.527,219.755,95.518,219.755,94.759,217.421C86.347,191.573,77.936,165.727,69.527,139.879C68.842,137.776,68.883,137.697,70.93,137.032C103.666,126.385,136.409,115.753,169.131,105.061C170.798,104.517,171.388,105.001,171.881,106.518C180.293,132.484,188.739,158.444,197.178,184.404C197.302,184.788,197.413,185.176,197.659,185.971M163.941,118.684C163.279,118.852,162.83,118.94,162.399,119.078C136.444,127.516,110.497,135.97,84.529,144.37C83.236,144.79,83.107,145.302,83.507,146.487C85.859,153.458,88.173,160.444,90.444,167.444C94.325,179.402,98.158,191.377,102.021,203.338C102.759,205.619,102.781,205.606,105.127,204.84C113.558,202.09,121.985,199.343,130.417,196.601C147.605,191.007,164.794,185.414,181.99,179.836C183.021,179.502,183.718,179.31,183.234,177.85C179.579,166.853,176.026,155.822,172.442,144.802C170.831,139.842,169.218,134.886,167.605,129.927C166.408,126.244,165.204,122.559,163.941,118.684" fill="rgb(114,42,42)" stroke="none" stroke-width="1"/><path id="eXY4BHbUcOm40" d="M166.214,210.403C191.822,211.213,213.137,231.854,213.214,258.478C213.295,285.66,191.899,306.969,165.28,307.218C138.239,307.471,116.409,285.875,116.355,258.959C116.305,232.351,138.032,209.606,166.214,210.403M202.001,259.325C202.256,240.091,187.782,222.904,167.178,221.679C146.007,220.41,128.357,236.406,127.602,257.346C126.871,277.739,142.244,295.211,163.357,295.999C184.093,296.775,201.705,280.703,202.001,259.325" fill="rgb(114,42,42)" stroke="none" stroke-width="1"/></g><g id="eXY4BHbUcOm41"><path id="eXY4BHbUcOm42" d="M993.213,469.425C992.903,471.42,992.639,473.42,992.272,475.406C991.73,478.335,991.231,481.28,990.501,484.161C989.677,487.407,988.845,490.68,987.601,493.775C985.747,498.372,983.531,502.827,981.462,507.341C981.108,508.114,980.613,508.282,979.789,507.883C973.677,504.868,967.133,504.142,960.516,505.019C954.083,505.874,948.25,508.381,943.176,512.647C938.52,516.556,934.791,521.101,932.454,526.708C931.22,529.671,930.448,532.763,929.983,535.992C929.51,539.268,929.97,542.433,930.124,545.64C930.162,546.445,930.509,547.24,930.704,548.039C930.906,548.869,930.532,549.415,929.761,549.622C926.879,550.378,924.007,551.186,921.094,551.802C917.678,552.525,914.225,553.071,910.783,553.672C910.241,553.771,909.678,553.776,909.125,553.776C904.868,553.789,900.609,553.857,896.358,553.771C891.976,553.685,887.662,553.023,883.418,551.922C879.871,551.002,876.325,550.073,872.784,549.123C872.268,548.985,871.796,548.701,871.236,548.456C873.311,543.95,875.334,539.56,877.35,535.17C880.794,527.684,884.244,520.193,887.67,512.694C888.648,510.552,888.595,510.647,890.817,511.202C892.726,511.675,894.696,511.937,896.652,512.174C898.799,512.437,900.961,512.695,903.119,512.72C907.098,512.763,910.951,511.933,914.804,510.94C921.256,509.276,927.048,506.352,932.26,502.289C939.389,496.721,944.742,489.785,948.071,481.31C949.847,476.79,951.22,472.203,951.296,467.305C951.314,466.178,951.772,465.455,952.96,465.326C953.235,465.296,953.504,465.193,953.777,465.167C956.993,464.922,960.216,464.741,963.426,464.424C966.498,464.122,969.557,463.689,972.621,463.31C973.033,463.258,973.446,463.186,973.856,463.147C979.317,462.657,984.778,462.175,990.239,461.68C991.232,461.59,992.221,461.478,993.213,461.375L993.213,469.425Z" fill="rgb(113,42,42)" stroke="none" stroke-width="1"/><path id="eXY4BHbUcOm43" d="M951.566,350.313C952.101,350.408,952.636,350.567,953.176,350.593C958.594,350.851,962.932,353.331,966.6,357.142C969.227,359.87,970.973,363.213,971.573,366.855C972.158,370.407,972.22,374.12,970.916,377.652C968.852,383.247,965.255,387.48,959.753,389.866C955.838,391.562,951.764,392.192,947.462,391.263C940.511,389.76,935.463,385.916,932.567,379.445C930.443,374.698,930.109,369.822,931.776,364.757C933.353,359.97,936.171,356.252,940.378,353.616C943.28,351.8,946.408,350.469,949.967,350.58C950.311,350.594,950.661,350.408,951.01,350.313L951.566,350.313Z" fill="rgb(113,42,42)" stroke="none" stroke-width="1"/><path id="eXY4BHbUcOm44" d="M775.26,468.596C775.439,468.192,775.736,467.804,775.779,467.387C776.583,459.398,781.02,453.997,788.119,450.861C792.737,448.821,797.609,448.632,802.562,450.36C806.884,451.861,810.379,454.334,812.934,458.031C814.793,460.723,815.926,463.724,816.421,467.078C816.79,469.577,816.606,471.989,816.156,474.307C815.36,478.405,813.307,481.969,810.224,484.88C807.367,487.58,803.967,489.489,800.17,490.079C796.713,490.616,793.088,490.715,789.636,489.485C785.387,487.971,781.79,485.533,779.247,481.771C777.355,478.971,775.871,475.965,775.777,472.453C775.763,471.997,775.439,471.546,775.258,471.095L775.258,468.596Z" fill="rgb(113,42,42)" stroke="none" stroke-width="1"/><path id="eXY4BHbUcOm45" d="M842.609,393.633C844.198,395.785,845.707,397.815,847.206,399.856C852.574,407.155,857.944,414.45,863.31,421.749C864.46,423.31,865.548,424.922,866.754,426.442C867.314,427.14,866.974,427.491,866.514,427.94C863.276,431.092,860.622,434.704,858.417,438.622C856.456,442.113,854.934,445.785,853.858,449.684C852.435,454.854,851.775,460.07,852.126,465.393C852.294,467.905,852.856,470.39,853.218,472.897C853.971,478.121,856.039,482.881,858.645,487.387C862.343,493.785,867.171,499.225,873.319,503.4C874.473,504.183,874.708,504.772,874.056,506.166C868.595,517.853,863.243,529.592,857.897,541.33C857.48,542.246,857.11,542.233,856.344,541.786C847.968,536.896,840.503,530.868,834.06,523.64C827.819,516.639,822.737,508.839,818.897,500.257C817.877,497.978,817.963,498.051,819.826,496.365C824.715,491.944,828.452,486.716,830.145,480.279C831.009,477.007,831.612,473.632,831.938,470.26C832.14,468.183,831.758,466.011,831.358,463.939C830.635,460.185,829.496,456.563,827.626,453.185C824.629,447.776,820.565,443.385,815.393,440.01C813.94,439.06,813.936,438.849,814.557,437.196C815.797,433.887,816.696,430.424,818.193,427.24C820.459,422.409,822.849,417.599,825.658,413.069C830.013,406.041,835.491,399.888,841.698,394.406C841.937,394.198,842.181,393.996,842.609,393.633" fill="rgb(113,42,42)" stroke="none" stroke-width="1"/><path id="eXY4BHbUcOm46" d="M854.653,384.464C859.692,382.151,864.38,379.785,869.238,377.833C873.144,376.264,877.229,375.086,881.293,373.937C883.667,373.262,886.147,372.946,888.592,372.531C894.135,371.593,899.732,371.645,905.319,371.804C908.445,371.894,911.563,372.277,914.678,372.591C915.026,372.629,915.519,373.033,915.621,373.364C915.894,374.242,915.959,375.178,916.161,376.082C916.636,378.219,916.963,380.416,917.687,382.472C918.48,384.712,919.577,386.856,920.677,388.969C923.212,393.837,927.015,397.631,931.495,400.644C934.882,402.92,938.56,404.679,942.624,405.713C947.84,407.033,953.036,407.39,958.198,406.083C961.553,405.231,964.77,403.791,967.988,402.466C969.004,402.049,969.56,402.013,970.334,402.888C977.412,410.895,982.922,419.879,986.833,429.797C988.476,433.963,989.57,438.347,990.886,442.641C991.165,443.554,991.353,444.502,991.503,445.449C991.539,445.683,991.328,446.063,991.115,446.197C990.821,446.39,990.424,446.468,990.062,446.5C987.123,446.752,984.179,446.933,981.247,447.235C977.765,447.589,974.29,448.037,970.813,448.448C970.584,448.476,970.358,448.527,970.127,448.549C964.524,449.031,958.919,449.515,953.316,449.998C953.178,450.009,953.041,450.028,952.903,450.05C950.169,450.501,950.117,450.515,949.356,447.901C947.617,441.925,944.568,436.691,940.719,431.834C935.621,425.404,929.417,420.403,921.899,417.17C918.805,415.841,915.475,415.039,912.219,414.116C908.558,413.076,904.796,412.689,900.994,412.865C894.019,413.185,887.327,414.719,881.045,417.823C879.944,418.365,879.338,418.163,878.629,417.191C872.145,408.311,865.617,399.46,859.108,390.6C857.721,388.71,856.35,386.803,854.653,384.464" fill="rgb(113,42,42)" stroke="none" stroke-width="1"/><path id="eXY4BHbUcOm47" d="M965.539,519.979C977.961,519.949,986.17,529.624,986.075,540.467C985.971,552.133,977.556,561.072,965.423,561.025C953.355,560.974,945.009,552.223,944.871,540.485C944.749,529.882,952.69,519.936,965.539,519.979" fill="rgb(113,42,42)" stroke="none" stroke-width="1"/></g></g></svg>