<svg id="ezpmnKAQILU1"
    xmlns="http://www.w3.org/2000/svg"
    xmlns:xlink="http://www.w3.org/1999/xlink" viewBox="20 -65 1160 710" shape-rendering="geometricPrecision" text-rendering="geometricPrecision">
    <defs>
        <rect id="ezpmnKAQILU2" width="50.2" height="50.2" rx="0" ry="0"/>
        <rect id="ezpmnKAQILU3" width="50.2" height="50.2" rx="0" ry="0"/>
        <rect id="ezpmnKAQILU4" width="62.8" height="62.8" rx="0" ry="0"/>
        <rect id="ezpmnKAQILU5" width="58.4" height="58.4" rx="0" ry="0"/>
        <rect id="ezpmnKAQILU6" width="54.5" height="54.5" rx="0" ry="0"/>
        <rect id="ezpmnKAQILU7" width="61.7" height="61.7" rx="0" ry="0"/>
        <rect id="ezpmnKAQILU8" width="63.2" height="63.2" rx="0" ry="0"/>
        <rect id="ezpmnKAQILU9" width="63.5" height="63.1" rx="0" ry="0"/>
        <rect id="ezpmnKAQILU10" width="63.5" height="63.5" rx="0" ry="0"/>
        <rect id="ezpmnKAQILU11" width="62.9" height="62.9" rx="0" ry="0"/>
        <rect id="ezpmnKAQILU12" width="50.9" height="50.9" rx="0" ry="0"/>
        <rect id="ezpmnKAQILU13" width="62.7" height="62.7" rx="0" ry="0"/>
        <rect id="ezpmnKAQILU14" width="62.5" height="62.5" rx="0" ry="0"/>
        <rect id="ezpmnKAQILU15" width="63" height="63" rx="0" ry="0"/>
    </defs>
    <style>
    </style>
    <g id="ezpmnKAQILU16">
        <rect id="ezpmnKAQILU17" width="1200" height="720" rx="0" ry="0" transform="matrix(1,0,0,1,6.3,-66.7)" fill="rgb(239, 167, 22)" stroke="none" stroke-width="1"/>
        <g id="ezpmnKAQILU18" transform="matrix(1,0,0,1,602.8,-305.9)">
            <g id="ezpmnKAQILU19">
                <path id="ezpmnKAQILU20" d="M 489.8 333.7 L 489.8 533 C 489.7 533.3 489.6 533.6 489.5 533.9 C 488.4 539.8 484.9 543.6 479.3 545.8 C 469.2 549.6 459.2 553.5 449.2 557.4 C 432.8 563.8 416.5 570.2 400.2 576.5 C 396.4 578 392.7 578 388.9 576.5 C 375.4 571.1 361.8 565.7 348.3 560.3 C 330.9 553.3 313.6 546.4 296.2 539.5 C 294.7 538.9 293.3 538.8 291.8 539.3 C 273 545.6 254.2 551.9 235.4 558.1 C 227.7 560.7 220 563.3 212.3 565.8 C 206.5 567.7 200.9 564.6 199.3 558.9 C 199.1 558.5 199 558.1 198.9 557.8 L 198.9 358.3 C 199 357.9 199.1 357.5 199.2 357.2 C 200.5 351.4 203.9 347.5 209.5 345.6 C 236 336.8 262.6 327.9 289.1 319.1 C 290.1 318.8 291.1 318.5 292.1 318.2 L 295.4 318.2 C 297.1 318.7 298.7 319.1 300.3 319.7 C 320.9 327.9 341.4 336.2 362 344.4 C 371.9 348.3 381.8 352.3 391.7 356.3 C 393.6 357.1 395.3 357.2 397.2 356.4 C 398.6 355.7 400.2 355.2 401.6 354.6 C 422.2 346.6 442.7 338.6 463.2 330.7 C 467.6 329 471.9 327.2 476.3 325.6 C 481.9 323.6 487.8 326.7 489.4 332.5 C 489.5 332.9 489.6 333.3 489.8 333.7 M 479.7 530.3 L 479.7 473.2 L 479.7 337.1 L 479.7 335.1 C 479 335.3 478.7 335.4 478.3 335.5 C 465.3 340.6 452.3 345.7 439.4 350.7 C 426.3 355.8 413.3 360.9 400.2 365.9 C 396.3 367.5 392.4 367.4 388.5 365.8 C 385.6 364.6 382.5 363.4 379.6 362.2 C 363.3 355.7 347 349.2 330.8 342.7 C 319.4 338.2 308.1 333.7 296.7 329 C 294.7 328.2 292.8 328.4 290.8 329.1 C 276.3 333.9 261.8 338.8 247.4 343.6 C 236 347.4 224.6 351.1 213.3 355 C 212.3 355.3 211.3 355.8 210.5 356.5 C 209.2 357.6 209 359.1 209 360.8 L 209 418.1 L 209 554.7 C 209 556.4 209 556.4 210.5 555.9 C 215.1 554.3 219.7 552.8 224.4 551.2 C 245.8 544.1 267.3 536.9 288.8 529.8 C 292.5 528.6 296.1 528.6 299.7 530.1 C 316.5 536.8 333.3 543.5 350.1 550.2 C 364.2 555.8 378.3 561.5 392.3 567.1 C 393.8 567.7 395.1 567.7 396.6 567.1 C 402.5 564.8 408.4 562.6 414.3 560.3 C 434.6 552.4 455 544.4 475.4 536.5 C 478.7 535.2 479.7 533.9 479.7 530.3" fill="rgb(242, 187, 34)" stroke="none" stroke-width="1"/>
                <path id="ezpmnKAQILU21" d="M 469.7 516.1 L 469.7 517.3 C 469.6 521.9 467.3 525.3 463 527 C 459.2 528.5 455.4 530 451.6 531.5 C 433.3 538.6 415 545.7 396.8 552.8 C 394.4 553.7 392.3 553.3 390.7 551.6 C 388.4 549 389.3 545 392.7 543.6 C 397 541.9 401.2 540.3 405.5 538.6 C 423 531.8 440.5 525 458 518.2 C 459.7 517.6 459.7 517.6 459.7 515.8 L 459.7 369.9 C 459.7 369.3 459.6 368.7 459.6 368 C 458.9 368.2 458.5 368.3 458.1 368.5 C 438.3 376.2 418.5 383.9 398.7 391.6 C 395.9 392.7 393.1 392.7 390.3 391.6 C 362.2 380.4 334.2 369.1 306.1 357.9 C 302.4 356.4 298.8 354.9 295.1 353.5 C 294.5 353.3 293.6 353.2 293 353.5 C 272.1 360.4 251.1 367.4 230.2 374.4 C 229.1 374.7 229 375.4 229 376.3 C 229 398.2 229 420.1 229 442 L 229 522.8 C 229 523.3 229.1 523.8 229.1 524.5 C 229.7 524.3 230.1 524.3 230.5 524.1 C 247.6 518.4 264.7 512.7 281.7 507.1 C 282.4 506.9 282.9 506.6 283.5 506.6 C 286.1 506.2 288.4 507.8 289 510.3 C 289.6 512.7 288.4 515.3 286 516.2 C 283.8 517 281.6 517.7 279.3 518.4 C 263.9 523.6 248.4 528.6 233 533.9 C 226 536.4 218.9 531.6 218.9 523.8 C 219 486.9 219 450 219 413 L 219 375.3 C 219 371.9 220.1 369 222.9 366.9 C 223.9 366.1 225.1 365.5 226.3 365.1 C 247.7 358 269 350.9 290.4 343.7 C 293.3 342.7 296 343 298.8 344.2 C 322.8 353.8 346.8 363.4 370.8 373 C 378.3 376 385.8 379 393.2 382 C 394.1 382.3 394.8 382.4 395.7 382 C 415.6 374.3 435.5 366.5 455.4 358.8 C 460.1 357 464.7 358.1 467.6 361.8 C 469.1 363.8 469.7 366.1 469.7 368.6 L 469.7 413 L 469.7 516.1 Z" fill="rgb(242, 187, 34)" stroke="none" stroke-width="1"/>
                <path id="ezpmnKAQILU22" d="M 400.5 417.8 C 401 415.5 402.9 413.9 405.3 413.9 C 406.9 413.8 408.2 414.5 409.3 415.7 C 412.4 418.8 415.5 421.9 418.6 425 C 419.3 425.7 419.7 425.8 420.4 425 C 423.5 421.9 426.7 418.8 429.8 415.7 C 430.7 414.8 431.7 414.1 433 413.9 C 435.2 413.6 437.1 414.6 438.1 416.4 C 439.1 418.3 438.9 420.5 437.4 422.2 C 436.8 422.9 436 423.7 435.3 424.4 C 432.7 427 430 429.6 427.4 432.2 C 426.8 432.9 426.8 433.2 427.4 433.9 C 430.6 437 433.8 440.1 436.9 443.3 C 437.4 443.9 437.9 444.5 438.3 445.2 C 439.3 447.4 438.6 449.9 436.6 451.3 C 434.8 452.6 432.2 452.5 430.5 451 C 429.3 449.9 428.2 448.8 427.1 447.6 C 424.8 445.4 422.6 443.2 420.4 440.9 C 419.7 440.2 419.3 440.3 418.7 440.9 C 415.5 444.2 412.3 447.3 409.1 450.5 C 407.6 452 405.8 452.6 403.7 451.9 C 400.2 450.7 399.2 446.4 401.8 443.7 C 404.3 441.1 407 438.5 409.6 435.9 C 410.2 435.3 410.8 434.7 411.5 434 C 412.4 433 412.4 433 411.5 432.1 C 408.4 428.9 405.2 425.8 402.1 422.6 C 400.7 421.3 400.1 419.7 400.5 417.8" fill="rgb(242, 187, 34)" stroke="none" stroke-width="1"/>
                <path id="ezpmnKAQILU23" d="M 400.7 434.9 C 401.1 437.8 399.2 440.2 396 440.6 C 385.2 442.1 377.1 450 375.2 460.8 C 374.4 465.4 373.7 470.2 372.8 474.8 C 370.6 486.6 360.2 495.1 347.8 495.1 C 345 495.2 341.9 494.6 338.9 493.3 C 333.6 491 328.1 488.8 322.9 486.1 C 315.2 482.1 310.2 475.7 308.1 467.3 C 305.6 457.3 303.4 447.1 301.1 437 C 298.5 426.1 296.1 415.3 293.5 404.4 C 292.2 398.8 288.8 395.2 283.1 394.1 C 275.9 392.7 268.9 397.6 267.9 404.9 C 266.8 413 265.9 421.2 265 429.4 C 263 445.7 261.1 462.1 259.1 478.4 C 258.7 481.5 256.3 483.5 253.4 483.1 C 250.6 482.8 248.8 480.3 249.2 477.2 C 250 469.9 250.9 462.7 251.8 455.4 C 253.7 438.8 255.8 422.2 257.7 405.6 C 258.6 397.7 262 391.4 268.8 387.2 C 281.9 379.1 299.3 386 303 401 C 306.1 413.7 308.9 426.6 311.9 439.4 C 313.7 447.5 315.6 455.6 317.5 463.7 C 319.1 470.5 323 475.3 329.3 478.1 C 333.5 480 337.6 481.8 341.7 483.6 C 351.4 487.8 361.4 482.4 363.2 472.1 C 363.8 467.9 364.5 463.7 365.2 459.5 C 367.8 444.2 379.3 432.9 394.7 430.7 C 397.8 430.3 400.3 432 400.7 434.9" fill="rgb(242, 187, 34)" stroke="none" stroke-width="1"/>
                <path id="ezpmnKAQILU24" d="M 384.4 533.2 C 384.5 536.6 384.5 540 384.4 543.3 C 384.4 546.2 382.1 548.3 379.3 548.3 C 376.6 548.2 374.5 546.1 374.4 543.2 C 374.4 541.5 374.4 539.9 374.4 538.2 C 374.4 536.6 374.4 534.9 374.4 533.3 C 374.5 530.5 376.6 528.3 379.3 528.3 C 382.1 528.2 384.4 530.3 384.4 533.2" fill="rgb(242, 187, 34)" stroke="none" stroke-width="1"/>
                <path id="ezpmnKAQILU25" d="M 359.4 524.4 C 359.4 527.8 359.4 531.2 359.4 534.7 C 359.3 537.5 357 539.6 354.2 539.5 C 351.5 539.4 349.4 537.3 349.4 534.4 C 349.4 532.8 349.4 531.1 349.4 529.4 C 349.4 527.8 349.4 526.2 349.4 524.5 C 349.4 521.7 351.5 519.5 354.3 519.5 C 357 519.4 359.3 521.5 359.4 524.4" fill="rgb(242, 187, 34)" stroke="none" stroke-width="1"/>
                <path id="ezpmnKAQILU26" d="M 334.3 515.7 C 334.3 517.4 334.3 519.1 334.3 520.7 C 334.3 522.4 334.3 524 334.3 525.7 C 334.2 528.5 332.2 530.6 329.4 530.7 C 326.7 530.8 324.4 528.8 324.3 526 C 324.2 522.5 324.2 518.9 324.3 515.4 C 324.4 512.6 326.8 510.6 329.4 510.7 C 332.2 510.8 334.2 512.9 334.3 515.7" fill="rgb(242, 187, 34)" stroke="none" stroke-width="1"/>
                <path id="ezpmnKAQILU27" d="M 309.2 510.7 C 309.2 512.4 309.3 514 309.2 515.7 C 309.2 518.5 307 520.7 304.3 520.7 C 301.5 520.7 299.3 518.6 299.2 515.8 C 299.2 512.4 299.2 509 299.2 505.6 C 299.3 502.8 301.6 500.6 304.3 500.7 C 307 500.7 309.1 502.9 309.2 505.6 C 309.3 507.3 309.2 509 309.2 510.7" fill="rgb(242, 187, 34)" stroke="none" stroke-width="1"/>
            </g>
        </g>
        <g id="ezpmnKAQILU28" transform="matrix(1,0,0,1,33.1,338.4)">
            <g id="ezpmnKAQILU29">
                <g id="ezpmnKAQILU30">
                    <path id="ezpmnKAQILU31" d="M 1013.4 193 C 1013.5 192.1 1013.8 190.9 1013.4 190.3 C 1013.1 189.8 1011.6 189.6 1010.9 190 C 1009.3 190.8 1008 192.4 1006.4 192.9 C 1003 193.9 1001.7 196.1 1001.5 199.4 C 1001.5 199.7 1001.3 200.1 1001.1 200.4 C 1000.4 203.4 999.7 206.5 998.9 209.5 C 997.8 213.6 997 217.8 995.5 221.7 C 994.1 225.2 991.9 228.4 989.9 231.7 C 988.6 233.9 987.4 236.3 985.6 238.2 C 982.1 242 978.3 245.6 974.5 249.1 C 972.6 250.8 970.6 252.5 968.4 253.6 C 964.7 255.4 961.6 258.4 957.4 258.9 C 956.9 259 956.5 259.4 956 259.7 C 954.5 260.4 953 261.4 951.4 261.7 C 942.3 263.2 933.4 266.5 923.9 264.5 C 920.1 263.7 916.1 263.8 912.2 263.1 C 907.9 262.3 903.6 261 899.3 260.1 C 898.7 259.9 898 260.2 897.5 260.5 C 894.9 262 892.2 263.6 889.7 265.2 C 889.1 265.6 888.3 266.6 888.4 267.2 C 888.5 267.8 889.5 268.5 890.3 268.7 C 891.2 269.1 892.3 268.9 893.3 269.1 C 896.5 269.9 899.6 270.8 902.8 271.5 C 905.9 272.2 909 272.6 912.1 273.2 C 915.4 273.9 918.7 274.9 922.2 275.2 C 925.9 275.6 929.8 275.3 933.6 275.3 C 933.6 275.5 933.6 275.8 933.7 276 C 940.2 274.7 946.7 273.5 953.2 272.2 C 954.1 272 954.9 271.6 955.7 271.3 C 957.5 270.5 959.4 269.8 961.1 268.9 C 964.6 267.3 968.1 265.7 971.4 264 C 973.3 263 975 261.7 976.6 260.4 C 978.7 258.9 980.6 257.2 982.6 255.5 C 985.3 253.1 988.2 250.8 990.6 248.1 C 993.6 244.7 996.2 241.1 998.6 237.3 C 1001 233.4 1003 229.3 1004.9 225.2 C 1006.2 222.5 1007.3 219.7 1008.2 216.9 C 1009 214.4 1009.4 211.8 1009.9 209.2 C 1010.5 206.1 1011 203 1011.6 199.9 C 1011.8 198.3 1012.2 196.8 1012.6 195.2 C 1012.8 194.5 1013.3 193.8 1013.4 193 M 993.9 204.2 C 994 203.8 994 203.4 993.9 203.1 C 993.6 202.5 993.3 201.7 992.7 201.4 C 992.4 201.2 991.6 201.7 991.1 202.1 C 988.5 203.7 986 205.4 983.4 207 C 980.7 208.7 977.9 210.1 975.2 211.8 C 970.8 214.5 966.5 217.6 962 220.4 C 959.4 222 956.7 223.3 954 224.9 C 953.6 225.1 953.2 225.5 952.8 225.8 C 952 226.4 951.2 227 950.3 227.5 C 947.5 229.2 944.7 230.7 941.9 232.4 C 940.2 233.4 938.6 234.6 936.9 235.7 C 934.3 237.4 931.8 239.2 929.2 240.8 C 926.3 242.6 923.3 244 920.4 245.7 C 917 247.7 913.6 249.8 910.2 252 C 909.6 252.4 909.2 253.2 908.7 253.9 C 909.3 254.3 909.8 255 910.5 255.2 C 913.1 255.9 916.1 255.9 918.4 257.1 C 922.6 259.3 927.3 256.5 930.9 258.8 C 933.1 258.6 934.8 258.4 936.5 258.3 C 944.5 257.8 951.8 254.7 959 251.5 C 961.1 250.6 963.1 249.3 965 247.9 C 967.2 246.4 969.3 244.6 971.2 242.9 C 973.9 240.5 976.6 238.2 978.9 235.5 C 983 230.7 986.5 225.5 988.9 219.6 C 990.8 214.6 992.2 209.3 993.9 204.2" fill="rgb(242, 187, 34)" stroke="none" stroke-width="1"/>
                    <path id="ezpmnKAQILU32" d="M 1049.8 114.1 C 1051 119.2 1054.8 123.7 1054.3 129 C 1053.9 133.4 1055.1 137.9 1053.2 142.3 C 1051.7 145.6 1051.2 149.4 1049.6 152.7 C 1048.2 155.6 1046.1 158.3 1044.1 160.9 C 1042.6 162.8 1040.8 164.6 1038.9 166.2 C 1037 167.8 1034.9 169 1032.8 170.3 C 1030.1 172.1 1027.4 173.7 1024.7 175.4 C 1024.2 175.7 1023.9 176.2 1023.5 176.4 C 1020.7 178 1017.8 179.4 1015 181.1 C 1012.5 182.6 1010.1 184.5 1007.6 186.1 C 1005.4 187.6 1003.1 189 1000.7 190.4 C 997.4 192.5 994 194.6 990.6 196.7 C 989.8 197.2 988.8 197.5 988 197.9 C 987.2 198.3 986.5 198.8 985.7 199.3 C 984.7 199.9 983.7 200.6 982.7 201.2 C 980.2 202.8 977.7 204.2 975.2 205.8 C 973.9 206.6 972.6 207.4 971.4 208.2 C 968.8 209.9 966.2 211.7 963.6 213.4 C 962.8 213.9 961.9 214.3 961.1 214.8 C 958.1 216.6 955.1 218.5 952.2 220.4 C 950.4 221.5 948.7 222.8 946.9 223.9 C 944.2 225.5 941.4 226.9 938.7 228.5 C 937.7 229.1 937 230.1 936 230.7 C 933.4 232.3 930.7 233.6 928 235.2 C 925.4 236.8 922.7 238.5 920.1 240.1 C 919.6 240.5 919.3 241 918.8 241.3 C 916 242.9 913.1 244.3 910.3 246 C 907.8 247.5 905.4 249.4 902.9 251 C 900.2 252.7 897.2 254.3 894.4 256 C 891.8 257.6 889.4 259.3 886.8 261 C 886.5 261.3 886.1 261.6 885.8 261.8 C 883.1 263.3 880.3 264.7 877.7 266.2 C 875.1 267.8 872.7 269.7 870.1 271.3 C 867.5 272.9 865 275 862.1 275.8 C 855.6 277.5 848.9 278.6 843.5 279.7 C 836.2 278.3 830.2 277.4 825 273.9 C 824 273.2 822.6 272.9 821.7 272.1 C 819.1 269.9 816.6 267.7 814.2 265.3 C 812.3 263.4 810.6 261.1 808.9 259 C 808.7 258.8 808.5 258.6 808.4 258.3 C 806.8 255.5 805.3 252.6 803.7 249.9 C 802.3 247.5 800.6 245.3 799.1 243 C 798.9 242.7 798.6 242.4 798.4 242.1 C 796.8 239.2 795.4 236.3 793.6 233.5 C 792.1 230.9 790.2 228.5 788.5 226 C 788.3 225.8 788 225.5 788 225.3 C 786.9 220.1 782.7 215.7 783.2 210.3 C 783.6 205.6 782.9 200.8 784.3 196.1 C 785.8 191.4 787.4 186.8 790 182.7 C 792.6 178.7 795.6 175 799.6 172.2 C 803.8 169.4 807.9 166.3 812.2 163.6 C 814.4 162.2 816.7 161.1 818.9 159.9 C 819.7 159.5 820.4 159.1 821.2 158.7 C 822.9 157.7 824.5 156.5 826.1 155.4 C 828.8 153.7 831.4 151.9 834.1 150.2 C 834.5 149.9 834.8 149.6 835.2 149.4 C 838 147.8 840.9 146.4 843.6 144.7 C 846 143.1 848.3 141.3 850.7 139.7 C 851 139.5 851.4 139.3 851.7 139.1 C 855 137 858.3 134.9 861.7 132.9 C 862.4 132.4 863.3 132.2 864 131.7 C 865.1 131 866.2 130.3 867.3 129.6 C 867.5 129.5 867.6 129.3 867.8 129.2 C 870.4 127.7 873.1 126.3 875.7 124.7 C 878.3 123.1 880.9 121.3 883.4 119.7 C 883.6 119.5 883.8 119.2 884.1 119.1 C 886.9 117.5 889.8 116 892.6 114.3 C 894.6 113.1 896.6 111.9 898.5 110.6 C 901 109 903.3 107.2 905.8 105.7 C 908.6 104 911.5 102.5 914.3 100.8 C 915 100.4 915.6 99.8 916.2 99.4 C 916.6 99 916.9 98.6 917.3 98.3 C 920.1 96.8 922.9 95.4 925.6 93.8 C 928.2 92.2 930.6 90.4 933.2 88.7 C 933.9 88.2 934.8 87.9 935.5 87.4 C 936.5 86.8 937.4 86.1 938.4 85.5 C 938.7 85.3 938.9 84.9 939.2 84.8 C 941.9 83.3 944.6 81.9 947.2 80.3 C 949.9 78.7 952.4 77 954.9 75.3 C 955.4 75 955.8 74.6 956.3 74.3 C 961 71.6 965.7 69 970.3 66.1 C 975.3 62.7 980.9 60.2 986.7 59.8 C 988.9 59.6 991.1 59.4 993.3 59.4 C 995.8 59.4 998.4 59.7 1000.9 60.7 C 1002.9 61.6 1005.3 61.7 1007.4 62.5 C 1014.8 65.3 1021.3 69.6 1025.9 76.3 C 1028.7 80.4 1031.2 84.8 1033.9 89 C 1035.6 91.6 1037.6 94.1 1039.3 96.8 C 1040.7 98.9 1041.8 101.2 1043.1 103.4 C 1045.1 106.8 1047.3 110.1 1049.3 113.4 C 1049.5 113.6 1049.8 113.9 1049.8 114.1 M 1040.5 138.4 C 1041 135.8 1040.8 133 1040.7 130.3 C 1040.6 128.9 1040.3 127.5 1039.7 126.3 C 1037.9 122.7 1037.3 118.6 1034.5 115.4 C 1032.5 113.2 1031.5 110.1 1030.1 107.4 C 1029.9 107.1 1029.5 106.8 1029.3 106.5 C 1027.5 103.8 1025.7 101.1 1024 98.3 C 1022.4 95.8 1021.1 93.2 1019.5 90.8 C 1017.6 88 1015.6 85.3 1013.6 82.7 C 1012.6 81.3 1011.7 79.8 1010.3 78.9 C 1005.2 75.8 1000 72.9 993.3 73.5 C 989.9 73.1 986.2 73.6 982.6 75.1 C 979.7 76.3 976.9 77.3 974.2 79.3 C 971.8 81.2 968.7 82.3 966.1 84 C 961.6 86.8 957.4 89.8 952.9 92.7 C 949.3 95 945.6 97.2 942 99.5 C 938.3 101.8 934.5 104.1 930.8 106.4 C 927.1 108.6 923.4 111 919.7 113.3 C 917.6 114.6 915.5 115.9 913.3 117.2 C 910.7 118.7 907.9 120.1 905.3 121.7 C 902 123.7 898.8 125.8 895.5 127.9 C 895 128.2 894.6 128.5 894.1 128.8 C 892.8 129.6 891.5 130.4 890.2 131.2 C 889.5 131.6 888.9 131.9 888.3 132.3 C 885.6 134.1 883.1 136 880.3 137.6 C 877.7 139.2 874.9 140.6 872.3 142.1 C 870.3 143.3 868.5 144.6 866.6 145.9 C 863.8 147.7 861 149.5 858.2 151.3 C 856.4 152.5 854.6 153.6 852.8 154.7 C 850.1 156.3 847.4 157.9 844.7 159.4 C 842.9 160.5 841 161.6 839.3 162.8 C 836.6 164.5 834.1 166.4 831.4 168 C 826.9 170.8 822.2 173.4 817.6 176 C 817.4 176.2 817.2 176.4 816.9 176.6 C 814.4 178.3 811.8 180 809.4 181.8 C 807.3 183.4 805.1 184.9 803.4 186.9 C 800.5 190.4 798.3 194.4 797.4 198.9 C 796.7 202.7 796.9 206.6 796.8 210.4 C 796.7 211.1 797.2 211.8 797.5 212.5 C 799.8 215.9 799.8 220.5 803.2 223.4 C 803.3 223.5 803.3 223.9 803.5 224.2 C 805 226.8 806.6 229.4 808.1 232.1 C 809.3 233.9 810.4 235.8 811.5 237.7 C 813.2 240.2 815 242.7 816.6 245.3 C 818.3 247.9 819.7 250.7 821.3 253.4 C 821.4 253.6 821.6 253.8 821.7 253.9 C 823.5 255.8 825.3 257.7 827.3 259.5 C 831.4 263.3 836.5 264.9 841.8 265.7 C 844.8 266.1 848 265.4 851.1 264.8 C 853.9 264.2 856.8 263.3 859.4 262 C 862.3 260.6 864.7 258.4 867.5 256.8 C 870.1 255.2 872.9 253.8 875.6 252.4 C 875.9 252.2 876.1 251.9 876.4 251.7 C 877.5 250.9 878.5 250.2 879.6 249.5 C 880.2 249.1 881 248.9 881.5 248.4 C 884.2 246.7 886.8 244.8 889.5 243.1 C 892.7 241.1 895.9 239.1 899.2 237.1 C 901.5 235.6 903.9 234.2 906.2 232.7 C 908.9 231.1 911.7 229.7 914.3 228 C 917 226.3 919.6 224.5 922.2 222.8 C 924.1 221.6 926 220.4 927.9 219.2 C 930.7 217.6 933.5 216 936.3 214.4 C 939 212.7 941.7 210.8 944.5 209.1 C 944.6 208.9 944.9 208.9 945.1 208.8 C 947.7 207.3 950.4 205.8 953 204.3 C 954.7 203.3 956.3 202.2 958 201.1 C 960.8 199.3 963.5 197.3 966.3 195.5 C 969 193.9 971.8 192.5 974.6 190.9 C 976.6 189.7 978.5 188.5 980.5 187.2 C 983.4 185.3 986.2 183.4 989 181.5 C 992 179.6 995 177.8 997.9 175.9 C 1000.3 174.4 1002.7 172.9 1005.1 171.4 C 1008.4 169.3 1011.7 167.3 1015 165.3 C 1017.2 163.9 1019.5 162.5 1021.7 161.2 C 1024.2 159.7 1026.8 158.4 1029.2 156.7 C 1030.7 155.7 1032.2 154.4 1033.4 152.9 C 1035.2 150.6 1036.8 148 1038.2 145.4 C 1039.3 143.2 1040.2 140.8 1040.5 138.4" fill="rgb(242, 187, 34)" stroke="none" stroke-width="1"/>
                    <path id="ezpmnKAQILU33" d="M 1020.7 126.3 C 1021.6 133.7 1017.8 139.2 1013.3 144.4 C 1011.7 146.2 1010.1 147.8 1008.3 149.4 C 1007 150.5 1005.4 151.4 1004 152.3 C 1003.9 152.4 1003.8 152.4 1003.7 152.4 L 1000.1 146.4 C 1003.6 144.2 1007.2 140.3 1006 135.3 C 1005 131.6 1004.5 127.8 1003 124.4 C 1001.8 121.4 999.3 119 997.7 116.2 C 995.6 112.4 992.5 109.7 989.1 107.3 C 987.6 106.2 985.7 105.6 984.2 104.9 C 981.5 105.4 979.1 105.8 976.7 106.3 C 975.9 106.5 975.3 106.8 975 107.1 L 969.9 101.9 C 970 101.9 970 101.8 970.1 101.8 C 973.5 100.1 976.7 98.1 980.2 96.8 C 983.4 95.7 986.9 95.6 990.2 94.7 C 993.9 93.8 997.4 94.9 1000.7 96.1 C 1003.4 97 1005.8 99 1008.2 100.7 C 1009.9 101.9 1011.4 103.4 1012.9 104.8 C 1013.5 105.4 1013.9 106.1 1014.4 106.7 C 1015.2 107.8 1016 109 1016.8 110.1 C 1017 110.3 1017.3 110.5 1017.4 110.7 C 1018.4 115.2 1021 119.3 1020.7 124.1 C 1020.7 124.8 1020.6 125.6 1020.7 126.3" fill="rgb(242, 187, 34)" stroke="none" stroke-width="1"/>
                    <path id="ezpmnKAQILU34" d="M 1013.4 190.3 C 1013.8 190.9 1013.5 192.1 1013.4 193 C 1013.3 193.8 1012.8 194.5 1012.6 195.2 C 1012.2 196.8 1011.8 198.3 1011.6 199.9 C 1011 203 1010.5 206.1 1009.9 209.2 C 1009.4 211.8 1009 214.4 1008.2 216.9 C 1007.3 219.7 1006.2 222.5 1004.9 225.2 C 1003 229.3 1001 233.4 998.6 237.3 C 996.2 241.1 993.6 244.7 990.6 248.1 C 988.2 250.8 985.3 253.1 982.6 255.5 C 980.6 257.2 978.7 258.9 976.6 260.4 C 975 261.7 973.3 263 971.4 264 C 968.1 265.7 964.6 267.3 961.1 268.9 C 959.4 269.8 957.5 270.5 955.7 271.3 C 954.9 271.6 954.1 272 953.2 272.2 C 946.7 273.5 940.2 274.7 933.7 276 C 933.6 275.8 933.6 275.5 933.6 275.3 C 929.8 275.3 925.9 275.6 922.1 275.2 C 918.8 274.9 915.4 273.9 912.1 273.2 C 909 272.6 905.9 272.2 902.8 271.5 C 899.6 270.8 896.5 269.9 893.3 269.1 C 892.3 268.9 891.2 269.1 890.3 268.7 C 889.5 268.5 888.5 267.8 888.4 267.2 C 888.3 266.6 889.1 265.6 889.7 265.2 C 892.2 263.6 894.9 262 897.5 260.5 C 898 260.2 898.7 259.9 899.3 260.1 C 903.6 261 907.9 262.3 912.2 263.1 C 916.1 263.8 920.1 263.7 923.9 264.5 C 933.4 266.5 942.3 263.2 951.4 261.7 C 953 261.4 954.5 260.4 956 259.7 C 956.5 259.5 956.9 259 957.4 258.9 C 961.6 258.4 964.7 255.4 968.4 253.6 C 970.6 252.5 972.6 250.8 974.5 249.1 C 978.3 245.6 982.1 242 985.6 238.2 C 987.4 236.3 988.6 233.9 989.9 231.7 C 991.9 228.4 994.1 225.2 995.5 221.7 C 997 217.8 997.8 213.6 998.9 209.5 C 999.7 206.5 1000.4 203.5 1001.1 200.4 C 1001.3 200.1 1001.5 199.7 1001.5 199.4 C 1001.7 196.1 1003 193.9 1006.4 192.9 C 1008 192.4 1009.3 190.8 1010.9 190 C 1011.6 189.6 1013.1 189.8 1013.4 190.3" fill="rgb(242, 187, 34)" stroke="none" stroke-width="1"/>
                    <path id="ezpmnKAQILU35" d="M 1000.1 146.4 L 1003.7 152.4 C 1001.2 154 998.6 155.6 996.1 157.1 C 995.1 157.7 994.1 158.4 993.2 159 C 992.4 159.5 991.5 160 990.7 160.5 C 989.8 161.1 988.8 161.7 987.8 162.3 C 986.8 162.9 985.8 163.5 984.8 164.1 C 984 164.5 983.3 165 982.5 165.4 C 981.8 165.7 980.5 166.4 980.3 166.2 C 979.5 165.3 978.7 164.2 978.4 163 C 978.2 162.5 979.1 161.5 979.6 161 C 980.5 160.1 981.9 159.6 982.3 158.6 C 983.2 156.2 982 154.2 980.6 152.3 C 979.9 151.3 979.3 150.2 978.6 149.2 C 978.1 148.4 977.5 147.6 977 146.9 C 976.7 146.5 976.2 146.2 975.9 145.8 C 974.5 143.1 973.1 140.3 971.6 137.6 C 971 136.6 970 135.8 969.4 134.7 C 967.7 131.9 966.2 129.1 964.6 126.3 C 964.2 125.6 963.7 125.1 963.3 124.6 C 962.7 123.9 962.2 123.2 961.7 122.5 C 960.7 120.9 959.8 119.2 958.6 117.8 C 957.2 116.3 955.6 117.6 954 117.9 C 952.8 118.2 951.6 118.3 950.4 118.2 C 949.8 118.2 949 117.4 949 116.8 C 948.9 116.2 949.3 115.2 949.8 114.8 C 954 112.1 958.3 109.6 962.5 106.9 C 965 105.3 967.4 103.6 969.9 101.9 L 975 107.1 C 974.1 107.8 974.3 108.8 975.2 110.4 C 976.9 113.3 978.5 116.2 980.2 119.1 C 981.3 121.1 982.4 123.1 983.5 125 C 985.7 128.6 988 132.2 990.2 135.7 C 990.3 135.9 990.5 136.1 990.6 136.3 C 992.6 139.2 994.6 142.2 996.6 145.1 C 997.5 146.5 998.6 147.3 1000.1 146.4" fill="rgb(242, 187, 34)" stroke="none" stroke-width="1"/>
                    <path id="ezpmnKAQILU36" d="M 993.9 203.1 C 994 203.4 994 203.8 993.9 204.2 C 992.2 209.3 990.8 214.6 988.9 219.6 C 986.5 225.5 983 230.7 978.9 235.6 C 976.6 238.2 973.9 240.5 971.2 242.9 C 969.3 244.6 967.2 246.4 965 247.9 C 963.1 249.3 961.1 250.6 959 251.5 C 951.8 254.7 944.5 257.8 936.5 258.3 C 934.8 258.4 933.1 258.6 930.9 258.8 C 927.3 256.5 922.7 259.3 918.4 257.1 C 916.1 255.9 913.1 255.9 910.5 255.2 C 909.8 255 909.3 254.3 908.7 253.9 C 909.2 253.2 909.6 252.4 910.3 252 C 913.6 249.8 917 247.7 920.4 245.7 C 923.3 244 926.3 242.6 929.2 240.8 C 931.8 239.2 934.3 237.4 936.9 235.7 C 938.6 234.6 940.2 233.4 941.9 232.4 C 944.7 230.7 947.5 229.2 950.4 227.5 C 951.2 227 952 226.4 952.8 225.8 C 953.2 225.5 953.6 225.1 954 224.9 C 956.7 223.3 959.4 222 962 220.4 C 966.5 217.6 970.8 214.5 975.2 211.8 C 977.9 210.1 980.7 208.7 983.4 207 C 986 205.4 988.5 203.7 991.1 202.1 C 991.6 201.7 992.4 201.2 992.7 201.4 C 993.3 201.7 993.6 202.5 993.9 203.1" fill="rgb(242, 187, 34)" stroke="none" stroke-width="1"/>
                    <path id="ezpmnKAQILU37" d="M 976.5 165.1 C 977.8 167.4 977 169.3 974.7 170.6 C 971.4 172.4 968.4 174.6 965.2 176.5 C 964.6 176.9 963.8 177.2 963.2 177.6 C 962.1 178.2 961.1 178.8 960.1 179.5 C 959.8 179.7 959.5 180 959.2 180.2 C 956.6 181.8 953.9 183.2 951.3 184.8 C 948.5 186.6 945.7 188.4 942.8 190.2 C 940.5 191.7 938.1 193.2 935.7 194.6 C 935.3 194.9 934.8 195.1 934.3 195.1 C 932.9 195.2 931.2 195.8 930.4 194 C 929.6 192.3 931.1 191.7 932 190.9 C 935.1 188.2 935.3 187.6 933.4 184.2 C 931.4 180.7 929.1 177.4 927.1 174 C 925.4 171.2 924 168.2 922.3 165.4 C 920.6 162.6 918.7 159.9 916.9 157.2 C 916.6 156.7 916.2 156.2 915.9 155.8 C 915 154.4 914 153 913.1 151.6 C 912.7 150.9 912.3 150.2 912 149.5 C 911.3 147.3 910.1 146.7 907.8 147.4 C 906.6 147.8 905.4 148.4 904.2 148.5 C 903.5 148.6 902.3 148.1 902 147.6 C 901.7 146.8 901.8 145.6 902.2 144.7 C 902.4 144 903.1 143.4 903.8 143 C 906.5 141.3 909.3 139.7 912.1 138 C 914.8 136.3 917.4 134.5 920.1 132.8 C 920.8 132.3 921.5 132 922.2 131.5 C 923.4 130.8 924.5 129.9 925.7 129.3 C 926.6 128.8 927.8 128.1 928.8 128.3 C 929.5 128.4 930.4 129.7 930.4 130.5 C 930.4 131.6 930 133.1 929.2 133.7 C 927.9 134.9 925.4 135.2 926.3 137.7 C 926.8 139.3 927.8 140.8 928.5 142.3 C 928.8 142.7 929.1 143 929.3 143.4 C 931.5 146.9 933.9 150.4 936 153.9 C 937.7 156.7 939 159.7 940.6 162.6 C 942.1 165.1 943.9 167.5 945.5 170 C 946 170.8 946.7 171.6 947 172.4 C 949.1 177.3 952.2 176.2 955.6 174.2 C 956.9 173.5 958.1 172.7 959.2 171.8 C 961.4 169.9 964.1 168.6 964.3 165.1 C 964.4 163.6 965.2 162 965.6 160.5 C 965 157.6 964.3 154.9 963.9 152.1 C 963.8 151.1 963.9 149.5 964.6 148.8 C 965.7 147.7 967.2 148.1 968.4 149.1 C 968.9 149.6 969.5 150 969.8 150.6 C 971.6 154.6 973.4 158.7 975.3 162.8 C 975.6 163.6 976 164.4 976.5 165.1" fill="rgb(242, 187, 34)" stroke="none" stroke-width="1"/>
                    <path id="ezpmnKAQILU38" d="M 945 74.4 C 945.1 75.1 944.4 76.4 943.7 76.8 C 941.5 78.1 939.1 78.7 937.2 80.6 C 936.4 81.4 934.3 81.1 932.9 80.9 C 929.6 80.2 926.5 79.3 923.3 78.5 C 919.6 77.7 915.9 76.9 912.2 76.1 C 910.9 75.9 909.4 76.2 908 75.9 C 897.4 73.8 887.3 76.8 877.1 78.8 C 872.1 79.7 868.3 82.8 863.7 84.4 C 861.3 85.2 859.3 87.4 857.1 89 C 855.5 90.2 853.8 91.4 852.3 92.8 C 849.7 95.2 847.3 97.9 844.7 100.4 C 839.2 106 835.9 113.1 832.8 120.1 C 831 124.2 829.5 128.6 829.3 133.3 C 829.1 136.4 827.8 139.4 827.1 142.4 C 827 142.8 826.6 143.3 826.7 143.6 C 827 148.9 823.4 151.1 819.6 153.2 C 818.9 153.6 818.4 154.3 817.8 154.8 C 817.3 155.4 816.7 155.6 816.2 155.6 C 815.4 155.6 814.8 155.1 814.7 154 C 814.4 152.6 814.8 151.1 815.1 149.6 C 815.1 149.2 815.6 148.8 815.6 148.4 C 816.2 145.4 816.6 142.3 817.2 139.3 C 817.8 136.2 818.7 133.1 819.4 129.9 C 819.5 129.5 819.7 129.2 819.8 128.9 C 819.9 125.2 821.2 122 822.7 118.7 C 824.2 115.2 825.2 111.5 826.9 108.1 C 828.8 104.5 831.2 101.1 833.7 97.8 C 836.6 94 839.8 90.4 843.2 87.1 C 846.3 84.2 849.8 81.8 853.2 79.3 C 855.7 77.4 858.5 75.8 861.2 74 C 861.6 73.8 861.9 73.5 862.3 73.3 C 871 69.1 880.1 66.8 889.6 65.6 C 892.7 65.2 895.7 64.8 899.4 64.3 C 900.4 64.5 901.9 64.9 903.4 65.1 C 904.3 65.2 905.3 65.2 906.2 65.3 C 908.1 65.5 909.9 65.7 911.8 66 C 912.2 66.1 912.5 66.3 912.9 66.3 C 916.1 66.8 919.4 67.2 922.5 67.8 C 925.7 68.5 928.7 69.5 931.9 70.1 C 934.9 70.8 938.1 71.2 941.1 71.7 C 941.8 71.8 942.6 71.7 943.1 72.1 C 943.9 72.7 944.9 73.5 945 74.4" fill="rgb(242, 187, 34)" stroke="none" stroke-width="1"/>
                    <path id="ezpmnKAQILU39" d="M 924.4 86.1 C 924.6 86.7 924.1 87.9 923.5 88.5 C 922.4 89.6 921 90.5 919.7 91.4 C 916.6 93.4 913.5 95.3 910.4 97.2 C 907.8 98.9 905 100.4 902.3 102 C 899.9 103.4 897.4 104.9 895 106.4 C 893.7 107.2 892.4 108 891.1 108.8 C 888.6 110.4 886.2 112.1 883.7 113.7 C 883.4 113.9 883.2 114.2 882.8 114.4 C 880.1 116 877.2 117.5 874.5 119.2 C 871.8 120.8 869.2 122.7 866.5 124.5 C 864.8 125.6 863.1 126.6 861.3 127.7 C 858.6 129.4 855.7 131 852.9 132.6 C 852.2 133.1 851.5 133.5 850.7 134 C 849.7 134.6 848.8 135.3 847.8 135.9 C 846.8 136.6 845.7 137.3 844.7 137.9 C 844.5 138.1 844.3 138.4 844.1 138.5 C 842.1 139.8 840.3 141.2 838.2 142.2 C 837.3 142.6 835.7 142.7 834.9 142.2 C 834.3 141.8 834.1 140.2 834.4 139.3 C 835.2 135.1 836.2 131 837.4 127 C 838.1 124.7 839.4 122.6 840.4 120.4 C 841.8 117.6 842.8 114.5 844.6 112 C 847.1 108.2 850 104.7 853.1 101.4 C 855.8 98.4 859 95.8 862.2 93.2 C 863.9 91.8 865.9 90.5 867.9 89.7 C 873 87.7 877.6 84.4 883.3 83.9 C 888.5 83.3 893.7 82.3 898.9 81.5 C 899.5 81.4 900.1 81.4 900.6 81.4 C 900.7 81.3 900.7 81.2 900.7 81.2 C 904.5 81.9 908.4 82.8 912.3 83.5 C 915.5 84 918.8 84.4 922 85 C 922.8 85.2 924.1 85.5 924.4 86.1" fill="rgb(242, 187, 34)" stroke="none" stroke-width="1"/>
                    <path id="ezpmnKAQILU40" d="M 920.2 187.4 C 921 194.1 919.1 200.2 915.1 205.5 C 912.9 208.5 910.4 211.5 907.4 213.6 C 903.2 216.4 898.7 219.1 893.4 219.6 C 890.5 219.8 887.7 220.3 884.5 220.7 C 882.1 220 879.3 219.5 876.7 218.6 C 872 216.8 867.9 213.9 864.6 210.1 C 862.5 207.7 861 204.8 859.5 202 C 858.3 200 857.2 198 856.5 195.9 C 855.6 193 855 190 856.2 187 C 856.5 186.5 856.4 185.8 856.4 185.2 C 856.3 180.3 858.7 176.2 861 172.1 C 863 168.4 866.3 165.8 869.6 163.4 C 874.6 159.8 880.2 157.3 886.5 156.9 C 888 156.9 889.5 156.7 890.9 156.5 C 894.5 156 897.5 157.6 900.6 158.8 C 904.1 160.2 907.2 162 909.9 164.7 C 911 165.8 912.3 166.9 913.1 168.3 C 915.2 171.7 918.2 174.7 918.8 179 C 919.2 181.8 919.8 184.6 920.2 187.4 M 901.6 208.9 C 904.1 207.8 906.7 203.3 906.2 200.7 C 905.6 197 904.9 193.3 904.2 189.6 C 904.1 189 903.9 188.4 903.6 187.9 C 901.7 185 899.8 182.1 897.9 179.2 C 896.5 177.1 895.4 174.5 893.5 172.9 C 890.1 170.1 887.1 166.7 882.1 165.9 C 878.1 165.3 875.9 167.7 873.2 169.2 C 872.1 169.8 871.3 171.4 871 172.6 C 870.6 174.6 870.7 176.8 870.5 179.5 C 870.5 179.6 870.5 180.5 870.8 181.2 C 871.9 184.5 873.2 187.8 874.5 191.2 C 874.5 191.3 874.7 191.5 874.8 191.7 C 876.5 194.1 878.6 196.4 879.9 199 C 881.3 202 883.6 204.1 885.9 206.2 C 891.2 211.1 895.5 211.6 901.6 208.9" fill="rgb(242, 187, 34)" stroke="none" stroke-width="1"/>
                    <path id="ezpmnKAQILU41" d="M 865.5 217.7 C 868 221.2 868.5 225.5 867.6 229.6 C 867 232.4 865.9 235.2 864.3 237.6 C 862.1 241.2 859.1 243.9 855.1 245.8 C 851.5 247.5 847.8 248.6 843.9 249.7 C 843.1 249.9 842.6 251.2 842.1 252 C 841.6 253 841.3 254.1 840.6 254.9 C 839.3 256.2 837.8 255.8 836.8 254.2 C 834.9 251 832.7 248 830.7 244.9 C 830.3 244.3 830.2 243.5 829.8 242.9 C 829.2 241.8 828.6 240.7 827.8 239.8 C 826.2 238.1 825.5 235.4 826.6 234.3 C 827.8 233 830 233.6 832.2 235.2 C 834.9 237.2 837.7 239.2 840.7 240.6 C 845.6 242.9 854.4 239.8 857.1 235.1 C 859 231.8 856.1 226.6 852.3 226.4 C 850.9 226.3 849.6 226.4 848.3 226.4 C 848.2 226.2 848.2 226 848.2 225.9 C 842.6 226.3 836.9 227 831.3 227.1 C 826.8 227.2 822.8 225.7 819.1 222.9 C 814.6 219.5 812.4 215.2 811.7 209.7 C 811.3 206.5 812.7 203.8 813.9 201.3 C 815.5 197.7 818.1 194.9 821.7 192.6 C 825.3 190.3 828.9 189.5 832.8 188.8 C 834.5 188.6 835.9 188.1 834.9 185.8 C 834.4 184.6 835.3 183.7 836.5 183.4 C 838.2 182.9 839.6 183.1 840.5 184.7 C 841.4 186.1 842.4 187.5 843.2 189 C 844.9 191.6 846.5 194.3 848.2 196.9 C 848.5 197.4 848.7 198 849.2 198.4 C 850.3 199.4 851.1 200.4 849.7 201.7 C 848.4 203 846.3 203 845.1 202 C 843.5 200.7 841.8 199.6 840.1 198.4 C 837.2 196.1 833.6 196.9 830.3 196.3 C 826.3 195.7 821.5 201.4 822.1 205.3 C 822.5 207.3 824.8 209.4 827 209.3 C 833.9 209.1 840.7 208.8 847.6 208.4 C 851.1 208.2 854.3 209.4 857.5 210.7 C 861 212.2 863.4 214.8 865.5 217.7" fill="rgb(242, 187, 34)" stroke="none" stroke-width="1"/>
                </g>
            </g>
        </g>
        <g id="ezpmnKAQILU42" transform="matrix(1,0,0,1,34.7,383.1)">
            <g id="ezpmnKAQILU43">
                <g id="ezpmnKAQILU44">
                    <path id="ezpmnKAQILU45" d="M 290.9 107.9 C 293.8 112.9 292.3 118.9 287.4 121.8 C 276.5 128.2 265.6 134.5 254.6 140.9 C 238.3 150.4 222 160 205.7 169.5 C 193.3 176.7 180.9 183.9 168.6 191.1 C 152.5 200.5 136.3 209.9 120.2 219.3 C 117.2 221.1 114 221.5 110.7 220.2 C 108.7 219.3 107 217.9 105.9 215.9 C 101.9 208.9 97.8 202 93.8 195 C 93.6 194.8 93.6 194.5 93.4 194.3 C 91.8 191.4 90.1 188.6 88.4 185.7 C 87.7 184.5 86.9 183.3 86.2 182.1 C 81.2 173.6 76.3 165.2 71.4 156.8 C 64.2 144.5 57 132.1 49.8 119.8 C 48.9 118.1 47.8 116.5 47.5 114.6 C 46.6 110.4 48.5 106.2 52.2 104 C 54.8 102.5 57.4 101 60 99.4 C 60.9 98.9 60.9 98.9 60.4 98 C 58.4 94.7 56.5 91.3 54.5 88 C 54.2 87.5 54.3 87.2 54.8 87 C 55.4 86.7 55.9 86.4 56.4 86.1 C 56.7 85.9 57.1 85.8 57.4 85.6 C 65.7 80.8 74 75.9 82.2 71.1 C 82.9 70.7 83.2 70.8 83.5 71.4 C 85.4 74.7 87.4 78 89.3 81.3 C 89.6 81.9 89.9 82.1 90.6 81.7 C 100.1 76.1 109.7 70.6 119.2 65 C 123 62.8 126.8 60.6 130.7 58.4 C 131.2 58.1 131.5 57.7 131.5 57.1 C 131.4 56.2 131.4 55.3 131.3 54.4 C 131.1 50.5 130.8 46.7 130.6 42.8 C 130.5 41 130.3 39.2 130.2 37.4 C 130 34.6 129.9 31.7 129.7 28.8 C 129.6 28.2 129.8 27.8 130.4 27.5 C 134.9 24.9 139.4 22.2 143.9 19.6 C 153.4 14.1 163 8.5 172.5 2.9 C 173.2 2.5 173.8 2.5 174.5 3 C 176.8 4.5 179.1 6.1 181.4 7.6 C 183.7 9.1 186 10.5 188.2 12 C 191.5 14.1 194.8 16.3 198.1 18.5 C 198.3 18.6 198.6 18.5 198.8 18.5 C 199.4 18.1 199.9 17.8 200.4 17.5 C 200.7 17.4 201.1 17.3 201.4 17.1 C 207.2 13.7 212.9 10.4 218.6 7 C 220.2 6.1 221.8 5.3 223.6 5.1 C 226.4 4.7 228.9 5.3 231 7.1 C 232 7.9 232.8 8.9 233.6 9.8 C 233.8 10.1 233.9 10.4 234 10.6 C 235.6 13.5 237.3 16.3 238.9 19.1 C 239.7 20.3 240.5 21.6 241.3 22.8 C 246 31 250.8 39.2 255.6 47.4 C 262.7 59.6 269.8 71.7 276.9 83.9 C 281.6 91.9 286.3 99.9 290.9 107.9 M 283.7 116.3 C 285.9 115 286.4 113.2 285.1 111 C 283.6 108.4 282 105.7 280.4 103.1 C 279.6 101.7 278.8 100.3 277.9 98.9 C 270.8 86.6 263.6 74.3 256.4 62.1 C 251 52.7 245.5 43.3 240 33.9 C 239.9 33.6 239.7 33.3 239.6 33 C 236.7 28.1 233.9 23.2 231.1 18.4 C 230.3 17.1 229.5 15.9 228.7 14.6 C 227.6 11.2 224.7 10.3 222.2 12.6 C 221.9 12.7 221.7 12.8 221.4 13 C 214 17.3 206.6 21.7 199.2 26 C 198.6 26.3 198.2 26.4 197.7 26 C 196.4 25.2 195 24.3 193.7 23.5 C 190.4 21.2 187 19 183.7 16.8 C 180.4 14.7 177.1 12.6 173.9 10.5 C 173.5 10.2 173.1 10.2 172.7 10.5 C 167.9 13.3 163.1 16.1 158.3 18.9 C 151.3 23 144.2 27.1 137.2 31.2 C 136.6 31.5 136.4 31.9 136.5 32.5 C 136.5 33.1 136.6 33.8 136.6 34.4 C 136.8 38 137 41.6 137.3 45.2 C 137.6 50.3 137.9 55.4 138.3 60.6 C 138.4 61.2 138.1 61.6 137.5 62 C 131.1 65.7 124.8 69.4 118.4 73.1 C 105.1 80.9 91.9 88.6 78.6 96.4 C 71.1 100.8 63.5 105.1 56 109.5 C 53.9 110.8 53.4 112.6 54.6 114.8 C 57.7 120 60.7 125.2 63.8 130.4 C 73.3 146.7 82.8 163 92.3 179.3 C 98.7 190.4 105.2 201.4 111.6 212.5 C 112.7 214.3 114.7 214.8 116.5 213.7 C 132.6 204.3 148.8 194.9 164.9 185.6 C 179.5 177 194.2 168.4 208.9 159.8 C 215.4 156.1 221.9 152.3 228.4 148.5 C 228.7 148.3 229 148.2 229.2 148.1 C 236.2 144 243.2 139.9 250.2 135.9 C 261.4 129.4 272.5 122.8 283.7 116.3 M 83.3 85.9 C 83.8 85.6 84 85.3 83.6 84.7 C 82.8 83.3 81.9 81.9 81.2 80.4 C 80.8 79.8 80.4 79.8 79.8 80.1 C 77 81.8 74.1 83.5 71.2 85.2 C 68.8 86.6 66.3 88 63.9 89.4 C 63.6 89.6 63.3 89.8 63.6 90.2 C 64.5 91.8 65.5 93.5 66.4 95.1 C 66.5 95.2 66.6 95.4 66.6 95.6 C 66.7 95.6 66.8 95.5 66.9 95.4 C 67 95.3 67.2 95.3 67.3 95.2 C 72.6 92.1 78 89 83.3 85.9" fill="rgb(242, 187, 34)" stroke="none" stroke-width="1"/>
                    <path id="ezpmnKAQILU46" d="M 285.1 111 C 286.4 113.2 285.9 115 283.7 116.3 C 272.5 122.8 261.4 129.4 250.2 135.9 C 243.2 139.9 236.2 144 229.2 148.1 C 229 148.2 228.7 148.3 228.4 148.5 C 229.7 147.7 230.9 146.9 232.1 146.2 C 238.3 142.5 244.5 138.9 250.6 135.3 C 259.1 130.4 267.6 125.5 276 120.5 C 278.5 119.1 281 117.6 283.5 116.2 C 285.6 114.9 286.1 113.1 284.8 111 C 282.6 107.2 280.4 103.5 278.3 99.7 C 278.1 99.5 278 99.2 277.9 98.9 C 278.8 100.3 279.6 101.7 280.4 103.1 C 282 105.7 283.6 108.4 285.1 111" fill="rgb(242, 187, 34)" stroke="none" stroke-width="1"/>
                    <path id="ezpmnKAQILU47" d="M 250.5 82.1 C 252 87.2 252.6 92.4 252.4 97.7 C 252.2 102.7 251.4 107.5 249.9 112.2 C 249.5 113.4 249 114.5 248.5 115.6 C 249 114.2 249.4 112.8 249.9 111.3 C 251.8 105.2 252.4 99 252 92.7 C 251.8 88.6 251.1 84.6 249.9 80.7 C 249.2 78.7 248.4 76.7 247.7 74.6 L 247.9 74.6 C 248.8 77.1 249.8 79.6 250.5 82.1" fill="rgb(242, 187, 34)" stroke="none" stroke-width="1"/>
                    <path id="ezpmnKAQILU48" d="M 252 92.7 C 252.4 99 251.8 105.2 249.9 111.3 C 249.4 112.8 249 114.2 248.5 115.6 C 247.4 117.9 246.4 120.2 245.3 122.5 C 245.1 122.7 244.9 122.9 244.8 123.1 C 243.5 125.1 242.2 127.1 240.8 129 C 238.1 132.4 235 135.5 231.6 138.1 C 227.9 141 223.8 143.4 219.5 145.2 C 218 145.9 216.4 146.4 214.8 147 C 213.4 147.4 212 147.8 210.6 148.1 C 208.8 148.4 206.9 148.7 205.1 149 C 204.3 149.1 203.4 149.4 202.6 149.5 C 202 149.5 201.5 149.5 201 149.4 C 199.6 149.4 198.2 149.4 196.8 149.4 C 193.8 149 190.8 148.8 187.8 148.3 C 183.8 147.5 180 146.2 176.3 144.4 C 176.1 144.4 175.8 144.3 175.6 144.3 C 175.3 144.1 175.1 143.9 174.8 143.8 C 171.8 142.3 168.9 140.6 166.4 138.5 C 164.8 137.3 163.4 136 161.9 134.8 C 161.5 134.4 161.2 134 160.8 133.6 C 158.6 131.3 156.7 128.9 154.8 126.4 C 152.1 122.6 150.2 118.5 148.5 114.2 C 147.3 111 146.5 107.5 145.9 104.1 C 145.3 99.7 145.1 95.3 145.6 90.8 C 145.6 90.2 145.6 89.5 145.6 88.9 C 145.7 88.2 145.8 87.5 145.9 86.9 C 146 86.5 146.2 86.2 146.3 85.8 C 147.1 81.8 148.3 77.9 149.9 74.2 C 151.6 70.5 153.7 66.9 156.2 63.7 C 158.3 60.9 160.6 58.4 163.2 56.2 C 165.5 54.4 167.8 52.6 170.2 50.9 C 171.7 49.8 173.5 49 175.2 48 C 175.9 47.7 176.6 47.4 177.4 47.1 C 178.6 46.6 179.8 46 181 45.6 C 182.9 45 184.9 44.4 186.9 44 C 188.7 43.6 190.5 43.3 192.3 43 C 193.5 42.8 194.6 42.7 195.7 42.6 C 196 42.6 196.2 42.7 196.4 42.7 C 198.6 42.8 200.7 42.8 202.8 42.9 C 206.2 43 209.4 43.7 212.7 44.5 C 213.3 44.7 213.9 44.8 214.5 44.9 C 214.7 45 214.8 45.1 215 45.2 C 217.4 46.1 219.7 47 222 48 C 225.9 49.7 229.4 52 232.6 54.7 C 235.3 56.9 237.8 59.4 240 62.1 C 242.5 65.3 244.9 68.7 246.6 72.4 C 247 73.1 247.4 73.9 247.7 74.6 C 248.4 76.7 249.2 78.7 249.9 80.7 C 251.1 84.6 251.8 88.6 252 92.7 M 243.4 110 C 246 101.8 246.3 93.4 244.2 85 C 243.1 80.3 241.3 75.9 238.8 71.7 C 237.1 68.8 235 66.2 232.7 63.8 C 232.6 63.5 232.4 63.3 232.2 63.1 C 231.4 62.2 230.5 61.4 229.6 60.6 C 226.1 57.4 222.1 54.9 217.7 53 C 213.6 51.2 209.2 50 204.7 49.4 C 200.8 48.9 196.8 48.8 192.8 49.4 C 191.1 49.7 189.4 50 187.7 50.3 C 186.2 50.7 184.7 51.2 183.2 51.7 C 182 52.1 180.8 52.5 179.7 53.1 C 178.1 53.9 176.6 54.7 175 55.6 C 172.8 57 170.6 58.4 168.6 60 C 166.6 61.7 164.8 63.5 163.1 65.5 C 161.7 67.1 160.5 69 159.2 70.7 C 159 71 158.8 71.2 158.7 71.4 C 157.5 73.8 156.1 76.2 155.1 78.7 C 152.3 85.6 151.3 92.8 151.9 100.2 C 152.4 105.7 153.8 110.8 156.1 115.8 C 157.7 119.3 159.7 122.6 162.2 125.6 C 162.8 126.4 163.4 127.1 164 127.8 C 166.3 130.1 168.7 132.3 171.3 134.3 C 174.1 136.3 177.1 137.9 180.1 139.2 C 183.9 140.9 187.9 141.9 192 142.6 C 196.4 143.2 200.8 143.1 205.2 142.7 C 205.4 142.6 205.6 142.4 205.8 142.3 C 206.1 142.3 206.4 142.3 206.7 142.3 C 208.5 141.9 210.3 141.7 212 141.1 C 213.9 140.6 215.7 139.8 217.6 139 C 221.6 137.4 225.3 135.1 228.6 132.3 C 230.7 130.6 232.5 128.6 234.4 126.6 C 235.3 125.6 236 124.5 236.8 123.4 C 239.7 119.3 241.9 114.8 243.4 110" fill="rgb(242, 187, 34)" stroke="none" stroke-width="1"/>
                    <path id="ezpmnKAQILU49" d="M 247.9 74.6 L 247.7 74.6 C 247.4 73.9 247 73.1 246.6 72.4 C 244.9 68.7 242.5 65.3 240 62.1 C 237.8 59.4 235.3 56.9 232.6 54.7 C 229.4 52 225.9 49.7 222 48 C 219.7 47 217.4 46.1 215 45.2 C 214.8 45.1 214.7 45 214.5 44.9 C 214.3 44.8 214.2 44.7 214 44.6 C 215.5 45.1 216.9 45.4 218.3 46 C 220.6 47 222.8 48 224.9 49.2 C 228.2 50.9 231.2 53 233.9 55.5 C 235.6 57.1 237.4 58.6 238.9 60.3 C 241.5 63.3 243.8 66.4 245.6 69.9 C 246.4 71.5 247.1 73.1 247.9 74.6" fill="rgb(242, 187, 34)" stroke="none" stroke-width="1"/>
                    <path id="ezpmnKAQILU50" d="M 244.8 123.1 C 244.9 122.9 245.1 122.7 245.3 122.5 C 244.5 123.7 243.8 125 243 126.2 C 240.6 129.9 237.7 133.2 234.5 136.1 C 231.5 138.7 228.3 141.1 224.7 142.9 C 222.4 144.1 220 145.2 217.6 146.2 C 215.6 147 213.6 147.7 211.5 148.2 C 209.4 148.7 207.2 149 205.1 149.3 C 204.2 149.4 203.4 149.5 202.6 149.5 C 203.4 149.4 204.3 149.1 205.1 149 C 206.9 148.7 208.8 148.4 210.6 148.1 C 212 147.8 213.4 147.4 214.8 147 C 216.4 146.4 218 145.9 219.5 145.2 C 223.8 143.4 227.9 141 231.6 138.1 C 235 135.5 238.1 132.4 240.8 129 C 242.2 127.1 243.5 125.1 244.8 123.1" fill="rgb(242, 187, 34)" stroke="none" stroke-width="1"/>
                    <path id="ezpmnKAQILU51" d="M 241.3 22.8 C 240.5 21.6 239.7 20.3 238.9 19.1 C 237.3 16.3 235.6 13.5 234 10.6 C 233.9 10.4 233.8 10.1 233.7 9.8 C 234.4 11 235.2 12.3 236 13.5 C 237.6 16.3 239.3 19.1 240.9 21.9 C 241 22.2 241.1 22.5 241.3 22.8" fill="rgb(242, 187, 34)" stroke="none" stroke-width="1"/>
                    <path id="ezpmnKAQILU52" d="M 239.6 33 C 239.7 33.3 239.9 33.6 240 33.9 C 239.2 32.7 238.4 31.4 237.7 30.2 C 234.8 25.3 232 20.4 229.1 15.5 C 229 15.2 228.9 14.9 228.7 14.6 C 229.5 15.9 230.3 17.1 231.1 18.4 C 233.9 23.2 236.7 28.1 239.6 33" fill="rgb(242, 187, 34)" stroke="none" stroke-width="1"/>
                    <path id="ezpmnKAQILU53" d="M 233.3 127.5 C 234.5 126.2 235.6 124.8 236.8 123.4 C 236 124.5 235.3 125.6 234.4 126.6 C 232.5 128.6 230.7 130.6 228.6 132.3 C 225.3 135.1 221.6 137.4 217.6 139 C 215.7 139.8 213.9 140.6 212 141.1 C 210.3 141.7 208.5 141.9 206.7 142.2 C 207.3 142.1 207.9 141.9 208.4 141.7 C 210.2 141.2 212.1 140.9 213.9 140.3 C 217.2 139 220.5 137.6 223.5 135.7 C 227.1 133.4 230.4 130.7 233.3 127.5" fill="rgb(242, 187, 34)" stroke="none" stroke-width="1"/>
                    <path id="ezpmnKAQILU54" d="M 232.7 63.8 C 232.1 63.2 231.4 62.6 230.7 62 C 228.3 59.8 225.6 57.7 222.7 56 C 219.3 54 215.7 52.4 211.9 51.3 C 207.1 49.8 202.1 49.1 197.1 49.4 C 194.4 49.5 191.8 49.8 189.2 50.4 C 186.5 51 183.9 51.8 181.3 52.7 C 179.2 53.5 177.2 54.6 175.2 55.6 C 175.1 55.6 175 55.6 175 55.6 C 176.6 54.7 178.1 53.9 179.7 53.1 C 180.8 52.5 182 52.1 183.2 51.7 C 184.7 51.2 186.2 50.7 187.7 50.3 C 189.4 50 191.1 49.7 192.8 49.4 C 196.8 48.9 200.8 48.9 204.7 49.4 C 209.2 50 213.6 51.2 217.7 53 C 222.1 54.9 226.1 57.4 229.6 60.6 C 230.5 61.4 231.4 62.2 232.2 63.1 C 232.4 63.3 232.6 63.6 232.7 63.8" fill="rgb(242, 187, 34)" stroke="none" stroke-width="1"/>
                    <path id="ezpmnKAQILU55" d="M 229.4 109.1 C 231.7 103.8 232.5 98.3 231.9 92.7 C 231.5 89.1 230.6 85.7 229.2 82.4 C 227.6 78.9 225.4 75.8 222.8 73 C 219.9 69.8 216.3 67.4 212.3 65.6 C 208.7 64 205.1 63.1 201.2 62.8 C 197.8 62.5 194.5 62.8 191.2 63.6 C 188.4 64.2 185.8 65.1 183.4 66.4 C 178.9 68.7 175.1 71.9 172.1 75.9 C 169.1 79.9 167.1 84.2 166.1 89.1 C 165.4 92.5 165.3 95.8 165.5 99.3 C 165.7 101.8 166.2 104.2 167.1 106.6 C 168 108.8 169 110.9 169.9 113 C 169.9 113.1 169.9 113.1 169.9 113.2 C 168.5 111.1 167.5 108.8 166.7 106.4 C 165.9 104 165.5 101.5 165.2 99 C 164.9 96.1 165.1 93.2 165.6 90.4 C 166.5 84.9 168.7 80 172 75.6 C 175 71.7 178.7 68.5 183.1 66.3 C 185.1 65.3 187.2 64.3 189.3 63.7 C 191.7 63 194.2 62.7 196.6 62.5 C 200.4 62.1 204.3 62.6 208 63.6 C 210.2 64.3 212.3 65.3 214.4 66.3 C 216.2 67.2 217.9 68.4 219.5 69.5 C 220.8 70.5 222 71.7 223.1 72.9 C 225.5 75.3 227.3 78.1 228.9 81.1 C 230.1 83.4 230.9 85.9 231.5 88.3 C 232.8 94 232.6 99.7 231 105.4 C 230 108.7 228.7 111.8 226.7 114.6 L 226.7 114.3 C 227.6 112.5 228.7 110.8 229.4 109.1" fill="rgb(242, 187, 34)" stroke="none" stroke-width="1"/>
                    <path id="ezpmnKAQILU56" d="M 231.9 92.7 C 232.5 98.3 231.7 103.8 229.4 109.1 C 228.7 110.8 227.6 112.5 226.7 114.3 C 225.2 116.1 223.8 118.1 222.1 119.8 C 219.1 122.7 215.8 125 212 126.6 C 209.3 127.7 206.5 128.5 203.6 129 C 203.5 129 203.4 129.1 203.3 129.1 C 201.4 129.2 199.4 129.4 197.4 129.3 C 195.5 129.2 193.5 128.9 191.6 128.6 C 191.1 128.6 190.7 128.4 190.2 128.4 C 189 127.9 187.9 127.5 186.7 127.1 C 183.8 126 181.1 124.6 178.6 122.6 C 176.8 121.1 175.2 119.4 173.5 117.8 C 173.3 117.6 173.1 117.4 172.9 117.2 C 171.9 115.8 170.9 114.4 169.9 113 C 169 110.9 168 108.8 167.1 106.6 C 166.2 104.2 165.7 101.8 165.5 99.3 C 165.3 95.8 165.4 92.5 166.1 89.1 C 167.1 84.2 169.1 79.9 172.1 75.9 C 175.1 71.9 178.9 68.7 183.4 66.4 C 185.8 65.1 188.4 64.2 191.2 63.6 C 194.5 62.8 197.8 62.5 201.2 62.8 C 205.1 63.1 208.7 64.1 212.3 65.6 C 216.3 67.4 219.9 69.8 222.8 73 C 225.4 75.8 227.6 78.9 229.2 82.4 C 230.6 85.7 231.5 89.1 231.9 92.7 M 225.6 97.7 C 225.8 93.8 225.2 90 223.8 86.4 C 221.7 80.9 218.2 76.7 213.4 73.5 C 209.8 71.1 205.8 69.7 201.5 69.3 C 196.7 68.7 192 69.5 187.5 71.5 C 184.2 73.1 181.2 75.2 178.7 78.1 C 173.9 83.6 171.6 90 171.9 97.4 C 172.1 101.4 173.1 105.2 175 108.7 C 177 112.4 179.6 115.5 183 117.9 C 186.6 120.5 190.6 122.1 195 122.7 C 200.2 123.4 205.2 122.7 210 120.5 C 213.4 118.9 216.5 116.7 218.9 113.7 C 219.6 112.9 220.2 112 220.8 111.2 C 221 111 221.1 110.8 221.3 110.6 C 223.8 106.7 225.3 102.4 225.6 97.7" fill="rgb(242, 187, 34)" stroke="none" stroke-width="1"/>
                    <path id="ezpmnKAQILU57" d="M 233.7 9.8 C 232.8 8.9 232 7.9 231 7.1 C 228.9 5.3 226.4 4.7 223.6 5.1 C 221.8 5.3 220.2 6.1 218.6 7 C 212.9 10.4 207.2 13.7 201.4 17.1 C 201.1 17.3 200.7 17.4 200.4 17.5 C 203.1 15.9 205.8 14.3 208.5 12.7 C 212.5 10.4 216.4 8.1 220.3 5.8 C 223.4 4 228.2 4.4 231 6.6 C 232.1 7.5 233.2 8.4 233.7 9.8" fill="rgb(242, 187, 34)" stroke="none" stroke-width="1"/>
                    <path id="ezpmnKAQILU58" d="M 228.7 14.6 C 228.5 14.3 228.2 14 228 13.6 C 227.1 11.9 224.9 11.1 223 12.3 C 222.7 12.4 222.5 12.5 222.2 12.6 C 224.7 10.3 227.6 11.2 228.7 14.6" fill="rgb(242, 187, 34)" stroke="none" stroke-width="1"/>
                    <path id="ezpmnKAQILU59" d="M 226.7 114.3 L 226.7 114.6 C 225.1 117 223.2 119.2 221.1 121.1 C 218.5 123.5 215.6 125.3 212.4 126.8 C 209.8 128 207 128.7 204.2 129.2 C 203.9 129.2 203.6 129.2 203.3 129.1 C 203.4 129.1 203.5 129 203.6 129 C 206.5 128.5 209.3 127.7 212 126.6 C 215.8 125 219.1 122.7 222.1 119.8 C 223.8 118.1 225.2 116.1 226.7 114.3" fill="rgb(242, 187, 34)" stroke="none" stroke-width="1"/>
                    <path id="ezpmnKAQILU60" d="M 223.8 86.4 C 225.2 90 225.8 93.8 225.6 97.7 C 225.3 102.4 223.8 106.7 221.3 110.6 C 221.1 110.8 221 111 220.8 111.2 C 220.9 110.9 221 110.7 221.2 110.4 C 221.6 109.5 222.2 108.7 222.6 107.8 C 224.9 103.2 225.7 98.3 225.2 93.1 C 224.8 89.2 223.5 85.6 221.5 82.2 C 219.8 79.4 217.6 77 215 74.9 C 212.4 73 209.6 71.5 206.5 70.6 C 203 69.5 199.4 69.1 195.8 69.7 C 193.8 70 191.7 70.3 189.7 71 C 187 71.9 184.5 73.3 182.2 75.2 C 179.8 77.2 177.6 79.4 176 82.1 C 173 87 171.8 92.3 172.2 98.1 C 172.4 101.7 173.5 105.1 175.1 108.3 C 177 112 179.7 115 183 117.5 C 185.4 119.2 188 120.6 190.9 121.4 C 192.3 121.8 193.8 122.2 195.3 122.4 C 198.4 122.9 201.5 122.7 204.5 122 C 206.4 121.5 208.3 120.8 210.1 120.1 C 213.1 118.8 215.5 116.9 217.7 114.6 C 218.8 113.5 219.8 112.3 220.8 111.2 C 220.2 112 219.6 112.9 218.9 113.7 C 216.5 116.7 213.4 118.9 210 120.5 C 205.2 122.7 200.2 123.4 195 122.7 C 190.6 122.1 186.6 120.5 183 117.9 C 179.6 115.5 177 112.4 175 108.7 C 173.1 105.2 172.1 101.4 171.9 97.4 C 171.6 90 173.9 83.6 178.7 78.1 C 181.2 75.2 184.2 73.1 187.5 71.5 C 192 69.5 196.7 68.7 201.5 69.3 C 205.8 69.7 209.8 71.1 213.4 73.5 C 218.2 76.7 221.7 80.9 223.8 86.4" fill="rgb(242, 187, 34)" stroke="none" stroke-width="1"/>
                    <path id="ezpmnKAQILU61" d="M 214.5 44.9 C 213.9 44.8 213.3 44.7 212.7 44.5 C 209.4 43.7 206.2 43 202.8 42.9 C 200.7 42.8 198.6 42.8 196.4 42.7 C 196.2 42.7 196 42.6 195.7 42.6 C 195.7 42.6 195.7 42.5 195.8 42.5 C 197.9 42.5 200.1 42.4 202.3 42.5 C 206 42.7 209.6 43.4 213.2 44.3 C 213.4 44.4 213.7 44.5 214 44.6 C 214.1 44.7 214.3 44.8 214.5 44.9" fill="rgb(242, 187, 34)" stroke="none" stroke-width="1"/>
                    <path id="ezpmnKAQILU62" d="M 205.1 142.3 C 205.3 142.3 205.5 142.3 205.8 142.3 C 205.6 142.4 205.4 142.6 205.2 142.7 C 200.8 143.1 196.4 143.2 192 142.6 C 187.9 141.9 183.9 140.9 180.1 139.2 C 177.1 137.9 174.1 136.3 171.3 134.3 C 168.7 132.4 166.3 130.1 164 127.8 C 163.4 127.1 162.8 126.4 162.2 125.6 C 159.7 122.6 157.7 119.3 156.1 115.8 C 153.8 110.9 152.4 105.7 151.9 100.2 C 151.3 92.8 152.3 85.6 155.1 78.7 C 156.1 76.2 157.5 73.8 158.7 71.4 C 158.8 71.2 159 71 159.2 70.7 C 159.2 70.8 159.2 70.9 159.2 70.9 C 157.1 74.4 155.4 78.1 154.1 81.9 C 153.2 84.9 152.6 87.9 152.3 90.9 C 151.7 95.2 151.9 99.5 152.6 103.8 C 153.3 107.9 154.6 111.8 156.3 115.5 C 157.8 119 159.8 122.1 162.1 125 C 164.6 128.3 167.6 131.1 170.9 133.6 C 174 135.9 177.4 137.9 181.1 139.2 C 183.5 140.1 185.9 141 188.3 141.6 C 191.3 142.2 194.3 142.5 197.3 142.6 C 199.9 142.8 202.4 142.4 205.1 142.3" fill="rgb(242, 187, 34)" stroke="none" stroke-width="1"/>
                    <path id="ezpmnKAQILU63" d="M 203.3 129.1 C 203.6 129.2 203.9 129.2 204.2 129.2 C 201.8 129.4 199.4 129.7 197 129.6 C 194.5 129.5 192 129.2 189.5 128.4 L 190.2 128.4 C 190.7 128.4 191.1 128.5 191.6 128.6 C 193.5 128.9 195.5 129.2 197.4 129.3 C 199.4 129.4 201.4 129.2 203.3 129.1" fill="rgb(242, 187, 34)" stroke="none" stroke-width="1"/>
                    <path id="ezpmnKAQILU64" d="M 201 149.4 C 201 149.5 200.9 149.5 200.9 149.5 L 197 149.5 C 196.9 149.5 196.9 149.4 196.8 149.4 C 198.2 149.4 199.6 149.4 201 149.4" fill="rgb(242, 187, 34)" stroke="none" stroke-width="1"/>
                    <path id="ezpmnKAQILU65" d="M 195.7 16.5 C 196.8 17.2 197.8 17.8 198.8 18.5 C 198.6 18.5 198.3 18.6 198.1 18.5 C 194.8 16.3 191.5 14.1 188.2 12 C 186 10.5 183.7 9.1 181.4 7.6 C 179.1 6.1 176.8 4.5 174.5 3 C 173.8 2.5 173.2 2.5 172.5 2.9 C 163 8.5 153.4 14.1 143.9 19.6 C 139.4 22.2 134.9 24.9 130.4 27.5 C 129.8 27.8 129.6 28.2 129.7 28.8 C 129.9 31.7 130 34.6 130.2 37.4 C 130.3 39.2 130.5 41 130.6 42.8 C 130.8 46.7 131.1 50.5 131.3 54.4 C 131.4 55.3 131.4 56.2 131.5 57.1 C 131.5 57.7 131.2 58.1 130.7 58.4 C 126.9 60.6 123.1 62.8 119.3 65 C 109.7 70.6 100.1 76.1 90.6 81.7 C 89.9 82.1 89.6 81.9 89.3 81.3 C 87.4 78 85.4 74.7 83.5 71.4 C 83.2 70.8 82.9 70.7 82.2 71.1 C 74 75.9 65.7 80.8 57.4 85.6 C 57.1 85.8 56.8 85.9 56.4 86.1 C 57.1 85.6 57.8 85.1 58.5 84.7 C 65.9 80.4 73.2 76.1 80.6 71.8 C 81.2 71.5 81.8 71.1 82.5 70.7 C 82.9 70.4 83.2 70.5 83.5 71 C 85.5 74.4 87.5 77.7 89.4 81.1 C 89.8 81.8 90 81.8 90.7 81.4 C 95.4 78.6 100.2 75.9 105 73.1 C 113.2 68.3 121.5 63.4 129.8 58.6 C 131.3 57.8 131.3 57.6 131.2 55.9 C 130.9 53.9 130.9 51.8 130.7 49.7 C 130.5 46.1 130.2 42.5 130 38.9 C 129.8 35.5 129.6 32 129.4 28.6 C 129.3 28.1 129.6 27.7 130.1 27.4 C 133.4 25.5 136.7 23.6 140 21.6 C 145.4 18.5 150.9 15.3 156.3 12.1 C 161.8 8.9 167.3 5.7 172.8 2.5 C 173.4 2.2 173.8 2.2 174.3 2.5 C 178.3 5.2 182.3 7.8 186.2 10.4 C 189.4 12.4 192.5 14.5 195.7 16.5" fill="rgb(242, 187, 34)" stroke="none" stroke-width="1"/>
                    <path id="ezpmnKAQILU66" d="M 196.8 149.4 C 196.9 149.4 196.9 149.5 197 149.5 C 195.7 149.5 194.4 149.5 193.1 149.4 C 188.5 149 184 147.8 179.6 146.2 C 178.5 145.8 177.4 145.2 176.2 144.7 C 176 144.6 175.8 144.4 175.6 144.3 C 175.8 144.3 176.1 144.4 176.3 144.4 C 180 146.2 183.8 147.5 187.8 148.3 C 190.8 148.8 193.8 149 196.8 149.4" fill="rgb(242, 187, 34)" stroke="none" stroke-width="1"/>
                    <path id="ezpmnKAQILU67" d="M 195.8 42.5 C 195.7 42.5 195.7 42.6 195.7 42.6 C 194.6 42.7 193.5 42.8 192.3 43 C 190.5 43.3 188.7 43.6 186.9 44 C 184.9 44.4 182.9 45 181 45.6 C 179.8 46 178.6 46.6 177.4 47.1 C 176.6 47.4 175.9 47.7 175.2 48 L 174.7 48 C 175.1 47.8 175.4 47.5 175.8 47.4 C 177.6 46.7 179.3 45.9 181.1 45.2 C 182.4 44.8 183.7 44.5 185 44.1 C 186.6 43.7 188.2 43.3 189.7 43.1 C 191.7 42.8 193.7 42.7 195.8 42.5" fill="rgb(242, 187, 34)" stroke="none" stroke-width="1"/>
                    <path id="ezpmnKAQILU68" d="M 190.2 128.4 L 189.5 128.4 C 187.6 127.6 185.7 127 183.8 126.1 C 180.8 124.8 178.2 122.9 175.8 120.7 C 174.7 119.6 173.7 118.4 172.7 117.2 L 172.9 117.2 C 173.1 117.4 173.3 117.6 173.5 117.8 C 175.2 119.4 176.8 121.1 178.6 122.6 C 181.1 124.6 183.8 126 186.7 127.1 C 187.9 127.5 189 127.9 190.2 128.4" fill="rgb(242, 187, 34)" stroke="none" stroke-width="1"/>
                    <path id="ezpmnKAQILU69" d="M 175.6 144.3 C 175.8 144.4 176 144.6 176.2 144.8 C 175.1 144.2 173.9 143.7 172.8 143.1 C 169.1 141 165.6 138.6 162.5 135.7 C 162.2 135.4 162 135.1 161.7 134.8 C 161.7 134.8 161.8 134.8 161.9 134.8 C 163.4 136 164.8 137.3 166.3 138.5 C 168.9 140.6 171.8 142.3 174.8 143.8 C 175.1 143.9 175.3 144.1 175.6 144.3" fill="rgb(242, 187, 34)" stroke="none" stroke-width="1"/>
                    <path id="ezpmnKAQILU70" d="M 174.7 48 L 175.2 48 C 173.5 49 171.7 49.8 170.2 50.9 C 167.8 52.6 165.5 54.4 163.2 56.2 C 160.6 58.4 158.3 60.9 156.2 63.7 C 153.7 66.9 151.6 70.5 149.9 74.2 C 148.3 77.9 147.1 81.8 146.3 85.8 C 146.2 86.2 146 86.5 145.9 86.9 C 146.4 84.7 146.7 82.5 147.4 80.4 C 148.3 77.7 149.3 75 150.6 72.5 C 152.5 68.2 155.1 64.4 158.1 60.9 C 160.3 58.4 162.6 56.1 165.2 54.1 C 168.1 51.7 171.3 49.7 174.7 48" fill="rgb(242, 187, 34)" stroke="none" stroke-width="1"/>
                    <path id="ezpmnKAQILU71" d="M 175.2 55.6 C 173.7 56.6 172.3 57.6 170.8 58.6 C 167.9 60.7 165.3 63.1 163 65.9 C 161.7 67.5 160.5 69.3 159.2 70.9 C 159.2 70.9 159.2 70.8 159.2 70.7 C 160.5 69 161.7 67.1 163.1 65.5 C 164.8 63.5 166.6 61.7 168.6 60 C 170.6 58.4 172.8 57 175 55.6 C 175 55.6 175.1 55.6 175.2 55.6" fill="rgb(242, 187, 34)" stroke="none" stroke-width="1"/>
                    <path id="ezpmnKAQILU72" d="M 169.9 113 C 170.9 114.4 171.9 115.8 172.9 117.2 L 172.7 117.2 C 171.8 115.9 170.8 114.5 169.9 113.2 C 169.9 113.1 169.9 113.1 169.9 113" fill="rgb(242, 187, 34)" stroke="none" stroke-width="1"/>
                    <path id="ezpmnKAQILU73" d="M 161.9 134.8 C 161.8 134.8 161.7 134.8 161.7 134.8 C 160.8 133.9 159.9 133 159 132.1 C 156.4 129.2 154.2 126.1 152.3 122.8 C 150.2 119.3 148.6 115.7 147.4 111.9 C 146.3 108.2 145.5 104.5 145.3 100.7 C 145 97.1 145 93.6 145.4 90 C 145.5 89.6 145.5 89.3 145.6 88.9 C 145.6 89.5 145.6 90.2 145.6 90.8 C 145.1 95.3 145.3 99.7 145.9 104.1 C 146.5 107.5 147.3 111 148.5 114.2 C 150.2 118.5 152.1 122.6 154.8 126.4 C 156.7 128.9 158.6 131.3 160.8 133.6 C 161.2 134 161.5 134.4 161.9 134.8" fill="rgb(242, 187, 34)" stroke="none" stroke-width="1"/>
                    <path id="ezpmnKAQILU74" d="M 150.1 185.4 C 150.4 185.9 150.4 186.3 149.8 186.6 C 148.3 187.4 146.8 188.3 145.4 189.1 C 144.9 189.5 144.6 189.3 144.4 188.9 C 141.1 183.2 137.8 177.6 134.6 172 C 129.9 164.1 125.3 156.2 120.7 148.3 C 117.6 142.9 114.4 137.5 111.2 132.1 C 111.1 131.8 111.1 131.6 111 131.4 C 110 129.7 109 128 108 126.3 C 104.5 120.2 100.9 114.1 97.3 108 C 96.6 106.7 95.8 105.5 95 104.2 C 93.8 102.1 92.6 100.1 91.4 98.1 C 90.8 97 90.8 97 91.8 96.4 C 93.1 95.6 94.5 94.9 95.8 94.1 C 96.4 93.7 96.7 93.8 97 94.3 C 100.8 100.9 104.7 107.5 108.5 114.1 C 112.8 121.4 117 128.7 121.3 136 C 127.9 147.4 134.6 158.8 141.2 170.2 C 144.2 175.2 147.1 180.3 150.1 185.4" fill="rgb(242, 187, 34)" stroke="none" stroke-width="1"/>
                    <path id="ezpmnKAQILU75" d="M 132.3 76.6 C 135.4 78.5 136.5 82.2 135 85.5 C 134.8 85.8 134.5 86.1 134.3 86.4 L 134.3 86.4 C 134.4 86.2 134.5 85.9 134.6 85.7 C 136.5 82.2 134.9 77.5 130.7 76.3 C 128.8 75.7 126.9 76.1 125.2 77 L 125.1 76.9 C 127.2 75.2 130.2 75.4 132.3 76.6" fill="rgb(242, 187, 34)" stroke="none" stroke-width="1"/>
                    <path id="ezpmnKAQILU76" d="M 130.7 76.3 C 134.9 77.5 136.5 82.2 134.6 85.7 C 134.5 85.9 134.4 86.2 134.3 86.4 C 134 86.7 133.6 87 133.3 87.3 C 131.1 89.7 126.5 89.5 124.3 87.2 C 121.6 84.3 121.6 80.6 124.4 77.8 L 125.2 77 C 126.9 76.1 128.8 75.7 130.7 76.3" fill="rgb(242, 187, 34)" stroke="none" stroke-width="1"/>
                    <path id="ezpmnKAQILU77" d="M 134.3 86.4 L 134.3 86.4 C 132.9 88.6 130.9 89.5 128.4 89.3 C 125.5 89.2 123.5 87.6 122.4 84.9 C 121.6 82.6 122 80.4 123.5 78.4 C 123.9 77.9 124.6 77.4 125.1 76.9 L 125.2 77 L 124.4 77.8 C 121.6 80.6 121.6 84.3 124.3 87.2 C 126.5 89.5 131.1 89.7 133.3 87.3 C 133.6 87 134 86.7 134.3 86.4" fill="rgb(242, 187, 34)" stroke="none" stroke-width="1"/>
                    <path id="ezpmnKAQILU78" d="M 111 131.4 C 111.1 131.6 111.1 131.8 111.2 132.1 C 110.5 130.8 109.7 129.5 108.9 128.3 C 105.5 122.4 102.1 116.6 98.7 110.7 C 97.5 108.8 96.4 106.9 95.3 104.9 C 95.1 104.7 95.1 104.4 95 104.2 C 95.8 105.5 96.6 106.7 97.3 108 C 100.9 114.1 104.5 120.2 108 126.3 C 109 128 110 129.7 111 131.4" fill="rgb(242, 187, 34)" stroke="none" stroke-width="1"/>
                    <path id="ezpmnKAQILU79" d="M 93.4 194.3 C 93.6 194.5 93.6 194.8 93.8 195 C 93 193.8 92.2 192.6 91.4 191.3 C 89.8 188.5 88.1 185.7 86.5 182.9 C 86.4 182.6 86.3 182.3 86.2 182.1 C 86.9 183.3 87.7 184.5 88.4 185.7 C 90.1 188.6 91.8 191.4 93.4 194.3" fill="rgb(242, 187, 34)" stroke="none" stroke-width="1"/>
                </g>
            </g>
        </g>
    </g>
</svg>