<svg id="eV4ZHuJ9a7E1" xmlns="http://www.w3.org/2000/svg" xmlns:xlink="http://www.w3.org/1999/xlink" viewBox="20 -65 1160 710" shape-rendering="geometricPrecision" text-rendering="geometricPrecision"><defs><rect id="eV4ZHuJ9a7E2" width="50.212" height="50.212" rx="0" ry="0"/><rect id="eV4ZHuJ9a7E3" width="50.212" height="50.211" rx="0" ry="0"/><rect id="eV4ZHuJ9a7E4" width="62.793" height="62.793" rx="0" ry="0"/><rect id="eV4ZHuJ9a7E5" width="58.351" height="58.35" rx="0" ry="0"/><rect id="eV4ZHuJ9a7E6" width="54.526" height="54.529" rx="0" ry="0"/><rect id="eV4ZHuJ9a7E7" width="61.734" height="61.734" rx="0" ry="0"/><rect id="eV4ZHuJ9a7E8" width="63.248" height="63.249" rx="0" ry="0"/><rect id="eV4ZHuJ9a7E9" width="63.527" height="63.061" rx="0" ry="0"/><rect id="eV4ZHuJ9a7E10" width="63.542" height="63.543" rx="0" ry="0"/><rect id="eV4ZHuJ9a7E11" width="62.916" height="62.914" rx="0" ry="0"/><rect id="eV4ZHuJ9a7E12" width="50.873" height="50.872" rx="0" ry="0"/><rect id="eV4ZHuJ9a7E13" width="62.716" height="62.716" rx="0" ry="0"/><rect id="eV4ZHuJ9a7E14" width="62.523" height="62.523" rx="0" ry="0"/><rect id="eV4ZHuJ9a7E15" width="63.049" height="63.049" rx="0" ry="0"/></defs><g id="eV4ZHuJ9a7E16"><rect id="eV4ZHuJ9a7E17" width="1200" height="720" rx="0" ry="0" transform="matrix(1 0 0 1 0 -70)" fill="rgb(68,68,68)" stroke="none" stroke-width="1"/><g id="eV4ZHuJ9a7E18"><path id="eV4ZHuJ9a7E19" d="M701.643,261.497C702.176,261.82,702.754,262.092,703.24,262.479C703.977,263.069,704.83,263.632,705.315,264.406C706.022,265.546,706.997,266.173,708.179,266.609C712.412,268.156,715.667,270.998,718.452,274.429C721.679,278.405,724.004,282.882,725.621,287.733C725.918,288.608,726.369,289.08,727.454,289.092C731.324,289.141,735.166,289.545,738.938,290.458C741.982,291.198,745.064,292.005,747.493,294.018C748.906,295.189,750.278,295.429,751.94,295.408C755.949,295.353,759.959,295.388,763.967,295.392C767.654,295.392,769.366,296.65,770.651,300.117C772.013,303.803,772.386,307.637,772.439,311.509C772.534,318.868,771.831,326.176,770.802,333.45C770.01,339.067,769.156,344.678,768.191,350.265C767.474,354.415,766.525,358.531,765.709,362.663C765.491,363.763,765.033,364.24,763.788,364.211C759.601,364.117,755.413,364.194,751.227,364.16C750.265,364.15,749.924,364.44,749.947,365.442C750.01,368.491,749.972,371.543,749.968,374.595C749.965,376.026,749.962,376.032,751.365,376.032C760.872,376.042,770.382,376.052,779.889,376.059C781.547,376.062,781.592,376.103,781.488,377.715C780.775,388.759,780.065,399.805,779.349,410.848C778.577,422.813,777.807,434.78,777.022,446.741C776.564,453.68,776.063,460.613,775.63,467.553C775.564,468.581,775.166,468.859,774.189,468.859C742.504,468.84,710.821,468.834,679.139,468.866C678.01,468.866,677.676,468.474,677.606,467.402C677.07,458.621,676.487,449.845,675.913,441.064C675.354,432.498,674.8,423.93,674.231,415.37C673.484,404.078,672.723,392.786,671.966,381.495C671.884,380.223,671.84,378.943,671.742,377.671C671.622,376.173,671.701,376.064,673.164,376.064C680.511,376.064,687.857,376.064,695.2,376.064C697.509,376.064,699.811,376.041,702.121,376.077C702.988,376.09,703.301,375.776,703.287,374.888C703.243,371.8,703.268,368.712,703.268,365.627C703.268,364.224,703.237,364.178,701.861,364.178C697.641,364.175,693.415,364.153,689.194,364.2C688.26,364.209,687.825,363.864,687.648,362.998C686.785,358.618,685.844,354.255,685.04,349.862C684.28,345.716,683.58,341.555,683,337.38C682.394,333.06,681.861,328.73,681.485,324.386C681.138,320.361,680.98,316.321,680.848,312.28C680.741,308.827,681.1,305.396,681.99,302.057C682.331,300.769,682.836,299.49,683.478,298.32C684.608,296.269,686.481,295.42,688.796,295.429C693.477,295.445,698.164,295.419,702.845,295.445C703.678,295.453,704.296,295.203,704.933,294.636C706.996,292.822,709.488,291.767,712.109,291.104C714.851,290.414,717.652,289.951,720.43,289.406C720.953,289.302,721.317,289.196,721.03,288.518C719.481,284.817,717.712,281.233,715.286,278.013C713.154,275.171,710.586,272.829,707.369,271.228C706.65,270.868,706.492,271.262,706.297,271.747C705.559,273.575,704.278,274.865,702.518,275.737C699.762,277.099,696.039,276.477,694.008,274.173C692.226,272.16,691.326,269.855,692.065,267.112C692.715,264.687,694.317,263.089,696.462,261.939C696.708,261.81,696.936,261.647,697.172,261.499L701.643,261.499ZM734.419,321.208C734.447,327.794,739.844,333.286,746.418,333.191C753.022,333.101,758.385,328.124,758.413,321.102C758.438,314.526,753.025,309.206,746.471,309.161C739.869,309.12,734.391,314.594,734.419,321.208M718.894,321.318C718.976,314.695,713.674,309.2,706.956,309.193C700.357,309.184,695.008,314.1,694.944,321.099C694.875,327.901,700.053,333.11,706.785,333.175C713.469,333.24,718.777,327.991,718.894,321.318M726.659,351.948C730.949,351.948,735.242,351.92,739.531,351.967C740.576,351.982,740.887,351.621,740.859,350.613C740.799,348.524,740.822,346.431,740.856,344.342C740.866,343.547,740.626,343.189,739.765,343.189C731.005,343.208,722.245,343.208,713.49,343.189C712.685,343.186,712.436,343.509,712.443,344.264C712.468,346.425,712.48,348.589,712.436,350.749C712.415,351.687,712.761,351.975,713.679,351.964C718.007,351.926,722.335,351.948,726.659,351.948" fill="rgb(76,76,76)" stroke="none" stroke-width="1"/><path id="eV4ZHuJ9a7E20" d="M617.343,294.92C617.678,294.121,617.965,293.298,618.359,292.527C619.513,290.265,622.031,288.853,624.208,288.992C627.804,289.222,629.835,291.528,630.39,293.905C630.649,295.008,630.813,296.134,630.952,297.258C631.041,297.946,631.318,298.15,632.006,298.06C634.813,297.684,637.63,297.342,640.446,297.024C641.172,296.942,641.418,296.691,641.298,295.928C640.932,293.628,640.838,291.383,642.169,289.248C643.677,286.822,647.386,285.611,650.014,286.748C652.672,287.901,653.966,289.966,654.25,292.74C654.646,296.615,655.151,300.488,655.328,304.377C655.527,308.582,652.451,312.022,648.256,312.581C647.263,312.714,647.029,313.143,647.137,314.055C647.85,320.04,648.537,326.029,649.228,332.013C649.506,334.446,649.79,336.874,650.036,339.309C650.187,340.875,649.639,341.232,648.2,340.708C643.018,338.812,638.126,339.3,633.602,342.591C633.271,342.832,632.912,343.042,632.473,343.327C632.34,342.991,632.202,342.785,632.176,342.56C631.791,339.289,631.416,336.01,631.053,332.735C630.47,327.59,629.908,322.444,629.324,317.303C629.053,314.945,629.041,314.949,626.643,314.929C622.965,314.899,619.549,311.98,619.026,308.313C618.575,305.12,618.234,301.912,617.814,298.714C617.748,298.216,617.502,297.745,617.344,297.261L617.344,294.92Z" fill="rgb(76,76,76)" stroke="none" stroke-width="1"/><path id="eV4ZHuJ9a7E21" d="M838.953,299.178C838.802,299.436,838.558,299.682,838.515,299.957C838.064,302.789,837.588,305.622,837.228,308.464C836.72,312.483,832.853,315.687,828.662,315.441C826.722,315.328,826.775,314.935,826.441,317.285C825.589,323.285,824.624,329.265,823.715,335.258C823.365,337.571,823.066,339.889,822.706,342.202C822.645,342.597,822.406,342.964,822.252,343.343C821.898,343.155,821.514,343.017,821.201,342.777C816.933,339.509,812.259,338.546,807.101,340.231C806.868,340.31,806.631,340.397,806.392,340.446C805.208,340.7,804.754,340.326,804.909,339.137C805.196,336.924,805.515,334.711,805.844,332.506C806.584,327.528,807.335,322.555,808.083,317.58C808.271,316.317,808.417,315.048,808.673,313.799C808.846,312.927,808.638,312.509,807.717,312.32C805.121,311.787,803.014,310.449,801.863,308.011C801.337,306.893,800.835,305.552,800.948,304.37C801.362,299.97,801.866,295.565,802.661,291.22C803.258,287.959,805.63,286.231,808.903,286.033C812.023,285.848,815.206,288.501,815.439,291.63C815.54,292.989,815.363,294.38,815.218,295.748C815.129,296.602,815.35,296.928,816.249,297.038C818.921,297.374,821.58,297.8,824.238,298.235C825.096,298.378,825.478,298.09,825.62,297.245C825.8,296.169,825.992,295.085,826.326,294.05C827.241,291.196,829.285,289.703,832.247,289.606C835.076,289.513,837.089,290.882,838.373,293.381C838.506,293.64,838.758,293.843,838.953,294.069L838.953,299.178Z" fill="rgb(76,76,76)" stroke="none" stroke-width="1"/><path id="eV4ZHuJ9a7E22" d="M673.753,565.707C673.633,560.547,675.283,555.948,678.302,551.841C680.889,548.309,684.244,545.703,688.355,544.113C689.191,543.792,689.273,543.174,689.273,542.41C689.253,534.998,689.26,527.585,689.26,520.179C689.26,519.971,689.253,519.75,689.26,519.542C689.263,518.785,689.591,518.608,690.276,518.93C692.01,519.744,693.784,520.318,695.739,520.527C698.739,520.842,701.505,520.306,704.155,518.963C705.706,518.174,707.35,519.139,707.372,520.912C707.403,523.215,707.378,525.516,707.378,527.826C707.378,533.106,707.392,538.392,707.362,543.673C707.359,544.55,707.636,545.099,708.428,545.546C712.841,548.02,716.033,551.641,718.121,556.221C719.49,559.217,720.07,562.415,720.165,565.708L673.753,565.708Z" fill="rgb(76,76,76)" stroke="none" stroke-width="1"/><path id="eV4ZHuJ9a7E23" d="M733.15,565.707C733.26,560.219,734.942,555.279,738.412,550.989C740.238,548.737,742.402,546.864,744.944,545.457C745.711,545.041,745.95,544.485,745.95,543.659C745.929,536.278,745.953,528.903,745.912,521.522C745.906,520.431,746.222,519.655,747.064,518.955C747.707,518.413,748.265,518.457,748.902,518.81C752.032,520.557,755.379,521.081,758.864,520.386C760.195,520.121,761.467,519.51,762.74,519.005C763.86,518.551,764.027,518.633,764.027,519.857C764.027,527.338,764.04,534.821,764.006,542.302C763.999,543.337,764.337,543.848,765.324,544.271C771.228,546.8,775.436,551.027,777.868,557.007C779.004,559.808,779.533,562.703,779.558,565.706L733.15,565.706Z" fill="rgb(76,76,76)" stroke="none" stroke-width="1"/><path id="eV4ZHuJ9a7E24" d="M668.454,395.969C668.454,396.782,668.454,397.6,668.454,398.413C668.467,399.59,668.353,399.684,667.267,399.296C664.05,398.142,661.085,396.514,658.278,394.58C652.071,390.316,646.835,385.067,642.608,378.866C640.741,376.132,639.283,373.114,637.674,370.211C637.523,369.937,637.568,369.552,637.523,369.219C637.82,369.219,638.132,369.152,638.41,369.222C644.027,370.668,648.986,369.542,653.2,365.475C653.326,365.352,653.446,365.22,653.569,365.092C654.493,364.125,654.613,364.171,655.32,365.262C656.796,367.549,658.136,369.959,659.881,372.027C661.83,374.339,664.133,376.361,666.351,378.434C667.016,379.057,667.42,379.636,667.467,380.58C667.726,385.712,668.044,390.841,668.341,395.97C668.379,395.969,668.416,395.969,668.454,395.969" fill="rgb(76,76,76)" stroke="none" stroke-width="1"/><path id="eV4ZHuJ9a7E25" d="M799.371,363.625C800.554,364.715,801.544,365.782,802.685,366.651C806.521,369.562,810.827,370.223,815.463,369.144C815.712,369.085,815.992,369.162,816.261,369.174C816.22,369.467,816.264,369.803,816.138,370.052C811.132,380.014,803.805,387.87,794.458,393.886C791.623,395.712,788.62,397.207,785.371,398.172C784.358,398.475,784.183,398.374,784.273,397.282C784.532,394.176,784.832,391.072,785.125,387.968C785.396,385.074,785.643,382.177,785.999,379.296C786.071,378.712,786.443,377.998,786.907,377.655C791.714,374.121,795.647,369.815,798.644,364.655C798.834,364.327,799.084,364.028,799.371,363.625" fill="rgb(76,76,76)" stroke="none" stroke-width="1"/><path id="eV4ZHuJ9a7E26" d="M811.738,345.291C817.167,345.404,821.601,349.959,821.498,355.316C821.391,360.778,816.877,365.194,811.505,365.091C805.985,364.981,801.526,360.413,801.683,355.032C801.847,349.577,806.383,345.182,811.738,345.291" fill="rgb(76,76,76)" stroke="none" stroke-width="1"/><path id="eV4ZHuJ9a7E27" d="M652.544,355.952C652.264,361.73,647.283,365.556,642.268,365.256C636.483,364.908,632.367,360.042,632.856,354.419C633.323,349.064,638.186,345.078,643.64,345.575C648.98,346.063,653.011,350.756,652.544,355.952" fill="rgb(76,76,76)" stroke="none" stroke-width="1"/><path id="eV4ZHuJ9a7E28" d="M756.436,495.595C761.794,495.615,766.374,500.232,766.318,505.556C766.261,510.994,761.748,515.454,756.36,515.416C750.9,515.365,746.478,510.905,746.509,505.48C746.537,500.062,751.045,495.569,756.436,495.595" fill="rgb(76,76,76)" stroke="none" stroke-width="1"/><path id="eV4ZHuJ9a7E29" d="M696.915,495.589C702.299,495.608,706.81,500.15,706.791,505.543C706.766,510.969,702.262,515.454,696.867,515.416C691.448,515.372,686.934,510.855,686.96,505.493C686.985,500.137,691.581,495.569,696.915,495.589" fill="rgb(76,76,76)" stroke="none" stroke-width="1"/><path id="eV4ZHuJ9a7E30" d="M707.229,484.12C707.229,486.996,707.235,489.86,707.222,492.737C707.219,493.033,707.093,493.33,707.03,493.62C706.718,493.519,706.361,493.481,706.103,493.305C701.328,490.063,696.299,489.533,690.994,491.861C689.332,492.592,689.26,492.543,689.26,490.713C689.26,485.711,689.26,480.714,689.26,475.712C689.26,474.197,689.329,474.115,690.789,474.115C695.612,474.115,700.432,474.135,705.258,474.096C706.163,474.096,706.52,474.373,706.555,475.301C706.646,478.247,706.813,481.18,706.949,484.126C707.043,484.126,707.138,484.126,707.229,484.12" fill="rgb(76,76,76)" stroke="none" stroke-width="1"/><path id="eV4ZHuJ9a7E31" d="M748.089,484.146C748.089,481.313,748.073,478.481,748.096,475.642C748.106,474.222,748.238,474.109,749.607,474.109C754.461,474.102,759.315,474.122,764.17,474.089C765.03,474.083,765.394,474.355,765.391,475.244C765.369,480.587,765.384,485.943,765.374,491.293C765.371,492.378,765.204,492.497,764.197,492.018C760.296,490.145,756.297,489.886,752.246,491.363C750.969,491.83,749.82,492.649,748.609,493.3C748.316,493.457,747.998,493.571,747.691,493.71C747.603,493.35,747.433,492.99,747.442,492.644C747.534,489.811,747.657,486.979,747.773,484.147L748.089,484.147Z" fill="rgb(76,76,76)" stroke="none" stroke-width="1"/><path id="eV4ZHuJ9a7E32" d="M746.398,326.698C743.484,326.679,740.808,324.069,740.907,321.162C741.011,317.978,743.238,315.688,746.408,315.701C749.568,315.711,751.783,317.894,751.884,321.172C751.975,324.131,749.31,326.719,746.398,326.698" fill="rgb(76,76,76)" stroke="none" stroke-width="1"/><path id="eV4ZHuJ9a7E33" d="M712.431,321.207C712.393,324.115,709.782,326.801,706.892,326.673C703.663,326.529,701.372,324.341,701.448,321.074C701.53,317.603,703.977,315.652,706.965,315.701C710.261,315.752,712.279,318.161,712.431,321.207" fill="rgb(76,76,76)" stroke="none" stroke-width="1"/></g><g id="eV4ZHuJ9a7E34"><path id="eV4ZHuJ9a7E35" d="M346.437,30.774C346.834,30.988,347.222,31.371,347.634,31.396C351.866,31.644,356.106,31.848,360.345,32.041C370.637,32.51,380.928,32.959,391.219,33.441C393.579,33.551,395.315,34.749,396.465,36.793C397.345,38.351,396.26,40.223,394.605,41.122C393.488,41.729,392.047,42.034,390.763,41.989C383.332,41.732,375.907,41.343,368.481,40.972C360.948,40.6,353.41,40.201,345.877,39.814C345.443,39.792,345.004,39.769,344.573,39.792C341.596,39.949,340.124,41.277,339.307,44.168C338.717,46.247,337.888,48.262,337.154,50.299C336.676,51.627,336.154,52.935,335.684,54.266C334.633,57.229,333.687,60.235,332.532,63.156C331.83,64.933,331.266,66.674,331.271,68.611C331.273,70.657,332.476,72.225,333.256,73.947C334.328,76.317,335.569,78.611,336.798,80.902C338.202,83.513,339.651,86.105,341.123,88.676C342.186,90.53,343.315,92.345,344.432,94.165C345.504,95.915,347.153,96.799,349.103,97.238C352.248,97.947,355.378,98.703,358.523,99.403C361.246,100.004,363.981,100.553,366.712,101.125C368.304,101.459,369.935,101.677,371.483,102.164C373.604,102.829,375.623,101.662,376.642,100.234C377.751,98.679,378.607,96.942,379.553,95.271C380.657,93.322,381.73,91.352,382.837,89.4C384.39,86.664,385.958,83.934,387.525,81.206C389.056,78.538,390.594,75.873,392.125,73.207C393.656,70.541,395.202,67.883,396.706,65.201C397.766,63.309,398.775,61.389,399.792,59.474C400.845,57.492,402.605,56.62,404.719,56.325C405.706,56.187,406.706,56.897,407.206,57.924C408.166,59.903,407.884,61.769,406.833,63.626C404.746,67.306,402.725,71.025,400.628,74.7C398.71,78.063,396.723,81.385,394.779,84.733C393.29,87.301,391.822,89.88,390.347,92.454C388.799,95.153,387.239,97.847,385.71,100.555C384.571,102.573,383.465,104.604,382.36,106.639C380.432,110.198,377.604,112.181,373.267,111.003C370.373,110.214,367.355,109.898,364.415,109.255C362.048,108.741,359.712,108.08,357.369,107.451C354.176,106.592,351.033,106.641,347.823,107.537C344.939,108.349,342.425,109.742,340.041,111.481C339.317,112.008,338.476,112.429,337.623,112.694C337.216,112.822,336.465,112.622,336.204,112.298C335.37,111.267,334.685,110.109,333.954,108.992C333.776,108.72,333.657,108.41,333.481,108.136C332.33,106.343,331.897,106.338,330.119,107.46C328.32,108.598,326.404,109.549,324.534,110.578C322.572,111.657,320.604,112.727,318.642,113.806C316.582,114.94,314.522,116.067,312.469,117.21C310.48,118.319,308.505,119.449,306.515,120.556C304.65,121.59,302.775,122.605,300.903,123.621C298.872,124.727,296.837,125.823,294.803,126.923C292.736,128.042,290.668,129.157,288.606,130.286C286.612,131.379,284.627,132.497,282.633,133.593C280.731,134.636,278.825,135.665,276.917,136.701C274.793,137.857,272.671,139.016,270.547,140.174C268.739,141.16,266.952,142.186,265.116,143.12C263.844,143.769,262.543,143.271,261.931,141.992C259.652,137.206,257.064,132.6,253.806,128.411C250.926,124.709,247.639,121.384,243.983,118.433C243.589,118.116,243.184,117.804,242.825,117.449C241.796,116.441,241.822,114.977,242.975,114.143C244.114,113.323,245.331,112.601,246.555,111.904C249.538,110.205,252.539,108.535,255.544,106.88C257.504,105.798,259.498,104.777,261.461,103.7C264.093,102.254,266.706,100.776,269.329,99.323C271.387,98.188,273.456,97.076,275.511,95.94C277.505,94.844,279.485,93.724,281.479,92.626C283.376,91.583,285.285,90.554,287.188,89.52C289.285,88.381,291.379,87.248,293.473,86.109C295.379,85.073,297.284,84.029,299.19,83C301.352,81.829,303.517,80.661,305.682,79.499C307.657,78.438,309.634,77.388,311.608,76.331C312.532,75.84,313.466,75.363,314.378,74.849C315.034,74.48,315.102,73.935,314.802,73.263C314.063,71.614,313.322,69.961,312.649,68.281C312.049,66.783,312.305,66.414,313.766,65.84C317.659,64.309,320.931,61.915,323.413,58.523C325.916,55.1,327.574,51.271,328.849,47.234C329.795,44.24,330.973,41.317,332.062,38.369C332.562,37.021,333.03,35.658,333.629,34.355C334.222,33.064,335.216,32.139,336.572,31.597C336.874,31.477,337.057,31.055,337.296,30.773L346.437,30.773Z" fill="rgb(76,76,76)" stroke="none" stroke-width="1"/><path id="eV4ZHuJ9a7E36" d="M165.086,160.532C165.365,160.108,165.859,159.698,165.892,159.256C166.111,156.121,166.756,153.058,167.814,150.134C168.743,147.566,169.901,145.034,171.306,142.695C172.919,140.011,174.776,137.44,176.783,135.034C179.448,131.847,182.757,129.379,186.282,127.164C189.498,125.139,192.942,123.607,196.551,122.601C203.114,120.768,209.801,120.101,216.544,121.754C218.857,122.323,221.21,122.825,223.447,123.626C225.579,124.391,227.668,125.364,229.631,126.497C233.543,128.75,237.054,131.538,240.091,134.908C242.699,137.804,244.872,140.974,246.628,144.462C249.999,151.142,251.546,158.228,251.227,165.666C251.072,169.242,250.603,172.829,249.331,176.224C248.323,178.928,247.432,181.704,246.094,184.247C243.526,189.125,240.058,193.343,235.801,196.9C232.697,199.496,229.303,201.661,225.606,203.246C221.814,204.865,217.862,205.981,213.703,206.442C208.957,206.969,204.252,206.769,199.621,205.903C196.266,205.277,193.025,204.087,189.905,202.566C185.146,200.248,180.983,197.188,177.368,193.365C174.367,190.191,171.903,186.654,169.988,182.697C167.761,178.107,166.38,173.321,165.939,168.25C165.889,167.677,165.987,166.934,165.086,166.846L165.086,160.532ZM229.139,164.091C229.489,152.753,219.648,142.957,208.181,143.002C196.84,143.044,187.299,152.81,187.39,163.852C187.485,175.525,196.88,184.74,208.261,184.747C219.634,184.757,229.438,175.581,229.139,164.091" fill="rgb(76,76,76)" stroke="none" stroke-width="1"/><path id="eV4ZHuJ9a7E37" d="M265.841,273.406C265.841,268.942,265.841,264.478,265.841,260.017C265.841,258.354,266.205,257.952,267.825,257.825C268.804,257.747,269.785,257.71,270.75,257.569C271.143,257.513,271.762,257.289,271.814,257.04C271.889,256.686,271.65,256.133,271.362,255.848C267.95,252.437,264.497,249.066,261.065,245.675C252.392,237.108,243.728,228.534,235.057,219.965C234.826,219.736,234.607,219.487,234.364,219.27C232.566,217.68,233.116,216.54,234.881,215.396C237.12,213.943,239.512,212.717,241.726,211.229C246.519,208.009,250.591,203.994,254.141,199.457C255.234,198.058,256.196,196.561,257.289,195.164C258.631,193.455,259.843,193.401,261.377,194.944C269.078,202.692,276.757,210.454,284.462,218.192C294.27,228.039,304.097,237.861,313.91,247.7C316.189,249.982,318.432,252.305,320.706,254.597C323.242,257.147,326.316,258.285,329.919,258.249C335.612,258.183,341.309,258.232,347.002,258.251C348.397,258.253,348.787,258.692,348.787,260.108C348.785,268.994,348.782,277.888,348.782,286.774C348.782,288.687,348.087,289.306,346.163,289.122C345.62,289.066,345.076,289.044,344.535,289.044C327.736,289.041,310.936,289.034,294.139,289.047C289.314,289.049,284.49,289.115,279.665,289.139C275.86,289.157,272.054,289.161,268.248,289.159C266.341,289.159,265.839,288.645,265.842,286.79C265.844,282.33,265.841,277.868,265.841,273.406" fill="rgb(76,76,76)" stroke="none" stroke-width="1"/></g><g id="eV4ZHuJ9a7E38"><path id="eV4ZHuJ9a7E39" d="M924.248,144.218C922.611,144.218,920.963,144.36,919.345,144.186C916.475,143.883,913.624,143.374,910.764,142.975C909.004,142.729,907.244,142.466,905.476,142.324C901.687,142.016,897.883,141.865,894.104,141.5C889.199,141.018,884.476,140.048,881.133,135.874C880.423,134.988,880.429,134.292,880.814,133.229C881.505,131.325,882.082,129.329,882.318,127.325C882.583,125.075,882.907,122.955,884.594,121.274C884.851,121.02,884.997,120.636,885.149,120.294C886.685,116.805,889.282,114.266,892.435,112.252C893.012,111.886,893.74,111.764,894.374,111.479C896.806,110.381,899.228,109.264,901.657,108.153C904.383,106.908,907.143,105.731,909.805,104.361C910.441,104.035,911.175,103.005,911.104,102.393C910.913,100.829,910.425,99.258,909.805,97.801C909.203,96.392,908.32,95.098,907.498,93.796C906.468,92.165,905.095,90.691,904.361,88.943C903.083,85.896,903.047,82.662,903.924,79.443C904.148,78.625,904.381,77.793,904.461,76.951C904.719,74.217,904.808,71.463,905.178,68.744C905.324,67.679,906.116,66.723,906.476,65.668C906.979,64.197,907.341,62.676,907.792,61.187C907.882,60.894,908.065,60.527,908.314,60.396C911.529,58.674,913.533,55.298,917.81,54.853C922.866,54.326,927.724,54.217,932.556,55.765C933.455,56.053,934.356,56.579,935.042,57.222C937.628,59.643,940.578,61.778,941.075,65.769C941.288,67.483,942.149,69.107,942.608,70.804C942.803,71.519,942.77,72.31,942.757,73.064C942.712,75.726,942.819,78.312,943.979,80.835C944.458,81.879,944.372,83.354,944.106,84.537C943.585,86.888,942.971,89.098,941.348,91.21C939.162,94.057,937.707,97.538,936.328,100.904C935.603,102.671,936.064,104.138,938.243,104.6C939.499,104.864,940.584,105.89,941.786,106.492C942.781,106.991,943.84,107.367,944.865,107.809C946.226,108.399,947.586,108.997,948.944,109.6C950.512,110.291,952.082,110.982,953.644,111.691C954.476,112.067,955.421,112.33,956.09,112.907C957.715,114.318,959.335,115.777,960.708,117.428C961.497,118.373,961.795,119.729,962.319,120.896C962.495,121.287,962.58,121.795,962.875,122.043C965.261,124.04,965.249,126.869,965.589,129.589C965.762,130.98,966.08,132.36,966.173,133.756C966.339,136.229,964.976,137.8,962.888,138.886C959.069,140.874,954.989,141.493,950.724,141.624C948.124,141.708,945.547,142.394,942.958,142.799C941.423,143.04,939.895,143.355,938.351,143.469C933.66,143.816,928.956,144.082,924.261,144.38C924.261,144.328,924.254,144.271,924.248,144.218" fill="rgb(76,76,76)" stroke="none" stroke-width="1"/><path id="eV4ZHuJ9a7E40" d="M854.814,225.928C854.539,223.006,856.085,220.736,857.111,218.254C858.935,213.854,862.322,210.83,865.714,207.791C866.393,207.188,867.455,206.999,868.357,206.664C868.803,206.493,869.355,206.532,869.752,206.294C872.519,204.653,875.736,204.785,878.681,203.925C880.047,203.526,881.646,202.167,882.138,200.869C883.801,196.484,885.008,191.926,886.415,187.441C886.621,186.783,886.853,186.023,887.321,185.568C888.929,184.014,888.92,181.849,889.65,179.964C890.304,178.278,891.102,176.645,891.811,174.981C892.232,173.993,892.624,172.995,892.99,171.986C893.697,170.022,894.405,168.056,895.063,166.074C895.755,163.991,896.368,161.88,897.056,159.792C897.307,159.027,897.449,158.022,898.003,157.604C899.986,156.115,899.824,153.818,900.241,151.841C900.632,149.994,901.577,149.001,903.127,148.273C904.961,147.412,909.176,147.412,909.975,148.916C910.399,149.708,910.906,150.798,910.684,151.548C909.759,154.674,909.014,157.986,907.358,160.72C905.674,163.503,905.759,166.828,904.095,169.387C902.292,172.16,902.234,175.503,900.684,178.179C898.975,181.113,898.616,184.338,897.525,187.385C897.172,188.371,896.38,189.195,895.917,190.154C895.406,191.205,894.79,192.295,894.666,193.419C894.348,196.228,892.601,198.311,891.41,200.687C890.201,203.101,889.764,205.772,890.162,208.424C890.316,209.445,891.353,210.346,892.036,211.267C892.749,212.233,893.599,213.109,894.243,214.115C894.999,215.295,895.433,216.705,896.295,217.782C897.511,219.302,898.069,220.95,898.085,222.835C898.103,225.072,898.122,227.307,898.1,229.543C898.082,231.48,897.556,233.21,896.211,234.715C895.585,235.413,895.318,236.431,894.77,237.22C893.955,238.407,893.204,239.733,892.114,240.616C889.731,242.555,887.18,244.29,884.64,246.019C883.955,246.49,883.069,246.888,882.261,246.918C880.142,246.995,878.14,248.288,875.88,247.305C874.901,246.878,873.606,247.238,872.479,247.075C871.436,246.923,870.351,246.695,869.406,246.24C867.718,245.441,866.053,244.539,864.51,243.494C863.428,242.765,862.548,241.731,861.605,240.807C861.221,240.428,860.969,239.891,860.546,239.573C858.421,237.954,857.662,235.615,856.957,233.197C856.653,232.139,856.008,231.181,855.705,230.126C855.309,228.756,855.103,227.331,854.814,225.928" fill="rgb(76,76,76)" stroke="none" stroke-width="1"/><path id="eV4ZHuJ9a7E41" d="M812.491,152.275C811.562,152.139,809.747,151.88,807.935,151.612C807.723,151.582,807.435,151.582,807.313,151.448C804.761,148.654,800.657,147.94,798.403,144.752C797.159,142.996,795.721,141.355,794.669,139.498C794.059,138.423,793.954,137.031,793.755,135.761C793.26,132.593,793.005,129.413,793.742,126.239C794.117,124.619,794.009,122.535,794.999,121.485C796.993,119.36,797.724,116.223,800.653,114.834C802.376,114.019,803.719,112.383,805.455,111.624C807.888,110.561,810.5,109.87,813.082,109.205C815.725,108.524,818.01,110.009,820.419,110.722C821.346,110.996,822.408,111.015,823.192,111.499C824.905,112.549,826.43,113.9,828.128,114.98C829.697,115.977,830.671,117.372,831.595,118.926C833.09,121.447,835.869,121.788,838.478,120.273C839.925,119.432,841.69,118.694,843.314,118.699C846.52,118.71,849.218,117.217,852.159,116.444C853.861,115.991,855.574,115.506,857.315,115.27C860.63,114.819,863.789,114.133,866.942,112.788C869.687,111.619,872.951,111.705,875.96,111.098C877.191,110.848,878.353,110.227,879.547,109.785C880.921,109.271,882.095,108.186,883.835,109.12C885.064,109.78,884.956,110.548,884.466,111.338C882.816,113.985,881.11,116.604,879.287,119.132C878.87,119.705,877.922,119.963,877.167,120.207C874.932,120.935,872.682,121.618,870.421,122.253C868.675,122.747,866.925,123.37,865.138,123.53C862.14,123.801,859.312,124.411,856.618,125.803C855.555,126.351,854.308,126.657,853.112,126.81C848.727,127.363,844.358,127.847,840.364,130.002C839.446,130.501,838.289,130.556,837.251,130.841C835.295,131.387,834.847,132.042,834.685,134.051C834.543,135.864,834.808,138.024,833.923,139.401C831.477,143.197,829.425,147.55,824.525,149.043C823.829,149.256,823.249,149.837,822.607,150.231C819.78,151.997,816.593,152.099,812.491,152.275" fill="rgb(76,76,76)" stroke="none" stroke-width="1"/><path id="eV4ZHuJ9a7E42" d="M1021.818,58.071C1022.67,62.095,1020.943,65.383,1018.898,68.612C1018.072,69.917,1017.719,71.727,1016.599,72.603C1013.722,74.848,1011.343,77.938,1007.275,78.445C1005.918,78.612,1004.613,79.503,1003.369,80.212C1001.066,81.529,998.946,80.238,996.806,79.809C995.145,79.473,993.527,78.802,991.97,78.1C990.856,77.6,989.641,76.998,988.875,76.1C986.592,73.408,981.695,73.308,979.446,75.977C979.078,76.414,978.492,76.676,977.985,76.981C975.673,78.364,973.339,79.712,971.044,81.118C967.98,82.993,964.945,84.912,961.895,86.801C961.162,87.256,960.397,87.655,959.66,88.102C958.706,88.679,957.768,89.282,956.82,89.867C955.632,90.601,954.438,91.337,953.24,92.059C952.157,92.71,950.993,93.25,949.989,94.009C949.138,94.652,948.199,95.292,947.427,94.415C946.766,93.667,946.138,92.658,947.24,91.408C948.115,90.416,948.781,89.003,948.963,87.695C949.47,84.039,951.643,81.774,954.614,80.021C956.838,78.711,959.073,77.419,961.281,76.084C962.978,75.058,964.638,73.963,966.325,72.924C967.922,71.943,969.545,71.004,971.139,70.021C973.468,68.582,975.775,67.102,978.111,65.668C979.696,64.696,980.203,62.993,979.51,61.216C978.589,58.859,978.166,56.614,979.716,54.157C980.711,52.575,980.472,50.163,981.568,48.711C983.547,46.086,985.956,43.718,988.48,41.592C990.168,40.171,992.283,39.12,994.365,38.341C996.971,37.362,999.681,36.828,1002.594,37.427C1004.742,37.87,1006.939,37.809,1008.952,39.025C1012.025,40.881,1015.049,42.793,1017.176,45.729C1018.749,47.897,1020.336,50.149,1021.355,52.596C1022.024,54.204,1021.699,56.229,1021.818,58.071" fill="rgb(76,76,76)" stroke="none" stroke-width="1"/><path id="eV4ZHuJ9a7E43" d="M1043.261,167.495C1042.97,169.633,1042.708,171.776,1042.37,173.904C1042.297,174.354,1041.984,174.778,1041.726,175.18C1041.175,176.039,1040.445,176.816,1040.038,177.736C1038.208,181.887,1034.734,184.414,1031.017,186.517C1029.16,187.57,1026.722,187.535,1024.696,188.357C1022.199,189.37,1020.019,188.645,1017.699,187.887C1016.279,187.423,1014.713,187.433,1013.247,187.071C1012.553,186.902,1011.927,186.398,1011.309,185.981C1010.413,185.383,1009.504,184.79,1008.69,184.084C1007.77,183.297,1006.937,182.398,1006.093,181.526C1005.464,180.876,1004.746,180.26,1004.3,179.498C1003.447,178.04,1002.733,176.503,1002.019,174.971C1001.704,174.303,1001.626,173.511,1001.27,172.871C999.465,169.611,999.293,166.391,1001.124,163.049C1002.001,161.442,1001.279,159.933,999.696,158.833C997.003,156.951,994.436,154.885,991.716,153.045C990.442,152.186,988.845,151.806,987.544,150.974C985.396,149.603,983.368,148.044,981.291,146.557C980.896,146.271,980.537,145.935,980.13,145.67C977.796,144.141,975.429,142.656,973.114,141.1C971.719,140.164,970.883,138.902,971.192,137.097C971.446,135.62,971.588,134.123,971.883,132.653C972.184,131.166,973.356,130.659,974.729,131.454C977.045,132.802,979.318,134.228,981.599,135.636C984.067,137.16,986.537,138.682,988.977,140.249C991.6,141.932,994.182,143.675,996.789,145.381C999.174,146.943,1001.528,148.554,1003.967,150.027C1006.027,151.264,1009.226,150.911,1010.93,149.361C1012.625,147.821,1014.635,146.761,1016.862,146.704C1020.432,146.617,1024.037,146.687,1027.576,147.119C1031.196,147.561,1034.123,149.667,1036.39,152.438C1038.348,154.836,1040.035,157.465,1041.728,160.063C1043.188,162.311,1043.129,164.899,1043.261,167.495" fill="rgb(76,76,76)" stroke="none" stroke-width="1"/><path id="eV4ZHuJ9a7E44" d="M896.03,87.343C892.668,84.887,889.594,82.68,886.566,80.412C883.656,78.233,880.795,75.991,877.915,73.777C874.992,71.535,872.07,69.292,869.146,67.054C867.537,65.829,864.308,65.471,862.004,66.984C861.113,67.571,860.34,68.382,859.398,68.838C858.272,69.379,857.04,69.891,855.819,69.982C853.433,70.163,850.976,70.34,848.639,69.962C846.546,69.621,844.572,68.547,842.554,67.778C838.477,66.218,836.291,62.693,834.136,59.292C832.979,57.468,832.473,55.221,831.738,53.144C830.785,50.459,832.021,48.094,832.91,45.677C833.436,44.242,834.303,42.778,834.281,41.335C834.251,39.135,835.503,37.597,836.614,36.206C838.776,33.511,841.096,30.796,845.006,30.428C847.366,30.203,849.772,29.14,852.029,29.441C855.345,29.876,858.857,29.593,861.888,31.94C864.396,33.883,865.61,36.607,867.436,38.953C868.474,40.287,869.15,41.95,870.334,43.109C871.653,44.398,871.188,46.127,871.945,47.52C872.382,48.325,872.71,49.39,872.575,50.259C872.333,51.856,871.839,53.449,871.215,54.947C869.979,57.917,870.442,61.232,873.825,62.531C874.26,62.698,874.662,62.988,875.044,63.268C878.387,65.721,881.713,68.193,885.058,70.643C886.606,71.774,888.194,72.848,889.729,73.996C891.737,75.502,893.781,76.975,895.661,78.632C896.248,79.147,896.453,80.177,896.677,81.014C896.959,82.074,897.334,83.208,897.212,84.255C897.083,85.355,896.416,86.392,896.03,87.343" fill="rgb(76,76,76)" stroke="none" stroke-width="1"/></g><g id="eV4ZHuJ9a7E45"><path id="eV4ZHuJ9a7E46" d="M224.284,580C221.617,576.857,219.018,573.654,216.268,570.589C213.28,567.253,210.131,564.066,207.093,560.774C205.676,559.236,204.334,557.634,202.999,556.03C201.074,553.715,199.236,551.326,197.263,549.054C195.937,547.527,194.404,546.177,193.039,544.683C191.9,543.433,190.898,542.065,189.783,540.796C188.544,539.384,187.209,538.056,185.978,536.64C182.561,532.704,179.216,528.714,175.766,524.813C173.31,522.04,170.725,519.374,168.205,516.659C167.968,516.404,167.678,516.145,167.573,515.834C167.188,514.699,166.338,514.514,165.308,514.588C162.129,514.814,158.951,515.194,155.769,515.221C152.484,515.246,149.187,515.021,145.915,514.7C144.806,514.589,143.763,513.842,142.685,513.387C141.689,512.969,140.672,512.588,139.698,512.122C138.825,511.708,137.982,511.22,137.153,510.725C136.775,510.496,136.486,510.115,136.105,509.893C131.528,507.234,128.304,503.455,125.592,498.872C124.175,496.479,123.78,493.883,122.571,491.604C120.7,488.085,120.776,484.456,120.804,480.749C120.83,477.489,121.968,474.557,123.688,471.844C124.4,470.722,125.634,470.603,126.595,471.574C128.812,473.82,130.957,476.136,133.161,478.398C134.64,479.915,136.173,481.376,137.669,482.875C139.547,484.758,141.446,486.62,143.266,488.552C145.02,490.414,147.768,490.344,149.477,488.654C151.983,486.171,154.462,483.66,156.988,481.191C158.289,479.922,159.64,478.697,161.015,477.504C162.242,476.439,162.213,474.508,160.866,473.14C156.691,468.91,152.529,464.662,148.32,460.465C147.021,459.168,145.624,457.963,144.2,456.802C143.024,455.844,142.739,454.52,142.937,453.244C143.232,451.35,144.908,450.81,146.52,450.686C150.09,450.407,153.686,450.068,157.256,450.206C159.984,450.31,162.776,450.707,165.256,452.173C166.092,452.667,167.148,452.789,167.998,453.268C169.93,454.357,171.844,455.497,173.673,456.75C174.892,457.585,175.995,458.606,177.073,459.627C179.405,461.835,181.243,464.41,182.637,467.301C182.789,467.615,182.857,468.022,183.097,468.225C185.139,469.959,185.066,472.443,185.517,474.758C185.754,475.962,186.251,477.112,186.51,478.31C187.309,481.983,187.497,485.616,185.972,489.208C184.516,492.633,184.807,494.963,188.115,497.537C190.626,499.489,192.963,501.671,195.364,503.765C196.939,505.141,198.481,506.553,200.048,507.936C202.94,510.492,205.832,513.043,208.733,515.588C212.511,518.901,216.307,522.192,220.073,525.518C222.079,527.289,224.01,529.153,226.027,530.906C229.297,533.747,232.641,536.494,235.89,539.356C239.157,542.233,242.308,545.233,245.574,548.11C247.654,549.944,249.971,551.52,251.961,553.443C254.459,555.854,257.187,558.22,258.977,561.124C260.853,564.168,262.357,567.688,261.643,571.538C261.408,572.807,260.896,574.027,260.48,575.259C260.105,576.375,259.713,577.486,259.278,578.579C259.08,579.075,258.762,579.53,258.498,580.003L224.284,580.003Z" fill="rgb(76,76,76)" stroke="none" stroke-width="1"/><path id="eV4ZHuJ9a7E47" d="M68.351,483.796C68.506,480.615,68.542,477.422,68.853,474.259C69.169,471.032,72.951,467.443,76.145,467.217C78.922,467.022,81.711,466.966,84.496,466.91C86.96,466.864,87.611,466.387,88.18,463.981C88.28,463.55,88.352,463.108,88.502,462.692C89.257,460.618,89.955,458.513,90.827,456.488C91.528,454.861,92.55,453.371,93.256,451.748C94.654,448.534,94.578,447.064,91.447,444.004C89.138,441.744,86.69,439.596,85.635,436.404C85.151,434.931,85.111,433.464,86.364,432.258C86.502,432.121,86.579,431.926,86.684,431.756C89.674,426.893,93.745,423.011,98.034,419.337C99.465,418.108,100.909,416.893,102.352,415.68C104.177,414.141,108.455,414.258,110.418,415.997C112.485,417.824,114.502,419.714,116.475,421.644C118.29,423.423,121.64,423.556,123.664,421.996C124.528,421.332,125.641,420.99,126.654,420.524C127.942,419.93,129.239,419.355,130.54,418.786C131.621,418.316,132.676,417.613,133.802,417.458C136.775,417.044,137.948,415.938,138.01,412.907C138.031,411.922,137.838,410.934,137.764,409.947C137.609,407.824,137.91,405.879,139.048,403.952C139.949,402.429,140.491,400.668,142.007,399.622C142.914,398.999,143.986,398.304,145.026,398.233C149.648,397.92,154.285,397.682,158.916,397.706C161.572,397.718,164.229,398.275,166.885,398.594C167.033,398.615,167.225,398.62,167.316,398.71C169.028,400.439,171.297,401.845,171.449,404.592C171.586,407.108,171.541,409.629,171.46,412.148C171.401,413.994,171.956,415.587,173.457,416.571C174.442,417.218,175.737,417.405,176.905,417.755C177.33,417.883,177.844,417.786,178.229,417.974C181.182,419.415,184.161,420.814,187.032,422.408C189.14,423.577,191.879,423.422,193.573,421.741C195.261,420.065,196.966,418.407,198.645,416.72C200.872,414.486,205.736,413.724,208.684,416.524C210.37,418.126,212.336,419.431,214.068,420.992C215.453,422.242,216.69,423.658,217.966,425.03C219.24,426.398,220.386,427.9,221.751,429.169C224.8,432.007,224.771,437.7,221.721,440.585C219.735,442.46,217.908,444.509,216.059,446.523C215.171,447.49,215.14,450.132,216.133,450.977C217.555,452.19,217.827,453.814,218.239,455.443C218.407,456.107,218.579,456.894,219.034,457.339C220.672,458.933,220.804,461.073,221.218,463.07C221.765,465.711,223.498,467.266,226.14,467.194C228.139,467.142,230.154,467.312,232.137,467.109C236.002,466.712,240.018,469.668,240.994,474.239C241.991,478.906,242.207,483.597,241.856,488.277C241.645,491.081,240.597,493.821,239.907,496.587C239.849,496.82,239.713,497.087,239.528,497.22C237.429,498.743,235.528,500.678,232.69,500.737C230.64,500.778,228.587,500.807,226.54,500.722C223.661,500.604,221.46,502.59,221.161,505.157C220.917,507.243,220.884,509.568,218.863,511.099C218.439,511.421,218.308,512.268,218.238,512.893C217.977,515.267,215.793,516.007,213.922,514.532C211.544,512.649,209.227,510.675,206.977,508.633C204.56,506.441,202.258,504.125,199.894,501.873C199.609,501.603,199.252,501.403,198.915,501.196C197.075,500.053,196.83,499.302,197.414,497.094C197.667,496.144,197.752,495.149,197.923,494.173C198.722,489.643,199.813,485.127,199.152,480.482C198.688,477.21,198.085,473.957,197.486,470.708C197.364,470.043,196.979,469.425,196.72,468.785C196.092,467.228,195.568,465.623,194.814,464.133C194.034,462.593,193.043,461.16,192.126,459.69C190.149,456.513,187.853,453.618,184.881,451.29C183.056,449.862,181.305,448.332,179.456,446.934C178.2,445.984,176.896,445.048,175.491,444.353C174.265,443.752,172.867,443.499,171.547,443.088C171.266,442.999,170.931,442.966,170.72,442.79C168.144,440.658,164.919,441.013,161.93,440.501C160.184,440.201,158.385,439.907,156.632,440.004C152.081,440.247,147.534,440.654,142.999,441.137C142.144,441.228,141.392,442.06,140.531,442.393C139.12,442.937,137.522,443.118,136.244,443.865C133.097,445.705,129.935,447.59,127.071,449.827C124.908,451.514,123.143,453.724,121.297,455.792C119.799,457.467,118.243,459.146,117.089,461.055C115.809,463.164,114.805,465.482,113.957,467.808C112.954,470.567,112.232,473.429,111.418,476.254C111.271,476.768,111.192,477.322,111.191,477.856C111.172,481.509,111.149,485.16,111.192,488.81C111.217,490.799,111.611,492.693,112.524,494.531C113.166,495.825,113.344,497.349,113.717,498.773C113.831,499.198,113.811,499.686,114.006,500.063C115.349,502.682,116.561,505.389,118.151,507.844C119.753,510.315,121.578,512.693,123.618,514.812C125.332,516.598,127.433,518.037,129.477,519.464C131.648,520.98,133.938,522.337,136.207,523.709C136.832,524.086,137.567,524.274,138.254,524.545C139.913,525.191,141.567,525.854,143.237,526.476C144.114,526.797,145.006,527.23,145.915,527.296C149.291,527.548,152.681,527.851,156.056,527.777C159.321,527.707,162.581,527.222,165.832,526.841C166.435,526.767,167.095,526.423,167.546,526.005C168.838,524.803,170.035,525.347,170.97,526.289C172.997,528.342,174.877,530.531,176.808,532.68C178,534,179.163,535.354,180.364,536.67C181.864,538.319,183.604,539.799,184.82,541.629C185.573,542.761,185.802,544.418,185.743,545.819C185.719,546.366,184.323,546.995,183.454,547.342C181.899,547.967,180.259,548.381,178.676,548.947C177.253,549.45,175.879,550.112,174.444,550.578C172.776,551.118,171.624,552.283,171.591,554.014C171.549,556.558,171.744,559.106,171.687,561.651C171.654,563.093,171.708,564.609,170.454,565.778C169.59,566.585,169.012,567.713,168.111,568.456C167.392,569.052,166.389,569.584,165.489,569.632C160.56,569.887,155.621,570.035,150.685,570.102C148.911,570.124,146.972,570.213,145.394,569.57C142.91,568.556,140.556,567.424,139.25,564.444C138.089,561.793,138.062,559.181,137.745,556.519C137.629,555.557,138.005,554.551,137.997,553.564C137.983,551.9,136.861,550.886,135.244,550.584C134.112,550.369,133.042,549.833,131.945,549.44C130.47,548.904,128.984,548.405,127.524,547.828C126.71,547.507,125.838,547.192,125.176,546.648C123.42,545.206,121.384,544.636,119.215,544.729C118.373,544.77,117.417,545.298,116.761,545.882C114.444,547.943,112.276,550.169,109.973,552.251C108.043,553.992,104.334,553.767,102.267,551.974C100.693,550.613,98.938,549.448,97.443,548.013C94.983,545.646,92.817,542.953,90.24,540.735C88.426,539.174,87.675,537.014,86.245,535.265C84.988,533.727,85.288,531.09,86.596,529.149C88.184,526.789,90.136,524.826,92.336,523.046C94.116,521.604,94.685,519.182,93.8,517.103C93.145,515.569,92.302,514.112,91.648,512.577C91.149,511.405,90.82,510.162,90.405,508.957C90.131,508.166,89.856,507.37,89.545,506.594C89.07,505.41,88.578,504.231,88.065,503.059C86.94,500.496,86.235,500.559,82.569,500.936C78.848,501.317,75.327,501.199,72.294,498.761C69.992,496.908,68.648,494.446,68.538,491.457C68.441,488.913,68.517,486.357,68.517,483.806C68.461,483.8,68.406,483.796,68.351,483.796" fill="rgb(76,76,76)" stroke="none" stroke-width="1"/></g><path id="eV4ZHuJ9a7E48" d="M1048.438,356.021C1051.643,364.653,1054.849,373.285,1058.053,381.916C1058.742,383.777,1059.463,385.623,1060.112,387.494C1060.869,389.677,1060.296,391.69,1059.16,393.582C1056.31,398.334,1053.45,403.082,1050.572,407.822C1049.68,409.285,1049.697,411.643,1050.646,413.081C1056.342,421.718,1062.032,430.356,1067.728,438.995C1068.038,439.464,1068.376,439.918,1068.823,440.544C1083.366,426.838,1097.834,413.204,1112.417,399.466C1118.338,405.641,1124.184,411.739,1130.104,417.907C1131.867,416.135,1133.578,414.447,1135.256,412.725C1138.738,409.153,1142.203,405.56,1145.677,401.98C1147.908,399.681,1150.174,397.415,1152.356,395.069C1152.63,394.775,1152.691,394.006,1152.51,393.612C1150.506,389.178,1150.734,384.87,1153.681,381.041C1156.925,376.819,1163.037,374.955,1168.038,377.548C1173.852,380.562,1176.289,386.326,1174.158,392.457C1172.553,397.075,1167.442,400.544,1162.517,399.993C1161.036,399.824,1159.558,399.454,1158.14,398.989C1157.266,398.704,1156.774,398.863,1156.161,399.496C1150.953,404.886,1145.704,410.242,1140.473,415.61C1137.147,419.018,1133.827,422.431,1130.503,425.839C1130.374,425.97,1130.219,426.071,1130.021,426.233C1124.546,420.512,1119.089,414.831,1113.657,409.12C1112.238,407.631,1112.301,407.62,1110.753,409.074C1104.041,415.366,1097.307,421.63,1090.596,427.926C1085.996,432.239,1081.425,436.587,1076.835,440.917C1075.606,442.075,1074.413,443.287,1073.094,444.334C1072.079,445.132,1072.119,445.847,1072.759,446.8C1075.317,450.603,1077.867,454.409,1080.384,458.235C1083.971,463.687,1087.543,469.145,1091.087,474.626C1092.411,476.674,1094.344,477.588,1096.744,477.242C1102.444,476.435,1108.153,475.695,1113.849,474.864C1116.328,474.509,1118.03,475.883,1119.612,477.377C1125.562,482.985,1131.453,488.657,1137.358,494.321C1139.678,496.544,1142.004,498.76,1144.283,501.03C1146.56,503.291,1146.375,506.149,1146.106,509.018C1145.637,513.994,1145.203,518.967,1144.732,523.941C1144.456,526.852,1144.185,529.764,1143.827,532.67C1143.61,534.447,1142.142,535.389,1140.333,535.019C1134.615,533.856,1128.902,532.684,1123.187,531.507C1122.82,531.433,1122.466,531.305,1122.03,531.184C1122.03,530.407,1121.969,529.646,1122.04,528.907C1122.547,523.637,1123.137,518.372,1123.58,513.102C1123.801,510.496,1122.24,508.7,1120.444,507.031C1117.468,504.26,1114.588,501.391,1111.641,498.592C1109.969,497.003,1108.085,496.122,1105.644,496.473C1101.025,497.149,1096.374,497.618,1091.747,498.246C1089.852,498.503,1088.166,499.371,1087.12,500.992C1085.23,503.923,1083.493,506.946,1081.692,509.932C1081.007,511.057,1080.339,512.198,1079.653,513.327C1078.278,515.587,1078.153,517.865,1079.162,520.35C1080.882,524.598,1082.445,528.907,1084.032,533.2C1084.766,535.192,1086.288,536.328,1088.158,536.966C1091.461,538.1,1094.815,539.08,1098.146,540.135C1099.088,540.435,1100.035,540.731,1100.955,541.097C1102.396,541.663,1103.299,543.366,1102.986,544.916C1101.902,550.299,1100.804,555.681,1099.696,561.062C1099.298,562.99,1098.034,563.857,1096.198,563.289C1091.418,561.818,1086.672,560.242,1081.914,558.714C1079.171,557.833,1076.439,556.919,1073.684,556.094C1070.569,555.156,1068.33,553.478,1067.168,550.224C1064.138,541.738,1060.892,533.328,1057.738,524.884C1056.946,522.76,1056.215,520.613,1055.397,518.503C1054.567,516.365,1054.998,514.284,1056.035,512.475C1058.751,507.744,1061.668,503.126,1064.539,498.485C1065.947,496.207,1065.783,494.083,1064.321,491.875C1059.1,484.003,1053.935,476.089,1048.746,468.194C1048.674,468.087,1048.538,468.016,1048.338,467.857C1037.98,477.618,1027.629,487.374,1017.179,497.223C1014.315,493.352,1011.518,489.564,1008.717,485.784C1005.904,481.987,1003.081,478.199,1000.283,474.391C999.651,473.539,999.287,473.205,998.252,474.162C992.504,479.488,986.63,484.673,980.826,489.939C974.117,496.019,967.492,502.194,960.695,508.167C959.269,509.424,959.201,510.313,959.79,511.959C961.742,517.389,958.726,523.816,953.432,526.118C949.012,528.044,944.869,527.566,941.173,524.599C937.67,521.786,936.131,517.852,936.824,513.469C937.582,508.667,941.297,504.444,947.174,503.617C949.52,503.291,951.829,503.675,953.878,504.846C954.914,505.432,955.524,505.128,956.215,504.499C961.32,499.872,966.428,495.249,971.52,490.612C976.926,485.685,982.299,480.724,987.713,475.816C991.824,472.085,995.984,468.409,1000.215,464.626C1002.715,467.996,1005.219,471.363,1007.718,474.738C1010.897,479.033,1014.066,483.336,1017.244,487.631C1017.715,488.264,1018.074,488.414,1018.801,487.725C1023.337,483.403,1027.949,479.164,1032.527,474.889C1036.524,471.147,1040.504,467.388,1044.493,463.638C1045.073,463.093,1045.07,462.568,1044.619,461.889C1040.991,456.409,1037.409,450.899,1033.79,445.413C1030.538,440.483,1027.297,435.55,1023.977,430.669C1022.773,428.897,1021.072,428.133,1018.816,428.471C1013.978,429.202,1009.11,429.737,1004.268,430.453C1002.065,430.776,999.825,431.409,997.845,430.004C996.352,428.944,995.056,427.599,993.724,426.323C987.915,420.774,982.128,415.207,976.329,409.649C974.526,407.921,972.655,406.259,970.927,404.457C968.97,402.414,969.046,399.82,969.294,397.232C969.632,393.663,969.992,390.096,970.327,386.524C970.748,382.048,971.124,377.572,971.572,373.102C971.745,371.348,973.311,370.258,975.051,370.617C980.888,371.822,986.718,373.069,992.562,374.239C993.422,374.411,993.504,374.804,993.434,375.507C992.988,379.919,992.5,384.331,992.163,388.756C991.979,391.166,991.15,393.726,992.643,395.955C993.632,397.425,994.956,398.691,996.239,399.929C999.026,402.629,1001.863,405.271,1004.718,407.898C1005.993,409.072,1007.559,409.556,1009.279,409.338C1012.181,408.968,1015.079,408.565,1017.972,408.133C1020.615,407.741,1022.842,406.378,1024.931,404.845C1027.127,403.234,1029.412,401.631,1031.213,399.623C1032.856,397.795,1033.937,395.446,1035.204,393.294C1035.801,392.284,1036.367,391.238,1036.762,390.144C1037.479,388.157,1036.606,386.347,1035.922,384.529C1034.399,380.515,1032.924,376.484,1031.379,372.477C1030.606,370.487,1028.993,369.364,1027.038,368.715C1023.104,367.411,1019.157,366.134,1015.211,364.853C1012.959,364.124,1012.049,362.62,1012.514,360.336C1012.805,358.897,1013.09,357.46,1013.385,356.023L1048.438,356.023Z" fill="rgb(76,76,76)" stroke="none" stroke-width="1"/></g></svg>