<svg id="eEXFeVaYcxD1" xmlns="http://www.w3.org/2000/svg" xmlns:xlink="http://www.w3.org/1999/xlink" viewBox="20 -65 1160 710" shape-rendering="geometricPrecision" text-rendering="geometricPrecision"><defs><rect id="eEXFeVaYcxD2" width="50.212" height="50.212" rx="0" ry="0"/><rect id="eEXFeVaYcxD3" width="50.212" height="50.211" rx="0" ry="0"/><rect id="eEXFeVaYcxD4" width="62.793" height="62.793" rx="0" ry="0"/><rect id="eEXFeVaYcxD5" width="58.351" height="58.35" rx="0" ry="0"/><rect id="eEXFeVaYcxD6" width="54.526" height="54.529" rx="0" ry="0"/><rect id="eEXFeVaYcxD7" width="61.734" height="61.734" rx="0" ry="0"/><rect id="eEXFeVaYcxD8" width="63.248" height="63.249" rx="0" ry="0"/><rect id="eEXFeVaYcxD9" width="63.527" height="63.061" rx="0" ry="0"/><rect id="eEXFeVaYcxD10" width="63.542" height="63.543" rx="0" ry="0"/><rect id="eEXFeVaYcxD11" width="62.916" height="62.914" rx="0" ry="0"/><rect id="eEXFeVaYcxD12" width="50.873" height="50.872" rx="0" ry="0"/><rect id="eEXFeVaYcxD13" width="62.716" height="62.716" rx="0" ry="0"/><rect id="eEXFeVaYcxD14" width="62.523" height="62.523" rx="0" ry="0"/><rect id="eEXFeVaYcxD15" width="63.049" height="63.049" rx="0" ry="0"/></defs><g id="eEXFeVaYcxD16"><rect id="eEXFeVaYcxD17" width="1200" height="720" rx="0" ry="0" transform="matrix(1 0 0 1 0 -70)" fill="rgb(78,43,80)" stroke="none" stroke-width="1"/><g id="eEXFeVaYcxD18"><path id="eEXFeVaYcxD19" d="M307.157,6.257C310.986,7.958,314.687,9.609,318.394,11.248C321.947,12.819,325.505,14.383,329.063,15.933C329.654,16.19,329.703,16.531,329.465,17.087C328.112,20.28,326.735,23.464,325.484,26.698C325.127,27.624,324.942,28.732,325.063,29.707C327.363,48.311,329.718,66.911,332.065,85.508C332.357,87.818,332.245,87.477,334.239,87.225C335.373,87.083,336.509,86.931,337.647,86.803C338.993,86.652,339.021,86.68,339,87.996C338.933,91.987,338.853,95.975,338.802,99.967C338.724,106.039,338.648,112.113,338.616,118.184C338.611,119.034,338.234,119.302,337.502,119.319C336.596,119.34,336.348,119.744,336.485,120.653C336.849,123.055,337.161,125.469,337.392,127.888C337.486,128.901,337.916,129.429,338.843,129.77C341.297,130.673,343.431,132.063,345.015,134.186C348.212,138.473,348.794,143.192,347.113,148.185C346.69,149.438,345.901,150.586,345.188,151.723C344.788,152.36,344.785,152.709,345.45,153.137C348.019,154.79,350.56,156.481,353.101,158.169C357.084,160.818,361.059,163.482,365.042,166.131C367.006,167.438,368.986,168.721,370.955,170.016C371.196,170.177,371.422,170.363,371.809,170.651C371.374,170.777,371.158,170.869,370.937,170.899C369.732,171.06,368.492,171.081,367.329,171.385C365.622,171.826,364.337,171.173,362.998,170.258C359.732,168.032,356.402,165.898,353.109,163.711C350.045,161.678,346.996,159.624,343.939,157.577C343.077,156.999,342.256,156.321,341.324,155.893C340.857,155.679,340.105,155.757,339.61,155.985C337.124,157.123,334.553,157.689,331.825,157.394C330.933,157.297,330.061,156.98,329.171,156.939C328.658,156.911,327.97,157.082,327.635,157.426C323.861,161.301,320.144,165.234,316.405,169.144C313.505,172.178,310.614,175.218,307.666,178.201C307.222,178.652,306.516,178.967,305.881,179.082C304.246,179.381,302.584,179.538,300.927,179.737C300.736,179.758,300.538,179.717,300.092,179.687C300.662,179.043,301.085,178.53,301.546,178.052C305.394,174.05,309.253,170.057,313.096,166.054C316.286,162.726,319.462,159.384,322.638,156.04C323.18,155.467,324.059,154.885,324.103,154.257C324.142,153.66,323.277,153.015,322.843,152.369C321.29,150.053,320.226,147.555,320.262,144.718C320.289,142.551,321.766,140.902,323.891,140.518C326.067,140.124,328.089,141.171,328.886,143.172C329.257,144.108,329.498,145.09,329.794,146.051C330.213,147.395,330.701,147.536,331.712,146.599C332.889,145.509,333.95,145.476,335.468,146.484C336.914,147.445,337.209,147.378,338.099,145.901C340.16,142.488,337.979,138.268,333.897,137.762C330.495,137.344,329.159,136.003,328.733,132.598C328.282,129.016,327.804,125.434,327.401,121.847C327.293,120.887,326.932,120.573,325.993,120.755C325.073,120.932,324.128,120.96,323.208,121.144C322.374,121.311,322.035,120.96,321.791,120.211C320.664,116.749,319.496,113.299,318.341,109.844C316.278,103.66,314.206,97.475,312.146,91.285C311.748,90.096,311.771,90.073,312.974,89.912C314.488,89.711,316,89.479,317.521,89.345C318.331,89.273,318.572,89.019,318.461,88.176C317.385,79.878,316.348,71.574,315.301,63.271C315.066,61.411,314.841,59.551,314.604,57.693C314.561,57.357,314.482,57.026,314.172,56.629C313.85,57.384,313.498,58.132,313.213,58.903C311.615,63.23,310.046,67.566,308.445,71.891C305.522,79.79,302.564,87.68,299.655,95.585C297.392,101.734,295.194,107.906,292.94,114.059C291.649,117.574,290.283,121.062,288.988,124.574C287.116,129.646,285.292,134.738,283.418,139.808C281.132,145.99,278.807,152.154,276.517,158.329C275.323,161.544,274.145,164.768,273.007,168.002C272.835,168.499,272.846,169.09,272.885,169.628C272.956,170.596,273.119,171.558,273.239,172.522C273.416,173.957,273.398,173.994,272.002,174.171C267.938,174.688,263.874,175.194,259.808,175.702C258.603,175.849,257.399,176.017,256.191,176.137C255.396,176.218,255.04,176.466,255.186,177.393C255.553,179.688,255.772,182.004,256.107,184.309C256.226,185.123,255.979,185.418,255.166,185.518C245.419,186.73,235.676,187.982,225.931,189.212C216.254,190.435,206.575,191.65,196.9,192.871C194.145,193.216,191.387,193.547,188.635,193.927C187.872,194.033,187.567,193.794,187.482,193.031C187.234,190.788,186.926,188.551,186.648,186.311C186.488,185.014,186.441,184.954,185.19,185.113C179.99,185.768,174.79,186.433,169.59,187.093C166.455,187.489,163.314,187.828,160.19,188.291C159.176,188.443,158.916,188.093,158.81,187.199C158.327,183.131,157.803,179.064,157.29,175.003C154.958,156.54,152.627,138.074,150.295,119.612C149.584,113.963,148.886,108.312,148.14,102.667C148.018,101.737,148.235,101.397,149.214,101.278C163.304,99.528,177.389,97.736,191.477,95.955C199.468,94.948,207.461,93.959,215.449,92.913C216.425,92.787,216.714,93.067,216.829,93.997C218.537,107.707,220.287,121.411,221.981,135.122C222.102,136.092,222.003,137.137,221.786,138.093C220.745,142.696,219.626,147.277,218.541,151.872C218.31,152.833,218.439,152.987,219.448,152.866C222.033,152.558,224.613,152.187,227.203,151.923C228.136,151.826,228.5,151.203,228.862,150.543C230.542,147.466,232.195,144.377,233.866,141.295C236.895,135.72,239.942,130.157,242.962,124.577C245.928,119.09,248.863,113.584,251.834,108.097C254.374,103.403,256.956,98.731,259.499,94.039C262.572,88.371,265.612,82.686,268.696,77.02C271.709,71.48,274.768,65.964,277.782,60.425C280.57,55.312,283.327,50.184,286.099,45.063C288.822,40.033,291.547,35.007,294.266,29.977C297.278,24.398,300.282,18.814,303.304,13.24C304.581,10.896,305.882,8.567,307.157,6.257M172.918,144.771C173.12,144.752,173.259,144.739,173.398,144.723C183.273,143.479,193.147,142.223,203.027,140.999C204.032,140.877,204.153,140.404,204.039,139.525C202.963,131.198,201.906,122.868,200.888,114.536C200.766,113.525,200.333,113.376,199.447,113.491C189.605,114.754,179.762,116.006,169.912,117.21C168.856,117.339,168.605,117.698,168.739,118.724C169.829,127.118,170.877,135.515,171.921,143.916C172.006,144.6,172.237,144.968,172.918,144.771M265.808,156.586L265.995,156.398C265.869,156.102,265.772,155.789,265.604,155.516C264.815,154.251,264,153.004,263.211,151.739C260.993,148.181,258.782,144.618,256.57,141.061C255.254,138.94,253.942,136.822,252.627,134.707C251.71,133.233,250.791,131.763,249.87,130.293C249.468,129.653,249.044,129.576,248.649,130.293C248.364,130.807,248.126,131.349,247.836,131.859C245.893,135.297,243.933,138.732,242,142.173C241.362,143.31,240.778,144.476,240.095,145.773C248.738,149.409,257.273,152.997,265.808,156.586M321.229,38.25C320.997,38.654,320.875,38.811,320.806,38.987C319.866,41.408,318.916,43.827,318.016,46.264C317.869,46.662,317.89,47.152,317.941,47.588C318.212,49.93,318.516,52.272,318.81,54.611C320.197,65.59,321.588,76.569,322.955,87.553C323.049,88.319,323.36,88.597,324.093,88.498C324.986,88.379,325.883,88.267,326.777,88.165C327.518,88.082,327.759,87.715,327.665,86.963C325.653,71.165,323.663,55.365,321.656,39.567C321.609,39.196,321.425,38.837,321.229,38.25M256.666,119.648C256.588,119.733,256.513,119.816,256.435,119.898C256.56,120.171,256.664,120.457,256.81,120.718C257.972,122.767,259.134,124.816,260.309,126.857C263.765,132.868,267.225,138.876,270.693,144.877C270.838,145.128,271.084,145.318,271.284,145.542C271.495,145.296,271.785,145.082,271.905,144.796C272.813,142.657,273.688,140.507,274.566,138.358C275.463,136.178,276.337,133.989,277.241,131.81C277.478,131.241,277.428,130.866,276.831,130.543C274.177,129.111,271.551,127.629,268.901,126.191C266.252,124.752,263.588,123.339,260.929,121.917C259.511,121.158,258.086,120.405,256.666,119.648M266.894,98.277C266.763,98.309,266.631,98.345,266.496,98.378C264.235,102.511,261.986,106.646,259.711,110.77C259.332,111.458,259.487,111.816,260.174,112.145C266.115,114.993,272.042,117.866,277.98,120.718C278.279,120.861,278.638,120.888,279.279,121.046C275.044,113.254,270.969,105.765,266.894,98.277M272.979,90.434C272.882,90.526,272.786,90.621,272.689,90.715C276.724,98.423,280.76,106.131,284.789,113.839L285.106,113.763C285.302,113.33,285.527,112.909,285.69,112.464C287.169,108.394,288.625,104.313,290.124,100.248C290.4,99.499,290.108,99.19,289.489,98.877C284.919,96.543,280.361,94.185,275.798,91.84C274.865,91.362,273.919,90.9,272.979,90.434M292.077,87.778C292.16,87.7,292.243,87.623,292.321,87.547C289.757,80.089,287.192,72.632,284.552,64.96C284.216,65.353,284.083,65.463,284.009,65.605C281.611,70.252,279.223,74.9,276.815,79.542C276.449,80.248,276.682,80.609,277.342,80.917C281.983,83.095,286.613,85.292,291.247,87.479C291.513,87.603,291.801,87.679,292.077,87.778M301.03,30.517L300.609,30.473C300.116,31.676,299.629,32.882,299.128,34.078C297.523,37.915,295.927,41.753,294.287,45.574C294.007,46.233,294.206,46.49,294.782,46.749C296.136,47.365,297.468,48.035,298.811,48.68C301.932,50.177,305.055,51.678,308.183,53.166C308.402,53.27,308.669,53.28,309.203,53.397C306.417,45.601,303.723,38.058,301.03,30.517M297.176,78.977C297.283,78.965,297.389,78.954,297.498,78.942C297.587,78.803,297.707,78.673,297.767,78.523C299.566,73.83,301.329,69.124,303.176,64.449C303.555,63.495,303.28,63.076,302.463,62.687C298.928,61.001,295.407,59.285,291.877,57.59C291.109,57.219,290.322,56.892,289.543,56.546C289.451,56.601,289.356,56.658,289.262,56.714L297.176,78.977ZM313.191,42.174C313.508,41.639,313.725,41.373,313.84,41.07C315.521,36.591,317.193,32.111,318.856,27.627C319.3,26.428,319.183,26.273,318.042,25.726C315.197,24.365,312.373,22.969,309.537,21.593C308.477,21.077,307.405,20.585,306.338,20.083C306.246,20.173,306.156,20.263,306.067,20.352C308.412,27.538,310.758,34.723,313.191,42.174" fill="rgb(94,56,96)" stroke="none" stroke-width="1"/><path id="eEXFeVaYcxD20" d="M293.958,227.777C294.384,233.507,291.249,237.984,286.369,240.358C281.763,242.608,276.857,243.466,271.839,244.065C262.192,245.213,252.559,246.478,242.92,247.693C233.284,248.907,223.644,250.125,214.005,251.341C204.366,252.555,194.726,253.779,185.09,254.99C181.131,255.487,177.178,256.212,173.205,256.392C168.177,256.62,163.719,255.137,160.496,250.873C158.297,247.969,157.075,244.689,156.538,241.161C155.657,235.405,154.849,229.631,154.174,223.845C153.837,220.951,153.924,218.031,154.958,215.222C156.289,211.605,158.799,209.146,162.249,207.525C164.296,206.564,166.454,206.108,168.66,205.83C201.723,201.653,234.789,197.484,267.852,193.305C271.978,192.781,276.113,192.572,280.131,193.772C282.049,194.345,283.875,195.345,285.6,196.392C286.693,197.052,287.569,198.102,288.457,199.055C289.867,200.575,290.596,202.479,290.957,204.462C291.548,207.7,292.001,210.968,292.45,214.23C292.939,217.804,293.367,221.391,293.795,224.973C293.903,225.902,293.905,226.841,293.958,227.777M272.585,211.264C272.392,211.285,272.15,211.305,271.909,211.333C259.034,212.962,246.156,214.589,233.282,216.213C221.406,217.71,209.527,219.211,197.651,220.708C189.766,221.703,181.883,222.708,173.997,223.674C172.965,223.799,172.671,224.162,172.82,225.212C173.349,228.959,173.811,232.712,174.237,236.473C174.338,237.374,174.625,237.619,175.545,237.503C187.491,235.964,199.438,234.47,211.388,232.963C226.537,231.049,241.685,229.144,256.838,227.23C262.622,226.503,268.402,225.758,274.189,225.047C274.95,224.95,275.263,224.749,275.143,223.871C274.603,219.992,274.129,216.096,273.658,212.2C273.579,211.547,273.388,211.125,272.585,211.264" fill="rgb(94,56,96)" stroke="none" stroke-width="1"/><path id="eEXFeVaYcxD21" d="M370.506,198.946C373.043,198.624,375.386,198.352,377.725,198.026C378.504,197.918,378.866,198.111,378.953,198.955C379.197,201.265,379.48,203.576,379.825,205.871C379.96,206.777,379.604,207.021,378.802,207.122C368.744,208.371,358.69,209.641,348.635,210.905C335.102,212.614,321.57,214.321,308.038,216.036C306.75,216.197,306.686,216.167,306.527,214.89C306.254,212.724,306.019,210.548,305.694,208.386C305.54,207.381,305.878,207.036,306.864,206.942C309.075,206.734,311.271,206.388,313.479,206.16C314.392,206.066,314.732,205.764,314.597,204.783C314.061,200.896,313.584,197.005,313.118,193.109C313.03,192.389,312.75,192.185,312.033,192.288C309.696,192.621,307.348,192.875,305.013,193.21C304.158,193.332,303.732,193.159,303.634,192.21C303.401,189.965,303.107,187.728,302.79,185.497C302.668,184.642,302.856,184.251,303.802,184.133C327.431,181.171,351.057,178.19,374.681,175.191C375.576,175.076,376.004,175.212,376.096,176.228C376.305,178.507,376.596,180.784,376.947,183.047C377.079,183.893,376.819,184.16,376.032,184.248C373.686,184.513,371.35,184.857,369.004,185.097C368.163,185.184,367.871,185.446,367.992,186.334C368.519,190.184,368.992,194.046,369.457,197.905C369.552,198.697,369.768,199.21,370.506,198.946" fill="rgb(94,56,96)" stroke="none" stroke-width="1"/></g><g id="eEXFeVaYcxD22"><path id="eEXFeVaYcxD23" d="M83.202,559.525C84.66,559.447,86.138,559.426,87.57,559.29C89.225,559.125,90.321,558.264,90.341,557.172C90.381,555.177,90.35,553.204,90.35,551.22C90.35,546.063,90.446,540.914,90.321,535.755C90.241,532.307,90.066,528.867,89.565,525.429C89.133,522.507,88.087,519.616,87.471,516.696C87.225,515.522,87.335,514.331,87.365,513.149C87.441,510.384,87.636,507.628,87.625,504.864C87.625,502.069,87.44,499.286,87.356,496.491C87.314,495.143,87.85,494.996,90.575,495.242C91.728,495.339,92.971,495.113,94.158,495.113C104.358,495.093,114.547,495.093,124.721,495.075C126.189,495.075,126.906,495.348,126.865,496.081C126.835,496.55,126.854,497.019,126.854,497.488C126.854,512.142,126.846,526.798,126.865,541.441C126.874,542.38,127.051,543.318,127.257,544.255C127.451,545.134,129,545.799,130.939,545.867C131.84,545.896,132.757,545.857,133.658,545.867C135.497,545.877,136.223,546.287,136.008,547.157C135.842,547.781,135.648,548.407,135.697,549.023C135.793,550.361,135.412,551.552,133.945,552.784C132.006,554.415,133.063,556.829,136.369,557.249C137.733,557.424,139.309,557.405,140.697,557.249C142.362,557.053,143.978,556.701,145.497,556.301C147.19,555.852,147.932,555.1,147.932,554.122C147.892,545.661,147.911,537.201,147.878,528.74C147.865,527.627,147.707,526.493,147.53,525.37C147.325,524.089,147.983,523.699,150.556,523.689C154.022,523.678,156.804,522.418,156.673,520.738C156.412,517.612,155.952,514.496,155.585,511.38C155.315,509.162,155.204,506.944,154.783,504.736C153.396,497.565,154.313,490.365,154.012,483.185C153.902,480.302,153.962,477.41,153.612,474.528C153.171,470.893,152.369,467.26,151.778,463.634C151.447,461.671,151.076,459.706,151.007,457.743C150.888,453.972,150.987,450.191,150.957,446.42C150.948,445.589,151.338,445.043,153.337,445.208C158.015,445.579,160.15,443.089,159.634,441.35C158.377,436.924,156.373,432.537,157.039,428.024C157.225,426.754,157.635,426.715,160.24,426.588C162.664,426.471,165.094,426.061,167.318,425.561C168.13,425.376,168.776,424.576,168.787,424.047C168.891,418.448,168.871,412.851,168.841,407.253C168.826,405.607,168.725,405.524,172.062,405.183C174.797,404.89,174.422,403.805,174.952,402.936C175.058,402.759,174.972,402.563,174.972,402.369C174.893,400.371,174.893,400.371,178.945,400.386L179.713,400.386C183.078,400.386,184.116,399.897,184.136,398.271C184.166,395.785,184.176,393.304,184.126,390.817C184.084,388.688,183.785,386.552,183.93,384.423C183.98,383.664,185.047,382.928,185.593,382.166C186.16,381.353,187.091,380.539,187.102,379.719C187.202,374.028,187.11,368.337,187.082,362.646C187.082,362.342,187.082,362.041,187.427,361.728C187.462,361.981,187.513,362.242,187.513,362.494C187.522,366.207,187.427,369.916,187.543,373.628C187.623,376.344,187.953,379.069,188.209,381.796C188.305,382.723,189.491,383.221,191.289,383.314C193.043,383.408,193.525,383.906,193.514,384.658C193.504,385.91,193.504,387.149,193.504,388.39C193.504,391.117,193.504,393.832,193.514,396.557C193.514,396.866,193.514,397.183,193.649,397.491C194.787,400.036,197.095,400.768,202.687,400.358C204.902,400.197,205.397,400.412,205.382,401.521C205.382,402.057,205.262,402.605,205.418,403.123C205.888,404.667,208.843,405.228,211.479,404.353C212.136,404.133,213.007,404.061,213.799,403.923C214.034,404.323,214.464,404.725,214.464,405.126C214.505,411.197,214.485,417.259,214.485,423.335C214.485,425.301,215.934,425.994,219.926,425.994C223.747,425.994,223.402,425.672,223.697,427.81C224.128,430.917,225.075,433.994,225.751,437.092C226.005,438.243,226.151,439.397,226.348,440.55C226.467,441.292,226.467,442.054,226.752,442.787C227.093,443.646,228.19,444.115,230.148,444.124C234.698,444.145,234.777,444.174,234.678,446.471C234.492,450.534,234.231,454.609,233.927,458.672C233.752,461.144,233.361,463.607,233.201,466.077C233.004,469.175,232.85,472.281,232.83,475.38C232.665,491,232.553,506.623,232.427,522.234C232.419,522.742,232.397,523.25,232.44,523.749C232.534,524.598,233.291,525.225,234.983,525.566C237.568,526.103,237.433,526.112,236.882,527.44C236.48,528.418,236.326,529.424,236.266,530.41C236.069,533.205,236.01,535.989,235.844,538.783C235.794,539.81,235.549,540.836,235.529,541.871C235.493,542.77,236.019,543.522,237.498,544.196C238.449,544.635,238.88,545.427,239.191,546.101C239.466,546.687,239.34,547.351,239.241,547.977C238.83,550.273,241.11,551.054,245.558,551.806C247.653,552.158,249.911,552.275,252.096,552.471C253.769,552.617,255.503,552.061,256.385,551.367C259.323,549.082,259.938,546.59,259.595,543.962C259.421,542.594,260.046,542.31,262.839,542.242C264.786,542.193,265.627,541.637,265.627,540.376C265.648,536.634,265.497,532.893,265.682,529.15C265.842,526.005,266.4,522.858,266.748,519.704C266.8,519.294,266.8,518.884,266.706,518.482C266.489,517.466,267.72,516.714,269.845,516.675C271.654,516.634,273.456,516.675,275.261,516.663C278.792,516.644,280.876,515.648,280.928,513.918C280.957,512.728,280.876,511.535,280.976,510.343C280.997,510.09,281.623,509.651,281.995,509.651C286.612,509.601,291.238,509.62,295.815,509.62C296.021,511.105,296.246,512.474,296.397,513.842C296.602,515.65,299.412,517.31,303.541,517.086C306.33,516.948,309.142,516.87,311.932,516.715C313.184,516.635,313.879,516.909,313.976,517.427C314.124,518.229,314.004,519.039,314.025,519.841C314.115,523.26,314.19,526.679,314.321,530.109C314.381,531.633,314.467,533.177,314.712,534.701C314.905,535.814,315.893,536.714,318.342,537.085C320.201,537.368,320.538,538.071,320.341,538.96C320.17,539.821,320.182,540.719,320.566,541.55C320.751,541.922,322.035,542.362,322.897,542.41C325.187,542.526,327.537,542.448,329.855,542.448C331.999,542.439,333.457,541.97,333.888,540.934C334.43,539.585,334.829,538.217,334.994,536.85C335.251,534.535,335.28,532.219,335.376,529.903C335.385,529.533,335.19,529.151,335.065,528.79C334.76,527.804,335.621,527.14,337.64,526.875C340.104,526.572,342.562,526.24,345.057,525.987C346.917,525.8,348.825,525.674,350.732,525.625C354.2,525.536,355.974,524.726,355.983,523.065C355.994,514.418,356.099,505.772,355.874,497.127C355.837,495.856,356.485,495.261,358.629,494.732C359.504,494.518,360.378,493.892,360.457,493.423C360.71,492.134,360.545,490.815,360.557,489.515C360.557,486.966,360.642,484.415,360.546,481.866C360.332,475.78,360.035,469.693,359.762,463.607C359.742,463.177,359.616,462.727,359.411,462.306C358.413,460.275,361.133,458.994,363.286,457.568C364.213,456.954,364.826,456.22,365.556,455.536C365.841,455.263,365.908,454.911,366.292,454.687C368.143,453.603,368.457,452.312,368.502,450.985C368.562,448.756,368.416,446.519,368.582,444.292C368.633,443.656,369.158,442.925,369.954,442.406C371.086,441.693,371.648,440.961,371.577,440.09C371.488,438.83,371.198,437.541,373.641,436.642C373.827,436.575,373.927,436.418,373.958,436.31C374.223,435.04,375.13,433.908,376.933,432.959C377.229,432.803,377.304,432.49,377.295,432.245C377.264,431.533,377.931,431.063,378.966,430.547C379.859,430.108,380.626,429.394,380.671,428.787C380.851,426.365,380.626,423.932,380.78,421.519C380.82,420.854,381.622,420.2,382.112,419.544C382.66,418.831,383.248,418.127,383.706,417.542C384.422,417.942,385.48,418.44,386.27,419.018C386.764,419.379,387.083,419.867,387.083,420.297C387.018,423.179,386.804,426.062,386.804,428.943C386.793,429.382,387.505,429.871,388.116,430.252C389.308,430.984,390.651,431.669,391.932,432.382C392.148,432.499,392.402,432.606,392.539,432.743C393.656,433.916,394.732,435.097,395.855,436.269C396.531,436.973,397.278,437.657,397.968,438.371C398.214,438.615,398.47,438.879,398.53,439.162C398.869,440.501,399.361,441.78,401.505,442.797C401.955,443.011,401.935,443.5,401.947,443.872C401.986,445.444,402.014,447.017,401.955,448.589C401.867,450.955,402.962,453.182,405.469,455.204C406.946,456.395,408.688,457.518,410.206,458.702C410.688,459.073,411.087,459.551,411.098,459.981C411.169,463.086,411.169,466.205,411.13,469.321C411.03,476.99,410.882,484.649,410.793,492.319C410.779,492.865,410.779,493.491,411.263,493.96C411.655,494.362,412.772,494.85,413.539,494.84C415.513,494.82,416.178,495.26,416.435,496.09C417.13,498.404,417.256,500.741,415.788,502.979C414.422,505.059,414.662,507.189,414.176,509.29C413.99,510.13,414.156,510.979,414.133,511.829C414.034,517.233,413.9,522.637,413.809,528.038C413.8,528.565,413.991,529.094,414.117,529.62C414.134,529.748,414.146,529.914,414.311,529.982C416.33,530.852,418.383,531.711,420.597,532.639C420.713,533.303,420.979,534.164,420.967,535.033C420.939,536.752,420.701,538.471,420.634,540.192C420.569,541.901,420.589,543.621,420.619,545.331C420.662,546.924,422.077,547.578,425.403,547.598L428.111,547.598C430.931,547.588,432.05,547.139,432.13,545.771C432.215,544.55,432.05,543.328,431.865,542.107C431.719,541.169,432.432,540.739,434.441,540.739C436.945,540.739,437.64,540.545,437.866,539.333C438.188,537.711,438.227,536.08,438.248,534.457C438.288,529.983,438.197,525.518,438.308,521.053C438.36,518.964,438.771,516.872,439.01,514.771C439.15,513.424,439.275,512.056,439.386,510.7C439.395,510.552,439.326,510.387,439.236,510.239C438.414,508.861,438.526,508.773,441.594,508.773C456.173,508.773,470.74,508.794,485.32,508.754C494.777,508.734,504.251,508.705,513.699,508.52C518.838,508.421,523.969,508.011,529.095,507.708C530.545,507.63,531.938,507.416,533.373,507.346C533.808,507.317,534.503,507.484,534.689,507.659C534.962,507.923,534.975,508.274,534.962,508.578C534.863,511.714,534.531,514.86,534.649,517.995C534.774,520.936,535.365,523.868,535.715,526.799C535.882,528.235,535.882,529.682,536.125,531.116C536.451,533.099,536.956,535.083,537.377,537.056C537.476,537.525,537.527,537.994,537.654,538.462C537.867,539.312,538.198,540.103,539.817,540.671C540.472,540.896,540.989,541.442,541,541.853C541.028,543.319,540.815,544.793,540.709,546.259C540.598,547.782,540.989,549.151,544.537,549.736C546.58,550.069,548.5,550.588,550.569,550.852C553.825,551.271,556.069,550.479,556.05,548.848C555.999,544.128,556.07,539.42,556.029,534.702C556.009,532.006,555.834,529.308,555.793,526.602C555.784,526.037,556.176,525.576,557.72,525.595C560.421,525.636,563.137,525.568,565.838,525.625C570.558,525.732,570.831,524.922,571.222,523.026C571.507,521.62,571.633,520.213,571.919,518.814C572.104,517.858,573.338,517.497,575.236,517.506C578.652,517.535,582.068,517.535,585.485,517.496C587.044,517.486,587.786,517.964,588.041,518.552C588.523,519.685,588.807,520.827,589.086,521.98C589.272,522.723,589.227,523.475,589.431,524.217C589.668,525.125,590.872,525.606,592.721,525.594C594.953,525.574,597.191,525.506,599.416,525.419C600.771,525.37,601.992,525.916,601.992,526.64C602.004,528.077,601.904,529.503,602.022,530.93C602.353,534.836,602.745,538.736,603.203,542.643C603.284,543.375,603.705,544.118,604.168,544.822C605.057,546.19,606.672,546.532,609.737,546.278C612.321,546.063,614.947,545.984,617.564,545.878C619.193,545.81,619.916,546.268,619.886,547.03C619.776,549.815,619.755,552.618,619.476,555.393C619.304,557.053,620.817,558.167,623.563,558.929C626.127,559.642,628.974,559.487,631.609,559.125C634.544,558.715,634.316,557.288,634.435,556.203C634.623,554.366,634.213,552.511,634.213,550.664C634.203,550.195,634.462,549.58,635.105,549.295C637.29,548.3,637.47,547.039,637.53,545.76C637.63,543.874,637.63,541.989,637.581,540.102C637.56,539.244,638.493,539.019,640.017,539.039C640.997,539.049,641.991,539.078,642.972,539.039C645.826,538.901,646.688,538.481,646.667,537.074C646.64,535.298,646.459,533.509,646.327,531.731C646.275,531.076,647.269,530.539,648.611,530.636C651.376,530.852,653.842,530.792,655.585,529.492C655.845,529.306,656.725,529.267,657.327,529.248C660.986,529.15,664.65,529.082,668.309,529.023C670.143,528.995,670.643,528.349,670.654,527.685C670.733,524.011,671.004,520.328,670.584,516.656C670.271,513.91,669,511.184,668.168,508.458C668.078,508.146,668.02,507.834,668.008,507.52C668,505.82,668.02,504.122,668,502.43C667.88,495.386,667.84,488.351,667.569,481.327C667.498,479.627,666.615,477.936,666.125,476.237C665.843,475.289,665.424,474.323,665.384,473.375C665.273,470.824,665.393,468.274,665.332,465.733C665.245,461.992,665.081,458.25,664.941,454.518C664.834,451.783,664.873,449.058,664.522,446.34C664.22,443.947,663.45,441.572,662.928,439.19C662.557,437.51,662.035,435.829,661.988,434.139C661.837,429.928,661.916,425.717,661.907,421.505C661.907,420.705,661.796,419.885,662.015,419.093C662.075,418.858,663.128,418.516,663.721,418.528C666.727,418.548,669.721,418.703,672.727,418.742C676.725,418.79,680.732,418.742,684.731,418.752C698.696,418.819,712.673,418.878,726.651,418.958C728.546,418.967,728.943,419.279,728.956,420.246C729.004,423.274,729.155,426.323,729.276,429.362C729.286,429.616,729.286,429.87,729.286,430.114C729.286,435.654,729.235,441.184,729.296,446.721C729.375,453.503,729.515,460.283,729.705,467.063C729.737,468.215,730.327,469.359,730.317,470.501C730.296,473.169,730.008,475.826,729.917,478.483C729.846,480.359,729.777,482.245,729.925,484.129C730.076,486.025,730.739,487.93,730.779,489.824C730.898,495.296,730.769,500.767,730.83,506.227C730.88,510.125,731.011,514.014,731.269,517.903C731.33,518.85,731.26,519.944,733.945,520.325C736.422,520.687,739.135,520.414,740.798,519.514C742.352,518.664,743.122,517.736,743.122,516.544C743.173,506.276,743.324,495.999,743.452,485.73C743.473,484.421,743.845,484.236,746.43,484.226C747.882,484.216,749.326,483.357,749.556,482.33C749.625,482.017,749.536,481.705,749.605,481.383C749.857,480.171,750.677,479.81,753.132,479.741C755.218,479.702,757.052,478.794,757.18,477.601C757.259,476.789,756.85,475.979,756.881,475.169C756.941,473.928,757.18,472.696,757.351,471.446C759.024,471.251,759.285,471.925,759.706,472.392C761.197,474.083,761.947,475.823,761.709,477.689C761.477,479.418,762.03,479.623,765.556,479.74C767.079,479.799,767.549,480.15,767.139,480.884C766.269,482.407,767.58,483.531,770.706,484.039C773.262,484.439,774.143,485.192,773.633,486.472C773.5,486.804,773.481,487.156,773.481,487.498C773.473,496.427,773.473,505.356,773.493,514.286C773.501,514.873,773.681,515.477,773.951,516.045C774.335,516.847,775.516,517.091,777.15,517.091C788.04,517.071,798.941,517.081,809.84,517.071C812.916,517.071,813.177,517.402,813.025,518.946C812.787,521.252,812.907,523.587,813.136,525.902C813.248,527.015,814.149,527.27,816.414,527.299C819.619,527.328,819.81,527.445,819.248,529.009C819.187,529.194,819.187,529.38,819.187,529.566C819.187,533.6,819.136,537.626,819.239,541.642C819.26,542.588,819.34,543.781,821.815,543.996C824.248,544.202,826.823,544.221,829.278,544.074C831.191,543.947,831.511,543.009,831.493,542.208C831.452,540.987,831.181,539.766,831.061,538.544C830.972,537.587,831.522,537.333,833.516,537.323C837.834,537.294,840.218,536.189,840.198,534.069C840.17,530.679,839.827,527.279,839.907,523.899C839.986,520.187,839.448,516.533,837.523,512.927C837.323,512.545,837.231,512.126,837.231,511.726C837.193,509.43,837.193,507.134,837.165,504.839C837.165,504.349,837.103,503.87,838.556,503.852C842.173,503.803,845.78,503.677,849.387,503.656C853.774,503.617,858.163,503.648,862.532,503.648L863.122,503.648C865.949,503.648,867.001,503.197,867.683,501.869C868.325,500.638,869.135,499.416,869.888,498.196C870.228,497.637,870.999,497.385,872.212,497.453C872.532,497.473,872.862,497.463,873.181,497.453C876.38,497.307,876.38,497.296,876.38,498.909C876.38,501.682,876.339,504.448,876.39,507.213C876.491,513.651,876.639,520.09,876.73,526.527C876.751,527.867,878.001,528.94,879.705,529.879C881.248,530.718,883.582,530.631,885.639,530.69C888.985,530.779,892.352,530.68,895.697,530.739C900.166,530.808,900.595,530.036,900.807,528.228C900.967,526.967,900.827,525.707,900.827,524.447C900.818,521.273,900.84,518.097,900.818,514.923C900.715,501.109,900.595,487.294,900.477,473.479C900.477,472.992,900.436,472.494,900.456,472.004C900.487,471.135,901.509,470.88,903.132,470.979C908.103,471.302,912.281,470.353,916.207,469.014C916.606,468.878,916.89,468.653,917.188,468.457C920.206,466.435,923.219,464.433,926.206,462.411C926.797,461.999,927.219,461.55,927.748,461.12C929.221,459.929,930.595,458.698,932.239,457.563C934.932,455.709,937.767,453.9,940.623,452.103C941.364,451.624,942.225,451.155,943.23,450.842C947.435,449.503,949.308,447.334,951.825,445.371C953.388,444.15,955.161,442.986,956.935,441.834C957.367,441.562,958.166,441.385,958.848,441.22C959.851,440.985,960.582,441.091,960.83,441.688C961.433,443.085,962.233,444.482,962.644,445.898C963.966,450.5,964.217,455.131,963.987,459.771C963.887,461.891,963.975,464.022,963.987,466.142C963.987,470.226,963.956,474.309,964.018,478.404C964.066,481.256,964.148,484.108,964.39,486.971C964.649,489.931,965.128,492.891,965.497,495.862C965.769,498.01,966.032,500.16,966.259,502.319C966.541,504.966,966.693,507.633,967.103,510.281C967.183,510.77,968.045,511.394,968.925,511.649C970.099,512.02,971.311,511.649,972.352,511.19C973.245,510.79,974.368,510.516,975.377,510.164C976.19,509.881,976.972,509.568,977.793,509.285C978.135,509.167,978.693,508.972,978.885,509.031C979.237,509.137,979.555,509.392,979.627,509.608C980.356,511.727,980.898,511.962,985.347,511.971C986.699,511.971,988.054,511.971,989.406,511.961C992.129,511.952,993.683,511.209,993.804,509.88C993.856,509.284,993.815,508.679,993.815,508.063C994.023,508.043,994.246,508.014,994.465,507.985C995.115,508.385,995.808,508.777,996.418,509.196C999.042,510.966,1001.518,512.792,1004.292,514.503C1007.158,516.272,1010.344,517.912,1013.33,519.631C1014.143,520.101,1015.004,520.354,1016.307,520.305C1017.038,520.276,1017.86,520.344,1018.542,520.492C1019.163,520.608,1020.104,520.912,1020.084,521.116C1020.056,521.449,1019.501,521.879,1018.903,522.074C1018.268,522.29,1017.308,522.378,1016.516,522.339C1011.698,522.104,1010.136,523.569,1009.844,525.27C1009.422,527.75,1009.693,530.262,1009.753,532.764C1009.765,533.535,1010.733,533.915,1012.388,533.926C1015.355,533.945,1015.805,534.229,1015.462,535.665C1015.396,536.006,1015.422,536.358,1015.414,536.71C1015.283,539.278,1015.295,541.849,1015.003,544.418C1014.621,547.936,1014.022,551.462,1013.501,554.98C1013.399,555.634,1013.17,556.289,1013.158,556.943C1013.138,558.585,1014.392,559.396,1017.707,559.494C1022.75,559.64,1024.942,559.797,1024.701,556.583C1024.54,554.481,1024.42,552.392,1024.359,550.291C1024.34,549.607,1025.034,549.177,1026.616,549.187C1029.391,549.216,1030.332,548.806,1030.391,547.458C1030.483,545.7,1030.471,543.941,1030.391,542.183C1030.343,540.992,1031.344,540.552,1033.688,540.835C1037.464,541.304,1039.489,540.542,1039.51,538.666C1039.57,535.539,1039.31,532.433,1038.098,529.337C1037.336,527.381,1037.145,525.369,1036.914,523.376C1036.824,522.623,1037.464,521.861,1037.574,521.1C1037.694,520.259,1037.685,519.419,1037.555,518.59C1037.403,517.592,1036.904,516.605,1036.853,515.6C1036.663,511.653,1036.593,507.696,1036.494,503.74C1036.462,502.401,1036.824,502.333,1039.51,502.529C1042.815,502.772,1045.692,502.636,1045.66,500.105C1045.581,493.745,1045.66,487.405,1045.62,481.054C1045.6,478.73,1045.448,476.412,1045.281,474.088C1045.229,473.346,1045.819,473.101,1047.302,473.11C1052.202,473.15,1057.103,473.139,1062.014,473.139C1065.889,473.15,1067.922,471.957,1067.282,470.081C1067.114,469.593,1066.974,469.095,1066.974,468.596C1066.943,463.448,1066.994,458.281,1066.93,453.132C1066.902,450.591,1066.691,448.05,1066.581,445.511C1066.561,445.266,1066.399,444.935,1066.65,444.768C1067.241,444.377,1068.052,444.064,1068.774,443.704C1069.396,444.064,1070.449,444.388,1070.557,444.768C1070.997,446.409,1071.119,448.061,1071.438,449.711C1071.83,451.666,1072.302,453.609,1072.742,455.563C1072.821,455.935,1072.954,456.306,1072.954,456.677C1072.963,461.23,1072.963,465.793,1072.963,470.355C1072.963,472.153,1074.556,472.935,1078.192,472.935C1081.158,472.935,1084.134,473.012,1087.089,472.914C1090.897,472.788,1094.684,472.543,1098.471,472.318C1099.613,472.25,1100.023,472.465,1100.034,472.982C1100.034,474.165,1100.055,475.346,1100.055,476.54C1100.044,490.559,1100.064,504.588,1100.014,518.618C1100.004,521.714,1099.784,524.822,1099.633,527.918C1099.526,530.175,1099.404,532.432,1099.242,534.689C1099.192,535.314,1098.903,535.929,1098.89,536.545C1098.851,538.899,1102.079,540.492,1106.916,540.541C1109.031,540.561,1110.023,541.303,1108.661,542.064C1106.185,543.471,1106.316,545.112,1106.154,546.762C1106.006,548.259,1105.994,549.763,1105.734,551.258C1105.284,553.818,1108.449,554.218,1112.627,553.925C1117.037,553.622,1121.374,553.103,1125.773,552.752C1126.395,552.702,1127.467,552.977,1127.798,553.25C1128.749,554.041,1129.67,554.842,1129.069,555.888C1128.479,556.885,1129.632,557.392,1132.206,557.441L1132.206,581.973L83.202,581.973L83.202,559.525ZM159.648,488.372C159.648,489.652,159.657,490.941,159.648,492.222C159.632,493.033,160.249,493.589,162.027,493.627C165.358,493.706,168.694,493.833,172.006,493.785C173.61,493.756,175.392,493.52,175.382,492.377C175.352,489.701,175.382,487.015,175.362,484.328C175.352,483.35,174.16,483.067,172.326,483.086C169.076,483.115,165.829,483.086,162.588,483.097C160.474,483.097,159.676,483.478,159.656,484.503C159.623,485.783,159.648,487.072,159.648,488.372M175.744,461.534C175.744,460.058,175.703,458.584,175.764,457.108C175.794,456.288,174.942,455.848,173.395,455.819C170.499,455.77,167.599,455.77,164.703,455.819C162.99,455.858,161.757,456.327,161.587,457.206C161.361,458.282,161.256,459.385,161.196,460.469C161.177,460.899,161.523,461.33,161.503,461.76C161.452,462.873,161.177,464.006,161.207,465.12C161.247,466.566,163.557,467.593,166.563,467.6C168.356,467.611,170.165,467.611,171.967,467.6C174.943,467.6,175.704,467.239,175.735,465.765C175.764,464.358,175.744,462.951,175.744,461.534M223.745,488.226C223.745,487.025,223.745,485.833,223.745,484.65C223.734,483.555,222.863,483.107,220.62,483.097C217.458,483.086,214.308,483.086,211.145,483.097C209.026,483.107,208.06,483.555,208.051,484.581C208.02,487.16,208.04,489.73,208.051,492.309C208.051,493.072,208.738,493.608,210.4,493.62C213.837,493.649,217.283,493.649,220.72,493.62C222.835,493.6,223.706,493.141,223.735,492.085C223.78,490.795,223.745,489.515,223.745,488.226M184.41,486.447C184.41,487.609,184.38,488.771,184.42,489.935C184.454,491.069,185.531,491.634,187.816,491.664C190.525,491.703,193.236,491.703,195.932,491.664C197.721,491.644,198.908,491.059,198.968,490.18C199.124,488.148,199.308,486.115,199.328,484.084C199.338,481.914,198.036,481.123,193.839,480.645C192.806,480.527,191.624,480.488,190.587,480.585C187.02,480.946,183.858,481.659,184.379,483.897C184.576,484.738,184.41,485.598,184.41,486.447M215.581,507.063C217.128,507.063,218.681,507.092,220.229,507.053C222.354,507.024,223.186,506.671,223.326,505.665C223.461,504.707,223.361,503.75,223.361,502.802C223.361,501.375,223.411,499.94,223.35,498.514C223.296,497.352,222.19,496.793,219.829,496.764C217.059,496.735,214.288,496.735,211.517,496.764C209.695,496.785,208.472,497.429,208.432,498.327C208.392,499.098,208.443,499.871,208.411,500.633C208.381,501.6,208.257,502.578,208.286,503.545C208.328,504.443,208.286,505.352,208.748,506.201C208.943,506.573,210.245,506.944,211.162,507.023C212.584,507.169,214.102,507.063,215.581,507.063M199.749,446.09C199.749,444.701,199.779,443.314,199.739,441.937C199.709,440.902,198.778,440.471,196.643,440.452C194.385,440.443,192.124,440.431,189.88,440.463C187.225,440.502,185.652,441.146,185.602,442.378C185.487,444.819,185.512,447.272,185.612,449.714C185.633,450.398,186.063,451.228,187.705,451.346C190.412,451.532,193.216,451.64,195.932,451.55C199.583,451.424,199.748,451.228,199.748,449.382L199.748,446.09ZM208.256,515.64C208.306,515.64,208.366,515.65,208.43,515.65C208.43,516.617,208.264,517.604,208.47,518.562C208.797,520.251,209.488,520.515,212.268,520.984C215.149,521.453,217.723,521.278,220.414,520.731C221.872,520.428,222.863,519.977,222.938,519.235C223.144,517.116,223.36,514.986,223.255,512.866C223.215,511.88,223.009,510.647,220.18,510.531C217.243,510.404,214.267,510.404,211.331,510.51C209.999,510.549,208.883,510.999,208.788,511.809C208.647,513.09,208.442,514.358,208.256,515.64M199.349,432.733C199.349,431.443,199.389,430.154,199.338,428.874C199.298,427.889,198.357,427.447,196.352,427.438C194.304,427.417,192.239,427.427,190.175,427.427C187.571,427.438,186.168,427.888,185.993,429.118C185.673,431.462,185.602,433.807,185.622,436.152C185.632,437.049,186.718,437.822,188.687,437.95C191.017,438.096,193.397,438.144,195.755,438.144C198.211,438.144,199.327,437.53,199.348,436.307C199.368,435.117,199.349,433.926,199.349,432.733M174.582,515.553C174.582,514.517,174.617,513.481,174.582,512.435C174.541,511.224,173.395,510.657,170.94,510.627C168.861,510.618,166.768,510.686,164.692,510.607C161.716,510.52,160.69,510.969,160.475,512.738C160.23,514.681,160.415,516.634,160.425,518.58C160.425,519.547,161.306,520.24,163.196,520.622C165.781,521.15,168.345,521.17,171.016,520.758C173.641,520.348,174.572,519.812,174.582,518.472C174.601,517.496,174.591,516.528,174.582,515.553M198.984,500.184C198.984,499.119,199.014,498.055,198.968,496.99C198.918,495.886,197.73,495.309,195.511,495.3C193.071,495.29,190.617,495.28,188.177,495.3C185.798,495.31,184.525,495.828,184.454,496.98C184.341,498.925,184.185,500.889,184.496,502.823C184.782,504.621,185.307,505.236,189.791,505.148C191.654,505.109,193.523,505.148,195.392,505.139C197.731,505.119,198.929,504.542,198.969,503.4C199.014,502.323,198.984,501.258,198.984,500.184M223.851,434.482C223.811,434.482,223.755,434.471,223.716,434.471C223.716,433.632,223.851,432.772,223.686,431.933C223.326,430.154,222.668,429.343,219.759,429.166C217.979,429.06,216.117,429.03,214.383,429.186C213.366,429.274,211.828,429.754,211.702,430.144C211.291,431.462,211.407,432.811,211.342,434.14C211.323,434.54,211.448,434.951,211.416,435.351C211.342,436.357,211.046,437.354,211.161,438.341C211.396,440.284,212.443,440.714,216.401,440.714C217.242,440.704,218.084,440.714,218.917,440.704C221.715,440.694,223.099,440.107,223.314,438.78C223.555,437.345,223.676,435.908,223.851,434.482M175.127,434.746C175.077,434.746,175.021,434.746,174.971,434.746C174.971,433.593,175.021,432.421,174.962,431.268C174.902,429.861,173.785,429.343,170.959,429.343C169.301,429.343,167.608,429.274,165.954,429.372C165.102,429.421,163.986,429.644,163.585,429.968C162.899,430.506,162.393,431.179,162.342,431.814C162.187,433.818,162.212,435.83,162.312,437.833C162.383,439.201,163.89,440.363,165.799,440.451C167.737,440.53,169.74,440.422,171.71,440.334C173.484,440.267,174.491,439.669,174.656,438.858C174.923,437.5,174.972,436.124,175.127,434.746M162.292,474.715C162.292,475.906,162.252,477.108,162.313,478.289C162.364,479.384,163.605,479.941,165.844,479.951C167.844,479.961,169.833,479.961,171.836,479.961C174.021,479.951,175.313,479.394,175.342,478.318C175.382,475.994,175.382,473.669,175.342,471.353C175.312,470.131,174.45,469.516,172.171,469.36C170.028,469.223,167.794,469.214,165.649,469.331C163.536,469.459,162.313,470.348,162.293,471.412C162.284,472.517,162.292,473.62,162.292,474.715M199.349,459.63C199.349,458.439,199.389,457.236,199.338,456.055C199.308,455.234,198.838,454.559,196.783,454.51C194.805,454.461,192.816,454.267,190.868,454.344C187.531,454.5,186.423,454.979,186.347,456.249C186.248,458.38,186.218,460.518,186.347,462.648C186.473,464.456,187.837,465.033,191.492,465.033C192.845,465.033,194.199,465.033,195.557,465.033C198.161,465.022,199.318,464.466,199.349,463.216C199.368,462.015,199.349,460.821,199.349,459.63M211.097,447.808C211.097,448.931,211.046,450.065,211.105,451.189C211.2,452.938,212.554,453.7,215.59,453.71C216.667,453.71,217.753,453.495,218.811,453.545C222.527,453.691,223.499,452.763,223.675,451.247C223.921,448.961,223.81,446.676,223.715,444.38C223.665,443.091,222.473,442.592,219.848,442.572C218.249,442.562,216.637,442.562,215.028,442.572C212.309,442.572,211.191,443.079,211.105,444.428C211.046,445.551,211.097,446.685,211.097,447.808M199.349,473.033L199.349,471.245C199.349,470.65,199.379,470.054,199.349,469.459C199.259,468.13,197.781,467.396,195.041,467.328C194.209,467.308,193.366,467.319,192.525,467.328C188.313,467.328,186.288,468.295,186.339,470.377C186.374,471.568,186.609,472.749,186.699,473.933C186.75,474.715,186.69,475.506,186.719,476.287C186.761,477.586,188.128,478.241,190.752,478.25C192.426,478.26,194.1,478.26,195.773,478.25C198.098,478.241,199.309,477.655,199.339,476.511C199.379,475.349,199.349,474.196,199.349,473.033M160.815,501.933C160.815,503.008,160.805,504.073,160.815,505.147C160.815,505.968,161.491,506.544,163.33,506.624C165.298,506.712,167.288,506.848,169.256,506.809C173.719,506.731,174.686,506.173,174.57,503.956C174.521,502.931,174.305,501.904,174.235,500.878C174.17,500.078,174.295,499.276,174.17,498.476C174.05,497.635,173.063,497.186,171.259,497.196C168.971,497.216,166.69,497.186,164.416,497.205C161.932,497.226,160.834,497.782,160.814,499.013C160.794,499.979,160.805,500.965,160.815,501.933M198.593,513.734C198.593,512.767,198.652,511.79,198.572,510.813C198.477,509.943,197.801,509.191,195.756,509.103C193.347,509.005,190.888,508.877,188.508,509.015C185.767,509.161,185.221,509.67,185.171,511.066C185.091,512.748,184.966,514.437,184.811,516.118C184.671,517.838,186.094,518.57,189.675,518.58C191.35,518.58,193.022,518.591,194.69,518.57C197.154,518.551,198.478,517.955,198.573,516.743C198.643,515.747,198.593,514.73,198.593,513.734M211.477,461.467L211.477,463.821C211.477,466.704,212.214,467.046,218.165,466.948C218.361,466.948,218.556,466.948,218.741,466.938C221.953,466.743,223.305,466.235,223.335,465.101C223.4,462.677,223.4,460.265,223.335,457.841C223.305,456.806,222.033,456.269,219.869,456.249C218.271,456.239,216.658,456.239,215.05,456.249C212.661,456.259,211.517,456.797,211.489,457.978C211.468,459.132,211.477,460.304,211.477,461.467M163.06,447.856C163.06,448.96,163.02,450.054,163.086,451.148C163.146,452.292,164.633,453.025,166.943,453.063C168.355,453.092,169.782,453.104,171.191,453.063C173.29,453.025,174.432,452.536,174.541,451.51C174.687,450.28,174.541,449.03,174.617,447.797C174.657,446.889,175.098,445.97,174.893,445.091C174.522,443.499,174.582,443.177,171.576,442.884C169.919,442.728,168.089,442.757,166.406,442.884C163.576,443.118,163.086,443.489,163.06,444.936C163.049,445.913,163.06,446.89,163.06,447.856M211.878,474.812C211.878,475.281,211.878,475.76,211.878,476.219C211.878,476.727,211.867,477.225,211.867,477.734C211.887,479.139,212.669,479.532,215.489,479.542C216.782,479.552,218.074,479.542,219.358,479.542C221.572,479.532,222.894,478.994,222.939,477.929C223.01,475.859,223.031,473.778,222.939,471.707C222.864,470.367,221.708,469.898,218.918,469.889C217.753,469.889,216.597,469.889,215.439,469.889C213.11,469.899,211.928,470.446,211.878,471.599C211.839,472.672,211.878,473.736,211.878,474.812M1095.401,480.42L1095.302,480.42C1095.302,479.512,1095.449,478.593,1095.242,477.694C1095.119,477.204,1094.648,476.59,1093.906,476.316C1090.37,475.037,1085.622,476.11,1085.39,478.22C1085.23,479.715,1085.17,481.23,1085.37,482.734C1085.44,483.301,1086.083,484.044,1086.973,484.336C1088.077,484.698,1089.708,484.787,1091.112,484.797C1094.236,484.817,1095.242,484.298,1095.39,482.774C1095.471,481.992,1095.401,481.201,1095.401,480.42M1048.191,480.352L1048.18,480.352C1048.18,481.172,1048.131,481.983,1048.191,482.803C1048.272,484.026,1049.503,484.513,1052.588,484.62C1055.064,484.698,1057.089,484.141,1057.158,483.106C1057.288,481.269,1057.209,479.413,1056.846,477.585C1056.616,476.433,1055.043,476.032,1052.48,476.14C1049.331,476.277,1048.309,476.716,1048.199,478.006C1048.14,478.789,1048.191,479.57,1048.191,480.352M1068.792,478.778C1068.731,479.208,1068.572,479.922,1068.551,480.644C1068.522,481.611,1069.393,482.001,1071.406,481.962C1074.13,481.903,1074.983,481.532,1074.85,480.486C1074.751,479.675,1074.643,478.865,1074.571,478.054C1074.52,477.399,1074.623,476.735,1074.46,476.09C1074.253,475.23,1072.978,474.762,1071.207,474.819C1069.553,474.878,1068.843,475.378,1068.801,476.138C1068.751,476.923,1068.792,477.694,1068.792,478.778" fill="rgb(94,56,96)" stroke="none" stroke-width="1"/><path id="eEXFeVaYcxD24" d="M383.512,415.178L383.512,404.49L383.737,404.49L383.737,415.218C383.666,415.197,383.58,415.186,383.512,415.178" fill="rgb(94,56,96)" stroke="none" stroke-width="1"/><path id="eEXFeVaYcxD25" d="M1087.485,477.41C1089.32,476.433,1092.215,476.59,1093.979,477.831C1091.786,477.156,1089.813,476.814,1087.485,477.41" fill="rgb(94,56,96)" stroke="none" stroke-width="1"/><polygon id="eEXFeVaYcxD26" points="86.563,562.944 86.563,495.241 92.184,495.241 92.184,564.293" fill="rgb(94,56,96)" stroke="none" stroke-width="1"/><polygon id="eEXFeVaYcxD27" points="124.821,544.226 137.081,544.226 137.081,554.854 151.322,554.854 151.322,570.486 124.821,570.486" fill="rgb(94,56,96)" stroke="none" stroke-width="1"/><polyline id="eEXFeVaYcxD28" points="237.677,546.102 237.677,531.311 237.677,442.787 225.704,442.787 225.704,424.8 213.741,424.8 213.741,401.52 204.333,401.52 204.333,398.12 193.222,398.12 193.222,381.795 187.075,381.795 187.075,362.646 186.319,381.237 184.129,381.237 184.129,397.494 174.952,397.494 174.952,403.541 168.786,403.541 168.786,423.765 156.942,423.765 156.942,444.809 147.926,444.809 153.035,520.68 147.926,520.68 147.926,554.122" fill="rgb(94,56,96)" stroke="none" stroke-width="1"/><polygon id="eEXFeVaYcxD29" points="239.19,546.102 259.607,546.102 259.607,541.412 265.631,541.412 265.631,515.15 280.914,515.15 280.914,507.647 295.608,507.647 295.608,516.089 313.974,516.089 313.974,534.7 321.258,534.7 321.258,541.549 321.258,555.48 237.682,555.48" fill="rgb(94,56,96)" stroke="none" stroke-width="1"/><polygon id="eEXFeVaYcxD30" points="321.251,541.549 329.847,541.549 329.847,524.53 350.729,524.53 350.729,495.23 360.463,495.23 360.463,455.752 367.153,452.488 367.153,440.12 380.674,428.786 380.674,413.546 383.74,408.856 387.938,413.546 386.803,428.943 403.33,441.058 403.33,452.889 411.024,454.813 411.258,493.96 418.083,493.96 418.083,529.981 425.777,534.222 425.777,544.226 432.108,544.226 432.108,559.231 313.558,557.355" fill="rgb(94,56,96)" stroke="none" stroke-width="1"/><polyline id="eEXFeVaYcxD31" points="432.108,544.226 432.108,536.41 438.181,536.41 438.181,504.834 537.34,504.834 537.34,538.461 543.116,538.461 543.116,546.258 556.035,546.258 556.035,523.279 571.219,523.279 571.219,512.024 588.002,512.024 588.002,524.217 607.31,524.217 607.31,546.277 620.705,546.277 620.705,561.421 432.108,561.421 432.108,545.77" fill="rgb(94,56,96)" stroke="none" stroke-width="1"/><polyline id="eEXFeVaYcxD32" points="615.574,557.982 631.596,557.982 631.596,547.664 637.087,547.664 637.087,535.159 646.575,535.159 646.575,526.093 659.177,526.093 659.177,417.61 730.993,417.61 730.993,517.906 743.117,517.906 743.117,480.449 749.6,480.449 749.6,471.842 764.338,471.842 764.338,479.745 773.967,479.745 773.967,516.05 813.02,516.05 813.02,525.907 821.396,525.907 821.396,541.647 831.488,541.647 831.488,533.127 835.506,533.127 835.506,500.457 867.677,500.457 867.677,494.204 877.195,494.204 877.195,527.843 900.8,527.843 900.8,464.817 965.944,433.057 965.944,509.035 965.944,563.922 818.833,563.922 821.396,541.647" fill="rgb(94,56,96)" stroke="none" stroke-width="1"/><rect id="eEXFeVaYcxD33" width="41.86" height="13.443" rx="0" ry="0" transform="matrix(1 0 0 1 607.709 557.355)" fill="rgb(94,56,96)" stroke="none" stroke-width="1"/><polyline id="eEXFeVaYcxD34" points="957.347,508.586 975.371,508.586 975.371,498.269 982.367,498.269 982.367,511.976 993.798,511.976 993.798,503.583 1027.512,520.026 1027.512,526.093 1009.839,526.093 1009.839,533.929 1018.257,533.929 1018.257,557.355 1024.696,557.355 1024.696,544.226 1029.798,544.226 1029.798,537.974 1034.295,537.974 1034.295,498.269 1045.656,498.269 1045.656,468.256 1066.97,468.256 1066.97,440.431 1074.703,440.431 1074.703,468.569 1104.831,468.569 1104.831,536.547 1113.175,536.547 1113.175,550.79 1134.958,550.79 1134.958,581.976 1113.175,581.976" fill="rgb(94,56,96)" stroke="none" stroke-width="1"/><polygon id="eEXFeVaYcxD35" points="1001.591,570.799 1001.591,536.724 1015.457,535.668 1022.764,541.1 1026.611,565.484" fill="rgb(94,56,96)" stroke="none" stroke-width="1"/></g><path id="eEXFeVaYcxD36" d="M935.14,295.485C935.14,295.003,935.046,294.493,935.158,294.032C935.961,290.606,936.832,287.185,937.641,283.754C938.708,279.198,939.753,274.629,940.779,270.056C942.085,264.223,943.343,258.38,944.646,252.542C945.386,249.232,946.193,245.939,946.936,242.629C947.922,238.233,948.859,233.83,949.852,229.434C950.625,225.996,951.459,222.57,952.249,219.136C953.727,212.697,955.19,206.26,956.659,199.818C956.837,199.042,956.983,198.252,957.173,197.476C957.508,196.093,957.095,195.05,955.886,194.255C949.115,189.822,942.362,185.357,935.592,180.921C934.056,179.912,933.444,180.095,932.423,181.631C930.173,185.015,927.913,188.4,925.626,191.76C924.501,193.415,922.865,193.886,920.897,194.18C918.901,194.474,917.659,193.509,916.297,192.583C914.92,191.646,914.443,190.133,914.099,188.563C913.75,186.953,914.268,185.53,915.094,184.236C917.137,181.037,919.247,177.88,921.37,174.728C922.421,173.17,922.287,172.159,920.729,171.13C913.783,166.545,906.847,161.952,899.867,157.428C899.418,157.137,898.592,157.2,898.026,157.375C897.364,157.569,896.759,158.024,896.191,158.445C894.588,159.637,893.025,160.879,891.428,162.079C890.294,162.93,889.144,163.753,887.98,164.563C885.333,166.417,882.646,168.216,880.03,170.113C877.446,171.987,874.94,173.971,872.374,175.868C870.88,176.966,869.327,177.991,867.803,179.05C866.525,179.931,865.222,180.777,863.98,181.706C862.528,182.795,861.153,183.996,859.689,185.071C858.048,186.274,856.333,187.377,854.667,188.545C853.541,189.337,852.43,190.147,851.335,190.976C849.813,192.121,848.318,193.308,846.794,194.453C845.449,195.462,844.071,196.432,842.711,197.419C840.845,198.774,838.987,200.133,837.119,201.483C835.753,202.47,834.375,203.443,833.006,204.43C831.182,205.752,829.36,207.083,827.539,208.408C826.464,209.187,825.371,209.952,824.31,210.747C822.107,212.396,819.93,214.082,817.709,215.698C817.404,215.917,816.884,215.839,816.465,215.898C816.454,215.499,816.284,215.008,816.456,214.709C817.188,213.437,818.006,212.211,818.815,210.986C822.258,205.764,825.753,200.574,829.108,195.291C829.673,194.398,829.962,193.079,829.831,192.025C829.105,186.195,830.316,180.765,833.244,175.789C835.007,172.798,837.452,170.289,840.38,168.293C842.026,167.168,843.528,165.842,845.142,164.662C846.529,163.644,847.975,162.699,849.395,161.721C850.639,160.87,851.901,160.044,853.118,159.154C854.612,158.048,856.043,156.856,857.542,155.764C859.155,154.589,860.836,153.508,862.451,152.341C863.998,151.231,865.495,150.055,867.019,148.92C868.367,147.912,869.716,146.902,871.089,145.923C872.353,145.022,873.655,144.182,874.919,143.285C875.837,142.638,875.87,141.596,874.937,140.98C869.711,137.529,864.472,134.105,859.23,130.682C858.31,130.08,857.537,130.267,856.937,131.183C856.474,131.892,856.059,132.642,855.538,133.309C854.956,134.05,854.279,134.34,853.343,133.712C847.918,130.079,842.465,126.488,837.021,122.88C833.956,120.841,831.932,118.091,831.604,114.359C831.316,111.074,832.461,108.29,834.726,105.832C836.739,103.649,839.266,102.579,842.025,102.49C843.519,102.442,845.232,102.346,846.754,103.362C852.897,107.452,859.125,111.412,865.31,115.437C866.438,116.169,866.504,116.919,865.664,118C865.362,118.39,865.058,118.785,864.833,119.215C864.07,120.669,864.242,121.125,865.634,122.037C871.888,126.127,878.142,130.212,884.348,134.367C885.244,134.966,885.976,135.041,886.791,134.484C888.797,133.108,890.771,131.688,892.764,130.288C894.395,129.142,896.044,128.02,897.662,126.853C899.132,125.791,900.564,124.678,902.017,123.597C903.445,122.535,904.87,121.476,906.3,120.429C908.229,119.022,910.155,117.611,912.099,116.225C914.777,114.326,917.482,112.47,920.149,110.558C921.738,109.421,923.259,108.199,924.837,107.048C926.304,105.978,927.817,104.97,929.289,103.903C931.011,102.652,932.707,101.36,934.418,100.091C935.734,99.117,937.054,98.147,938.379,97.18C940.277,95.798,942.168,94.404,944.084,93.044C945.562,91.998,947.078,91.001,948.566,89.967C949.697,89.187,950.825,88.401,951.928,87.583C953.455,86.453,954.941,85.264,956.483,84.148C957.567,83.365,957.542,82.297,957.459,81.147C957.271,78.527,956.88,75.887,957.016,73.281C957.49,64.175,960.614,56.116,967.134,49.57C968.919,47.779,970.724,45.948,972.775,44.499C974.887,43.005,977.23,41.761,979.622,40.762C982.176,39.695,984.864,38.892,987.56,38.259C989.417,37.825,991.385,37.859,993.303,37.72C994.556,37.631,995.82,37.501,997.062,37.59C998.579,37.701,1000.079,38.038,1001.589,38.246C1002.731,38.401,1003.878,38.6,1005.021,38.58C1005.42,38.574,1005.919,38.046,1006.197,37.639C1008.284,34.571,1010.224,31.396,1012.414,28.407C1014.38,25.722,1016.914,24,1020.476,23.636C1028.748,22.793,1033.91,30.619,1031.997,37.141C1031.351,39.344,1029.815,41.312,1028.568,43.312C1027.196,45.51,1025.646,47.596,1024.277,49.793C1024,50.234,1023.986,51.02,1024.177,51.524C1024.471,52.301,1025.014,52.992,1025.504,53.685C1029.748,59.706,1031.991,66.461,1032.257,73.756C1032.617,83.737,1029.266,92.474,1022.832,100.127C1020.296,103.147,1017.221,105.473,1014,107.576C1011.729,109.055,1009.091,109.997,1006.574,111.059C1005.229,111.624,1003.762,111.893,1002.385,112.381C1002.041,112.5,1001.645,112.919,1001.565,113.267C1000.29,118.789,999.076,124.326,997.82,129.854C996.808,134.291,995.724,138.71,994.735,143.15C993.454,148.901,992.259,154.668,990.976,160.416C989.983,164.86,988.883,169.273,987.876,173.713C986.77,178.584,985.73,183.468,984.636,188.344C983.992,191.219,983.294,194.079,982.634,196.946C982.34,198.235,982.812,199.238,983.89,199.951C990.119,204.068,996.356,208.179,1002.582,212.298C1003.561,212.938,1004.439,212.91,1005.182,211.971C1005.654,211.378,1006.094,210.754,1006.483,210.102C1006.954,209.315,1007.542,209.212,1008.279,209.675C1009.186,210.249,1010.092,210.825,1010.987,211.416C1015.805,214.584,1020.629,217.759,1025.438,220.944C1031.149,224.725,1032.182,231.907,1027.751,237.122C1025.627,239.622,1022.919,240.717,1019.598,240.801C1016.929,240.859,1014.753,239.847,1012.662,238.511C1007.423,235.165,1002.245,231.722,997.039,228.329C995.855,227.556,995.598,226.538,996.349,225.357C996.587,224.982,996.906,224.661,997.162,224.293C998.076,222.984,997.824,221.859,996.505,220.997C991.526,217.745,986.556,214.48,981.594,211.203C980.418,210.427,979.629,210.635,979.323,211.988C978.287,216.559,977.316,221.141,976.291,225.707C975.304,230.109,974.27,234.495,973.283,238.891C972.529,242.243,971.847,245.611,971.074,248.956C970.01,253.555,969.188,258.209,966.388,262.243C964.425,265.076,962.219,267.646,959.33,269.445C956.901,270.962,954.347,272.364,951.405,272.827C950.831,272.918,950.255,273.647,949.88,274.21C945.614,280.669,941.396,287.154,937.146,293.619C936.677,294.328,936.109,294.977,935.587,295.659C935.437,295.596,935.29,295.546,935.14,295.485M976.96,109.712C976.654,109.278,976.311,108.466,975.706,107.986C974.448,106.989,973.023,106.206,971.718,105.264C970.734,104.554,969.939,104.742,969.084,105.472C968.38,106.071,967.585,106.564,966.833,107.109C965.472,108.094,964.103,109.073,962.753,110.075C961.153,111.268,959.59,112.506,957.977,113.677C956.435,114.799,954.822,115.821,953.292,116.956C950.658,118.909,948.104,120.967,945.446,122.88C942.863,124.741,940.163,126.436,937.568,128.281C934.352,130.561,931.201,132.928,928.012,135.247C924.824,137.566,921.619,139.865,918.435,142.194C915.507,144.34,912.586,146.496,909.686,148.682C908.456,149.613,908.528,150.383,909.752,151.184C915.374,154.844,920.984,158.517,926.596,162.196C928.203,163.25,928.974,163.089,930.02,161.495C932.054,158.396,934.07,155.283,936.173,152.231C938.006,149.571,941.088,148.138,943.567,149.023C948.304,150.713,949.507,155.391,947.534,158.626C947.024,159.466,946.486,160.292,945.942,161.11C944.265,163.646,942.563,166.163,940.9,168.705C939.83,170.338,939.932,170.945,941.507,171.996C947.128,175.741,952.764,179.458,958.403,183.179C959.303,183.769,960.089,183.6,960.387,182.519C960.975,180.412,961.507,178.291,961.987,176.157C962.958,171.852,963.856,167.525,964.823,163.217C965.841,158.693,966.922,154.182,967.944,149.657C968.663,146.48,969.305,143.287,970.02,140.107C971.069,135.45,972.147,130.8,973.219,126.15C974.021,122.672,974.846,119.202,975.642,115.721C976.072,113.854,976.466,111.981,976.96,109.712M1012.575,75.413C1012.429,65.493,1005.26,57.178,994.523,57.189C985.133,57.197,977.05,64.101,976.618,74.586C976.264,83.247,982.302,93.977,996.456,93.15C1003.888,92.718,1012.187,86.361,1012.575,75.413" fill="rgb(94,56,96)" stroke="none" stroke-width="1"/></g></svg>