<svg id="e2VDepwZ1TX1" xmlns="http://www.w3.org/2000/svg" xmlns:xlink="http://www.w3.org/1999/xlink" viewBox="20 -65 1160 710" shape-rendering="geometricPrecision" text-rendering="geometricPrecision"><defs><rect id="e2VDepwZ1TX2" width="50.212" height="50.212" rx="0" ry="0"/><rect id="e2VDepwZ1TX3" width="50.212" height="50.211" rx="0" ry="0"/><rect id="e2VDepwZ1TX4" width="62.793" height="62.793" rx="0" ry="0"/><rect id="e2VDepwZ1TX5" width="58.351" height="58.35" rx="0" ry="0"/><rect id="e2VDepwZ1TX6" width="54.526" height="54.529" rx="0" ry="0"/><rect id="e2VDepwZ1TX7" width="61.734" height="61.734" rx="0" ry="0"/><rect id="e2VDepwZ1TX8" width="63.248" height="63.249" rx="0" ry="0"/><rect id="e2VDepwZ1TX9" width="63.527" height="63.061" rx="0" ry="0"/><rect id="e2VDepwZ1TX10" width="63.542" height="63.543" rx="0" ry="0"/><rect id="e2VDepwZ1TX11" width="62.916" height="62.914" rx="0" ry="0"/><rect id="e2VDepwZ1TX12" width="50.873" height="50.872" rx="0" ry="0"/><rect id="e2VDepwZ1TX13" width="62.716" height="62.716" rx="0" ry="0"/><rect id="e2VDepwZ1TX14" width="62.523" height="62.523" rx="0" ry="0"/><rect id="e2VDepwZ1TX15" width="63.049" height="63.049" rx="0" ry="0"/></defs><g id="e2VDepwZ1TX16"><rect id="e2VDepwZ1TX17" width="1200" height="720" rx="0" ry="0" transform="matrix(1 0 0 1 0 -70)" fill="rgb(13,122,101)" stroke="none" stroke-width="1"/><g id="e2VDepwZ1TX18" transform="matrix(1.173928 0 0 1.050031 267.222866 -4.043581)"><path id="e2VDepwZ1TX19" d="M571.025,250.419C569.652,246.332,567.993,242.396,565.906,238.716C560.948,229.988,554.421,222.563,546.057,216.892C541.374,213.721,536.477,210.985,531.087,209.125C527.367,207.84,523.646,206.74,519.766,206.039C512.442,204.708,505.163,204.603,497.85,206.101C495.516,206.58,493.172,206.81,490.924,207.774C488.907,208.639,486.636,208.911,484.614,209.771C479.092,212.112,473.931,215.058,469.131,218.723C461.65,224.434,455.819,231.485,451.214,239.602C448.847,243.758,447.056,248.208,445.802,252.8C445.055,255.55,444.175,258.356,444.379,261.336C444.513,263.291,444.308,265.273,444.2,267.243C444.098,269.063,443.765,269.263,441.774,269.163C440.398,269.093,438.995,268.963,437.665,269.193C433.878,269.848,430.157,269.308,426.425,268.838C425.602,268.733,424.767,268.401,424.03,267.999C420.749,266.192,417.345,265.164,413.21,266.148C413.031,265.074,412.663,264.016,412.719,262.982C412.974,257.885,411.546,252.984,411.04,247.978C410.738,244.959,409.744,241.999,408.941,239.042C407.84,235.017,406.857,230.94,405.399,227.04C403.167,221.059,400.562,215.238,397.528,209.592C393.182,201.501,388.028,194.002,382.096,187.016C380.167,184.746,378.16,182.545,376.148,180.265C376.538,179.705,376.768,179.236,377.117,178.891C383.279,172.696,389.451,166.507,395.649,160.342C397.179,158.817,397.897,158.876,399.574,160.332C404.969,165.017,410.814,169.002,417.505,171.61C420.186,172.664,422.915,173.659,425.694,174.384C429.307,175.333,432.965,176.306,436.667,176.675C440.659,177.071,444.718,176.8,448.745,176.764C449.678,176.754,450.624,176.59,451.54,176.38C454.688,175.659,457.841,174.939,460.963,174.11C463.097,173.544,465.267,172.984,467.275,172.093C471.482,170.212,475.627,168.188,479.42,165.511C485.627,161.127,491.048,155.976,495.558,149.86C499.227,144.882,502.006,139.463,504.275,133.702C506.041,129.211,507.156,124.564,507.724,119.868C508.312,114.967,508.235,109.946,508.045,104.992C507.924,101.87,507.371,98.676,506.475,95.68C505.016,90.79,503.332,85.963,500.921,81.397C497.447,74.82,492.968,69.003,487.661,63.882C483.484,59.842,478.785,56.366,473.575,53.672C469.553,51.597,465.489,49.631,461.05,48.579C458.902,48.071,456.74,47.576,454.582,47.126C452.503,46.691,450.426,46.084,448.328,45.964C438.755,45.403,429.426,46.494,420.376,49.915C413.498,52.515,407.268,56.111,401.562,60.712C396.107,65.108,391.485,70.259,387.739,76.135C384.254,81.607,381.181,87.313,379.841,93.777C379.305,96.359,378.726,98.934,378.157,101.511C376.745,107.964,376.96,114.442,377.968,120.898C378.403,123.669,379.244,126.379,379.868,129.12C380.911,133.734,382.902,137.973,385.081,142.118C387.524,146.752,390.57,150.975,394.086,154.864C395.374,156.289,395.324,156.74,393.995,158.089C392.79,159.305,391.557,160.489,390.349,161.7C385.328,166.726,380.322,171.767,375.282,176.783C374.048,178.009,373.717,177.952,372.313,176.673C370.86,175.347,369.443,173.973,367.931,172.711C362.011,167.777,355.858,163.187,349.195,159.261C343.744,156.054,338.175,153.124,332.285,150.824C329.51,149.739,326.705,148.722,323.88,147.768C321.383,146.923,318.859,146.127,316.305,145.468C313.67,144.787,310.988,144.267,308.317,143.722C306.151,143.282,303.982,142.842,301.796,142.512C296.724,141.747,291.642,141.038,286.487,141.156C286.097,141.166,285.702,140.912,285.29,140.777C285.203,140.373,285.075,140.043,285.075,139.712C285.059,130.889,285.049,122.063,285.043,113.236C285.043,112.806,285.049,112.382,285.08,111.952C285.146,111.061,285.571,110.531,286.528,110.501C290.715,110.365,294.885,110.243,298.924,108.855C301.166,108.08,303.617,107.832,305.782,106.905C310.317,104.965,314.785,102.905,318.976,100.19C328.932,93.759,336.429,85.181,341.916,74.794C343.896,71.04,345.313,67.033,346.521,62.922C347.638,59.127,348.292,55.28,348.804,51.408C349.162,48.708,348.938,45.929,348.998,43.188C349.146,36.962,347.657,30.984,345.892,25.113C344.848,21.648,343.252,18.303,341.556,15.091C338.804,9.866,335.426,5.034,331.342,0.73C326.234,-4.647,320.439,-9.112,313.878,-12.613C309.941,-14.715,305.827,-16.349,301.594,-17.659C298.917,-18.489,296.128,-18.974,293.365,-19.489C291.69,-19.804,289.962,-19.824,288.277,-20.071C284.684,-20.59,281.127,-20.757,277.578,-19.777C276.928,-19.6,276.216,-19.652,275.545,-19.537C272.107,-18.94,268.56,-18.682,265.26,-17.635C260.896,-16.251,256.588,-14.605,252.553,-12.315C246.022,-8.62,240.12,-4.164,235.1,1.437C229.865,7.275,225.641,13.764,222.697,21.027C221.422,24.182,220.332,27.458,219.612,30.777C218.821,34.434,218.277,38.193,218.126,41.929C217.957,46.105,218.126,50.33,218.587,54.486C218.922,57.498,219.813,60.497,220.752,63.4C221.872,66.876,223.163,70.315,224.645,73.647C226.598,78.023,229.33,81.949,232.255,85.754C236.589,91.389,241.806,96.016,247.678,99.942C251.733,102.652,256.049,104.833,260.619,106.567C264.54,108.049,268.528,109.244,272.657,109.894C275.017,110.262,277.428,110.303,279.813,110.498C281.574,110.644,281.85,110.913,281.997,112.658C282.04,113.164,282.024,113.684,282.024,114.199C282.029,122.086,282.029,129.973,282.024,137.855C282.024,138.789,281.931,139.72,281.855,141.001C280.626,141.1,279.702,141.264,278.784,141.236C272.932,141.049,267.217,142.306,261.454,142.987C258.921,143.286,256.42,143.895,253.943,144.511C251.383,145.151,248.857,145.927,246.342,146.73C242.941,147.815,239.455,148.736,236.2,150.182C230.682,152.631,225.262,155.323,219.901,158.107C214.114,161.108,208.799,164.858,203.757,168.976C200.582,171.577,197.522,174.311,194.376,176.947C193.069,178.037,192.769,177.976,191.589,176.791C185.504,170.67,179.413,164.549,173.321,158.432C171.797,156.902,171.761,156.231,173.212,154.527C174.1,153.483,175.058,152.505,175.887,151.42C178.783,147.609,181.522,143.684,183.469,139.298C184.78,136.353,185.985,133.338,186.934,130.267C187.758,127.593,187.978,124.747,188.785,122.071C189.824,118.636,189.855,115.135,189.922,111.64C190.049,105.702,188.885,99.962,187.429,94.22C186.244,89.54,184.44,85.169,182.244,80.959C178.576,73.926,173.601,67.862,167.726,62.52C160.97,56.389,153.167,51.993,144.596,49.105C140.105,47.595,135.353,46.567,130.634,46.101C125.898,45.636,121.045,45.856,116.29,46.311C112.759,46.651,109.314,47.856,105.824,48.663C100.356,49.937,95.416,52.448,90.656,55.294C85.123,58.608,80.174,62.7,75.856,67.506C71.905,71.898,68.535,76.694,65.919,82.025C64.037,85.861,62.224,89.707,61.29,93.901C60.529,97.312,59.362,100.704,59.153,104.148C58.743,110.781,58.444,117.422,60.084,124.058C61.092,128.12,62.093,132.171,63.669,136.012C65.389,140.18,67.621,144.107,70.19,147.868C75.482,155.625,82.029,162.035,89.99,166.962C95.295,170.242,100.856,173.019,107.023,174.335C110.849,175.153,114.659,176.124,118.524,176.679C121.049,177.039,123.66,176.835,126.226,176.788C128.281,176.753,130.363,176.763,132.369,176.405C135.635,175.829,138.911,175.158,142.076,174.183C145.65,173.083,149.172,171.757,152.596,170.252C158.119,167.826,162.95,164.292,167.454,160.3C169.11,158.831,169.729,158.889,171.336,160.466C174.387,163.465,177.442,166.463,180.478,169.476C183.575,172.552,186.673,175.634,189.729,178.753C190.964,180.01,190.94,180.184,189.786,181.525C188.785,182.694,187.694,183.794,186.68,184.948C180.333,192.165,174.808,199.977,170.117,208.353C167.125,213.694,164.49,219.229,162.524,225.056C161.486,228.118,160.4,231.163,159.446,234.249C158.593,237.004,157.749,239.783,157.144,242.604C156.29,246.601,155.449,250.612,155.2,254.721C155.064,257.022,154.703,259.306,154.425,261.598C154.354,262.195,154.311,262.819,154.085,263.358C153.913,263.778,146.219,269.076,143.661,269.081C137.745,269.095,131.826,269.09,125.91,269.07C125.17,269.07,124.437,268.934,123.755,268.864C123.299,266.182,123.258,262.648,122.893,260.951C122.468,258.953,122.208,256.905,121.654,254.946C120.713,251.592,119.879,248.158,118.479,244.98C116.142,239.677,113.158,234.691,109.547,230.111C104.129,223.225,97.563,217.703,89.926,213.436C85.45,210.936,80.836,208.766,75.79,207.644C72.388,206.889,69.023,205.7,65.587,205.395C57.115,204.65,48.763,205.09,40.482,207.636C35.204,209.256,30.131,211.206,25.45,213.986C17.589,218.648,10.833,224.654,5.397,232.09C2.527,236.027,-0.026,240.173,-1.886,244.638C-3.356,248.143,-4.449,251.818,-5.456,255.524C-6.641,259.875,-6.912,264.286,-7.347,268.681C-7.636,271.526,-6.946,274.459,-6.776,277.361C-6.436,283.466,-4.676,289.214,-2.447,294.875C0.04,301.212,3.517,306.938,7.825,312.164C11.812,317.007,16.367,321.269,21.603,324.76C26.02,327.712,30.685,330.187,35.696,331.991C39.227,333.265,42.818,334.223,46.518,334.965C50.16,335.709,53.778,336.17,57.451,336.149C61.722,336.128,65.931,335.688,70.173,334.911C74.418,334.128,78.505,332.98,82.42,331.395C91.313,327.781,99.208,322.519,105.759,315.45C110.647,310.169,114.907,304.416,117.547,297.615C118.173,295.997,123.243,276.076,123.353,274.05C123.43,272.529,123.73,272.187,125.429,272.112C127.135,272.034,128.855,272.087,130.57,272.083C133.913,272.071,154.166,272.459,154.254,273.681C154.579,278.11,154.767,282.546,155.291,286.954C155.816,291.354,156.461,295.767,157.456,300.081C158.4,304.13,159.771,308.081,161.145,312.016C162.617,316.261,164.096,320.524,165.966,324.597C168.897,330.954,172.339,337.045,176.328,342.819C180.269,348.531,184.5,354.012,189.306,359.028C189.82,359.577,190.238,360.206,190.752,360.854C190.311,361.463,190.028,361.997,189.62,362.406C183.445,368.583,177.268,374.761,171.067,380.914C169.703,382.265,169.112,382.219,167.57,380.919C166.332,379.864,165.117,378.779,163.822,377.797C159.436,374.506,154.855,371.526,149.677,369.612C146.727,368.522,143.766,367.418,140.732,366.613C137.195,365.687,133.594,364.597,129.98,364.449C124.468,364.229,118.954,364.029,113.389,365.293C108.374,366.43,103.457,367.602,98.724,369.643C89.688,373.538,81.969,379.206,75.408,386.487C69.512,393.045,65.187,400.567,62.272,408.859C60.626,413.533,59.37,418.38,59.112,423.329C58.781,429.624,58.51,435.904,60.056,442.199C61.051,446.267,61.985,450.337,63.551,454.187C66.047,460.297,69.412,465.947,73.618,471.055C77.733,476.045,82.518,480.274,87.816,483.968C91.276,486.379,94.997,488.226,98.786,490.019C104.409,492.691,110.395,494.276,116.465,494.911C125.233,495.833,134.006,495.495,142.561,492.618C146.281,491.359,149.928,490.03,153.455,488.3C162.466,483.882,169.813,477.48,176.035,469.685C179.084,465.872,181.62,461.715,183.719,457.319C185.03,454.567,186.096,451.67,186.99,448.742C187.776,446.156,188.027,443.414,188.771,440.808C189.792,437.2,189.908,433.536,189.93,429.855C189.971,424.021,188.871,418.365,187.42,412.709C186.526,409.219,185.301,405.876,183.859,402.661C181.302,396.97,177.823,391.776,173.708,387.051C171.548,384.563,171.533,384.452,173.912,382.068C178.209,377.757,182.523,373.473,186.826,369.169C188.341,367.653,189.835,366.118,191.365,364.619C192.943,363.078,192.972,363.073,194.735,364.553C195.777,365.432,196.752,366.401,197.774,367.307C204.022,372.809,210.683,377.711,217.869,381.924C224.353,385.737,231.034,389.089,238.099,391.659C239.775,392.272,241.441,392.908,243.135,393.461C245.561,394.263,247.978,395.104,250.452,395.732C253.253,396.445,256.157,396.781,258.936,397.58C263.413,398.865,268.06,398.819,272.606,399.591C275.522,400.099,278.547,400,281.684,400.179C281.806,400.914,282.001,401.569,282.006,402.222C282.027,410.889,282.038,419.548,282.006,428.202C281.995,430.43,281.806,430.501,279.422,430.663C276.865,430.833,274.235,430.778,271.766,431.377C266.395,432.676,261.069,434.15,256.017,436.57C249.297,439.778,243.333,444.002,237.965,449.085C232.842,453.933,228.752,459.629,225.507,465.857C223.711,469.315,222.307,473.006,221.03,476.703C220.145,479.263,219.946,482.045,219.134,484.635C218.09,487.978,218.024,491.412,217.988,494.8C217.903,502.712,219.218,510.401,221.974,517.884C223.793,522.796,226.088,527.429,228.935,531.779C233.917,539.4,240.318,545.671,247.922,550.666C252.791,553.865,258.053,556.244,263.586,558.175C269.657,560.293,275.899,561.056,282.178,561.497C287.824,561.885,293.378,560.739,298.901,559.49C302.591,558.661,306.142,557.447,309.547,555.942C314.147,553.925,318.482,551.361,322.546,548.31C330.837,542.088,337.321,534.4,342.006,525.182C343.94,521.406,345.741,517.545,346.57,513.328C347.307,509.571,348.397,505.855,348.796,502.057C349.202,498.248,349.166,494.343,348.908,490.511C348.679,487.116,348.141,483.693,347.257,480.412C346.285,476.829,344.975,473.292,343.424,469.904C341.735,466.205,339.892,462.504,337.599,459.156C333.381,452.995,328.258,447.626,322.172,443.177C315.677,438.428,308.578,434.962,300.916,432.721C296.582,431.447,292.103,430.694,287.532,430.661C285.383,430.647,285.066,430.345,285.06,428.324C285.023,419.582,285.044,410.835,285.044,402.092C285.044,401.838,284.961,401.498,285.09,401.33C285.475,400.863,285.884,400.333,286.401,400.061C286.815,399.846,287.414,400.019,287.922,399.978C293.792,399.435,299.657,398.882,305.527,398.314C305.86,398.284,306.188,398.152,306.52,398.064C309.494,397.336,312.494,396.651,315.446,395.853C319.3,394.809,323.211,393.893,326.953,392.533C331.016,391.053,334.905,389.093,338.892,387.384C345.29,384.646,351.239,381.057,356.842,377.014C362.175,373.16,367.124,368.784,372.207,364.592C373.93,363.164,374.054,363.104,375.563,364.609C381.561,370.586,387.565,376.573,393.554,382.568C395.474,384.493,395.488,384.795,393.683,386.786C390.519,390.274,387.858,394.114,385.584,398.235C383.065,402.784,380.846,407.463,379.77,412.607C378.966,416.435,377.744,420.242,377.442,424.117C376.838,431.895,377.427,439.594,379.705,447.2C381.383,452.82,383.559,458.123,386.511,463.133C390.913,470.606,396.697,476.881,403.56,482.112C407.562,485.167,411.873,487.776,416.57,489.727C419.402,490.898,422.161,492.213,425.202,492.839C428.369,493.487,431.476,494.676,434.664,494.943C439.347,495.333,444.092,495.341,448.791,495.086C452.174,494.897,455.593,494.251,458.873,493.37C463.475,492.137,467.917,490.418,472.19,488.223C479.986,484.225,486.666,478.872,492.397,472.289C496.349,467.749,499.543,462.713,502.163,457.324C503.314,454.948,504.374,452.504,505.162,449.994C505.975,447.404,506.294,444.677,507.035,442.065C508.781,435.919,508.315,429.645,508.043,423.415C507.9,420.125,507.164,416.81,506.267,413.613C505.33,410.271,503.909,407.051,502.645,403.808C500.684,398.745,497.879,394.16,494.528,389.944C489.875,384.078,484.48,378.969,478.149,374.905C472.508,371.294,466.598,368.293,459.994,366.836C457.421,366.272,454.836,365.733,452.266,365.14C446.415,363.79,440.521,364.025,434.655,364.783C431.548,365.181,428.477,366.006,425.467,366.892C422.13,367.874,418.754,368.867,415.615,370.326C409.873,373.014,404.55,376.428,399.791,380.669C397.855,382.39,397.277,382.404,395.496,380.641C389.41,374.626,383.35,368.577,377.296,362.532C376.892,362.123,376.604,361.595,376.192,361.027C376.703,360.351,377.096,359.686,377.62,359.154C384.488,352.054,390.195,344.082,395.266,335.626C398.379,330.452,401.019,325.031,403.266,319.428C404.401,316.591,405.43,313.716,406.418,310.824C407.236,308.414,408.112,305.988,408.618,303.495C409.09,301.182,409.176,298.791,410.123,296.555C410.4,295.895,410.263,295.065,410.34,294.313C410.431,293.463,410.508,292.614,410.661,291.785C411.296,288.432,412.196,285.122,412.54,281.743C412.861,278.534,412.605,275.269,412.605,272.009C413.338,271.794,413.819,271.515,414.289,271.528C417.453,271.595,420.611,271.743,423.774,271.82C425.397,271.865,427.018,271.854,428.635,271.8C429.827,271.763,431.022,271.5,432.203,271.539C435.361,271.624,438.514,271.888,441.666,271.956C443.698,272.004,444.113,272.21,444.193,274.211C444.275,276.344,444.154,278.485,444.275,280.607C444.349,281.775,444.671,282.948,445.008,284.068C445.695,286.361,446.831,288.578,447.126,290.9C447.578,294.407,448.984,297.482,450.679,300.406C452.901,304.228,455.316,307.97,457.968,311.512C462.47,317.535,468.177,322.315,474.632,326.159C477.478,327.858,480.425,329.449,483.471,330.729C486.997,332.203,490.617,333.565,494.322,334.466C497.947,335.345,501.718,335.858,505.444,336.031C509.534,336.21,513.673,336.051,517.738,335.581C520.839,335.213,523.829,333.974,526.914,333.4C530.333,332.765,533.431,331.307,536.486,329.854C544.843,325.882,552.122,320.42,558.197,313.382C562.987,307.85,566.789,301.728,569.512,294.926C570.715,291.917,571.575,288.825,572.459,285.72C573.714,281.301,574.21,276.792,574.339,272.316C574.546,264.868,573.424,257.573,571.025,250.419M380.521,110.055C381.05,77.48,407.939,47.575,445.953,49.238C477.839,50.625,504.945,76.874,504.951,111.291C505.074,146.668,476.257,174.032,442.054,173.607C407.642,173.178,379.947,145.388,380.521,110.055M124.062,173.582C89.85,173.518,61.92,145.767,62.094,111.007C62.236,76.8,90.001,48.739,125.153,49.138C159.263,49.52,186.585,77.375,186.553,111.25C186.514,146.187,158.648,173.643,124.062,173.582M119.786,274.95C119.791,275.001,119.781,275.042,119.781,275.087C119.781,275.185,119.764,275.282,119.77,275.374L119.77,275.38C119.811,276.792,119.77,278.2,119.619,279.609C119.849,280.351,119.944,281.154,119.66,282.172C119.152,283.98,118.685,285.791,118.27,287.613C118.17,288.052,117.966,288.416,117.809,288.81C117.185,290.831,116.343,292.777,115.269,294.58C115.331,295.695,114.9,296.744,114.32,297.853C110.074,306.007,104.587,313.136,97.437,318.931C92.16,323.2,86.3,326.418,79.927,328.845C70.781,332.334,61.359,333.528,51.737,332.575C46.674,332.089,41.7,330.762,36.83,329.012C28.718,326.09,21.638,321.616,15.416,315.74C9.903,310.53,5.518,304.512,2.188,297.639C-0.067,292.995,-1.423,288.098,-2.854,283.2C-3.089,282.397,-3.033,281.501,-3.174,280.663C-4.394,273.317,-4.059,265.975,-2.974,258.67C-2.619,256.253,-1.794,253.884,-0.978,251.557C-0.018,248.837,0.947,246.074,2.293,243.537C4.243,239.852,6.249,236.141,8.739,232.82C14.034,225.749,20.662,220.068,28.447,215.881C32.329,213.79,36.439,212.17,40.72,210.896C48.806,208.491,56.997,207.751,65.316,208.675C68.77,209.051,72.145,210.121,75.552,210.902C79.393,211.783,82.931,213.435,86.458,215.163C93.974,218.838,100.3,223.994,105.661,230.326C109.937,235.363,113.318,240.957,115.869,247.103C117.558,251.159,118.437,255.399,119.649,259.561C119.963,260.636,120.004,261.648,119.879,262.622C120.851,266.615,120.745,270.891,119.786,274.95M186.553,430.409C186.338,464.153,158.417,493.363,121.585,491.949C89.114,490.706,61.983,463.615,62.1,429.847C62.12,394.716,90.666,366.616,126.127,367.604C159.692,368.536,186.777,395.794,186.553,430.409M407.441,378.64C411.129,376.202,415.047,374.012,419.096,372.252C422.737,370.675,426.549,369.365,430.571,368.849C434.64,368.332,438.649,367.532,442.8,367.471C447.754,367.391,452.615,368.121,457.284,369.305C474.311,373.598,487.532,383.245,496.56,398.466C499.544,403.503,501.73,408.877,503.183,414.477C505.18,422.168,505.65,430.066,504.56,437.928C502.662,451.598,496.933,463.566,487.321,473.494C481.999,478.991,475.693,483.219,468.703,486.484C463.299,489.002,457.611,490.424,451.844,491.546C448.936,492.114,445.87,491.889,442.877,492.018C442.871,491.988,442.871,491.955,442.871,491.925C442.184,491.925,441.5,491.91,440.814,491.93C435.454,492.089,430.331,490.922,425.187,489.505C419.346,487.887,414.018,485.301,408.942,482.098C401.439,477.355,395.394,471.14,390.522,463.755C387.543,459.234,385.178,454.388,383.577,449.254C380.894,440.677,379.688,431.878,380.806,422.907C381.228,419.544,382.245,416.257,382.993,412.926C384.124,407.889,386.238,403.258,388.796,398.815C393.486,390.677,399.627,383.828,407.441,378.64M221.301,46.948C220.371,11.806,248.725,-16.604,283.02,-16.883C317.117,-17.16,345.774,10.438,345.81,45.428C345.647,78.074,319.666,107.931,282.232,107.429C249.171,106.99,222.181,80.144,221.301,46.948M345.814,496.179C345.501,529.943,318.857,558.113,283.423,558.093C249.039,558.073,221.744,530.813,221.344,496.384C220.954,462.244,248.84,433.655,283.695,433.748C317.997,433.833,345.881,461.69,345.814,496.179M409.788,281.854C409.347,285.641,408.333,289.368,407.636,293.145C407.407,294.389,407.306,295.677,407.325,296.948C407.361,298.703,407.007,300.286,406.193,301.882C405.385,303.458,404.78,305.178,404.367,306.903C403.357,311.069,401.633,314.955,400.094,318.921C397.575,325.386,394.253,331.435,390.677,337.352C385.778,345.455,379.835,352.773,373.202,359.463C366.569,366.161,359.25,372.079,351.22,377.116C345.625,380.621,339.872,383.804,333.835,386.421C329.375,388.355,324.856,390.171,320.117,391.37C317.475,392.04,314.9,392.981,312.26,393.646C309.864,394.245,307.435,394.813,304.983,395.099C297.842,395.912,290.739,397.301,283.558,396.615C276.415,397.321,269.474,395.975,262.514,395.121C259.067,394.696,255.676,393.696,252.296,392.807C248.421,391.78,244.528,390.791,240.77,389.418C233.873,386.912,227.227,383.84,220.84,380.161C210.598,374.265,201.353,367.134,193.125,358.683C185.027,350.363,177.997,341.215,172.721,330.836C169.901,325.308,167.245,319.673,164.901,313.931C163.365,310.167,162.469,306.13,161.395,302.189C160.544,299.068,159.864,295.889,159.115,292.742C159.053,292.491,158.985,292.234,158.979,291.979C158.774,286.763,157.208,281.68,157.416,276.414C157.508,274.111,157.273,271.793,157.197,269.482C157.172,268.795,157.088,268.107,157.134,267.426C157.313,265.021,157.502,262.474,157.463,260.651C157.459,260.395,157.447,260.131,157.484,259.88C158.091,255.905,158.617,251.918,159.339,247.967C160.022,244.272,160.786,240.586,161.739,236.961C162.583,233.749,163.548,230.546,164.794,227.479C166.849,222.433,168.969,217.386,171.446,212.542C176.219,203.224,182.065,194.624,189.113,186.826C193.494,181.982,198.118,177.408,203.117,173.234C210.833,166.798,219.249,161.406,228.341,157.11C232.273,155.249,236.241,153.425,240.323,151.93C244.142,150.525,248.123,149.529,252.064,148.459C254.945,147.679,257.866,147.052,260.778,146.401C261.942,146.143,263.138,145.991,264.323,145.823C266.523,145.509,268.719,145.196,270.925,144.932C272.625,144.727,274.334,144.472,276.035,144.456C281.431,144.397,286.836,144.346,292.236,144.492C294.612,144.561,296.975,145.096,299.34,145.457C303.477,146.091,307.662,146.531,311.731,147.468C315.954,148.443,320.121,149.733,324.2,151.201C329.236,153.024,334.271,154.943,339.102,157.243C346.129,160.598,352.882,164.529,358.962,169.417C363.829,173.333,368.671,177.333,373.108,181.713C378.395,186.929,383.125,192.661,387.337,198.851C390.616,203.667,393.678,208.583,396.246,213.794C398.125,217.599,399.901,221.486,401.339,225.477C403.299,230.918,405.331,236.398,406.524,242.031C407.866,248.352,409.917,254.588,409.872,261.173C409.842,264.916,409.866,268.661,409.866,272.41C409.863,275.56,410.151,278.743,409.788,281.854M570.501,278.271C570.113,283.297,568.751,288.016,567.109,292.653C565.4,297.459,562.953,301.969,559.964,306.155C554.153,314.307,546.985,320.906,538.084,325.552C532.616,328.413,526.89,330.49,520.804,331.685C516.827,332.473,512.877,332.962,508.234,332.827C503.711,333.39,498.69,332.304,493.848,331.086C483.509,328.486,474.27,323.603,466.435,316.192C461.157,311.197,456.833,305.526,453.331,299.19C452.645,297.946,451.749,296.815,451.058,295.576C449.712,293.166,448.987,290.545,448.586,287.811C448.347,286.132,447.938,284.48,447.608,282.805C447.451,281.976,447.313,281.137,447.132,280.309C446.898,279.243,446.585,278.188,446.38,277.12C446.176,276.065,445.967,274.991,445.935,273.915C445.899,272.642,445.946,271.342,446.14,270.077C446.835,265.456,447.451,260.811,448.391,256.238C450.889,244.152,457.046,234.121,465.829,225.55C472.447,219.099,480.195,214.503,488.841,211.547C497.761,208.497,507.046,207.345,516.428,208.671C533.717,211.117,547.92,219.169,558.587,233.067C562.65,238.372,565.608,244.3,567.797,250.679C570.901,259.71,571.224,268.877,570.501,278.271" fill="rgb(19,133,112)" stroke="none" stroke-width="1"/><path id="e2VDepwZ1TX20" d="M266.929,315.839L266.929,299.907C266.929,299.732,266.975,299.548,266.929,299.388C265.823,295.739,266.568,292.125,266.964,288.461C267.159,286.721,266.684,284.914,266.509,283.134C266.436,282.371,266.137,281.551,266.324,280.861C267.394,276.966,267.122,273.096,266.388,269.197C266.204,268.201,266.173,267.122,266.347,266.126C267.234,260.838,266.617,255.529,266.687,250.232C266.797,241.752,266.719,233.271,266.719,224.784C266.719,221.702,266.734,218.621,266.708,215.536C266.687,212.756,266.908,212.485,269.778,212.465C273.204,212.437,276.639,212.46,280.066,212.46C285.47,212.46,290.87,212.455,296.269,212.46C296.951,212.46,297.647,212.427,298.322,212.522C299.991,212.757,300.4,213.156,300.411,214.838C300.446,220.494,300.446,226.154,300.405,231.81C300.394,233.556,300.067,233.836,298.235,233.901C296.351,233.964,294.463,233.917,292.575,233.927C291.888,233.932,291.198,233.896,290.522,233.98C289.084,234.162,288.107,235.106,288.112,236.207C288.121,237.298,289.094,238.227,290.557,238.417C291.315,238.518,292.092,238.478,292.866,238.481C294.754,238.492,296.637,238.492,298.527,238.507C299.77,238.517,300.431,239.111,300.421,240.398C300.405,242.372,300.421,244.343,300.405,246.317C300.4,247.574,299.735,248.199,298.48,248.208C296.516,248.219,294.544,248.224,292.57,248.234C291.97,248.239,291.362,248.203,290.773,248.297C289.621,248.492,288.643,249.56,288.684,250.562C288.741,251.904,289.724,252.26,290.808,252.313C292.431,252.4,294.064,252.379,295.69,252.395C296.72,252.405,297.75,252.416,298.777,252.405C299.903,252.395,300.661,252.919,300.667,254.034C300.683,256.51,300.636,258.989,300.467,261.457C300.39,262.542,299.367,262.656,298.487,262.672C296.603,262.715,294.72,262.715,292.831,262.726C292.145,262.731,291.461,262.679,290.774,262.726C289.346,262.815,288.306,263.669,288.22,264.765C288.148,265.777,288.967,266.646,290.461,266.782C292.33,266.951,294.213,266.928,296.091,266.94C296.685,266.94,297.279,266.801,297.872,266.708C300.656,266.273,301.214,266.807,300.878,269.677C300.661,271.463,300.411,273.242,300.145,275.023C299.884,276.752,298.972,277.428,297.115,277.269C295.662,277.14,294.224,276.88,292.769,276.828C291.674,276.783,290.456,276.717,289.499,277.132C288.797,277.44,288.162,278.451,287.989,279.261C287.783,280.198,288.638,280.817,289.575,280.912C291.004,281.052,292.446,281.117,293.884,281.123C294.468,281.129,295.047,280.832,295.641,280.771C298.512,280.447,300.499,280.888,300.082,284.481C299.94,285.745,300.194,287.049,300.175,288.33C300.135,291.131,298.319,292.374,295.554,291.678C294.161,291.324,292.713,290.996,291.295,291.012C290.472,291.016,289.514,291.569,288.868,292.153C287.636,293.296,287.876,294.553,289.509,295.055C290.769,295.434,292.181,295.44,293.521,295.405C294.531,295.372,295.518,294.902,296.537,294.809C298.748,294.63,299.946,295.655,300.141,297.82C300.283,299.448,300.401,301.069,300.478,302.686C300.58,304.995,300.349,305.245,298.091,305.281C296.121,305.322,294.146,305.286,292.175,305.292C291.664,305.298,291.142,305.265,290.635,305.348C289.488,305.517,288.265,306.753,288.23,307.687C288.188,308.748,289.217,309.618,290.774,309.673C292.488,309.744,294.203,309.7,295.919,309.705C300.479,309.705,300.514,309.739,300.626,314.218C300.651,315.251,300.689,316.282,300.692,317.299C300.713,319.464,299.946,320.196,297.74,320.1C295.774,320.022,293.809,319.87,291.844,319.859C291.107,319.854,290.217,319.983,289.674,320.401C289.172,320.791,288.774,321.686,288.834,322.309C288.875,322.771,289.689,323.402,290.247,323.52C291.327,323.738,292.462,323.652,293.578,323.677C295.289,323.709,297.003,323.682,298.718,323.742C299.772,323.78,300.544,324.261,300.596,325.431C300.812,330.402,301.005,335.367,298.063,339.799C295.974,342.955,293.528,345.571,289.638,346.432C287.898,346.816,286.214,347.64,284.468,347.778C277.881,348.275,270.916,343.771,268.228,337.69C267.328,335.647,266.634,333.406,266.699,331.001C266.818,325.95,266.73,320.892,266.73,315.841L266.929,315.841Z" fill="rgb(19,133,112)" stroke="none" stroke-width="1"/><path id="e2VDepwZ1TX21" d="M283.368,193.958C288.845,193.958,294.317,193.947,299.792,193.963C304.188,193.974,306.63,196.396,306.636,200.762C306.64,202.364,306.779,203.938,305.668,205.405C303.866,207.774,301.42,208.455,298.698,208.471C290.825,208.509,282.953,208.476,275.078,208.476C272.599,208.471,270.117,208.586,267.642,208.45C265.295,208.319,263.057,207.644,261.61,205.61C261.049,204.814,260.561,203.79,260.505,202.848C260.362,200.415,259.906,197.853,262.13,195.924C263.522,194.714,264.971,193.892,266.942,193.922C272.417,194.016,277.894,193.958,283.368,193.958Z" fill="rgb(19,133,112)" stroke="none" stroke-width="1"/><path id="e2VDepwZ1TX22" d="M122.067,460.97C119.385,459.394,119.466,456.865,119.461,454.363C119.44,443.144,119.42,431.92,119.405,420.69C119.405,418.955,119.711,418.613,121.495,418.526C122.946,418.463,124.407,418.463,125.867,418.54C127.512,418.634,127.816,418.886,127.847,420.572C127.92,424.845,127.888,429.13,127.902,433.409C127.936,440.694,127.947,447.975,128.007,455.259C128.03,457.306,127.255,459.032,125.971,460.697C127.155,461.34,127.768,460.793,128.227,460.05C129.187,458.517,129.837,456.939,129.816,455.014C129.727,446.79,129.781,438.565,129.777,430.336C129.777,426.138,129.743,421.94,129.781,417.744C129.807,414.919,130.095,414.668,132.883,414.622C133.994,414.607,135.128,414.729,136.223,414.57C137.71,414.364,138.906,414.995,140.085,415.681C141.505,416.516,141.971,417.804,141.568,419.416C141.269,420.63,139.943,421.792,138.654,421.961C138.229,422.012,137.799,421.99,137.37,421.995C136.284,422.012,135.849,422.61,135.875,423.644C135.893,424.156,135.888,424.666,135.888,425.185C135.893,435.297,135.913,445.401,135.903,455.519C135.893,460.234,133.864,463.872,129.944,466.498C123.156,471.038,114.745,466.65,112.501,460.718C111.689,458.57,111.397,456.455,111.401,454.22C111.428,444.275,111.433,434.341,111.433,424.397C111.433,422.242,111.354,422.168,109.41,421.981C107.108,421.76,105.849,420.707,105.683,418.888C105.494,416.862,106.779,415.01,109.033,414.742C111.313,414.477,113.655,414.58,115.955,414.739C116.497,414.774,117.192,415.593,117.417,416.197C117.706,416.964,117.627,417.881,117.627,418.729C117.611,430.552,117.586,442.38,117.561,454.204C117.555,456.19,117.572,458.15,118.892,459.831C119.791,460.986,120.017,461.118,122.067,460.97" fill="rgb(19,133,112)" stroke="none" stroke-width="1"/><path id="e2VDepwZ1TX23" d="M126.087,407.326C126.391,409.055,125.321,410.597,124.372,412.074C123.471,413.503,121.841,413.387,120.421,413.068C119.195,412.793,117.98,412.28,116.856,411.681C115.69,411.052,114.845,409.972,114.945,408.579C115.045,407.209,115.526,405.959,117.009,405.308C117.921,404.91,118.807,404.322,119.54,403.641C120.689,402.565,121.81,401.87,123.407,402.641C125.075,403.454,126.181,404.597,126.087,406.582C126.081,406.758,126.087,406.928,126.087,407.326" fill="rgb(19,133,112)" stroke="none" stroke-width="1"/><path id="e2VDepwZ1TX24" d="M130.094,404.543C129.654,404.275,128.759,403.964,128.155,403.344C126.384,401.553,126.379,398.205,128.025,396.655C129.079,395.663,130.355,395.495,131.494,396.292C132.605,397.061,133.69,397.879,134.742,398.725C136.236,399.912,136.301,401.242,134.906,402.592C133.71,403.749,132.255,404.373,130.094,404.543" fill="rgb(19,133,112)" stroke="none" stroke-width="1"/><path id="e2VDepwZ1TX25" d="M125.945,393.18C126.015,395.14,124.849,396.911,123.711,397.254C122.77,397.54,120.359,396.593,119.824,395.728C119.781,395.663,119.715,395.577,119.723,395.499C119.859,394.711,119.729,393.574,120.205,393.201C121.38,392.259,122.343,390.349,124.236,391.199C125.091,391.578,125.601,392.754,125.945,393.18" fill="rgb(19,133,112)" stroke="none" stroke-width="1"/><path id="e2VDepwZ1TX26" d="M284.709,65.632C284.709,70.253,284.714,74.882,284.705,79.505C284.705,80.275,284.734,81.061,284.596,81.81C284.228,83.906,283.278,84.835,281.153,84.876C276.706,84.965,272.257,84.996,267.812,84.901C265.067,84.844,264.141,83.828,264.137,81.06C264.107,71.128,264.037,61.191,264.174,51.259C264.242,46.328,265.672,41.647,268.177,37.391C269.911,34.446,270.587,31.313,270.972,27.948C271.638,22.063,271.893,16.182,271.994,10.27C272.042,7.89,273.678,6.726,275.447,7.749C275.972,8.046,276.307,8.725,276.662,9.269C276.783,9.451,276.723,9.766,276.737,10.024C277.129,16.332,277.613,22.642,277.874,28.963C277.994,31.799,278.974,34.263,280.19,36.725C281.325,39.015,282.636,41.269,283.378,43.691C284.12,46.112,284.504,48.707,284.601,51.248C284.785,56.034,284.657,60.835,284.657,65.631L284.709,65.631ZM268.137,68.288L268.126,68.288C268.126,71.705,268.09,75.123,268.143,78.539C268.167,80.338,268.462,80.615,270.264,80.651C272.911,80.699,275.563,80.679,278.21,80.646C280.276,80.626,280.528,80.38,280.548,78.23C280.584,74.904,280.553,71.564,280.559,68.237C280.564,65.501,280.548,62.765,280.589,60.034C280.61,58.635,280.191,57.89,278.619,57.659C276.098,57.299,273.633,56.548,271.123,56.08C268.75,55.645,268.173,56.149,268.143,58.545C268.104,61.796,268.137,65.038,268.137,68.288" fill="rgb(19,133,112)" stroke="none" stroke-width="1"/><path id="e2VDepwZ1TX27" d="M302.342,32.113C302.035,32.753,301.922,33.308,301.584,33.617C299.695,35.347,297.786,37.062,295.815,38.692C294.468,39.813,294.059,39.723,292.857,38.398C288.901,34.032,284.944,29.672,281.008,25.291C279.789,23.932,279.847,23.072,281.183,21.826C282.804,20.306,284.437,18.802,286.075,17.304C287.478,16.01,288.221,15.976,289.494,17.371C292.376,20.516,295.195,23.718,298.052,26.888C299.138,28.101,300.268,29.268,301.322,30.493C301.743,30.977,302.019,31.583,302.342,32.113" fill="rgb(19,133,112)" stroke="none" stroke-width="1"/><path id="e2VDepwZ1TX28" d="M62.158,285.14C66.434,282.567,68.324,276.787,67.194,270.515C66.522,266.815,62.681,262.358,59.212,261.601C59.212,262.648,59.212,263.63,59.212,264.604C59.202,265.979,59.158,267.346,59.196,268.718C59.217,269.694,59.091,270.525,58.342,271.29C57.921,271.721,57.744,272.47,57.646,273.101C57.322,275.103,57.062,275.38,55.051,275.497C54.71,275.524,54.364,275.518,54.017,275.514C51.077,275.472,50.961,275.365,50.69,272.392C50.669,272.156,50.48,271.941,50.295,271.56C49.835,271.743,49.305,271.816,48.981,272.111C47.865,273.116,46.529,273.246,45.439,272.501C44.249,271.689,42.729,270.921,42.974,268.935C43.133,267.67,43,266.366,43,265.083C43.008,257.963,43.008,250.853,43.008,243.741C43.008,243.138,42.979,242.535,43.032,241.939C43.163,240.213,43.463,239.983,45.179,239.7C45.872,239.585,46.774,239.39,47.129,238.905C47.779,238.024,46.942,237.363,46.317,236.759C46.077,236.524,45.887,236.225,45.713,235.933C44.733,234.308,45.536,232.546,47.438,232.424C49.66,232.283,51.894,232.404,54.12,232.338C56.306,232.269,57.099,234.669,56.07,236.225C55.975,236.369,55.86,236.494,55.765,236.634C54.298,238.799,54.483,239.27,56.96,239.731C58.665,240.051,59.151,240.529,59.185,242.301C59.236,245.042,59.164,247.782,59.169,250.528C59.174,252.802,59.288,252.808,61.336,253.668C67.14,256.094,71.158,260.279,73.687,266.037C75.378,269.9,75.473,273.923,74.958,277.895C74.357,282.58,72.338,286.859,68.622,289.851C65.691,292.216,64.08,294.765,64.785,298.547C64.854,298.869,64.816,299.238,64.751,299.569C64.456,300.973,64.911,301.755,66.362,302.241C68.061,302.809,69.311,303.94,69.235,306.009C69.161,307.816,67.987,309.288,66.195,309.607C65.525,309.72,64.826,309.73,64.14,309.734C57.285,309.75,50.426,309.72,43.571,309.783C41.856,309.803,40.609,309.193,39.639,307.822C38.639,306.424,38.644,305.17,39.755,303.859C40.801,302.631,42.07,301.91,43.77,301.941C47.107,301.997,50.457,301.992,53.794,301.972C54.696,301.966,55.963,302.263,56.21,301.085C56.462,299.876,56.367,298.53,56.088,297.319C56.013,296.969,54.769,296.663,54.082,296.71C52.144,296.822,50.802,295.957,49.753,294.458C49.561,294.186,49.262,293.873,49.267,293.576C49.308,291.132,47.956,290.639,45.797,290.747C44.01,290.843,43.541,290.229,43.411,288.474C43.37,287.87,43.401,287.267,43.406,286.674C43.411,283.494,44.046,282.86,47.332,282.88C49.978,282.9,52.626,282.972,55.278,283.013C55.702,283.019,56.132,283.013,56.556,282.958C58.787,282.651,60.858,282.78,62.158,285.14" fill="rgb(19,133,112)" stroke="none" stroke-width="1"/><path id="e2VDepwZ1TX29" d="M436.006,79.938C435.22,79.388,434.154,78.847,433.356,78.036C431.996,76.652,432.133,75.142,433.506,73.749C434.523,72.715,435.752,72.234,437.2,72.24C440.369,72.25,443.541,72.219,446.705,72.255C447.472,72.266,448.266,72.36,448.976,72.616C450.696,73.246,451.675,74.735,451.56,76.343C451.458,77.822,450.404,78.943,448.613,79.472C448.229,79.587,447.834,79.687,447.476,79.787C447.497,80.091,447.462,80.363,447.538,80.393C449.278,81.212,449.498,82.568,449.452,84.388C449.306,90.128,449.386,95.871,449.413,101.616C449.422,103.622,450.042,105.398,451.101,107.166C453.65,111.404,455.952,115.798,458.372,120.115C461.126,125.021,463.866,129.937,466.674,134.817C468.696,138.328,468.711,141.865,466.7,145.285C464.764,148.56,461.664,150.036,457.876,150.042C447.333,150.047,436.79,150.131,426.252,150.001C419.772,149.922,416.937,146.51,416.17,141.18C415.882,139.158,416.646,136.709,417.643,134.833C422.163,126.322,426.942,117.94,431.624,109.523C432.327,108.257,433.033,106.987,433.78,105.741C434.686,104.241,434.993,102.712,434.95,100.896C434.82,95.075,434.922,89.24,435.044,83.418C435.071,82.327,435.629,81.248,436.006,79.938" fill="rgb(19,133,112)" stroke="none" stroke-width="1"/><path id="e2VDepwZ1TX30" d="M444.529,420.593C445.579,421.497,446.771,422.027,446.944,422.788C447.262,424.155,446.961,425.66,446.92,427.107C445.149,427.948,444.171,429.42,443.594,431.232C443.52,431.449,443.014,431.589,442.693,431.638C442.191,431.729,441.669,431.724,441.156,431.74C437.435,431.828,437.435,431.828,436.135,428.392L432.107,428.392C431.944,428.827,431.765,429.21,431.653,429.599C431.14,431.438,430.884,431.677,429.319,431.699C427.655,431.714,427.341,431.417,426.704,429.615C426.523,429.115,426.136,428.425,425.71,428.316C423.92,427.86,423.821,426.549,423.868,425.111C423.894,424.426,423.826,423.705,424.032,423.075C424.226,422.491,424.652,421.669,425.111,421.565C426.745,421.186,426.718,420.106,426.713,418.832C426.678,412.747,426.693,406.661,426.699,400.58C426.704,397.422,426.719,397.428,429.814,397.064C430.055,397.033,430.28,396.875,430.486,396.788C430.947,395.906,430.398,395.473,429.794,395.104C428.926,394.582,428.256,393.942,428.536,392.835C428.852,391.597,429.836,391.039,430.997,390.912C432.017,390.789,433.06,390.86,434.079,390.86C435.88,390.854,437.687,390.767,439.477,390.906C440.251,390.968,441.131,391.346,441.713,391.864C442.748,392.779,442.615,393.644,441.561,394.705C441.145,395.119,440.707,395.507,440.348,395.969C440.235,396.106,440.383,396.446,440.424,396.823C440.82,396.911,441.207,397.059,441.612,397.1C444.284,397.371,444.407,397.504,444.424,400.247C444.424,400.994,444.424,401.73,444.424,402.443C455.995,404.705,463.605,411.051,466.937,422.214C468.939,436.268,463.432,446.273,450.334,452.169C450.417,452.348,450.502,452.523,450.585,452.698C451.175,452.789,451.763,452.968,452.347,452.968C455.863,452.968,459.372,452.907,462.885,452.907C466.313,452.907,469.21,454.121,471.478,456.756C474.093,459.796,474.363,463.383,473.923,467.136C473.811,468.087,473.135,468.395,472.28,468.406C470.997,468.43,469.71,468.442,468.426,468.442C450.174,468.442,431.922,468.436,413.667,468.43C413.153,468.43,412.639,468.447,412.126,468.425C411.047,468.38,410.324,467.867,410.201,466.752C409.706,462.305,410.279,458.173,414.07,455.185C415.99,453.669,418.216,452.867,420.709,452.888C424.307,452.911,427.91,452.911,431.51,452.888C433.704,452.867,433.836,452.688,433.792,450.552C433.762,449.2,433.786,447.841,433.786,446.207C432.921,446.094,432.031,445.91,431.136,445.885C429.077,445.824,427.02,445.91,424.968,445.82C423.116,445.748,422.746,445.347,422.65,443.485C422.587,442.2,422.593,440.91,422.65,439.627C422.738,437.672,423.136,437.231,425.141,437.18C428.141,437.104,431.14,437.145,434.135,437.139C437.656,437.139,441.161,437.118,444.677,437.145C447.231,437.169,447.698,437.672,447.637,440.153C447.625,440.752,447.637,441.347,447.651,441.935C447.651,442.011,447.739,442.078,447.98,442.417C448.45,442.335,449.145,442.379,449.679,442.109C455.749,439.037,459.199,431.723,457.864,425.274C456.68,419.592,453.517,415.08,447.601,413.149C446.736,412.863,445.896,412.49,445.05,412.161C444.277,413.837,444.129,416.795,444.529,420.593" fill="rgb(19,133,112)" stroke="none" stroke-width="1"/><path id="e2VDepwZ1TX31" d="M508.584,309.626C504.208,309.626,499.836,309.61,495.467,309.636C494.049,309.646,492.856,309.329,491.688,308.392C487.102,304.728,483.842,300.253,481.862,294.656C480.182,289.922,480.176,285.074,481.069,280.479C482.59,272.658,486.852,266.216,493.962,262.206C496.69,260.665,497.806,259.005,497.626,255.77C497.3,249.788,497.52,243.776,497.539,237.775C497.55,233.691,497.983,232.215,502.872,232.38C507.063,232.524,511.272,232.396,515.473,232.418C518.515,232.434,519.666,233.565,519.669,236.547C519.686,243.581,519.732,250.609,519.636,257.637C519.609,259.485,520.111,260.52,521.861,261.41C526.785,263.915,530.578,267.741,533.168,272.62C534.192,274.55,534.602,276.798,535.538,278.784C537.043,281.972,536.944,285.346,536.571,288.62C535.62,296.988,531.781,303.867,524.836,308.8C524.012,309.38,522.757,309.574,521.697,309.591C517.325,309.682,512.953,309.626,508.584,309.626M508.522,302.931L508.522,302.937C511.951,302.937,515.38,302.86,518.804,302.962C520.774,303.025,522.268,302.302,523.583,300.929C527.341,296.989,529.488,292.347,529.51,286.886C529.521,284.505,529.548,281.968,528.774,279.782C527.099,275.047,524.485,270.827,519.854,268.296C518.435,267.52,517.042,266.641,515.534,266.096C513.486,265.356,512.944,263.78,512.722,261.925C512.64,261.249,512.708,260.555,512.708,259.869C512.713,254.042,512.732,248.212,512.718,242.385C512.708,239.52,512.554,239.4,509.611,239.376C508.589,239.371,507.555,239.35,506.531,239.387C504.462,239.461,504.253,239.691,504.176,241.835C504.156,242.437,504.171,243.036,504.171,243.637C504.171,249.723,504.1,255.809,504.208,261.895C504.244,263.9,503.531,265.116,501.756,265.934C499.974,266.756,498.199,267.626,496.544,268.665C492.701,271.081,490.065,274.649,488.684,278.819C487.379,282.752,486.652,286.804,488.085,291.144C489.349,294.988,491.089,298.339,493.877,301.201C495.071,302.419,496.458,303.014,498.234,302.963C501.659,302.849,505.093,302.931,508.522,302.931" fill="rgb(19,133,112)" stroke="none" stroke-width="1"/><path id="e2VDepwZ1TX32" d="M128.776,101.994C130.736,101.784,132.226,101.564,133.72,101.484C135.426,101.389,137.146,101.42,138.86,101.405C141.68,101.369,141.968,101.669,141.973,104.415C141.988,111.956,142.036,119.498,142.036,127.04C142.031,129.74,143.001,131.826,145.406,133.23C148.482,135.026,152.899,133.507,154.012,130.105C154.399,128.905,154.568,127.589,154.578,126.32C154.634,119.121,154.614,111.92,154.617,104.718C154.623,101.819,154.964,101.452,157.804,101.388C158.32,101.373,158.833,101.378,159.345,101.393C162.13,101.488,162.564,101.943,162.564,104.763C162.564,114.62,162.605,124.476,162.544,134.334C162.516,138.124,161.019,141.21,157.303,142.667C155.992,143.176,154.457,143.271,153.022,143.291C146.936,143.365,140.846,143.342,134.761,143.342C121.133,143.342,107.503,143.202,93.876,143.396C88.845,143.462,84.704,139.55,84.734,134.171C84.797,124.313,84.75,114.456,84.76,104.598C84.76,101.904,85.248,101.419,87.854,101.379C92.707,101.299,92.71,101.299,92.71,106.133C92.71,112.992,92.695,119.852,92.72,126.708C92.731,129.508,93.496,131.914,96.265,133.3C98.976,134.67,102.223,133.936,103.932,131.378C104.909,129.927,105.383,128.343,105.368,126.541C105.295,119.427,105.312,112.316,105.295,105.204C105.289,104.603,105.259,103.999,105.322,103.402C105.468,101.928,105.954,101.437,107.459,101.442C110.029,101.446,112.596,101.488,115.164,101.593C117.291,101.683,117.406,101.839,117.417,104.072C117.456,111.785,117.627,119.501,117.425,127.212C117.33,130.692,119.745,133.044,122.357,133.888C123.183,134.159,124.248,134.114,125.091,133.84C128.214,132.855,129.872,130.403,129.86,127.073C129.839,119.795,129.835,112.509,129.788,105.224C129.784,104.443,129.563,103.657,129.438,102.877C129.204,102.877,128.979,102.882,128.75,102.882C128.64,103.584,128.435,104.287,128.429,104.993C128.39,111.76,128.394,118.52,128.34,125.287C128.33,126.476,128.258,127.708,127.933,128.836C127.23,131.273,125.539,132.337,123.107,132.094C121.047,131.885,119.402,130.249,119.123,128.023C119.007,127.091,119.071,126.137,119.066,125.198C119.003,112.169,118.877,99.141,118.928,86.115C118.938,84.219,117.792,82.96,117.313,81.42C118.091,79.378,119.563,78.669,121.587,78.774C122.868,78.838,124.153,78.739,125.442,78.795C126.288,78.829,127.177,78.864,127.963,79.136C129.577,79.691,129.992,81.006,129.424,82.595C129.007,83.77,128.644,85.036,128.613,86.27C128.518,90.723,128.572,95.184,128.587,99.639C128.595,100.463,128.72,101.285,128.776,101.994M121.514,81.652C121.638,83.006,121.797,83.932,121.79,84.856C121.774,90.069,121.713,95.29,121.674,100.505C121.664,102.13,121.654,103.755,121.708,105.38C121.743,106.558,122.483,106.966,123.594,106.966C124.654,106.966,125.48,106.726,125.596,105.506C125.659,104.825,125.665,104.142,125.665,103.456C125.659,97.465,125.644,91.479,125.638,85.484C125.633,84.237,125.638,82.986,125.638,81.653L121.514,81.653Z" fill="rgb(19,133,112)" stroke="none" stroke-width="1"/><path id="e2VDepwZ1TX33" d="M143.867,106.564C143.867,99.877,143.861,93.19,143.872,86.504C143.878,85.294,143.729,84.228,143.002,83.128C141.592,81.004,142.498,79.174,145.004,78.955C147.048,78.773,149.118,78.704,151.168,78.804C154.225,78.944,155.02,80.643,153.661,83.464C153.243,84.339,153.148,85.435,153.142,86.43C153.074,99.799,153.053,113.17,153.023,126.543C153.015,127.839,152.98,129.078,152.104,130.188C150.769,131.89,148.939,132.565,146.889,131.964C145.198,131.47,143.902,129.694,143.892,127.65C143.867,120.623,143.881,113.595,143.881,106.565L143.867,106.565ZM146.298,81.455C146.178,81.959,146.063,82.205,146.063,82.445C146.073,92.876,146.084,103.299,146.1,113.73C146.105,114.154,146.048,114.611,146.178,114.999C146.303,115.36,146.574,115.785,146.901,115.946C148.975,116.995,150.848,115.831,150.848,113.505C150.854,104.019,150.859,94.532,150.826,85.046C150.82,83.889,150.596,82.73,150.46,81.456L146.298,81.456Z" fill="rgb(19,133,112)" stroke="none" stroke-width="1"/><path id="e2VDepwZ1TX34" d="M94.233,106.359C94.233,99.499,94.258,92.643,94.197,85.787C94.185,84.822,93.818,83.806,93.388,82.921C92.461,80.975,92.952,79.366,95.109,79.079C97.624,78.744,100.234,78.734,102.764,78.99C104.751,79.19,105.679,81.281,104.49,82.863C103.43,84.272,103.474,85.698,103.474,87.218C103.46,100.421,103.474,113.623,103.425,126.825C103.42,127.974,103.269,129.274,102.708,130.231C101.7,131.966,99.559,132.521,97.498,131.971C95.929,131.552,94.398,129.61,94.362,127.7C94.262,122.983,94.254,118.272,94.221,113.556C94.201,111.155,94.215,108.755,94.215,106.359L94.233,106.359ZM96.329,81.747C96.329,82.192,96.329,82.701,96.329,83.201C96.371,91.149,96.419,99.1,96.46,107.052C96.481,110.988,96.455,114.919,96.555,118.849C96.57,119.619,96.818,120.724,97.345,121.065C99.239,122.304,101.236,121.084,101.241,118.808C101.246,106.423,101.241,94.044,101.241,81.648C99.134,80.871,98.464,80.876,96.329,81.747" fill="rgb(19,133,112)" stroke="none" stroke-width="1"/><path id="e2VDepwZ1TX35" d="M289.586,482.466C291.977,482.466,293.939,482.466,295.898,482.472C297.044,482.472,297.644,481.95,297.644,480.769C297.627,477.421,297.612,474.082,297.649,470.74C297.659,469.754,297.198,469.194,296.45,468.642C295.541,467.977,294.721,467.144,295.346,465.829C295.888,464.697,296.595,463.877,298.069,463.909C301.668,463.98,305.266,463.97,308.864,463.893C310.199,463.866,310.93,464.569,311.499,465.577C312.14,466.714,312.047,467.696,310.808,468.444C309.479,469.262,309.252,470.297,309.284,471.668C309.341,474.576,309.269,477.496,309.3,480.41C309.314,482.057,309.684,482.473,310.892,482.436C312.104,482.406,312.52,481.95,312.577,480.41C312.617,479.381,312.514,478.352,312.571,477.328C312.678,475.392,313.348,474.769,315.289,474.749C316.748,474.738,318.207,474.738,319.66,474.774C321.809,474.826,322.128,475.133,322.162,477.37C322.209,479.943,322.194,482.514,322.194,485.087C322.188,498.201,322.167,511.315,322.183,524.426C322.188,529.345,321.634,528.408,318.037,528.423C317.095,528.428,316.153,528.449,315.21,528.428C312.944,528.372,312.631,528.034,312.576,525.649C312.565,525.143,312.6,524.627,312.555,524.11C312.411,522.625,312.079,522.267,310.401,522.221C307.837,522.144,305.268,522.201,302.703,522.201C289.161,522.201,275.615,522.21,262.078,522.201C260.282,522.201,258.472,522.077,256.685,522.18C254.705,522.297,254.385,522.738,254.331,524.755C254.32,525.102,254.357,525.44,254.342,525.788C254.274,527.941,253.895,528.361,251.8,528.433C250.26,528.48,248.714,528.48,247.173,528.444C245.354,528.403,244.954,528,244.798,526.162C244.747,525.569,244.777,524.965,244.777,524.36C244.772,508.939,244.772,493.513,244.777,478.076C244.777,477.569,244.747,477.055,244.793,476.536C244.903,475.451,245.5,474.797,246.622,474.781C248.594,474.756,250.568,474.709,252.534,474.792C253.829,474.857,254.555,475.835,254.525,477.305C254.509,478.414,254.303,479.527,254.341,480.631C254.399,482.188,255.065,482.603,257.015,482.468C258.58,482.361,258.77,482.075,258.734,480.349C258.671,477.432,258.655,474.526,258.639,471.613C258.635,470.365,258.519,469.316,257.119,468.676C255.933,468.138,255.964,466.894,256.269,465.742C256.575,464.605,257.318,463.981,258.485,463.971C262.344,463.951,266.201,463.941,270.058,463.971C271.175,463.977,272.086,464.457,272.296,465.68C272.49,466.864,272.762,468.195,271.296,468.772C270.11,469.239,269.811,470.083,269.806,471.183C269.781,474.35,269.761,477.525,269.727,480.688C269.716,481.854,270.305,482.433,271.451,482.444C273.167,482.458,274.881,482.479,276.595,482.444C277.644,482.423,278.109,481.814,278.098,480.78C278.069,477.437,278.087,474.09,277.967,470.759C277.943,470.11,277.508,469.254,276.988,468.886C275.762,468.015,275.808,466.914,275.987,465.698C276.139,464.607,276.729,463.983,277.853,463.978C281.799,463.957,285.741,463.896,289.676,463.967C290.966,463.988,292.061,465.046,292.225,466.137C292.414,467.392,291.902,468.236,290.721,468.804C290.254,469.024,289.646,469.608,289.635,470.033C289.545,474.037,289.586,478.039,289.586,482.466M289.556,489.483L289.556,492.712C289.556,498.029,289.592,503.343,289.536,508.651C289.51,511.474,288.071,512.873,285.252,512.974C284.398,513.009,283.538,512.994,282.682,512.954C279.591,512.778,278.197,511.413,278.071,508.291C277.982,506.063,278.033,503.828,278.033,501.601C278.033,498.52,278.047,495.441,278.061,492.354C278.077,489.816,277.771,489.482,275.346,489.437C274.402,489.416,273.459,489.426,272.52,489.452C270.046,489.513,269.795,489.778,269.795,492.344C269.783,497.656,269.816,502.964,269.779,508.282C269.759,511.751,268.404,513,264.883,512.97C264.449,512.97,264.024,512.956,263.594,512.956C260.027,512.893,258.888,511.805,258.657,508.201C258.633,507.776,258.646,507.347,258.646,506.916C258.646,502.718,258.646,498.527,258.641,494.325C258.641,493.301,258.632,492.267,258.636,491.245C258.646,490.087,258.112,489.529,256.942,489.464C255.082,489.351,254.36,489.985,254.354,492.027C254.322,498.288,254.328,504.542,254.338,510.791C254.342,515.153,254.354,515.182,258.83,515.187C274.768,515.203,290.702,515.203,306.635,515.198C308.005,515.198,309.383,515.228,310.743,515.121C312.361,514.987,312.612,514.641,312.607,513.017C312.591,506.343,312.583,499.659,312.561,492.985C312.561,492.298,312.582,491.603,312.484,490.927C312.345,489.919,311.64,489.484,310.668,489.505C309.685,489.519,309.367,490.194,309.326,491.051C309.29,491.905,309.286,492.765,309.286,493.619C309.286,498.584,309.326,503.558,309.286,508.528C309.26,511.129,307.785,512.678,305.236,512.934C304.475,513.005,303.685,512.884,302.928,512.969C299.591,513.384,297.431,510.662,297.565,507.661C297.785,502.615,297.642,497.554,297.642,492.497C297.642,491.986,297.662,491.474,297.631,490.957C297.569,490.056,297.078,489.509,296.172,489.493C294.137,489.464,292.104,489.483,289.556,489.483" fill="rgb(19,133,112)" stroke="none" stroke-width="1"/><path id="e2VDepwZ1TX36" d="M508.594,300.638C505.338,300.638,502.083,300.587,498.828,300.659C497.246,300.688,495.967,300.141,494.97,298.995C490.701,294.099,488.505,288.595,490.318,282.032C490.798,280.329,491.458,278.667,492.125,277.016C492.656,275.711,493.705,275.073,495.139,275.01C497.105,274.934,499.071,274.667,501.03,274.698C506.931,274.795,512.843,274.765,518.673,275.977C520.004,276.253,521.401,276.222,522.768,276.268C524.083,276.304,524.913,276.746,525.553,278.044C527.036,281.075,527.344,284.192,527.164,287.486C526.934,291.669,525.445,295.241,522.716,298.383C521.39,299.919,519.939,300.742,517.844,300.662C514.768,300.533,511.681,300.629,508.596,300.629L508.596,300.638Z" fill="rgb(19,133,112)" stroke="none" stroke-width="1"/><path id="e2VDepwZ1TX37" d="M123.238,276.077C123.238,276.077,124.433,273.284,120.392,286.84C116.356,300.398,117.546,297.624,117.546,297.624" fill="rgb(19,133,112)" stroke="none" stroke-width="1"/></g></g></svg>