<svg id="eUzAlSyPKCR1" xmlns="http://www.w3.org/2000/svg" xmlns:xlink="http://www.w3.org/1999/xlink" viewBox="20 -65 1160 710" shape-rendering="geometricPrecision" text-rendering="geometricPrecision"><defs><rect id="eUzAlSyPKCR2" width="50.212" height="50.212" rx="0" ry="0"/><rect id="eUzAlSyPKCR3" width="50.212" height="50.211" rx="0" ry="0"/><rect id="eUzAlSyPKCR4" width="62.793" height="62.793" rx="0" ry="0"/><rect id="eUzAlSyPKCR5" width="58.351" height="58.35" rx="0" ry="0"/><rect id="eUzAlSyPKCR6" width="54.526" height="54.529" rx="0" ry="0"/><rect id="eUzAlSyPKCR7" width="61.734" height="61.734" rx="0" ry="0"/><rect id="eUzAlSyPKCR8" width="63.248" height="63.249" rx="0" ry="0"/><rect id="eUzAlSyPKCR9" width="63.527" height="63.061" rx="0" ry="0"/><rect id="eUzAlSyPKCR10" width="63.542" height="63.543" rx="0" ry="0"/><rect id="eUzAlSyPKCR11" width="62.916" height="62.914" rx="0" ry="0"/><rect id="eUzAlSyPKCR12" width="50.873" height="50.872" rx="0" ry="0"/><rect id="eUzAlSyPKCR13" width="62.716" height="62.716" rx="0" ry="0"/><rect id="eUzAlSyPKCR14" width="62.523" height="62.523" rx="0" ry="0"/><rect id="eUzAlSyPKCR15" width="63.049" height="63.049" rx="0" ry="0"/></defs><g id="eUzAlSyPKCR16"><rect id="eUzAlSyPKCR17" width="1200" height="720" rx="0" ry="0" transform="matrix(1 0 0 1 0 -70)" fill="rgb(131,70,152)" stroke="none" stroke-width="1"/><g id="eUzAlSyPKCR18"><path id="eUzAlSyPKCR19" d="M1058.924,-13.795C1058.981,-12.332,1058.985,-10.859,1059.115,-9.402C1059.22,-8.174,1058.836,-7.678,1057.535,-7.705C1054.153,-7.772,1050.766,-7.747,1047.381,-7.724C1034.469,-7.626,1021.556,-7.508,1008.642,-7.401C1006.014,-7.38,1005.987,-7.357,1006.004,-4.749C1006.18,20.575,1006.353,45.894,1006.541,71.215C1006.629,82.833,1006.742,94.451,1006.842,106.062C1006.864,108.631,1006.851,108.679,1009.406,108.994C1010.49,109.127,1010.455,109.793,1010.459,110.551C1010.473,113.369,1010.542,116.191,1010.49,119.008C1010.459,120.459,1010.979,121.044,1012.456,121.013C1016.173,120.932,1019.9,120.923,1023.622,120.941C1024.915,120.945,1025.447,120.428,1025.418,119.121C1025.355,116.413,1025.47,113.698,1025.33,111.001C1025.247,109.338,1025.687,108.622,1027.471,108.756C1029.204,108.891,1030.97,108.679,1032.709,108.768C1034.338,108.853,1034.884,108.225,1034.856,106.613C1034.717,97.815,1034.656,89.015,1034.574,80.221C1034.446,66.742,1034.324,53.266,1034.201,39.787C1034.185,37.395,1034.197,37.404,1036.649,37.384C1058.525,37.238,1080.406,37.076,1102.288,36.956C1103.699,36.947,1104.696,36.508,1105.665,35.461C1107.352,33.635,1110.764,33.277,1113.049,34.481C1115.477,35.757,1116.574,38.502,1115.961,41.783C1115.522,44.135,1113.533,46.044,1111.152,46.407C1108.163,46.859,1105.634,45.651,1104.494,42.991C1103.899,41.622,1103.092,41.246,1101.66,41.263C1081.018,41.46,1060.378,41.599,1039.737,41.755C1037.325,41.774,1037.246,41.844,1037.264,44.22C1037.399,62.435,1037.539,80.651,1037.683,98.865C1037.705,101.344,1037.775,103.825,1037.828,106.304C1037.846,107.294,1037.623,108.331,1038.828,108.939C1039.099,109.084,1039.12,109.861,1039.129,110.343C1039.174,113.167,1039.248,115.989,1039.174,118.807C1039.129,120.387,1039.772,120.865,1041.275,120.842C1050.518,120.717,1059.766,120.646,1069.014,120.565C1072.526,120.534,1072.041,120.382,1072.073,123.5C1072.187,134.607,1072.279,145.718,1072.378,156.825C1072.4,159.009,1072.511,159.12,1074.686,159.116C1077.337,159.107,1079.989,159.116,1082.641,159.061C1083.711,159.04,1084.357,159.28,1084.319,160.542C1084.27,161.973,1085.377,161.898,1086.35,161.894C1094.357,161.852,1102.364,161.818,1110.371,161.754C1120.638,161.678,1130.899,161.553,1141.164,161.499C1142.764,161.49,1144.01,161.254,1145.096,159.817C1146.723,157.674,1149.903,157.268,1152.528,158.506C1154.694,159.53,1156.211,162.531,1155.826,165.041C1155.349,168.123,1153.608,169.997,1150.821,170.428C1147.508,170.939,1145.505,169.851,1143.878,166.907C1143.582,166.367,1142.682,165.847,1142.063,165.847C1132.023,165.847,1121.985,165.928,1111.951,166.005C1103.598,166.066,1095.255,166.156,1086.907,166.228C1084.324,166.25,1084.321,166.246,1084.333,168.733C1084.352,172.844,1084.352,172.839,1080.267,172.87C1078.232,172.879,1076.205,172.925,1074.172,172.898C1073.059,172.883,1072.469,173.292,1072.491,174.462C1072.56,178.461,1072.626,182.47,1072.675,186.471C1072.693,187.803,1073.617,187.816,1074.563,187.803C1077.323,187.763,1080.088,187.763,1082.85,187.641C1084.207,187.58,1084.596,188.095,1084.582,189.397C1084.553,192.971,1084.181,192.735,1087.986,192.709C1103.21,192.582,1118.438,192.456,1133.662,192.333C1136.117,192.315,1136.108,192.324,1136.126,194.849C1136.249,210.977,1136.37,227.106,1136.501,243.23C1136.523,246.047,1136.65,248.869,1136.638,251.691C1136.629,252.927,1137.043,253.6,1138.244,254.089C1140.769,255.137,1142.158,258.047,1141.743,260.961C1141.377,263.538,1139.537,265.601,1137.205,266.055C1134.055,266.658,1131.504,265.631,1130.211,263.246C1128.529,260.127,1129.464,256.143,1132.457,254.344C1133.54,253.684,1133.676,252.875,1133.666,251.806C1133.5,236.079,1133.343,220.34,1133.19,204.614C1133.168,202.635,1133.076,200.66,1133.172,198.691C1133.246,197.122,1132.644,196.62,1131.109,196.638C1124.456,196.733,1117.799,196.721,1111.146,196.777C1103.195,196.839,1095.245,196.943,1087.29,197.017C1084.655,197.043,1084.581,197.039,1084.651,199.625C1084.691,201.04,1084.206,201.499,1082.817,201.464C1080.165,201.394,1077.514,201.525,1074.866,201.468C1073.255,201.433,1072.703,202.04,1072.725,203.661C1072.877,213.979,1072.956,224.302,1073.036,234.62C1073.057,237.595,1073.515,237.49,1070.096,237.508C1062.316,237.56,1054.532,237.604,1046.746,237.652C1044.462,237.665,1044.322,237.818,1044.327,240.042C1044.336,242.689,1044.318,245.34,1044.384,247.993C1044.414,249.212,1043.982,249.719,1042.719,249.705C1039.281,249.67,1035.838,249.675,1032.401,249.758C1031.074,249.793,1030.771,249.203,1030.79,248.037C1030.825,245.324,1030.738,242.62,1030.781,239.912C1030.807,238.391,1030.191,237.802,1028.658,237.832C1024.941,237.924,1021.215,237.932,1017.492,237.911C1016.12,237.907,1015.57,238.461,1015.604,239.838C1015.675,242.542,1015.597,245.255,1015.679,247.955C1015.718,249.309,1015.308,249.89,1013.87,249.881C1010.716,249.85,1007.557,249.972,1004.398,250.007C1002.119,250.038,1002.11,250.021,1002.091,247.806C1002.07,245.211,1002.022,242.616,1002.057,240.021C1002.076,238.575,1001.472,237.981,1000.031,238.016C996.257,238.113,992.482,238.169,988.699,238.182C987.397,238.186,986.864,238.737,986.899,240.021C986.977,242.839,986.968,245.657,987.079,248.474C987.122,249.741,986.628,250.147,985.4,250.134C981.954,250.099,978.511,250.117,975.073,250.2C973.733,250.23,973.301,249.72,973.331,248.409C973.388,245.648,973.296,242.879,973.318,240.117C973.327,238.85,972.833,238.26,971.513,238.287C967.678,238.348,963.841,238.366,960.006,238.366C958.774,238.366,958.307,238.916,958.329,240.122C958.39,243.001,958.354,245.875,958.412,248.754C958.433,249.829,958.215,250.545,956.944,250.388C955.284,250.178,954.983,251.07,954.995,252.515C955.279,285.335,955.533,318.16,955.796,350.975C955.895,363.386,956,375.788,956.114,388.199C956.139,391.131,956.276,394.061,956.211,396.992C956.197,397.726,955.738,398.552,955.248,399.146C953.244,401.566,950.68,402.226,947.5,402.217C933.739,402.147,919.974,402.387,906.223,402.444C904.616,402.453,903.828,402.882,903.418,404.554C902.724,407.398,900.177,409.127,897.407,409.019C894.344,408.892,892.156,406.974,891.544,403.895C891.008,401.204,892.033,398.46,894.053,397.171C896.131,395.843,899.425,396.04,901.557,397.508C902.163,397.927,902.973,398.294,903.68,398.289C918.682,398.216,933.683,398.093,948.684,397.948C951.086,397.927,951.797,397.14,951.782,394.773C951.607,369.624,951.436,344.47,951.248,319.316C951.156,307.141,951.044,294.962,950.934,282.774C950.847,272.801,950.755,262.816,950.659,252.837C950.638,250.535,950.533,250.443,948.27,250.443C944.64,250.439,944.64,250.439,944.618,246.752C944.604,244.664,944.549,242.58,944.592,240.488C944.618,239.155,944.16,238.522,942.736,238.548C939.014,238.618,935.293,238.635,931.57,238.614C930.189,238.605,929.648,239.164,929.691,240.545C929.788,243.306,929.758,246.067,929.857,248.827C929.916,250.072,929.675,250.622,928.219,250.605C923.114,250.531,923.978,250.605,923.995,254.912C924.064,267.484,924.196,280.061,924.309,292.634C924.515,315.817,924.715,338.991,924.964,362.166C924.973,363.062,925.269,364.084,925.777,364.8C927.171,366.788,927.271,368.954,926.764,371.116C926.099,373.973,923.405,375.572,920.238,375.28C917.259,375,915.118,372.85,914.882,369.907C914.586,366.206,915.861,364.057,919.274,362.895C920.645,362.436,920.659,361.519,920.65,360.396C920.51,344.263,920.37,328.14,920.253,312.007C920.096,292.436,919.959,272.865,919.811,253.299C919.793,250.901,919.793,250.857,917.449,250.739C916.396,250.686,916.111,250.232,916.116,249.266C916.134,246.44,916.054,243.622,916.082,240.805C916.098,239.315,915.53,238.66,913.976,238.708C910.263,238.822,906.541,238.865,902.82,238.887C901.595,238.896,901.099,239.394,901.124,240.621C901.186,243.495,901.143,246.374,901.221,249.244C901.247,250.414,900.851,250.887,899.666,250.834C898.373,250.773,897.071,250.834,895.77,250.848C893.237,250.869,893.14,250.957,893.166,253.565C893.197,256.155,893.289,258.746,893.307,261.341C893.498,286.779,893.673,312.211,893.866,337.648C893.968,351.007,894.085,364.379,894.198,377.742C894.223,379.83,894.407,381.919,894.277,383.994C894.223,384.81,893.691,385.755,893.088,386.344C890.904,388.498,888.283,389.209,885.13,389.175C874.139,389.062,863.139,389.249,852.139,389.284C850.575,389.288,849.452,389.454,848.75,391.246C847.758,393.779,844.834,395.007,842.144,394.491C839.436,393.967,837.663,392.001,837.279,389.122C836.859,385.929,838.396,383.15,841.132,382.159C844.102,381.08,847.133,382.194,848.776,385.09C849.301,386.004,849.896,386.358,850.922,386.349C862.651,386.253,874.381,386.204,886.115,386.118C888.487,386.1,889.872,384.654,889.858,382.317C889.683,357.897,889.508,333.482,889.32,309.063C889.229,296.202,889.111,283.345,888.992,270.489C888.94,264.626,888.888,258.76,888.762,252.902C888.748,252.22,888.19,251.573,887.927,250.888C887.718,250.342,887.438,249.779,887.426,249.215C887.359,246.515,887.303,243.798,887.386,241.098C887.438,239.447,886.782,238.931,885.189,238.975C881.695,239.079,878.195,239.036,874.701,239.062C872.587,239.079,872.464,239.202,872.464,241.25C872.473,244.011,872.455,246.776,872.522,249.542C872.547,250.721,872.089,251.215,870.936,251.088C870.822,251.079,870.708,251.088,870.594,251.092C866.012,251.166,866.008,251.166,866.039,255.692C866.174,273.113,866.304,290.544,866.445,307.963C866.469,310.877,863.543,313.809,860.59,313.83C846.376,313.953,832.17,314.062,817.955,314.184C817.339,314.189,816.715,314.237,816.093,314.203C814.029,314.081,812.626,314.516,811.818,316.876C810.879,319.638,807.454,320.755,804.544,319.799C801.645,318.843,799.817,315.862,800.298,312.932C800.727,310.258,801.986,308.267,804.741,307.564C807.685,306.816,809.895,307.755,811.848,310.237C812.293,310.797,813.211,311.285,813.91,311.281C828.798,311.203,843.686,311.058,858.573,310.879C861.038,310.85,862.108,309.656,862.09,307.162C861.963,289.173,861.815,271.183,861.697,253.194C861.688,251.949,861.439,251.053,859.945,251.153C858.966,251.219,858.695,250.699,858.695,249.795C858.717,247.204,858.67,244.614,858.652,242.019C858.634,239.268,858.634,239.259,855.957,239.276C850.203,239.307,844.454,239.289,838.696,239.411C837.055,239.442,836.578,238.913,836.591,237.293C836.653,231.828,836.573,226.354,836.527,220.881C836.505,218.718,836.351,218.583,834.215,218.588C831.564,218.601,828.912,218.57,826.264,218.653C824.929,218.701,824.404,218.212,824.518,216.888C824.587,216.106,824.518,215.307,824.518,214.52C824.496,211.567,824.496,211.558,821.464,211.593C815.824,211.659,810.19,211.747,804.544,211.786C793.038,211.869,781.531,211.913,770.034,211.996C764.11,212.039,758.186,212.153,752.272,212.184C750.809,212.193,750.358,212.346,750.533,214.163C750.935,218.252,750.804,222.384,750.844,226.499C750.962,239.696,751.045,252.898,751.211,266.091C751.223,267.086,751.669,268.135,752.132,269.048C753.443,271.639,753.469,274.168,751.896,276.597C750.416,278.882,748.087,279.214,745.611,278.917C742.972,278.589,741.01,276.283,740.678,273.237C740.372,270.385,742.089,267.418,744.895,266.672C746.636,266.204,746.913,265.318,746.89,263.784C746.699,247.154,746.533,230.523,746.401,213.884C746.396,212.927,746.664,211.896,747.07,211.017C747.712,209.62,748.9,209.165,750.504,209.161C767.484,209.091,784.46,208.938,801.435,208.794C808.425,208.737,815.415,208.606,822.408,208.584C823.925,208.58,824.663,208.112,824.462,206.54C824.296,205.251,824.921,204.884,826.131,204.911C828.835,204.963,831.548,204.845,834.252,204.911C835.747,204.942,836.398,204.465,836.353,202.87C836.252,199.21,836.244,195.536,836.289,191.875C836.307,190.434,835.817,189.844,834.323,189.896C831.562,189.983,828.801,189.905,826.031,189.966C824.79,190.001,824.363,189.529,824.345,188.288C824.31,185.724,824.253,185.711,821.601,185.729C795.381,185.913,769.162,186.087,742.935,186.283C729.68,186.379,716.426,186.48,703.182,186.668C701.636,186.686,701.583,186.013,701.575,184.855C701.461,167.995,701.331,151.135,701.19,134.271C701.138,128.236,701.023,122.204,700.999,116.172C700.99,114.951,700.613,114.24,699.495,113.654C697.242,112.477,695.948,109.501,696.403,107.029C696.935,104.102,698.744,102.171,701.374,101.737C704.078,101.285,706.607,102.434,707.865,104.686C709.36,107.337,708.7,110.915,706.554,113.091C705.89,113.761,705.354,114.902,705.357,115.823C705.428,134.66,705.586,153.492,705.738,172.329C705.756,174.924,705.839,177.518,705.886,180.113C705.926,182.176,706.021,182.287,708.136,182.273C723.473,182.153,738.811,182.018,754.154,181.902C776.541,181.728,798.929,181.568,821.318,181.402C824.226,181.38,824.3,181.376,824.179,178.495C824.114,176.915,824.37,176.135,826.232,176.243C828.818,176.391,831.421,176.135,834.017,176.19C835.519,176.22,836.14,175.773,836.095,174.167C835.974,170.563,836.026,166.949,835.991,163.342C835.973,161.324,835.799,161.208,833.693,161.262C830.989,161.328,828.285,161.315,825.581,161.395C824.502,161.428,824.013,161.056,824.073,159.938C824.134,158.872,824.012,157.789,824.087,156.725C824.196,155.205,823.47,154.703,822.069,154.801C820.945,154.878,819.814,154.9,818.687,154.91C795.854,155.083,773.01,155.262,750.167,155.398C748.524,155.406,747.389,155.671,746.479,157.315C745.074,159.87,741.84,160.608,738.878,159.436C736.524,158.501,734.868,155.553,735.278,152.927C735.68,150.378,736.72,148.275,739.455,147.543C742.597,146.7,744.912,147.443,746.712,150.062C747.484,151.188,748.449,151.125,749.515,151.121C765.531,150.992,781.549,150.861,797.565,150.741C805.515,150.682,813.466,150.635,821.416,150.615C822.901,150.611,824.143,150.554,824.133,148.545C824.133,148.232,825.042,147.664,825.554,147.647C828.258,147.538,830.966,147.58,833.675,147.544C835.746,147.521,835.903,147.378,835.885,145.316C835.824,138.381,835.789,131.444,835.636,124.509C835.601,122.921,836.112,122.488,837.641,122.493C842.263,122.515,846.885,122.362,851.506,122.362C853.043,122.362,853.629,121.79,853.577,120.257C853.489,117.496,853.586,114.726,853.48,111.967C853.428,110.611,853.918,110.133,855.219,110.213C856.232,110.273,857.25,110.204,858.269,110.191C860.33,110.158,860.416,110.068,860.416,107.941C860.421,106.473,860.412,105.006,860.395,103.538C860.364,101.45,860.234,101.288,858.197,101.305C854.929,101.334,851.658,101.424,848.385,101.45C828.592,101.616,808.798,101.78,789.005,101.898C787.319,101.912,786.361,102.147,786.066,104.161C785.62,107.195,782.693,108.787,779.024,108.407C776.481,108.147,774.446,105.829,774.271,103.068C774.1,100.502,774.511,98.143,776.915,96.738C779.379,95.303,781.847,95.53,784.235,97.129C784.796,97.5,785.612,97.638,786.31,97.633C811.34,97.476,836.386,97.297,861.421,97.105C864.701,97.079,864.697,97.031,864.719,100.37C864.733,103.024,864.753,105.676,864.767,108.325C864.776,109.286,864.859,110.083,866.147,110.225C866.506,110.26,867.013,111.142,867.031,111.651C867.135,114.412,867.096,117.177,867.126,119.94C867.148,121.972,867.397,122.232,869.346,122.232C872.954,122.228,876.563,122.155,880.175,122.192C881.683,122.21,882.321,121.647,882.272,120.098C882.181,117.28,882.264,114.458,882.164,111.642C882.12,110.497,882.378,110.041,883.614,110.011C887.795,109.917,887.676,109.871,887.59,105.708C887.449,98.773,887.463,91.836,887.411,84.897C887.389,82.656,887.337,82.59,885.142,82.608C872.907,82.707,860.67,82.835,848.431,82.899C847.058,82.908,846.377,83.342,846.111,84.71C845.574,87.453,843.844,89.076,841.057,89.403C838.606,89.694,836.412,89.097,835.019,86.869C833.526,84.46,833.499,81.927,834.966,79.513C836.862,76.411,841.82,75.847,844.425,78.477C845.407,79.462,846.377,79.779,847.696,79.77C860.557,79.654,873.418,79.595,886.278,79.513C887.462,79.506,888.646,79.497,889.825,79.382C891.267,79.24,891.781,79.71,891.781,81.247C891.8,89.988,891.923,98.729,892.01,107.471C892.027,109.891,892.027,109.944,894.421,109.917C895.486,109.908,895.81,110.319,895.806,111.304C895.796,114.181,895.864,117.055,895.832,119.932C895.814,121.319,896.247,122.022,897.775,121.984C901.498,121.903,905.218,121.886,908.941,121.919C910.422,121.928,910.907,121.296,910.854,119.866C910.768,117.046,910.854,114.224,910.758,111.407C910.723,110.162,911.12,109.721,912.388,109.73C914.785,109.743,914.803,109.675,914.785,107.259C914.672,92.256,914.549,77.257,914.428,62.258C914.409,60.119,914.3,60.012,912.065,60.029C900.055,60.13,888.043,60.241,876.03,60.34C873.6,60.361,873.6,60.353,873.584,57.972C873.452,40.492,873.304,23.014,873.198,5.529C873.189,3.852,873.137,2.71,871.023,2.093C867.817,1.167,866.454,-2.944,867.738,-6.439C868.851,-9.466,872.385,-10.895,875.794,-9.691C878.694,-8.662,880.363,-4.997,879.35,-1.855C879.228,-1.479,879.15,-1.036,878.901,-0.767C877.122,1.166,877.537,3.531,877.55,5.805C877.673,22.159,877.799,38.514,877.934,54.867C877.952,57.291,877.96,57.305,880.412,57.283C892.027,57.19,903.647,57.082,915.26,56.984C917.47,56.962,917.475,56.966,917.495,59.216C917.627,75.117,917.749,91.02,917.881,106.924C917.906,109.725,917.915,109.725,920.72,109.716C924.541,109.7,924.541,109.7,924.564,113.553C924.578,115.696,924.616,117.839,924.6,119.981C924.586,121.238,925.062,121.814,926.413,121.779C930.078,121.681,933.743,121.633,937.407,121.659C938.928,121.668,939.535,121.126,939.483,119.569C939.391,116.867,939.501,114.157,939.404,111.455C939.352,110.033,939.723,109.469,941.274,109.465C946.468,109.439,945.856,110.272,945.827,104.715C945.748,91.8,945.616,78.887,945.502,65.976C945.402,54.074,945.275,42.179,945.205,30.28C945.196,28.759,944.93,27.872,943.104,27.802C939.941,27.68,937.958,25.122,937.923,21.468C937.892,18.211,940.024,15.608,943.003,15.298C945.472,15.049,947.699,15.626,949.058,17.831C950.503,20.206,950.391,22.719,949.193,25.25C948.692,26.316,948.203,27.533,948.206,28.677C948.325,53.208,948.513,77.741,948.696,102.277C948.709,104.133,948.827,105.994,948.813,107.855C948.809,109.026,949.321,109.495,950.452,109.435C953.365,109.278,953.016,109.529,953.042,112.158C953.068,114.64,953.105,117.123,953.082,119.602C953.068,120.938,953.594,121.561,954.987,121.537C958.708,121.481,962.43,121.463,966.151,121.481C967.624,121.49,968.122,120.85,968.079,119.415C967.982,116.595,968.048,113.773,967.978,110.956C967.951,109.842,968.24,109.333,969.472,109.305C971.687,109.261,971.735,109.15,971.721,106.953C971.555,83.156,971.389,59.357,971.211,35.559C971.109,22.251,971,8.942,970.874,-4.371C970.838,-7.509,970.703,-10.651,970.616,-13.796L975.014,-13.796C975.189,5.257,975.372,24.311,975.535,43.365C975.715,63.888,975.858,84.407,976.015,104.929C976.046,109.055,976.033,109.09,980.204,109.149C981.357,109.166,981.81,109.514,981.789,110.709C981.741,113.522,981.842,116.346,981.802,119.164C981.781,120.628,982.24,121.333,983.847,121.289C987.508,121.187,991.173,121.183,994.838,121.208C996.189,121.212,996.79,120.743,996.734,119.325C996.647,117.128,996.694,114.929,996.687,112.727C996.669,109.09,996.669,109.09,1000.338,109.044C1002.479,109.018,1002.535,108.979,1002.517,106.858C1002.43,96.43,1002.33,86.003,1002.244,75.571C1002.004,47.556,1001.789,19.535,1001.496,-8.482C1001.478,-10.245,1002.024,-10.642,1003.693,-10.651C1020.267,-10.714,1036.84,-10.852,1053.415,-10.972C1056.072,-10.992,1056.124,-11.048,1055.893,-13.796L1058.924,-13.796Z" fill="rgb(144,81,159)" stroke="none" stroke-width="1"/><path id="eUzAlSyPKCR20" d="M1008.816,306.791L1008.816,254.011C1008.816,251.683,1010.101,250.77,1012.329,251.608C1012.652,251.726,1012.936,252.215,1013.037,252.587C1013.163,253.059,1013.09,253.592,1013.094,254.103C1013.282,280.039,1013.461,305.974,1013.657,331.91C1013.715,339.864,1013.858,347.815,1013.877,355.762C1013.877,357.352,1014.444,357.797,1015.95,357.781C1034.617,357.58,1053.278,357.405,1071.941,357.264C1073.129,357.256,1073.907,356.858,1074.65,355.937C1076.201,354.015,1079.166,353.376,1081.609,354.277C1083.91,355.132,1085.312,357.169,1085.383,359.763C1085.473,363.364,1083.902,365.748,1080.948,366.465C1077.833,367.216,1075.055,365.923,1073.631,362.786C1073.019,361.449,1072.063,361.523,1071.005,361.532C1061.024,361.624,1051.046,361.716,1041.065,361.811C1031.31,361.899,1021.555,361.952,1011.805,362.113C1010.062,362.148,1009.619,361.589,1009.617,359.907C1009.617,348.011,1009.503,336.112,1009.451,324.213C1009.425,318.407,1009.447,312.602,1009.447,306.792L1008.816,306.792Z" fill="rgb(144,81,159)" stroke="none" stroke-width="1"/><path id="eUzAlSyPKCR21" d="M1035.997,290.605C1035.997,278.142,1035.994,265.679,1036.006,253.22C1036.006,252.359,1035.74,251.363,1037.177,251.241C1038.622,251.128,1039.004,251.713,1039.013,253.076C1039.056,261.708,1039.183,270.336,1039.262,278.955C1039.388,294.131,1039.502,309.299,1039.623,324.461C1039.641,326.536,1039.751,326.667,1041.843,326.654C1060.567,326.509,1079.284,326.374,1098.007,326.22C1099.811,326.207,1101.624,326.247,1103.41,326.032C1104.171,325.936,1105.111,325.429,1105.542,324.813C1107.198,322.446,1109.851,321.305,1112.589,322.017C1115.039,322.66,1116.801,324.717,1117.027,327.203C1117.328,330.536,1116.188,333.053,1113.537,334.027C1110.212,335.241,1106.749,334.45,1105.407,331.09C1104.765,329.47,1103.83,329.255,1102.34,329.269C1081.084,329.461,1059.823,329.592,1038.567,329.793C1037.146,329.806,1036.596,329.562,1036.605,327.98C1036.667,315.522,1036.636,303.059,1036.636,290.604L1035.997,290.604Z" fill="rgb(144,81,159)" stroke="none" stroke-width="1"/><path id="eUzAlSyPKCR22" d="M972.595,358.91C972.607,355.49,974.063,353.467,977.128,352.756C978.435,352.454,978.688,351.711,978.666,350.571C978.587,346.167,978.521,341.777,978.488,337.383C978.308,314.322,978.146,291.274,977.967,268.217C977.931,263.372,977.879,258.523,977.774,253.679C977.75,252.482,977.906,251.779,979.37,251.77C980.807,251.762,981.008,252.43,981.016,253.645C981.156,275.57,981.318,297.495,981.493,319.424C981.571,330.023,981.693,340.615,981.755,351.209C981.764,352.424,982.109,353.301,983,354.171C985.306,356.442,985.434,360.797,983.402,363.169C981.484,365.415,977.584,365.9,975.07,364.183C973.172,362.881,972.485,361.003,972.595,358.91" fill="rgb(144,81,159)" stroke="none" stroke-width="1"/></g><g id="eUzAlSyPKCR23" transform="matrix(1 0 0 1 44.2959 -5.202326)"><path id="eUzAlSyPKCR24" d="M303.462,75.797C304.784,76.345,306.157,76.79,307.417,77.459C311.609,79.674,313.872,83.24,313.812,87.944C313.751,92.246,311.205,96.31,306.947,98.157C301.671,100.448,296.174,98.751,292.919,94.422C292.492,93.841,292,93.215,291.844,92.538C291.546,91.238,290.73,91.098,289.616,91.093C282.946,91.057,276.279,90.986,269.608,90.912C266.072,90.871,266.072,90.853,266.072,94.394C266.072,105.914,266.063,117.426,266.09,128.943C266.094,130.167,265.736,131.065,264.842,131.948C256.833,139.888,248.862,147.865,240.935,155.889C240.369,156.459,239.955,157.463,239.946,158.268C239.882,167.726,239.912,177.186,239.898,186.644C239.898,187.682,240.17,188.31,241.241,188.867C245.477,191.078,247.795,194.703,247.687,199.474C247.571,204.624,243.78,209.24,238.707,210.328C232.442,211.669,226.613,208.092,224.972,201.827C224.89,201.512,224.493,201.283,224.246,201.014C224.069,201.335,223.741,201.655,223.737,201.983C223.694,205.09,223.707,208.194,223.703,211.302L223.703,227.474C223.703,230.435,223.664,233.4,223.72,236.357C223.746,237.594,223.336,238.509,222.45,239.366C219.769,241.976,217.174,244.673,214.497,247.28C213.858,247.904,213.789,248.474,214.087,249.229C216.297,254.814,213.664,260.641,208.966,263.317C202.421,267.047,195.38,263.533,192.736,257.715C190.154,252.033,192.98,245.393,198.582,242.811C201.495,241.466,204.472,241.418,207.459,242.545C208.245,242.841,208.818,242.718,209.415,242.107C211.449,240.01,213.547,237.973,215.572,235.859C215.943,235.474,216.301,234.859,216.301,234.352C216.322,227.593,216.258,220.831,216.254,214.068C216.245,195.569,216.267,177.066,216.224,158.564C216.224,157.036,216.634,155.926,217.739,154.834C227.017,145.633,236.236,136.37,245.497,127.156C246.365,126.29,246.784,125.414,246.775,124.156C246.732,113.919,246.754,103.684,246.749,93.449C246.749,91.424,246.658,91.336,244.682,91.336C241.461,91.34,238.226,91.368,235.001,91.323C234.039,91.314,233.46,91.724,233.05,92.53C230.748,97.014,227.148,99.317,222.04,99.095C217.511,98.897,214.372,96.545,212.334,92.632C211.867,91.736,211.306,91.332,210.326,91.337C197.963,91.373,185.597,91.403,173.233,91.421C169.993,91.425,166.752,91.337,163.512,91.346C155.274,91.366,147.047,91.443,138.811,91.439C125.114,91.43,111.415,91.37,97.721,91.341C89.372,91.328,81.025,91.337,72.679,91.337L59.134,91.337C57.456,91.341,55.764,91.196,54.115,91.403C53.212,91.522,52.218,92.067,51.563,92.716C42.399,101.824,33.287,110.975,24.158,120.12C22.184,122.091,20.263,124.111,18.219,126.001C17.177,126.963,16.872,127.993,16.872,129.373C16.897,185.297,16.893,241.227,16.919,297.152C16.924,298.543,16.603,299.583,15.548,300.52C13.948,301.94,12.464,303.499,10.928,304.997L10.928,122.947C11.269,122.647,11.628,122.36,11.945,122.043C24.187,109.8,36.439,97.57,48.651,85.298C49.706,84.236,50.833,83.759,52.28,83.813C54.6,83.895,56.927,84.012,59.252,84.003C63.784,83.979,68.311,83.843,72.842,83.831C75.964,83.822,79.086,83.979,82.207,84.003C86.738,84.033,91.276,84.003,95.808,83.999C101.183,83.999,106.558,84.029,111.932,83.999C116.219,83.971,120.513,83.839,124.803,83.831C127.571,83.826,130.338,84.008,133.106,84.003C136.409,83.999,139.71,83.831,143.017,83.831C146.7,83.826,150.383,83.979,154.065,83.976C158.009,83.976,161.958,83.853,165.902,83.823C169.474,83.795,173.049,83.823,176.622,83.832C178.023,83.832,179.431,83.862,180.836,83.862C183.545,83.871,186.256,83.866,188.966,83.866C191.597,83.866,194.223,83.848,196.85,83.87C198.973,83.883,201.09,83.967,203.212,83.984C205.621,84.008,208.031,84.06,210.436,83.928C211.053,83.891,211.926,83.384,212.197,82.845C213.389,80.47,215.099,78.663,217.452,77.482C218.678,76.867,219.96,76.356,221.213,75.798L223.959,75.798C224.56,76.076,225.133,76.465,225.768,76.625C228.419,77.292,230.742,78.736,231.947,81.036C233.263,83.561,234.822,84.158,237.512,83.896C240.642,83.596,243.833,83.924,247.002,83.95C248.901,83.968,250.806,83.925,252.71,83.92C253.694,83.916,254.291,84.199,254.291,85.414C254.252,99.437,254.277,113.461,254.23,127.487C254.225,128.171,253.837,129.003,253.362,129.512C251.453,131.533,249.432,133.441,247.468,135.406C240.02,142.837,232.589,150.286,225.111,157.694C224.053,158.745,223.673,159.868,223.677,161.34C223.725,172.398,223.703,183.45,223.703,194.507C223.703,195.144,223.651,195.794,223.737,196.422C223.78,196.754,224.078,197.055,224.26,197.364C224.501,197.09,224.885,196.847,224.964,196.532C225.818,192.92,227.961,190.347,231.25,188.73C232.248,188.242,232.567,187.57,232.394,186.537C232.308,186.04,232.251,185.541,232.251,185.043C232.247,175.315,232.213,165.584,232.294,155.854C232.303,154.926,232.804,153.78,233.461,153.112C241.357,145.119,249.311,137.183,257.29,129.269C258.209,128.358,258.581,127.421,258.577,126.13C258.542,112.517,258.556,98.903,258.556,85.292C258.556,83.094,258.617,83.006,260.758,83.041C263.677,83.086,266.591,83.205,269.506,83.252C271.609,83.293,273.711,83.234,275.81,83.297C280.685,83.444,285.555,83.664,290.43,83.774C290.861,83.787,291.488,83.327,291.716,82.917C293.029,80.56,294.609,78.509,297.178,77.412C298.452,76.872,299.726,76.333,300.999,75.8L303.462,75.8ZM236.13,203.65C238.457,203.654,240.767,201.546,240.646,199.224C240.516,196.744,239.095,194.715,236.134,194.731C233.276,194.745,231.842,196.549,231.613,199.086C231.406,201.407,233.759,203.65,236.13,203.65M222.68,92.023C225.621,92.116,227.046,89.868,227.214,87.707C227.396,85.358,225.094,83.171,222.676,83.176C220.237,83.18,218.091,85.323,218.134,87.716C218.173,90.146,220.159,92.027,222.68,92.023M297.91,87.619C297.896,90.348,299.516,92.015,302.18,92.024C304.836,92.032,306.783,90.193,306.77,87.678C306.757,85.24,304.676,83.181,302.224,83.177C299.715,83.176,297.919,85.024,297.91,87.619M203.329,257.685C205.937,257.698,207.797,255.85,207.802,253.242C207.806,250.74,205.945,248.879,203.394,248.825C200.905,248.77,198.951,250.673,198.932,253.166C198.918,255.74,200.794,257.671,203.329,257.685" fill="rgb(144,82,159)" stroke="none" stroke-width="1"/><path id="eUzAlSyPKCR25" d="M10.928,439.887C11.524,439.901,12.117,439.93,12.709,439.93C69.045,439.93,125.381,439.926,181.714,439.961C183.067,439.961,184.009,439.547,184.946,438.605C198.201,425.307,211.475,412.022,224.799,398.789C225.978,397.618,226.198,396.475,225.615,395.123C223.901,391.134,226.19,385.694,229.247,383.232C231.522,381.397,234.031,380.232,236.945,380.236C241.193,380.244,245.99,383.892,247.394,387.847C248.399,390.675,248.477,393.448,247.346,396.219C246.892,397.324,246.957,398.188,247.885,399.025C248.688,399.759,249.452,400.581,250.083,401.469C251.11,402.911,252.41,403.329,254.176,403.314C263.635,403.226,273.091,403.253,282.551,403.287C283.743,403.293,284.607,402.904,285.466,402.104C293.367,394.716,301.307,387.365,309.23,379.998C317.818,372.007,326.401,364.007,334.989,356.019C336.56,354.56,338.124,353.087,339.717,351.65C340.403,351.041,340.649,350.423,340.347,349.482C339.608,347.194,339.423,344.867,340.231,342.531C341.232,339.608,343.016,337.299,345.701,335.801C352.501,331.996,359.811,335.607,362.242,342.095C364.021,346.845,362.411,351.995,357.881,355.23C354.527,357.626,350.839,357.976,346.993,356.474C346.073,356.116,345.36,356.318,344.639,356.995C339.501,361.792,334.342,366.567,329.186,371.347C321.358,378.61,313.522,385.871,305.699,393.139C299.784,398.639,293.869,404.148,287.979,409.678C287.163,410.448,286.303,410.806,285.173,410.802C273.567,410.781,261.961,410.781,250.356,410.802C249.268,410.802,248.46,410.503,247.731,409.656C245.978,407.614,244.126,405.654,242.343,403.641C241.778,403.008,241.246,402.731,240.322,402.991C237.598,403.751,234.882,403.815,232.192,402.628C231.799,402.455,230.91,402.935,230.487,403.358C225.898,407.874,221.356,412.446,216.8,417.005C209.758,424.047,202.707,431.08,195.687,438.143C195.311,438.524,195.143,439.103,194.877,439.585C195.387,439.706,195.894,439.919,196.403,439.919C254.384,439.935,312.361,439.935,370.341,439.892C371.14,439.892,372.133,439.456,372.708,438.891C379.892,431.792,386.994,424.617,394.18,417.527C395.185,416.527,394.659,415.827,394.391,414.778C393.493,411.255,393.761,407.804,396.04,404.757C399.11,400.651,403.229,399.066,408.194,400.185C411.488,400.928,413.949,403.048,415.641,405.975C416.608,407.65,417.55,409.313,417.451,411.398C417.278,414.925,415.513,417.649,413.042,419.852C409.934,422.628,406.311,423.961,402.097,422.333C400.789,421.828,399.761,422.104,398.695,423.188C391.061,430.929,383.333,438.588,375.669,446.299C374.801,447.167,373.908,447.591,372.66,447.591C252.083,447.566,131.504,447.566,10.928,447.566L10.928,439.887ZM351.37,341.372C348.896,341.355,346.746,343.414,346.742,345.81C346.738,348.249,348.862,350.301,351.362,350.271C353.797,350.236,355.951,348.185,355.844,345.815C355.735,343.414,353.801,341.29,351.37,341.372M405.383,415.804C407.905,415.812,409.929,413.822,409.921,411.335C409.912,408.861,407.983,406.995,405.431,406.995C402.845,406.995,401.009,408.808,401.014,411.364C401.023,413.925,402.862,415.799,405.383,415.804M241.012,392.087C241.021,389.514,239.104,387.472,236.664,387.454C234.302,387.446,232.325,389.478,232.247,391.913C232.152,394.798,234.358,396.529,236.768,396.469C239.122,396.413,241.138,394.755,241.012,392.087" fill="rgb(144,82,159)" stroke="none" stroke-width="1"/><path id="eUzAlSyPKCR26" d="M426.29,332.413C427.287,332.517,428.263,332.482,428.155,334.054C428.072,335.203,427.654,335.578,426.592,335.6C426.216,335.6,425.845,335.872,425.473,336.014C425.823,336.208,426.173,336.559,426.518,336.559C427.705,336.567,428.167,337.124,428.111,338.268C428.047,339.534,427.468,340.099,426.268,340.203C425.9,340.233,425.563,340.613,424.973,340.985C425.512,341.179,425.667,341.256,425.836,341.299C426.557,341.476,427.813,341.497,427.908,341.847C428.201,342.91,428.206,344.122,427.969,345.202C427.883,345.595,426.803,345.901,426.142,346.001C425.257,346.13,424.337,346.035,423.427,346.035C423.418,346.256,423.414,346.472,423.397,346.692C423.967,346.769,424.528,346.869,425.094,346.912C425.685,346.951,426.282,346.921,426.877,346.937C427.697,346.958,428.129,347.347,428.111,348.219C428.086,349.631,428.068,351.052,428.116,352.468C428.155,353.452,427.65,353.767,426.786,353.776C425.323,353.785,423.863,353.759,422.399,353.806C422.036,353.82,421.656,354.018,421.333,354.217C421.276,354.255,421.397,354.847,421.549,354.911C421.881,355.05,422.291,355.057,422.667,355.05C424.148,355.007,425.625,354.864,427.088,354.933C427.442,354.951,427.878,355.611,428.068,356.056C428.232,356.445,428.103,356.962,428.103,357.415C428.103,359.233,428.103,359.22,426.238,359.389C425.974,359.414,425.728,359.653,425.478,359.786C425.715,360.002,425.931,360.244,426.194,360.408C426.333,360.485,426.566,360.39,426.734,360.442C427.101,360.55,427.442,360.701,427.796,360.835C427.614,361.189,427.481,361.573,427.234,361.876C426.893,362.295,426.487,362.67,426.077,363.032C425.71,363.356,425.3,363.637,424.877,363.97C423.534,363.412,422.632,363.728,422.291,364.971C422.697,365.101,423.107,365.243,423.491,365.368C421.294,367.639,419.178,369.911,416.946,372.074C416.087,372.906,415.655,373.395,416.229,374.78C418.747,380.812,414.826,387.41,409.308,389.495C403.626,391.637,397.137,388.455,394.895,383.183C392.292,377.078,395.107,370.208,401.674,367.682C404.303,366.672,407.014,366.823,409.674,367.86C410.097,368.024,410.896,367.916,411.198,367.614C413.258,365.546,415.226,363.39,417.238,361.279C417.894,360.589,418.525,359.846,419.28,359.276C420.213,358.577,420.269,357.721,420.264,356.651C420.217,345.412,420.199,334.17,420.238,322.93C420.337,294.629,420.484,266.323,420.588,238.018C420.622,228.176,420.574,218.334,420.617,208.492C420.622,207.348,420.281,206.534,419.473,205.729C401.75,188.055,384.052,170.355,366.346,152.662C366.282,152.597,366.216,152.535,366.152,152.467C363.86,149.974,364.135,149.979,361.7,152.42C354.365,159.753,347.029,167.08,339.719,174.437C338.912,175.251,338.04,175.564,336.917,175.564C327.095,175.538,317.272,175.546,307.445,175.546C305.312,175.546,305.312,175.55,305.312,177.739C305.312,180.802,305.338,183.865,305.295,186.925C305.282,187.837,305.615,188.322,306.447,188.694C311.218,190.831,314.077,196.144,313.015,201.269C312.121,205.58,308.995,208.878,304.483,210.347C299.082,212.107,292.989,208.057,291.132,203.881C288.593,198.165,290.943,191.693,296.611,188.823C297.699,188.271,298.049,187.651,298.04,186.511C298.001,180.98,298.019,175.453,298.026,169.923C298.026,168.185,298.169,168.043,299.891,168.038C311.407,168.038,322.921,168.025,334.437,168.055C335.438,168.059,336.138,167.759,336.833,167.062C345.464,158.401,354.112,149.757,362.778,141.126C363.62,140.286,364.017,139.518,364,138.19C363.875,130.289,363.948,122.39,363.948,114.488C363.952,109.92,363.944,105.354,363.944,100.786C363.944,100.424,363.918,100.048,363.996,99.694C364.169,98.876,363.828,98.509,363.081,98.146C358.629,95.968,356.155,92.356,356.212,87.404C356.264,82.633,359.545,77.987,364.596,76.651C365.265,76.474,365.879,76.085,366.518,75.794L368.987,75.794C370.304,76.342,371.642,76.858,372.938,77.447C376.974,79.282,379.794,84.096,379.167,89.004C378.623,93.302,376.266,96.167,372.609,98.09C371.715,98.562,371.417,99.081,371.422,99.981C371.435,102.313,371.426,104.642,371.426,106.971L371.426,137.531C371.426,138.759,371.564,140.011,371.374,141.21C371.228,142.126,370.834,143.129,370.239,143.817C369.414,144.758,369.259,145.335,370.23,146.298C378.787,154.782,387.302,163.311,395.82,171.83C406.122,182.132,416.41,192.438,426.73,202.714C427.58,203.563,427.883,204.495,427.883,205.65C427.865,215.472,427.87,225.289,427.874,235.107C427.883,257.019,427.895,278.928,427.9,300.832C427.9,307.001,427.857,313.162,427.883,319.333C427.891,321.932,428.017,324.526,428.107,327.122C428.137,327.968,427.918,328.421,426.924,328.55C426.125,328.65,425.249,329.03,424.657,329.557C423.866,330.265,424.622,330.835,425.188,331.319C424.799,331.785,424.406,332.256,423.776,333.016C425.002,333.014,425.935,333.916,426.29,332.413M409.969,378.551C409.814,375.714,407.672,374.164,405.371,374.057C403.06,373.95,400.85,376.277,400.95,378.586C401.071,381.461,402.962,383.089,405.471,383.11C407.857,383.128,409.86,381.328,409.969,378.551M306.04,199.09C306.031,196.545,304.205,194.718,301.644,194.688C299.252,194.656,297.283,196.596,297.266,198.997C297.244,201.667,299.183,203.675,301.752,203.649C304.153,203.628,306.053,201.612,306.04,199.09M372.108,87.826C372.147,85.104,370.407,83.21,367.842,83.18C365.407,83.155,363.373,85.117,363.318,87.538C363.261,90.108,365.041,91.964,367.609,92.023C370.337,92.086,372.065,90.475,372.108,87.826" fill="rgb(144,82,159)" stroke="none" stroke-width="1"/><path id="eUzAlSyPKCR27" d="M10.93,383.137C11.329,382.856,11.781,382.635,12.12,382.303C18.792,375.87,25.468,369.449,32.086,362.956C33.25,361.82,34.431,361.294,36.073,361.298C57.048,361.35,78.018,361.35,98.993,361.294C100.632,361.294,101.931,361.635,102.954,362.939C103.322,363.405,103.803,363.777,104.2,364.213C104.774,364.825,105.344,364.925,106.145,364.55C113.152,361.273,120.425,365.157,122.255,371.855C123.874,377.762,120.991,383.449,115.041,385.709C108.992,388.003,103.085,384.833,100.592,379.488C99.474,377.083,98.96,374.463,100.111,371.807C100.571,370.744,99.39,369.117,98.015,368.883C97.614,368.819,97.192,368.844,96.782,368.844C81.655,368.844,66.535,368.84,51.411,368.853C50.795,368.853,50.182,368.974,49.567,369.03L49.588,369.42C50.861,369.782,52.144,370.11,53.401,370.512C56.362,371.462,58.363,373.565,59.7,376.238C61.177,379.221,61.283,382.325,59.992,385.46C59.832,385.862,59.975,386.622,60.266,386.929C62.383,389.14,64.556,391.298,66.77,393.417C67.113,393.745,67.75,393.913,68.255,393.913C86.391,393.913,104.531,393.88,122.668,393.87C127.372,393.866,132.081,393.87,136.784,393.966C138.123,393.991,138.494,393.53,138.49,392.235C138.451,380.219,138.469,368.204,138.469,356.188C138.469,355.686,138.402,355.168,138.499,354.681C138.742,353.454,138.127,352.902,137.115,352.363C133.009,350.16,130.617,346.65,130.673,342.017C130.732,337.332,133.141,333.748,137.413,331.72C143.982,328.602,151.117,332.168,153.315,338.835C154.062,341.119,154.041,343.623,153.068,345.958C152.686,346.874,152.798,347.586,153.524,348.299C156.194,350.915,158.79,353.61,161.498,356.179C162.06,356.71,162.992,357.119,163.763,357.128C173.034,357.189,182.309,357.158,191.586,357.18C192.489,357.18,192.979,356.969,193.464,356.054C195.945,351.404,199.839,348.891,205.176,349.46C209.575,349.927,212.744,352.487,214.563,356.494C217.14,362.181,214.174,368.139,209.74,370.806C204.334,374.044,197.262,372.366,194.097,366.774C193.123,365.055,192.085,364.628,190.254,364.646C180.841,364.741,171.434,364.671,162.022,364.714C160.448,364.723,159.25,364.291,158.141,363.134C155.2,360.073,152.155,357.107,149.142,354.102C148.758,353.713,148.374,353.316,147.932,352.997C147.122,352.419,146.155,352.847,146.008,353.844C145.945,354.245,145.987,354.66,145.987,355.07L145.987,399.486C145.987,401.458,145.983,401.458,143.997,401.458C118.093,401.458,92.185,401.45,66.276,401.485C64.981,401.485,64.048,401.126,63.154,400.193C60.82,397.745,58.335,395.449,56.028,392.975C55.02,391.89,53.941,391.679,52.716,392.171C46.876,394.507,40.82,390.365,38.609,385.561C35.787,379.435,40.027,372.172,45.279,370.527C46.456,370.161,47.628,369.785,48.796,369.089C48.349,369.007,47.902,368.86,47.456,368.856C44.254,368.839,41.052,368.765,37.862,368.908C36.972,368.947,35.925,369.47,35.267,370.1C27.538,377.53,19.866,385.035,12.174,392.508C11.79,392.888,11.347,393.203,10.93,393.553L10.93,383.137ZM146.654,342.184C146.693,339.706,144.789,337.69,142.347,337.638C139.946,337.581,137.828,339.585,137.79,341.959C137.74,344.49,139.811,346.666,142.267,346.679C144.65,346.692,146.608,344.685,146.654,342.184M203.994,356.458C201.371,356.441,199.54,358.25,199.519,360.879C199.501,363.443,201.279,365.287,203.826,365.339C206.386,365.4,208.333,363.487,208.351,360.914C208.363,358.466,206.424,356.476,203.994,356.458M106.774,374.808C106.437,377.326,109.107,379.462,111.183,379.341C113.773,379.198,115.494,377.567,115.506,374.906C115.52,372.278,113.781,370.477,111.208,370.472C108.622,370.46,106.783,372.261,106.774,374.808" fill="rgb(144,82,159)" stroke="none" stroke-width="1"/><path id="eUzAlSyPKCR28" d="M10.93,364.493C12.234,363.599,13.566,362.74,14.835,361.804C17.076,360.15,19.256,358.414,21.514,356.79C22.434,356.13,22.549,355.322,22.549,354.304C22.531,307.337,22.535,260.37,22.535,213.401C22.535,197.64,22.54,181.875,22.518,166.11C22.518,164.877,22.915,163.966,23.791,163.097C32.474,154.466,41.113,145.787,49.805,137.165C50.835,136.144,50.47,135.144,50.124,134.141C48.166,128.453,51.676,122.442,56.427,120.432C62.317,117.932,68.432,120.034,71.382,125.685C74.724,132.099,71.399,139.797,64.27,142.012C61.866,142.759,59.607,142.675,57.348,141.777C56.204,141.317,55.495,141.712,54.71,142.498C47.18,150.054,39.646,157.609,32.051,165.104C30.76,166.376,30.229,167.663,30.229,169.514C30.281,232.111,30.268,294.707,30.304,357.299C30.309,358.702,29.808,359.592,28.743,360.387C22.791,364.846,16.863,369.336,10.929,373.81L10.929,364.493ZM56.694,130.909C56.694,133.372,58.652,135.371,61.076,135.38C63.654,135.393,65.558,133.474,65.545,130.883C65.532,128.355,63.719,126.571,61.102,126.5C58.64,126.44,56.694,128.386,56.694,130.909" fill="rgb(144,82,159)" stroke="none" stroke-width="1"/><path id="eUzAlSyPKCR29" d="M436.979,439.887C436.785,440.426,436.504,440.945,436.4,441.497C435.528,446.358,432.64,449.692,428.227,451.51C422.126,454.019,416.206,451.791,412.662,447.275C407.995,441.316,409.208,432.883,415.352,428.165C418.202,425.977,421.242,424.958,424.769,425.212C425.063,425.233,425.348,425.342,425.801,425.441C425.451,425.864,425.21,426.148,425.067,426.322C425.378,426.9,425.693,427.397,425.896,427.932C425.944,428.049,425.473,428.506,425.456,428.493C424.968,428.161,424.506,427.786,424.29,427.617C423.003,427.975,421.863,428.382,420.688,428.596C416.267,429.425,412.593,433.818,412.45,438.298C412.364,440.949,412.774,443.457,414.492,445.487C418.766,450.516,424.979,451.884,430.575,446.951C435.644,442.477,435.32,434.74,429.906,430.659C429.021,429.991,428.542,428.699,427.121,428.666C426.957,428.66,426.75,427.47,426.72,426.825C426.707,426.567,427.117,426.29,427.333,426.018C427.816,426.416,428.3,426.813,428.913,427.305C429.837,426.709,430.519,427.387,431.309,428.181C433.183,430.055,435.039,431.933,435.882,434.541C436.114,435.267,436.21,436.034,436.417,436.772C436.559,437.269,436.789,437.753,436.978,438.24L436.978,439.887Z" fill="rgb(144,82,159)" stroke="none" stroke-width="1"/><path id="eUzAlSyPKCR30" d="M281.045,363.181C280.682,363.919,280.285,364.649,279.953,365.405C278.286,369.268,275.32,371.661,271.231,372.269C266.641,372.96,262.799,371.332,260.035,367.498C258.472,365.339,257.523,362.865,257.825,360.227C258.3,356.074,260.303,352.732,264.12,350.742C265.268,350.145,265.998,349.528,265.661,348.121C265.549,347.645,265.635,347.123,265.635,346.619C265.635,327.66,265.622,308.692,265.661,289.729C265.665,288.391,265.259,287.445,264.306,286.504C257.268,279.545,250.226,272.584,243.327,265.486C241.919,264.036,240.659,263.677,238.927,264.372C234.147,266.298,227.952,262.637,225.845,258.46C222.39,251.612,226.263,244.024,233.012,242.193C238.422,240.725,243.434,242.543,246.44,248.212C248.033,251.212,248.141,254.352,246.829,257.561C246.643,258.021,247.04,258.967,247.463,259.401C252.428,264.45,257.454,269.446,262.463,274.45C265.628,277.615,268.78,280.797,271.97,283.94C272.864,284.821,273.3,285.74,273.296,287.053C273.253,307.113,273.3,327.168,273.214,347.227C273.205,349.153,273.585,350.263,275.407,351.174C278.084,352.512,279.612,354.99,280.579,357.797C280.7,358.155,280.872,358.487,281.019,358.837C281.153,358.824,281.291,358.807,281.425,358.798C281.481,358.259,281.589,357.723,281.576,357.188C281.546,356.1,281.394,355.016,281.394,353.924C281.381,327.609,281.385,301.288,281.385,274.968C281.385,274.605,281.29,274.208,281.399,273.875C282.18,271.522,280.803,270.132,279.249,268.747C278.126,267.749,277.003,266.709,276.067,265.543C274.892,264.084,273.641,263.557,271.835,264.321C267.336,266.238,261.482,263.113,259.185,259.423C255.519,253.529,257.536,245.462,264.526,242.658C271.041,240.05,277.086,243.193,279.681,249.065C280.859,251.735,280.933,254.566,279.724,257.288C279.271,258.313,279.663,258.883,280.333,259.544C282.807,261.981,285.225,264.472,287.72,266.882C288.739,267.88,289.158,268.954,289.154,270.401C289.106,282.831,289.124,295.257,289.128,307.688C289.128,309.398,289.206,309.454,290.899,309.454L322.811,309.454C328.195,309.454,333.579,309.433,338.963,309.463C339.969,309.467,340.539,309.109,340.949,308.168C342.875,303.76,348.147,300.772,352.913,301.558C357.442,302.305,361.669,305.979,362.641,311.035C363.211,314.002,362.52,316.484,361.169,318.932C359.636,321.708,357.162,323.457,354.188,324.294C349.002,325.749,343.433,323.076,341.045,318.176C340.501,317.062,339.888,316.643,338.662,316.648C322.761,316.682,306.863,316.669,290.961,316.669C289.135,316.669,289.13,316.678,289.13,318.5C289.126,336.599,289.13,354.694,289.13,372.788C289.13,379.895,289.13,386.998,289.126,394.113C289.126,396.04,288.992,396.173,286.993,396.173C280.323,396.177,273.651,396.148,266.981,396.199C265.785,396.208,264.926,395.854,264.093,395.016C257.733,388.6,251.317,382.236,244.966,375.811C244.093,374.935,243.217,374.55,241.969,374.558C235.208,374.611,228.447,374.607,221.68,374.564C220.502,374.554,219.642,374.878,218.792,375.737C205.477,389.105,192.116,402.421,178.822,415.805C177.561,417.066,176.324,417.601,174.529,417.596C137.158,417.553,99.78,417.566,62.403,417.553C61.09,417.553,60.302,417.786,59.551,419.202C57.598,422.898,54.422,425.26,50.109,425.502C45.284,425.777,41.61,423.593,39.25,419.47C35.624,413.146,38.905,406.124,44.676,403.412C50.798,400.542,57.19,403.822,59.75,409.13C60.154,409.972,60.64,410.338,61.501,410.338C62.593,410.343,63.69,410.343,64.791,410.343C100.523,410.343,136.251,410.334,171.984,410.373C173.385,410.373,174.348,409.94,175.326,408.956C188.704,395.519,202.128,382.136,215.516,368.703C216.384,367.827,217.256,367.426,218.504,367.43C227.416,367.474,236.326,367.465,245.234,367.435C246.37,367.43,247.194,367.763,248.006,368.575C254.4,375.034,260.829,381.468,267.301,387.858C267.845,388.393,268.782,388.79,269.551,388.811C272.975,388.911,276.403,388.859,279.827,388.845C281.519,388.837,281.468,388.785,281.416,387.075C281.338,384.334,281.364,381.593,281.395,378.85C281.447,374.243,281.537,369.636,281.606,365.025C281.615,364.46,281.611,363.894,281.611,363.323C281.417,363.271,281.231,363.224,281.045,363.181M236.069,257.671C238.729,257.853,240.74,255.595,240.632,253.278C240.511,250.624,239.043,248.908,236.197,248.873C233.352,248.837,231.863,250.495,231.621,253.278C231.415,255.621,233.643,257.659,236.069,257.671M269.465,356.454C266.939,356.45,264.902,358.444,264.915,360.914C264.924,363.396,266.996,365.391,269.509,365.339C271.983,365.287,273.965,363.279,273.922,360.866C273.874,358.396,271.922,356.458,269.465,356.454M268.826,257.671C271.395,257.691,273.364,255.793,273.373,253.295C273.381,250.748,271.464,248.852,268.874,248.848C266.348,248.837,264.505,250.704,264.518,253.254C264.535,255.865,266.284,257.659,268.826,257.671M351.155,317.444C354.099,317.626,355.529,315.502,355.8,313.273C356.103,310.816,353.974,308.835,351.426,308.688C348.408,308.511,346.85,311.041,346.767,313.009C346.694,314.811,348.292,317.6,351.155,317.444" fill="rgb(144,82,159)" stroke="none" stroke-width="1"/><path id="eUzAlSyPKCR31" d="M128.579,147.901C128.579,153.511,128.566,159.122,128.583,164.731C128.642,182.407,128.717,200.088,128.773,217.764C128.794,223.425,128.752,229.087,128.79,234.747C128.831,240.418,128.898,246.087,129.03,251.754C129.064,253.036,128.624,253.904,127.672,254.699C119.648,261.389,111.631,268.098,103.625,274.821C94.297,282.653,84.986,290.507,75.658,298.348C70.985,302.282,66.31,306.219,61.602,310.11C60.602,310.938,60.236,311.767,60.523,313.067C61.965,319.474,58.299,324.88,52.807,326.654C47.79,328.286,42.303,326.525,39.323,321.318C35.949,315.433,38.235,309.224,43.267,305.956C46.676,303.75,50.283,303.326,54.011,305.196C54.924,305.654,55.686,305.628,56.513,304.928C63.563,298.991,70.638,293.085,77.7,287.157C84.901,281.117,92.081,275.055,99.279,269.006C106.269,263.134,113.264,257.273,120.271,251.42C121.141,250.695,121.536,249.899,121.508,248.722C121.359,241.515,121.242,234.309,121.191,227.099C121.15,222.266,121.243,217.426,121.254,212.592C121.254,210.584,121.15,208.572,121.15,206.567C121.141,189.979,121.141,173.395,121.141,156.809C121.141,152.526,121.089,148.241,121.164,143.962C121.19,142.54,120.7,141.751,119.439,141.063C115.402,138.87,113.085,135.364,113.174,130.787C113.301,124.079,119.046,118.571,126.299,119.553C131.277,120.229,134.483,123.253,135.875,127.944C136.541,130.176,136.525,132.61,135.532,134.921C135.314,135.424,135.527,136.398,135.912,136.832C137.267,138.36,138.798,139.74,140.248,141.19C146.013,146.969,151.762,152.766,157.549,158.525C158.486,159.457,158.928,160.487,158.924,161.811C158.892,168.114,158.937,174.42,158.883,180.724C158.874,181.879,159.228,182.714,160.05,183.492C161.615,184.964,163.066,186.551,164.648,188.001C165.037,188.355,165.872,188.647,166.306,188.474C171.5,186.36,176.576,188.217,179.645,192.064C184.463,198.109,182.089,205.952,175.714,209.453C169.126,213.069,161.505,208.466,159.721,202.847C158.898,200.252,158.75,197.785,159.792,195.257C160.164,194.368,159.969,193.638,159.235,192.927C156.936,190.701,154.734,188.381,152.418,186.175C151.537,185.34,151.233,184.448,151.237,183.276C151.274,176.922,151.233,170.573,151.274,164.22C151.282,163.039,150.937,162.169,150.075,161.33C144.92,156.285,139.817,151.19,134.698,146.11C133.37,144.797,132.084,143.436,130.709,142.176C130.375,141.865,129.654,141.649,129.278,141.805C128.949,141.937,128.721,142.649,128.697,143.118C128.632,144.709,128.671,146.305,128.671,147.902L128.579,147.902ZM124.807,135.38C127.328,135.362,129.126,133.491,129.118,130.9C129.114,128.234,127.43,126.581,124.723,126.581C122.035,126.585,120.245,128.386,120.272,131.047C120.302,133.426,122.367,135.397,124.807,135.38M44.858,315.614C44.849,318.135,46.798,320.099,49.346,320.126C51.796,320.151,53.733,318.209,53.758,315.705C53.784,313.161,51.839,311.187,49.3,311.192C46.915,311.196,44.871,313.23,44.858,315.614M174.984,199.164C175.245,196.518,172.803,194.691,170.703,194.683C168.356,194.674,166.141,196.472,166.222,198.978C166.306,201.597,168.052,203.609,170.518,203.652C173.013,203.697,174.971,201.729,174.984,199.164" fill="rgb(144,82,159)" stroke="none" stroke-width="1"/><path id="eUzAlSyPKCR32" d="M170.336,241.867C175.774,241.872,179.573,244.917,181.531,249.647C183.936,255.467,179.426,262.805,173.816,264.368C171.12,265.123,168.695,264.817,166.238,263.932C165.301,263.595,164.712,263.781,164.049,264.419C156.936,271.176,149.808,277.924,142.677,284.665C136.266,290.714,129.851,296.746,123.418,302.768C122.322,303.791,121.65,304.526,122.3,306.395C123.882,310.937,121.646,316.235,117.475,318.946C114.183,321.08,110.707,321.481,106.979,320.091C106.458,319.893,105.455,320.273,105,320.721C99.491,326.131,94.048,331.607,88.593,337.06C83.876,341.779,79.189,346.524,74.409,351.178C73.768,351.795,72.68,352.232,71.782,352.266C68.361,352.387,64.935,352.335,61.509,352.305C60.572,352.292,60.08,352.573,59.665,353.492C57.696,357.819,51.798,360.949,46.909,359.701C41.171,358.233,37.81,353.497,37.708,348.558C37.606,343.441,41.334,338.018,47.377,337.172C53.148,336.356,57.158,338.613,59.872,343.79C60.071,344.17,60.699,344.533,61.142,344.546C64.108,344.607,67.074,344.603,70.045,344.546C70.524,344.537,71.102,344.231,71.452,343.876C80.936,334.434,90.382,324.952,99.87,315.515C100.684,314.707,100.632,313.853,100.278,313.015C98.663,309.151,99.641,305.692,101.962,302.528C104.417,299.173,107.895,297.648,112.003,297.735C113.184,297.756,114.416,298.206,115.504,298.719C116.393,299.134,116.914,298.974,117.555,298.365C123.74,292.484,129.936,286.608,136.138,280.753C143.673,273.637,151.202,266.513,158.78,259.45C159.844,258.454,160.062,257.615,159.509,256.236C158.004,252.514,159.738,247.348,163.361,244.378C165.472,242.645,167.833,241.563,170.336,241.867M44.862,348.432C44.862,350.871,46.984,353.113,49.363,352.979C51.569,352.853,53.775,351.385,53.734,348.475C53.7,345.445,51.899,344.162,49.265,343.963C46.892,343.786,44.858,346.026,44.862,348.432M174.979,253.246C174.979,250.66,173.229,248.87,170.659,248.831C168.078,248.79,166.217,250.651,166.217,253.283C166.222,255.82,168.041,257.674,170.554,257.682C173.153,257.695,174.984,255.86,174.979,253.246M115.504,309.322C115.5,306.853,113.546,304.854,111.15,304.867C108.948,304.885,106.742,306.922,106.733,309.327C106.724,311.784,108.721,313.869,111.234,313.801C113.395,313.736,115.733,312.25,115.504,309.322" fill="rgb(144,82,159)" stroke="none" stroke-width="1"/><path id="eUzAlSyPKCR33" d="M289.275,177.177L289.275,195.267C289.275,198.503,289.313,201.744,289.254,204.975C289.236,206.113,289.573,206.944,290.384,207.749C295.087,212.395,299.762,217.073,304.386,221.798C304.887,222.312,305.262,223.195,305.275,223.911C305.344,229.574,305.332,235.238,305.297,240.901C305.289,241.896,305.573,242.397,306.54,242.852C311.471,245.168,314.515,251.133,312.615,256.804C311.026,261.547,305.741,265.42,300.608,264.815C296.549,264.332,292.707,261.802,290.884,257.264C288.41,251.096,292.114,244.84,297.149,242.612C297.555,242.43,297.982,241.75,297.986,241.299C298.047,236.364,298.051,231.431,297.986,226.496C297.982,225.948,297.593,225.289,297.188,224.879C292.413,220.033,287.568,215.253,282.836,210.372C282.18,209.696,281.696,208.567,281.666,207.635C281.576,204.997,281.83,202.352,281.822,199.712C281.77,185.144,281.71,170.581,281.576,156.013C281.555,154.153,282.034,152.959,283.674,151.854C287.715,149.129,291.567,146.118,295.5,143.235C303.289,137.514,311.095,131.802,318.893,126.082C320.253,125.086,321.582,124.049,322.964,123.079C323.664,122.589,323.793,122.033,323.668,121.206C322.9,115.971,324.601,111.789,329.121,108.901C334.95,105.179,342.014,107.866,345.018,113.132C348.774,119.708,345.282,127.285,338.749,129.677C335.606,130.83,332.376,130.547,329.415,128.796C328.638,128.337,328.089,128.332,327.33,128.889C315.059,137.913,302.771,146.915,290.458,155.876C289.564,156.526,289.257,157.212,289.261,158.264C289.292,164.567,289.275,170.875,289.275,177.177M339.432,118.749C339.428,116.252,337.355,114.146,334.946,114.196C332.558,114.239,330.572,116.318,330.581,118.749C330.59,121.216,332.507,123.281,334.946,123.242C337.399,123.207,339.553,121.397,339.432,118.749M297.305,253.047C297.18,255.524,298.855,257.539,301.135,257.673C303.863,257.831,305.893,256.182,306.031,253.693C306.191,250.891,304.516,248.896,301.856,248.849C299.391,248.808,297.228,250.396,297.305,253.047" fill="rgb(144,82,159)" stroke="none" stroke-width="1"/><path id="eUzAlSyPKCR34" d="M405.34,324.667C400.97,324.65,396.596,321.598,394.9,317.695C392.284,311.668,394.887,305.856,399.964,302.993C401.251,302.268,401.591,301.447,401.579,300.066C401.536,296.193,401.674,292.324,401.674,288.451C401.674,284.803,401.557,281.159,401.553,277.51C401.549,274.604,401.6,271.698,401.7,268.802C401.743,267.619,401.436,266.734,400.542,265.905C387.848,254.077,375.177,242.23,362.513,230.38C356.278,224.544,350.061,218.694,343.835,212.855C342.838,211.918,341.892,210.906,340.791,210.105C340.312,209.755,339.496,209.738,338.848,209.777C338.231,209.818,337.635,210.127,337.031,210.317C329.846,212.59,322.411,205.52,322.809,198.774C323.094,193.977,326.362,188.999,332.282,187.876C339.125,186.585,344.069,191.133,345.52,195.952C346.206,198.23,346.099,200.625,345.304,202.955C345.14,203.452,345.334,204.347,345.705,204.702C354.007,212.532,362.358,220.31,370.695,228.095C378.566,235.452,386.442,242.809,394.308,250.162C398.88,254.433,403.44,258.713,408.042,262.944C408.893,263.721,409.238,264.528,409.234,265.677C409.199,277.283,409.234,288.888,409.182,300.49C409.177,301.673,409.549,302.343,410.577,302.821C414.739,304.803,416.781,308.43,417.062,312.73C417.295,316.327,415.628,319.561,412.744,321.918C410.612,323.662,408.155,324.685,405.34,324.667M405.444,317.466C408.052,317.457,409.982,315.563,409.964,313.031C409.947,310.493,407.995,308.623,405.379,308.653C402.642,308.683,401.018,310.359,401.018,313.161C401.018,315.791,402.75,317.471,405.444,317.466M329.981,199.082C329.972,201.571,331.993,203.654,334.42,203.65C336.872,203.646,338.772,201.718,338.806,199.203C338.841,196.597,336.958,194.665,334.398,194.683C331.902,194.706,329.99,196.602,329.981,199.082" fill="rgb(144,82,159)" stroke="none" stroke-width="1"/><path id="eUzAlSyPKCR35" d="M405.85,357.339C397.945,357.318,392.172,350.306,394.439,342.547C394.931,340.859,394.577,340.09,393.549,339.071C386.797,332.357,380.078,325.604,373.317,318.89C372.488,318.066,372.087,317.223,372.1,316.015C372.156,309.897,372.1,303.779,372.148,297.656C372.156,296.512,371.802,295.696,370.995,294.889C361.12,285.062,351.246,275.23,341.458,265.313C340.175,264.009,338.897,263.746,337.421,264.362C333.259,266.09,327.629,263.43,325.301,260.226C323.799,258.166,322.685,255.872,322.806,253.299C323.03,248.448,325.305,244.683,329.813,242.768C336.013,240.132,341.777,242.638,344.708,248.063C346.245,250.919,346.392,254.086,345.183,257.184C344.777,258.233,345.213,258.883,345.913,259.58C356.426,270.065,366.892,280.6,377.453,291.027C379.18,292.737,380.004,294.465,379.922,296.912C379.763,301.937,379.879,306.964,379.87,311.989C379.866,312.533,379.684,313.086,379.758,313.613C379.849,314.295,379.909,315.154,380.341,315.594C386.623,321.966,392.953,328.3,399.325,334.591C399.709,334.971,400.59,335.14,401.138,335.006C403.634,334.388,406.034,333.917,408.629,334.781C412.527,336.076,415.058,338.636,416.396,342.41C418.516,348.411,414.829,354.87,408.685,356.938C407.667,357.282,406.527,357.252,405.85,357.339M334.424,257.678C336.993,257.682,338.78,255.903,338.806,253.322C338.832,250.697,336.954,248.781,334.398,248.825C331.834,248.874,329.985,250.705,329.981,253.211C329.968,255.768,331.868,257.678,334.424,257.678M405.418,341.381C402.91,341.381,401.048,343.229,401.014,345.759C400.975,348.28,402.836,350.219,405.327,350.258C407.866,350.297,409.912,348.332,409.921,345.862C409.93,343.38,407.922,341.386,405.418,341.381" fill="rgb(144,82,159)" stroke="none" stroke-width="1"/><path id="eUzAlSyPKCR36" d="M207.154,170.016C207.154,175.588,207.167,181.162,207.145,186.739C207.14,187.751,207.43,188.3,208.432,188.828C213.371,191.434,215.729,195.974,214.628,201.451C213.704,206.045,210.66,208.906,206.109,210.334C200.302,212.156,194.413,207.703,192.703,203.56C190.338,197.835,192.898,191.536,198.282,188.852C199.339,188.325,199.648,187.781,199.648,186.689C199.618,174.632,199.644,162.57,199.605,150.505C199.601,149.311,199.946,148.437,200.791,147.605C204.28,144.18,207.695,140.687,211.187,137.269C212.042,136.438,212.249,135.818,211.774,134.575C209.982,129.925,211.813,124.601,216.009,121.576C222.132,117.159,230.892,119.715,233.612,127.208C235.961,133.691,231.669,140.193,225.823,142.02C223.228,142.834,220.884,142.498,218.496,141.698C217.507,141.366,216.955,141.737,216.342,142.353C213.674,145.036,210.941,147.657,208.355,150.416C207.712,151.107,207.228,152.229,207.21,153.158C207.103,158.777,207.154,164.396,207.154,170.016M218.134,130.916C218.138,133.338,220.241,135.384,222.715,135.372C225.15,135.359,227.468,133.187,227.197,130.836C226.89,128.187,225.53,126.631,222.637,126.521C220.215,126.428,218.134,128.55,218.134,130.916M203.312,203.652C205.795,203.684,207.794,201.673,207.802,199.13C207.81,196.641,205.877,194.687,203.403,194.683C200.931,194.683,198.977,196.526,198.938,198.888C198.893,201.53,200.82,203.622,203.312,203.652" fill="rgb(144,82,159)" stroke="none" stroke-width="1"/><path id="eUzAlSyPKCR37" d="M272.631,166.216C272.631,173.113,272.635,180.011,272.622,186.906C272.622,187.836,272.941,188.378,273.852,188.778C278.45,190.794,281.218,196.659,280.367,200.763C279.43,205.268,276.836,208.353,272.596,210.078C267.38,212.2,261.69,209.166,259.25,205.382C255.477,199.519,257.652,191.778,264.026,188.663C264.569,188.397,265.14,187.507,265.144,186.905C265.174,177.042,265.11,167.174,265.075,157.31C265.062,152.514,265.011,147.712,265.127,142.92C265.148,142.022,265.702,141.005,266.297,140.275C267.298,139.046,268.581,138.047,269.635,136.853C269.989,136.452,270.295,135.634,270.127,135.204C268.793,131.867,268.96,128.626,270.654,125.5C273.236,120.733,278.529,118.298,283.771,119.796C287.898,120.977,290.528,123.796,291.944,128.041C293.455,132.605,290.575,138.511,286.944,140.582C284.151,142.173,281.254,143.322,277.881,142.067C274.958,140.979,272.653,142.924,272.678,146.067C272.739,152.783,272.696,159.499,272.696,166.215L272.631,166.215ZM273.373,199.203C273.386,196.656,271.456,194.702,268.913,194.685C266.4,194.672,264.517,196.554,264.517,199.084C264.517,201.625,266.378,203.611,268.791,203.65C271.227,203.691,273.36,201.625,273.373,199.203M285.216,130.987C285.229,128.387,283.467,126.611,280.864,126.59C278.209,126.562,276.374,128.287,276.339,130.829C276.305,133.403,278.231,135.378,280.765,135.382C283.205,135.382,285.208,133.403,285.216,130.987" fill="rgb(144,82,159)" stroke="none" stroke-width="1"/><path id="eUzAlSyPKCR38" d="M351.284,390.209C344.41,389.785,339.696,385.01,339.718,378.561C339.739,372.174,344.307,367.092,351.375,367.062C357.899,367.032,362.786,372.006,362.852,378.59C362.911,385.049,357.804,389.936,351.284,390.209M351.297,383.153C353.521,383.184,355.757,381.007,355.857,378.715C355.948,376.505,353.633,374.096,351.362,374.043C349.108,374,346.737,376.323,346.742,378.576C346.746,380.899,348.948,383.11,351.297,383.153" fill="rgb(144,82,159)" stroke="none" stroke-width="1"/><path id="eUzAlSyPKCR39" d="M49.277,294.341C42.695,294.596,37.704,288.806,37.717,282.96C37.73,276.708,42.747,271.307,49.578,271.38C55.365,271.445,60.883,276.35,60.891,282.917C60.896,289.691,54.773,294.854,49.277,294.341M49.357,278.564C46.779,278.564,44.873,280.382,44.86,282.847C44.847,285.412,46.775,287.311,49.361,287.295C51.96,287.274,53.752,285.485,53.756,282.904C53.765,280.339,51.96,278.56,49.357,278.564" fill="rgb(144,82,159)" stroke="none" stroke-width="1"/><path id="eUzAlSyPKCR40" d="M351.301,399.897C357.467,399.69,362.867,404.935,362.876,411.292C362.88,417.759,357.876,422.962,351.37,422.937C344.471,422.916,339.79,417.755,339.696,411.413C339.609,405.334,344.57,399.798,351.301,399.897M351.34,415.812C353.93,415.89,355.89,413.731,355.799,411.283C355.717,409.055,354.288,406.984,351.257,406.992C348.239,407,346.81,409.272,346.784,411.353C346.75,413.757,348.849,415.972,351.34,415.812" fill="rgb(144,82,159)" stroke="none" stroke-width="1"/><path id="eUzAlSyPKCR41" d="M417.507,398.377C417.395,399.353,417.244,400.316,417.188,401.293C417.132,402.233,417.175,403.175,417.145,404.115L417.145,398.39L417.507,398.377Z" fill="rgb(144,82,159)" stroke="none" stroke-width="1"/></g><g id="eUzAlSyPKCR42"><path id="eUzAlSyPKCR43" d="M744.176,464.247C744.309,463.561,744.446,462.876,744.635,461.899C744.974,462.321,745.202,462.529,745.334,462.786C748.038,468.045,752.288,471.799,757.207,474.864C764.689,479.532,772.841,482.612,781.411,484.48C787.52,485.812,793.697,487.048,799.911,487.664C809.522,488.612,819.186,488.658,828.849,487.997C836.524,487.474,844.064,486.154,851.502,484.284C859.655,482.226,867.56,479.445,874.755,474.967C879.403,472.069,883.538,468.613,886.271,463.738C886.691,462.985,887.056,462.202,887.612,461.109C887.72,461.711,887.799,461.939,887.799,462.169C887.803,468.015,887.816,473.863,887.784,479.707C887.775,481.605,887.63,481.686,885.74,481.717C871.019,481.961,859.544,488.338,851.14,500.279C849.377,502.78,848.203,505.696,846.682,508.376C846.394,508.879,845.786,509.411,845.246,509.516C834.066,511.733,822.759,512.636,811.38,512.193C805.172,511.952,798.952,511.436,792.789,510.638C786.078,509.768,779.467,508.22,773.045,506.038C766.087,503.68,759.385,500.733,753.563,496.14C750.04,493.359,746.932,490.152,745.368,485.828C744.813,484.304,744.737,482.604,744.438,480.987C744.362,480.577,744.264,480.17,744.176,479.759L744.176,464.247Z" fill="rgb(144,82,159)" stroke="none" stroke-width="1"/><path id="eUzAlSyPKCR44" d="M744.176,493.997C744.646,494.881,745.115,495.768,745.592,496.644C747.946,500.996,751.41,504.33,755.426,507.09C761.301,511.12,767.787,513.898,774.571,515.998C785.267,519.311,796.248,520.928,807.412,521.529C818.745,522.137,830.009,521.503,841.23,519.905C843.806,519.538,843.807,519.534,843.811,522.187C843.815,524.131,843.883,526.083,843.777,528.028C843.739,528.716,843.44,529.546,842.97,530.027C838.135,534.953,833.258,539.842,828.334,544.681C827.83,545.176,826.934,545.525,826.225,545.518C817.715,545.414,809.199,545.376,800.701,544.987C796.883,544.812,793.088,543.931,789.294,543.294C787.008,542.909,784.74,542.384,782.468,541.903C776.118,540.549,770,538.491,764.107,535.764C758.85,533.328,753.928,530.401,749.965,526.065C748.066,523.987,746.247,521.838,745.372,519.135C744.856,517.545,744.751,515.823,744.452,514.166C744.372,513.711,744.267,513.26,744.177,512.808L744.177,493.997Z" fill="rgb(144,82,159)" stroke="none" stroke-width="1"/><path id="eUzAlSyPKCR45" d="M914.529,526.033C914.298,526.972,913.993,527.901,913.848,528.855C912.798,535.681,909.496,541.251,904.289,545.691C897.131,551.793,888.704,553.544,879.762,551.563C869.73,549.335,862.647,543.145,859.298,533.311C854.52,519.268,860.814,504.621,874.175,498.235C877.554,496.623,881.143,495.858,884.954,495.722C891.108,495.507,896.689,496.979,901.756,500.427C907.336,504.22,911.235,509.3,913.149,515.813C913.696,517.67,914.074,519.574,914.529,521.457L914.529,526.033ZM895.967,504.163C890.663,504.155,886.291,508.546,886.281,513.895C886.27,519.349,890.677,523.788,896.106,523.793C901.331,523.797,905.951,519.239,905.854,513.909C905.763,508.922,901.924,504.312,895.967,504.163" fill="rgb(144,82,159)" stroke="none" stroke-width="1"/><path id="eUzAlSyPKCR46" d="M744.176,528.579C744.504,528.713,745.012,528.765,745.14,529.004C748.312,535.136,753.244,539.436,759.181,542.741C766.867,547.012,775.084,549.746,783.644,551.658C793.405,553.835,803.278,554.83,813.249,555.065C814.551,555.094,815.853,555.197,817.496,555.284C817.059,555.863,816.85,556.249,816.542,556.525C811.922,560.683,809.991,565.963,809.999,572.068C810.002,573.892,809.936,575.713,809.97,577.534C809.991,578.542,809.631,578.834,808.615,578.787C800.094,578.375,791.67,577.279,783.338,575.436C774.564,573.493,766.14,570.63,758.373,566.04C754.073,563.495,750.235,560.411,747.318,556.268C745.53,553.726,744.676,550.908,744.422,547.858C744.389,547.446,744.261,547.038,744.177,546.63L744.177,528.579Z" fill="rgb(144,82,159)" stroke="none" stroke-width="1"/><path id="eUzAlSyPKCR47" d="M813.874,478.966C809.308,478.657,802.517,478.51,795.809,477.672C784.937,476.314,774.309,473.784,764.271,469.214C757.679,466.214,751.724,462.369,747.388,456.361C744.471,452.319,743.785,447.809,745.042,443.199C745.695,440.803,747.227,438.507,748.814,436.53C752.964,431.348,758.625,428.159,764.536,425.388C770.193,422.737,776.128,420.867,782.182,419.432C786.289,418.457,790.491,417.881,794.65,417.152C801.479,415.952,808.376,415.624,815.286,415.781C821.505,415.919,827.74,416.078,833.926,416.666C838.792,417.128,843.611,418.177,848.423,419.112C854.424,420.277,860.2,422.21,865.813,424.613C871.363,426.994,876.644,429.846,881.083,434.035C883.966,436.755,886.244,439.89,887.198,443.807C888.108,447.542,887.571,451.121,885.744,454.502C883.058,459.471,878.896,462.956,874.181,465.838C867.206,470.1,859.612,472.883,851.682,474.635C845.034,476.099,838.325,477.409,831.575,478.259C826.467,478.903,821.257,478.71,813.874,478.966" fill="rgb(144,82,159)" stroke="none" stroke-width="1"/><path id="eUzAlSyPKCR48" d="M848.312,583.265C847.719,583.265,847.121,583.317,846.535,583.257C844.961,583.086,843.647,583.521,842.52,584.678C841.355,585.871,839.803,586.203,838.207,586.193C835.498,586.174,832.737,586.367,830.093,585.927C826.579,585.344,824.648,584.452,824.193,580.276C823.893,577.516,823.833,574.724,823.796,571.943C823.768,569.867,824.658,568.195,826.17,566.685C832.71,560.166,839.151,553.555,845.644,546.991C847.878,544.731,850.151,542.512,852.416,540.282C853.41,539.305,853.501,539.334,854.224,540.565C854.867,541.661,855.484,542.775,856.214,543.813C856.737,544.551,856.649,545.069,856.035,545.684C853.789,547.93,851.571,550.206,849.354,552.478C843.85,558.118,838.355,563.758,832.858,569.401C832.505,569.765,832.171,570.151,831.858,570.551C830.736,571.982,830.851,573.606,832.144,574.865C833.412,576.093,834.965,576.179,836.35,574.993C837.762,573.779,839.136,572.517,840.467,571.213C847.088,564.718,853.69,558.201,860.3,551.694C861.607,550.41,861.738,550.398,863.135,551.548C866.407,554.238,870.059,556.237,874.037,557.673C874.998,558.018,876.202,558.236,876.058,559.703C875.953,560.792,874.926,561.688,873.499,561.761C871.427,561.866,869.35,561.87,867.273,561.856C866.173,561.848,865.636,562.235,865.623,563.4C865.603,565.47,865.506,567.543,865.425,569.619C865.357,571.363,864.322,572.466,862.58,572.557C860.508,572.662,858.431,572.737,856.356,572.737C855.152,572.739,854.706,573.246,854.713,574.425C854.724,576.5,854.705,578.575,854.567,580.643C854.449,582.402,853.76,583.047,851.993,583.178C850.771,583.269,849.539,583.196,848.311,583.196L848.311,583.265Z" fill="rgb(144,82,159)" stroke="none" stroke-width="1"/></g></g></svg>